<?xml version="1.0" encoding="UTF-8" standalone="no"?>
<!DOCTYPE svg  PUBLIC '-//W3C//DTD SVG 1.1//EN'  'http://www.w3.org/Graphics/SVG/1.1/DTD/svg11.dtd'>
<svg xmlns="http://www.w3.org/2000/svg">
<defs>
<font id="Ahellya-Regular" horiz-adv-x="1367">
<font-face underline-position="-167" font-weight="400" descent="-410" panose-1="2 0 0 0 0 0 0 0 0 0" units-per-em="2048" unicode-range="U+000D-2122" bbox="0 -511 2403 2110" x-height="1000" underline-thickness="100" font-family="Ahellya" ascent="1638" cap-height="1600"/>
<missing-glyph horiz-adv-x="2048"/>
<glyph glyph-name=".notdef" horiz-adv-x="2048"/>
<glyph glyph-name="glyph1" horiz-adv-x="0"/>
<glyph glyph-name="uni000D" horiz-adv-x="2048" unicode=""/>
<glyph glyph-name="space" horiz-adv-x="610" unicode=" "/>
<glyph glyph-name="exclam" horiz-adv-x="418" unicode="!" d="M98 1215q0 260 17 328.5t83 68.5t83 -68.5t17 -328.5q0 -125 -23 -456t-47 -394l-60 -20q-24 63 -47 404t-23 466zM70 108q0 51 36.5 87.5t87.5 36.5t87.5 -36.5t36.5 -87.5t-36.5 -87.5t-87.5 -36.5t-87.5 36.5t-36.5 87.5z"/>
<glyph glyph-name="quotedbl" horiz-adv-x="656" unicode='&quot;' d="M355 1706q0 51 33.5 87.5t79.5 36.5t79.5 -36.5t33.5 -87.5q0 -68 -84 -348h-58q-84 280 -84 348zM65 1706q0 51 33.5 87.5t79.5 36.5t79.5 -36.5t33.5 -87.5q0 -68 -84 -348h-58q-84 280 -84 348z"/>
<glyph glyph-name="numbersign" horiz-adv-x="1360" unicode="#" d="M402 640h440l86 430h-440zM50 540v100h227l86 430h-313v100h332l113 570h125l-113 -570h440l113 570h125l-113 -570h238v-100h-257l-86 -430h343v-100h-362l-113 -570h-125l113 570h-440l-113 -570h-125l113 570h-208z"/>
<glyph glyph-name="dollar" horiz-adv-x="1130" unicode="$" d="M50 134l70 324h100v-247q41 -55 138 -105t251 -50q137 0 232 66t95 246q0 122 -57.5 193.5t-296.5 160.5t-347 197t-108 266q0 193 123 303t286 125l-26 277h180l-26 -276q139 -8 264 -56.5t177 -91.5l-70 -324h-100v247q-114 155 -359 155q-104 0 -197.5 -67.5 t-93.5 -232.5q0 -106 63 -180t309.5 -163t346 -198t99.5 -278q0 -220 -130.5 -321.5t-308.5 -116.5l26 -277h-180l26 275q-319 11 -486 149z"/>
<glyph glyph-name="percent" horiz-adv-x="1529" unicode="%" d="M944 340q0 -119 49 -212t148 -93t148 93t49 212t-49 212t-148 93t-148 -93t-49 -212zM803 340q0 150 92.5 260t245.5 110t245.5 -110t92.5 -260t-92.5 -260t-245.5 -110t-245.5 110t-92.5 260zM191 1370q0 -119 49 -212t148 -93t148 93t49 212t-49 212t-148 93t-148 -93 t-49 -212zM143 -30l1110 1770h125l-1110 -1770h-125zM50 1370q0 150 92.5 260t245.5 110t245.5 -110t92.5 -260t-92.5 -260t-245.5 -110t-245.5 110t-92.5 260z"/>
<glyph glyph-name="ampersand" horiz-adv-x="1612" unicode="&amp;" d="M550 1262q0 -114 41 -251q357 234 357 354q0 184 -190 184q-208 0 -208 -287zM250 429q0 -211 98.5 -294.5t245.5 -83.5q161 0 298 117q-82 84 -200 273.5t-207 412.5q-235 -166 -235 -425zM60 419q0 279 397 514q-50 187 -50 329q0 354 351 354q348 0 348 -211 q0 -198 -423 -425l-68 -41q64 -186 176.5 -368.5t204.5 -283.5q113 172 207 532q4 20 4 37q0 49 -32 67q-42 24 -156 24v50h588v-50q-124 0 -174 -25t-80 -103q-170 -399 -302 -586q116 -114 221 -114q143 0 238 115h48q-138 -250 -326 -250q-135 0 -283 129 q-144 -129 -366 -129q-240 0 -381.5 105.5t-141.5 329.5z"/>
<glyph glyph-name="quotesingle" horiz-adv-x="366" unicode="&apos;" d="M65 1706q0 51 33.5 87.5t79.5 36.5t79.5 -36.5t33.5 -87.5q0 -68 -84 -348h-58q-84 280 -84 348z"/>
<glyph glyph-name="parenleft" horiz-adv-x="525" unicode="(" d="M65 692q0 400 113.5 680t311.5 460l20 -63q-190 -269 -235 -557.5t-45 -519.5t45 -519.5t235 -557.5l-20 -63q-405 356 -425 1140z"/>
<glyph glyph-name="parenright" horiz-adv-x="535" unicode=")" d="M15 -385q190 269 235 557.5t45 519.5t-45 519.5t-235 557.5l20 63q405 -356 425 -1140q0 -400 -113.5 -680t-311.5 -460z"/>
<glyph glyph-name="asterisk" horiz-adv-x="1011" unicode="*" d="M516 1192q207 -95 261 -159q42 -51 48 -95q1 -6 1 -12q0 -37 -33 -64q-27 -23 -56 -23q-13 0 -25 5q-43 13 -86 64q-54 64 -110 284zM515 1203q164 151 243 180q44 15 79 15q14 0 28 -2q43 -10 63 -53q8 -19 8 -35q0 -24 -16 -44q-28 -36 -90 -59q-41 -15 -124 -15 q-77 0 -191 13zM401 1509q0 66 24 103.5t81 37.5t81 -37.5t24 -103.5q0 -85 -105 -297q-105 212 -105 297zM185 926q0 6 1 12q6 44 49 95q54 64 261 159q-56 -220 -110 -284q-43 -51 -85 -64q-13 -5 -26 -5q-29 0 -56 23q-34 27 -34 64zM75 1307q0 17 9 36q19 43 63 53 q13 2 27 2q35 0 78 -15q80 -29 243 -180q-113 -13 -190 -13q-83 0 -124 15q-63 23 -90 59q-16 20 -16 43z"/>
<glyph glyph-name="plus" horiz-adv-x="1150" unicode="+" d="M65 702v136h438v454h144v-454h438v-136h-438v-454h-144v454h-438z"/>
<glyph glyph-name="comma" horiz-adv-x="398" unicode="," d="M75 108q0 51 36.5 87.5t87.5 36.5t87.5 -36.5t36.5 -87.5q-10 -233 -186 -358l-40 40q90 85 126 196q-12 -2 -24 -2q-51 0 -87.5 36.5t-36.5 87.5z"/>
<glyph glyph-name="hyphen" horiz-adv-x="994" unicode="-" d="M65 535v143h864v-143h-864z"/>
<glyph glyph-name="period" horiz-adv-x="398" unicode="." d="M75 108q0 51 36.5 87.5t87.5 36.5t87.5 -36.5t36.5 -87.5t-36.5 -87.5t-87.5 -36.5t-87.5 36.5t-36.5 87.5z"/>
<glyph glyph-name="slash" horiz-adv-x="805" unicode="/" d="M20 -30l640 1770h125l-640 -1770h-125z"/>
<glyph glyph-name="zero" horiz-adv-x="1242" unicode="0" d="M209 808q0 -325 102 -538.5t310 -213.5t310 213.5t102 538.5t-102 538.5t-310 213.5t-310 -213.5t-102 -538.5zM50 808q0 352 150 588t421 236t421 -236t150 -588t-150 -588t-421 -236t-421 236t-150 588z"/>
<glyph glyph-name="one" horiz-adv-x="682" unicode="1" d="M70 1253v64q127 44 206.5 141t101.5 158h74v-1438q0 -78 38 -103t132 -25v-50h-489v50q94 0 137 25t43 103v1180q-21 -44 -76.5 -69.5t-166.5 -35.5z"/>
<glyph glyph-name="two" horiz-adv-x="995" unicode="2" d="M65 1167q0 204 93 334.5t331 130.5q207 0 317.5 -105.5t110.5 -355.5q-19 -351 -224 -645t-440 -446q499 3 561.5 48t65.5 132h50v-260h-840v72q223 105 437.5 394.5t229.5 696.5q0 214 -62 305.5t-206 91.5q-276 0 -276 -340q0 -114 23 -252h-154q-17 108 -17 199z"/>
<glyph glyph-name="three" horiz-adv-x="998" unicode="3" d="M70 350q0 18 1 38h154q-2 -28 -2 -54q0 -129 46.5 -203.5t189.5 -74.5q146 0 230.5 107.5t94.5 374.5q-10 353 -127 427q-53 29 -135 29q-87 0 -233 -53l-48 70l413 525q-289 0 -386 -14.5t-117 -57.5t-20 -108h-50v260h700v-72l-428 -530q103 43 192 43q127 0 225 -67 q163 -129 173 -452q-10 -288 -148.5 -421t-335.5 -133q-214 0 -301.5 97.5t-87.5 268.5z"/>
<glyph glyph-name="four" horiz-adv-x="1200" unicode="4" d="M65 480v72q174 85 262 306.5t112 624.5q2 43 2 117l150 32q0 -108 -1 -149q-11 -364 -109.5 -590t-247.5 -313l591 98v596h141v-570l167 28v-72l-167 -28v-454q0 -78 38 -103t132 -25v-50h-481v50q94 0 132 25t38 103v428z"/>
<glyph glyph-name="five" horiz-adv-x="1039" unicode="5" d="M70 356q0 16 1 32h154q-1 -25 -1 -48q0 -136 55 -210t211 -74q146 0 235.5 132t89.5 425q-10 397 -354 397q-131 0 -292 -104v710h740v-260h-50q0 65 -19.5 107t-143.5 57.5t-420 15.5v-515q84 53 199 53q131 0 246 -53q243 -113 253 -408q0 -313 -143.5 -471 t-340.5 -158q-198 0 -309 95.5t-111 276.5z"/>
<glyph glyph-name="six" horiz-adv-x="1139" unicode="6" d="M220 587q0 -225 78 -378t274 -153q173 0 258 105.5t85 380.5q0 213 -58.5 345.5t-215.5 132.5q-194 0 -298 -88t-108 -124q-15 -119 -15 -221zM65 698q0 384 219.5 654t496.5 280v-72q-193 -10 -334.5 -176t-199.5 -442q161 150 395 150q230 0 331 -138t101 -376 q0 -269 -142 -431.5t-360 -162.5q-257 0 -380.5 175.5t-126.5 538.5z"/>
<glyph glyph-name="seven" horiz-adv-x="1020" unicode="7" d="M65 1356v260h920v-72q-131 -46 -254.5 -282.5t-191.5 -573.5l263 44v-72l-278 -46q-60 -313 -60 -594l-171 -36q0 303 68 602l-236 -39v72l254 42q75 296 202 528t243 347q-369 0 -519.5 -16t-170 -57.5t-19.5 -106.5h-50z"/>
<glyph glyph-name="eight" horiz-adv-x="1109" unicode="8" d="M272 1297q0 -157 69.5 -227t213.5 -70q143 0 212.5 70t69.5 227q0 118 -74 195.5t-208 77.5q-135 0 -209 -77.5t-74 -195.5zM201 481q0 -223 90 -324t264 -101q173 0 263 101t90 324q0 208 -75 327.5t-278 119.5q-204 0 -279 -119.5t-75 -327.5zM50 499q0 365 335 475 q-252 67 -252 324q0 157 119 245.5t303 88.5q183 0 302 -88.5t119 -245.5q0 -257 -252 -324q335 -110 335 -475q0 -227 -124 -371t-380 -144q-257 0 -381 144t-124 371z"/>
<glyph glyph-name="nine" horiz-adv-x="1133" unicode="9" d="M220 1128q0 -424 341 -424q174 0 276 104q70 67 75 108q0 380 -94 508q-100 136 -269 136q-143 0 -236 -128.5t-93 -303.5zM60 1099q0 267 149 400t362 133q267 0 389 -181q113 -167 113 -503q0 -475 -188 -709.5t-501 -254.5v72q265 20 392 222.5t147 508.5 q-92 -82 -173.5 -118.5t-206.5 -36.5q-250 0 -366.5 133t-116.5 334z"/>
<glyph glyph-name="colon" horiz-adv-x="510" unicode=":" d="M120 876q0 51 36.5 87.5t87.5 36.5t87.5 -36.5t36.5 -87.5t-36.5 -87.5t-87.5 -36.5t-87.5 36.5t-36.5 87.5zM120 108q0 51 36.5 87.5t87.5 36.5t87.5 -36.5t36.5 -87.5t-36.5 -87.5t-87.5 -36.5t-87.5 36.5t-36.5 87.5z"/>
<glyph glyph-name="semicolon" horiz-adv-x="500" unicode=";" d="M120 876q0 51 36.5 87.5t87.5 36.5t87.5 -36.5t36.5 -87.5t-36.5 -87.5t-87.5 -36.5t-87.5 36.5t-36.5 87.5zM120 108q0 51 36.5 87.5t87.5 36.5t87.5 -36.5t36.5 -87.5q-10 -233 -186 -358l-40 40q90 85 126 196q-12 -2 -24 -2q-51 0 -87.5 36.5t-36.5 87.5z"/>
<glyph glyph-name="less" horiz-adv-x="1240" unicode="&lt;" d="M75 728v60l1100 540v-140l-940 -430l940 -430v-140z"/>
<glyph glyph-name="equal" horiz-adv-x="1036" unicode="=" d="M65 826v124h906v-124h-906zM65 526v124h906v-124h-906z"/>
<glyph glyph-name="greater" horiz-adv-x="1240" unicode="&gt;" d="M75 188v140l940 430l-940 430v140l1100 -540v-60z"/>
<glyph glyph-name="question" horiz-adv-x="988" unicode="?" d="M333 108q0 51 36.5 87.5t87.5 36.5t87.5 -36.5t36.5 -87.5t-36.5 -87.5t-87.5 -36.5t-87.5 36.5t-36.5 87.5zM75 1188q0 184 99.5 304t312.5 120q196 0 311 -87t115 -286q0 -281 -152.5 -402t-260.5 -177l20 -285l-153 -30v338q106 39 241 151.5t135 407.5 q0 145 -64.5 221.5t-201.5 76.5q-235 0 -245 -284q0 -63 15 -151l-164 -40q-8 65 -8 123z"/>
<glyph glyph-name="at" horiz-adv-x="2320" unicode="@" d="M827 404q0 -145 64 -228q66 -86 160 -86q20 0 41 4q213 40 317 388q24 81 39 161l30 219q-18 40 -58 79q-86 56 -193 56q-16 0 -33 -1q-135 -18 -233.5 -155t-129.5 -361q-4 -40 -4 -76zM80 605q0 456 329.5 775.5t795.5 319.5t730.5 -274.5t264.5 -650.5 q0 -375 -258 -601q-185 -150 -338 -150q-104 0 -160 70q-33 41 -33 114q0 49 15 113q-151 -267 -344 -293q-39 -5 -76 -5q-154 0 -260 92q-111 97 -111 276q0 32 3 66q33 238 197 418.5t375 180.5q146 0 291 -65l27 49h105l-87 -766q1 -92 17.5 -131t88.5 -39q92 0 234 110 q219 206 219 561q0 335 -243 585t-657 250t-702 -295t-288 -710q0 -425 278 -705t702 -280q504 0 990 509l65 -40q-499 -559 -1055 -559q-476 0 -795.5 304.5t-319.5 770.5z"/>
<glyph glyph-name="A" horiz-adv-x="1655" unicode="A" d="M549 761h500l-249 735h-3zM30 0v50q104 0 142 25t68 103l446 1294q4 12 5 22v3q0 53 -135 53v50h366l488 -1422q30 -78 68 -103t142 -25v-50h-522v50q84 0 133 20q32 16 32 42q0 25 -15 66l-171 500h-556l-173 -500q-17 -43 -19 -70q2 -23 15 -33q29 -25 154 -25v-50 h-468z"/>
<glyph glyph-name="B" horiz-adv-x="1283" unicode="B" d="M403 849q110 -8 250 -8q191 0 274 87t83 254q0 160 -93 250t-304 90q-91 0 -210 -14v-659zM403 88q129 -14 222 -14q245 0 330 90t85 250q0 167 -92.5 253.5t-292.5 86.5q-142 -1 -252 -13v-653zM65 0v50q104 0 144 25t40 103v1244q0 78 -40 103t-144 25v50q440 4 603 4 q260 -4 392.5 -99t132.5 -293q0 -158 -55 -249.5t-173 -147.5q-34 -9 -93 -14q63 -3 108 -15q137 -55 190 -142.5t53 -229.5q0 -228 -127.5 -323t-417.5 -95q-301 0 -613 4z"/>
<glyph glyph-name="C" d="M50 764q0 70 6 138q46 294 243.5 504t497.5 210q206 0 337 -53.5t183 -96.5l-70 -324h-100v247q-55 75 -146.5 115t-222.5 40q-209 0 -358 -151t-167 -532q0 -87 3.5 -162t45.5 -226t176 -284t338 -133q282 16 425 189l60 -50q-187 -211 -504 -211q-300 0 -497.5 174.5 t-243.5 467.5q-6 70 -6 138z" unicode="C"/>
<glyph glyph-name="D" horiz-adv-x="1557" unicode="D" d="M399 88q161 -10 380 -10t363 130t172 511q0 87 -3.5 162t-45.5 226t-176 283t-348 132q-157 0 -342 -14v-1420zM65 0v50q104 0 142 25t38 103v1244q0 78 -38 103t-142 25v50q378 4 695 4q310 0 533.5 -178.5t223.5 -609.5q0 -432 -223.5 -626t-533.5 -194q-266 0 -695 4z "/>
<glyph glyph-name="E" horiz-adv-x="1268" unicode="E" d="M55 0v50q114 0 159 25t45 103v1244q0 78 -45 103t-159 25v50h1138v-314h-80l-60 234l-640 -20v-648h420l48 170h50v-424h-50l-48 170h-420v-668l650 -20l60 234h80v-314h-1148z"/>
<glyph glyph-name="F" horiz-adv-x="1213" unicode="F" d="M55 1550v50h1108v-314h-80l-60 234l-610 -20v-658h380l48 170h50v-424h-50l-48 170h-380v-580q0 -78 38 -103t142 -25v-50h-514v50q104 0 142 25t38 103v1244q0 78 -45 103t-159 25z"/>
<glyph glyph-name="G" horiz-adv-x="1539" unicode="G" d="M50 764q0 70 6 138q46 294 243.5 504t497.5 210q226 0 352 -48.5t198 -101.5l-70 -324h-100v247q-65 85 -161.5 120t-237.5 35q-209 0 -358 -151t-167 -532q0 -87 3.5 -162t45.5 -226t176 -284t338 -133q249 5 369 79v487q0 78 -58 103t-152 25v50h544v-50 q-94 0 -137 -25t-43 -103v-487h2q-217 -151 -544 -151q-300 0 -497.5 174.5t-243.5 467.5q-6 70 -6 138z"/>
<glyph glyph-name="H" horiz-adv-x="1638" unicode="H" d="M65 0v50q104 0 142 25t38 103v1244q0 78 -38 103t-142 25v50h514v-50q-104 0 -142 -25t-38 -103v-581h830v581q0 78 -38 103t-142 25v50h514v-50q-104 0 -142 -25t-38 -103v-1244q0 -78 38 -103t142 -25v-50h-514v50q104 0 142 25t38 103v580h-830v-580q0 -78 38 -103 t142 -25v-50h-514z"/>
<glyph glyph-name="I" horiz-adv-x="688" unicode="I" d="M65 0v50q114 0 159 25t45 103v1244q0 78 -45 103t-159 25v50h558v-50q-114 0 -159 -25t-45 -103v-1244q0 -78 45 -103t159 -25v-50h-558z"/>
<glyph glyph-name="J" horiz-adv-x="624" unicode="J" d="M50 1550v50h554v-50q-104 0 -147 -25t-43 -103v-1393q0 -161 -65 -237.5t-205 -91.5l-14 47q130 50 130 263v1412q0 78 -48 103t-162 25z"/>
<glyph glyph-name="K" horiz-adv-x="1515" unicode="K" d="M65 0v50q104 0 144 25t40 103v1244q0 78 -40 103t-144 25v50h532v-50q-114 0 -154 -25t-40 -103v-585q313 0 399 60q115 84 169.5 385.5t181.5 322.5q22 3 47 3q78 0 125 -18v-304h-90q-36 147 -44 182t-27 35q-21 0 -30 -23.5t-85.5 -316t-263.5 -356.5l-20 -4l20 -2 q173 -8 236.5 -87t164 -335.5t150.5 -295.5t139 -39v-44l-166 -13q-122 0 -181.5 71.5t-149 315t-160 316.5t-415.5 73v-585q0 -78 40 -103t154 -25v-50h-532z"/>
<glyph glyph-name="L" horiz-adv-x="1243" unicode="L" d="M65 0v50q114 0 159 25t45 103v1244q0 78 -38 103t-142 25v50h514v-50q-104 0 -142 -25t-38 -103v-1322l630 -20l60 234h80v-314h-1128z"/>
<glyph glyph-name="M" horiz-adv-x="1994" unicode="M" d="M65 0v50q104 0 144 25t40 103v1244q0 78 -40 103t-144 25v50h426l536 -1340l510 1340h392v-50q-104 0 -144 -25t-40 -103v-1244q0 -78 40 -103t144 -25v-50h-522v50q104 0 144 25t40 103v1298l-11 -39l-542 -1437h-98l-579 1431l-10 45v-1298q0 -78 40 -103t144 -25v-50 h-470z"/>
<glyph glyph-name="N" horiz-adv-x="1621" unicode="N" d="M65 0v50q104 0 144 25t40 103v1244q0 78 -40 103t-144 25v50h314l922 -1225l14 -85v1132q0 78 -40 103t-144 25v50h470v-50q-104 0 -144 -25t-40 -103v-1426h-54l-998 1331l-14 85v-1234q0 -78 40 -103t144 -25v-50h-470z"/>
<glyph glyph-name="O" horiz-adv-x="1569" unicode="O" d="M234 799q0 -41 2 -85q10 -195 114 -382q153 -276 435 -276q315 0 455 284q95 191 95 461q0 41 -2 85q-10 195 -114 382q-157 276 -434 276q-316 0 -456 -284q-95 -191 -95 -461zM30 784q0 379 249 632q198 200 506 200q307 0 505 -185q249 -233 249 -615 q0 -379 -249 -632q-198 -200 -505 -200q-308 0 -506 185q-249 233 -249 615z"/>
<glyph glyph-name="P" horiz-adv-x="1235" unicode="P" d="M399 851q90 -90 334 -90q271 0 280 347q1 32 1 52q-10 185 -99.5 271t-267.5 97q-23 2 -74 2q-61 0 -174 -14v-665zM65 0v50q104 0 142 25t38 103v1244q0 70 -38 99t-142 29v50q227 4 621 4q438 0 508 -330q6 -52 6 -95q0 -42 -6 -85q-25 -198 -151.5 -302t-316.5 -104 q-130 0 -327 32v-522q0 -98 53 -123t147 -25v-50h-534z"/>
<glyph glyph-name="Q" horiz-adv-x="1601" unicode="Q" d="M438 261q0 -29 22 -56q137 -149 341 -149q64 0 118 11q-62 108 -125 172q-125 125 -240 125q-68 0 -101 -54q-15 -25 -15 -49zM254 799q0 -41 2 -85q10 -195 114 -382q21 -38 45 -71q-3 18 -3 34q0 79 68 120q48 28 108 28q35 0 73 -9q140 -34 269 -162q65 -66 134 -161 q115 66 193 224q90 181 90 466q0 41 -2 85q-10 195 -114 382q-153 276 -430 276q-312 0 -452 -284q-95 -191 -95 -461zM50 784q0 379 249 632q198 200 502 200q303 0 501 -185q249 -233 249 -615q0 -379 -249 -632q-87 -88 -195 -138q159 -231 237 -278q50 -31 108 -31 q81 0 125 43l24 -20q-93 -139 -262 -140q-144 0 -221.5 98t-163.5 280q-73 -14 -153 -14q-304 0 -502 185q-249 233 -249 615z"/>
<glyph glyph-name="R" horiz-adv-x="1423" unicode="R" d="M403 849q134 -8 250 -8q213 0 294 92t81 259q0 150 -78 240t-287 90q-91 0 -260 -14v-659zM65 -4v50q104 0 144 25t40 103v1244q0 78 -40 103t-144 25v50q312 8 653 8q220 -4 351.5 -94t141.5 -318q0 -162 -56 -241.5t-133 -111.5t-208 -54q107 -21 167 -85.5t146.5 -321 t136.5 -295.5t139 -39v-44l-166 -13q-120 0 -179.5 71.5t-135 315t-145.5 313.5t-374 76v-589q0 -78 45 -103t149 -25v-50h-532z"/>
<glyph glyph-name="S" horiz-adv-x="1165" unicode="S" d="M60 134l70 324h100v-247q41 -55 138 -105t251 -50q137 0 232 66t95 246q0 122 -57.5 193.5t-296.5 160.5t-347 197t-108 266q0 193 133 312t335 119q181 0 319.5 -53.5t190.5 -96.5l-70 -324h-100v247q-114 155 -359 155q-104 0 -197.5 -67.5t-93.5 -232.5 q0 -106 63 -180t309.5 -163t346 -198t99.5 -278q0 -220 -148 -335q-135 -106 -365 -106q-359 0 -540 150z"/>
<glyph glyph-name="T" horiz-adv-x="1304" unicode="T" d="M50 1286v314h1204v-314h-90l-60 239h-375v-1347q10 -78 55 -103t159 -25v-50h-582v50q114 0 159 25t55 103v1347h-375l-60 -239h-90z"/>
<glyph glyph-name="U" horiz-adv-x="1605" unicode="U" d="M50 1550v50h522v-50q-104 0 -142 -25t-38 -103v-902q0 -462 434 -462q468 0 468 490v874q0 78 -40 103t-144 25v50h470v-50q-104 0 -144 -25t-40 -103v-874q0 -564 -570 -564q-596 0 -596 502v936q0 78 -38 103t-142 25z"/>
<glyph glyph-name="V" horiz-adv-x="1690" unicode="V" d="M30 1550v50h542v-50q-84 0 -123.5 -18t-39.5 -44q0 -25 17 -66l495 -1194l-15 -74h1l441 1268q11 43 13 70q-2 23 -15 33q-29 25 -154 25v50h468v-50q-104 0 -142 -25t-62 -103l-512 -1422h-96l-604 1422q-34 78 -72 103t-142 25z"/>
<glyph glyph-name="W" horiz-adv-x="2428" unicode="W" d="M30 1550v50h542v-50q-84 0 -133 -20q-32 -16 -32 -41q0 -26 19 -67l454 -1182l-14 -86h1l312 1068l-76 200q-34 78 -72 103t-142 25v50h542v-50q-84 0 -124.5 -18t-40.5 -44q0 -25 19 -66l434 -1182l-14 -86h1l385 1268q11 43 13 70q-2 23 -15 33q-29 25 -154 25v50h468 v-50q-104 0 -142 -25t-62 -103l-456 -1422h-96l-414 1082l-329 -1082h-96l-564 1422q-34 78 -72 103t-142 25z"/>
<glyph glyph-name="X" horiz-adv-x="1714" unicode="X" d="M35 1550v50h582v-50q-90 0 -130 -8q-28 -8 -28 -25t24 -49l396 -572l362 572q21 33 21 52q0 15 -24 22q-31 8 -111 8v50h498v-50q-100 0 -164.5 -25t-124.5 -103l-398 -592l450 -651q74 -87 132 -108t159 -21v-50h-586v50q80 0 125 9q27 7 27 32q0 19 -14 41l-404 588 l-377 -565q-39 -51 -39 -68q1 -28 52 -33q70 -4 120 -4v-50h-518v50q101 0 163.5 25t111.5 103l428 618l-438 626q-69 78 -131.5 103t-163.5 25z"/>
<glyph glyph-name="Y" horiz-adv-x="1635" unicode="Y" d="M45 1550v50h582v-50q-90 0 -130 -8q-28 -8 -28 -25t24 -49l401 -608l347 608q11 23 13 41v6q-3 20 -27 27q-31 8 -111 8v50h499v-50q-100 0 -164.5 -25t-118.5 -103l-384 -645v-599q0 -78 38 -103t142 -25v-50h-514v50q104 0 142 25t38 103v559l-454 685 q-69 78 -131.5 103t-163.5 25z"/>
<glyph glyph-name="Z" horiz-adv-x="1328" unicode="Z" d="M50 0v64l1006 1454l-780 10l-60 -272h-90v344h1144v-54l-1016 -1464l874 -10l60 272h90v-344h-1228z"/>
<glyph glyph-name="bracketleft" horiz-adv-x="550" unicode="[" d="M100 -380v2140h400v-60l-270 -13v-1993l270 -14v-60h-400z"/>
<glyph glyph-name="backslash" horiz-adv-x="805" unicode="\" d="M20 1740h125l640 -1770h-125z"/>
<glyph glyph-name="bracketright" horiz-adv-x="550" unicode="]" d="M50 -320l270 14v1993l-270 13v60h400v-2140h-400v60z"/>
<glyph glyph-name="asciicircum" horiz-adv-x="1170" unicode="^" d="M65 732l500 900h40l500 -900h-120l-400 740l-400 -740h-120z"/>
<glyph glyph-name="underscore" horiz-adv-x="1046" unicode="_" d="M0 -64h1046v-100h-1046v100z"/>
<glyph glyph-name="grave" horiz-adv-x="470" unicode="`" d="M65 2110h220l120 -400h-70z"/>
<glyph glyph-name="a" horiz-adv-x="930" unicode="a" d="M215 243q5 -91 42 -127t107 -36q64 0 114.5 32t123.5 109v296q-33 -26 -210 -77q-177 -52 -177 -197zM55 223q0 202 254 274q253 72 292 112v93q0 133 -51.5 193.5t-149.5 60.5q-73 0 -104 -45t-31 -111q0 -38 -26 -64t-64 -26q-37 0 -58.5 26t-21.5 64q0 27 18 59 q97 157 305 157q208 -5 281 -137q53 -93 53 -241v-399q0 -131 34 -163t99 -32v-44h-138q-44 0 -89 22q-56 30 -56 135q-44 -74 -116 -123.5t-177 -49.5q-248 0 -254 239z"/>
<glyph glyph-name="b" horiz-adv-x="1183" unicode="b" d="M310 425q0 -47 20 -132t99.5 -165.5t204.5 -80.5q115 0 197 84q104 105 104 334q0 45 -4 94q-16 200 -127 314q-80 80 -204 80q-108 0 -189 -90t-101 -215v-223zM20 1550v50l290 20v-796q108 192 358 192q158 0 282 -93q168 -128 168 -386q0 -319 -187 -459 q-125 -94 -304 -94q-176 0 -327 128q-84 -108 -156 -128l-14 37q40 44 40 223v1178q0 81 -25 104.5t-125 23.5z"/>
<glyph glyph-name="c" horiz-adv-x="944" unicode="c" d="M50 470q0 208 117 362q139 184 387 184q100 0 191 -43t131 -99q18 -24 18 -54q0 -38 -26.5 -64t-63.5 -26t-63.5 26t-26.5 64q0 58 -51 97t-125 39q-117 0 -195 -91q-103 -119 -103 -364q0 -26 1 -53q8 -205 122 -319q78 -85 207 -85q148 0 264 106l40 -40 q-125 -126 -320 -126q-182 0 -311 81q-193 123 -193 405z"/>
<glyph glyph-name="d" horiz-adv-x="1168" unicode="d" d="M245 537q0 -45 4 -96q15 -200 111 -297t220 -97q118 0 194 90t96 215v223q0 47 -20 132t-99.5 165.5t-204.5 80.5q-116 0 -208.5 -94t-92.5 -322zM60 488q0 283 179 422q135 106 314 106q196 0 317 -148v554q0 81 -25 104.5t-125 23.5v50l290 20v-1381q0 -137 26.5 -166 t96.5 -29v-44h-128q-77 0 -106 24.5t-29 151.5q-108 -192 -358 -192q-160 0 -275 82q-162 117 -176 374q-1 24 -1 48z"/>
<glyph glyph-name="e" horiz-adv-x="979" unicode="e" d="M265 712h463q0 89 -35 153q-50 92 -159 92q-101 0 -167 -64q-65 -63 -102 -181zM55 465q0 261 187 435q125 116 307 116q206 0 304 -149q66 -100 66 -219h-667q-13 -58 -13 -128q0 -92 22 -188q29 -124 107 -206t207 -82q166 0 284 106l40 -40q-135 -126 -340 -126 q-262 0 -394 154q-110 128 -110 327z"/>
<glyph glyph-name="f" horiz-adv-x="832" unicode="f" d="M45 0v50q104 0 137 25t33 103v734h-168v58q168 10 168 53v1q0 258 39 392q79 204 267 204q100 0 171.5 -53t95.5 -113t24 -90q0 -38 -26.5 -64t-63.5 -26t-63.5 26t-26.5 64q0 102 -31.5 149t-95.5 47q-75 0 -118 -121q-32 -89 -32 -365v-74h338v-88h-338v-734 q0 -78 43 -103t167 -25v-50h-520z"/>
<glyph glyph-name="g" horiz-adv-x="1092" unicode="g" d="M213 650q0 -22 2 -46q9 -101 64 -179q68 -97 191 -97q128 0 187 113q42 79 42 188v11q-1 22 -2 45q-9 91 -65 169q-68 98 -187 98h-2q-130 -2 -188 -113q-42 -80 -42 -179v-10zM158 -241q0 -84 82.5 -141t256.5 -57q137 0 228.5 35t91.5 105q0 54 -65 113 q-41 34 -121.5 78t-123.5 65q-142 -9 -245.5 -57.5t-103.5 -140.5zM0 -244q0 201 437 246q-110 62 -110 134q0 31 14 60t58 68q-131 7 -214 57q-153 90 -153 317q0 147 107.5 262.5t328.5 115.5q142 0 247 -55q93 87 232 87q62 0 93.5 -26t31.5 -55q0 -26 -16 -46.5 t-41 -20.5q-15 0 -29 6t-32 27q-27 31 -86 31q-65 0 -111 -30q123 -92 123 -282q0 -158 -104 -269q-102 -110 -272 -119q-41 -30 -41 -49q0 -20 18.5 -34t128.5 -67q208 -98 291.5 -163t83.5 -195q0 -138 -152 -202t-348 -64q-240 0 -362.5 78.5t-122.5 187.5z"/>
<glyph glyph-name="h" horiz-adv-x="1208" unicode="h" d="M65 0v50q90 0 115 23.5t25 104.5v1244q0 81 -25 104.5t-115 23.5v50l280 20v-833q47 97 135.5 163t222.5 66q144 0 232 -98t88 -303v-370q0 -83 8 -114t31 -59t106 -28v-44l-132 -8q-96 0 -133 47.5t-37 205.5v350q0 161 -44.5 254.5t-186.5 93.5q-116 0 -188 -85 t-102 -210v-470q0 -81 25 -104.5t125 -23.5v-50h-430z"/>
<glyph glyph-name="i" horiz-adv-x="610" unicode="i" d="M156 1444q0 51 36.5 87.5t87.5 36.5t87.5 -36.5t36.5 -87.5t-36.5 -87.5t-87.5 -36.5t-87.5 36.5t-36.5 87.5zM40 0v50q114 0 152 25t38 103v624q0 81 -38 104.5t-152 23.5v50l330 20v-822q0 -78 38 -103t152 -25v-50h-520z"/>
<glyph glyph-name="j" horiz-adv-x="439" unicode="j" d="M111 1444q0 51 36.5 87.5t87.5 36.5t87.5 -36.5t36.5 -87.5t-36.5 -87.5t-87.5 -36.5t-87.5 36.5t-36.5 87.5zM20 930v50l330 20v-1221q0 -122 -55 -200.5t-191 -78.5l-14 37q120 30 120 223v1042q0 81 -35 104.5t-155 23.5z"/>
<glyph glyph-name="k" horiz-adv-x="1063" unicode="k" d="M65 0v40q74 0 107 25t33 113v1244q0 81 -25 104.5t-115 23.5v50l280 20v-1058q153 10 215.5 42.5t101 222t187.5 189.5q6 0 16 -1q62 -11 62 -73q0 -29 -20.5 -49.5t-49.5 -20.5q-24 0 -43 15t-25 38q-26 -66 -52.5 -196.5t-179.5 -186.5l-19 -5l19 -1q110 -9 160 -57.5 t110.5 -204.5t103.5 -193t112 -37v-44l-142 -13q-72 0 -111.5 36.5t-118 227t-120.5 224t-206 33.5v-330q0 -88 33 -113t107 -25v-40h-420z"/>
<glyph glyph-name="l" horiz-adv-x="605" unicode="l" d="M65 0v50q104 0 137 25t33 103v1244q0 81 -33 104.5t-137 23.5v50l310 20v-1442q0 -78 43 -103t167 -25v-50h-520z"/>
<glyph glyph-name="m" horiz-adv-x="1842" unicode="m" d="M65 0v50q90 0 115 23.5t25 104.5v624q0 81 -25 104.5t-115 23.5v50l280 20v-213q37 97 120.5 163t217.5 66q144 0 210.5 -76t78.5 -174q72 120 154 185t216 65q144 0 227 -98t83 -303v-370q0 -83 8 -119t31 -59t106 -23v-44l-132 -8q-96 0 -133 27.5t-37 185.5v390 q0 151 -39.5 249.5t-171.5 98.5q-106 -10 -175 -91.5t-110 -168.5v-505q0 -81 23 -104.5t133 -23.5v-50h-440v50q90 0 113.5 23.5t23.5 104.5v417q0 161 -47.5 254.5t-179.5 93.5q-116 0 -188 -85t-92 -210v-470q0 -81 25 -104.5t125 -23.5v-50h-430z"/>
<glyph glyph-name="n" horiz-adv-x="1213" unicode="n" d="M65 0v50q90 0 115 23.5t25 104.5v624q0 81 -25 104.5t-115 23.5v50l280 20v-213q37 97 130.5 163t227.5 66q144 0 232 -98t88 -303v-370q0 -83 8 -119t31 -59t106 -23v-44l-132 -8q-96 0 -133 27.5t-37 185.5v390q0 161 -44.5 254.5t-186.5 93.5q-116 0 -193 -85 t-97 -210v-470q0 -81 25 -104.5t125 -23.5v-50h-430z"/>
<glyph glyph-name="o" horiz-adv-x="1111" unicode="o" d="M234 513q0 -32 2 -66q10 -145 83 -259q90 -144 239 -144q161 0 243 158q61 119 61 285q0 32 -2 66q-10 145 -83 259q-90 144 -239 144q-161 0 -243 -158q-61 -119 -61 -285zM45 490q0 205 136 360q146 166 367 166q176 0 302 -80q201 -126 201 -426q0 -205 -136 -360 q-146 -166 -367 -166q-176 0 -302 80q-201 126 -201 426z"/>
<glyph glyph-name="p" horiz-adv-x="1183" unicode="p" d="M310 425q4 -47 11 -93q29 -124 108.5 -204.5t204.5 -80.5q115 0 180.5 66.5t92.5 160t27 203.5q0 40 -3 82q-16 200 -111.5 297t-219.5 97q-118 0 -194 -90t-96 -215v-223zM30 -450q90 0 115 23.5t25 104.5v1124q0 81 -25 104.5t-115 23.5v50l280 20v-176 q108 192 358 192q158 0 282 -93q168 -128 168 -386q0 -319 -187 -459q-125 -94 -304 -94q-176 0 -317 128v-434q0 -81 25 -104.5t135 -23.5v-50h-440v50z"/>
<glyph glyph-name="q" horiz-adv-x="1158" unicode="q" d="M234 523q0 -40 3 -82q16 -200 111.5 -297t219.5 -97q118 0 194 90t96 215v217q-5 69 -11 99q-23 118 -105.5 201.5t-207.5 83.5q-115 0 -180.5 -66.5t-92.5 -160t-27 -203.5zM50 463q0 319 187 459q125 94 304 94q176 0 337 -128q104 128 186 128l14 -37 q-80 -24 -80 -223v-1078q0 -81 25 -104.5t115 -23.5v-50h-440v50q110 0 135 23.5t25 104.5v498q-108 -192 -358 -192q-158 0 -282 93q-168 128 -168 386z"/>
<glyph glyph-name="r" horiz-adv-x="871" unicode="r" d="M65 0v50q90 0 115 23.5t25 104.5v624q0 81 -25 104.5t-115 23.5v50l280 20v-293q37 157 130.5 233t207.5 76q112 0 122 -77q1 -12 1 -23q0 -53 -22 -87t-75 -34q-50 0 -89.5 51t-83.5 51q-53 0 -117 -107t-74 -232v-380q0 -81 25 -104.5t125 -23.5v-50h-430z"/>
<glyph glyph-name="s" horiz-adv-x="798" unicode="s" d="M60 180q0 38 26.5 64t63.5 26t63.5 -26t26.5 -64q0 -48 43 -90.5t116 -45.5h17q89 0 142.5 34.5t53.5 139.5q0 61 -36.5 109t-192.5 101.5t-229.5 125t-73.5 183.5q0 128 86 206q93 73 230 73q108 0 196 -57q58 -37 84 -73t26 -66q0 -38 -26.5 -64t-63.5 -26t-63.5 26 t-26.5 64q0 53 -35 94.5t-107 41.5t-124.5 -36t-52.5 -137q0 -56 36.5 -100t199.5 -97t231 -128t68 -195q0 -139 -94 -212q-96 -67 -261 -67q-152 0 -237.5 61t-85.5 135z"/>
<glyph glyph-name="t" horiz-adv-x="658" unicode="t" d="M30 912v58q80 10 126 38q98 73 98 287h86v-295h288v-88h-288v-665q0 -83 3 -118.5t21 -54t45 -18.5q46 0 99 38l29 -39q-84 -71 -174 -71q-94 0 -129.5 47.5t-35.5 205.5v675h-168z"/>
<glyph glyph-name="u" horiz-adv-x="1176" unicode="u" d="M25 930v50l307 20v-515q0 -233 44.5 -330.5t186.5 -97.5q116 0 198 89t102 214v442q0 81 -25 105q-25 23 -135 23v50l305 20v-761q0 -127 26.5 -161t96.5 -34v-44l-128 -8q-82 0 -111 53.5t-29 130.5v45q-37 -97 -135.5 -167t-232.5 -70q-144 0 -232 102t-88 399v317 q0 81 -25 105q-25 23 -125 23z"/>
<glyph glyph-name="v" horiz-adv-x="1290" unicode="v" d="M25 950v50h482v-50q-64 0 -98.5 -18t-34.5 -44q0 -25 17 -66l295 -651l-15 -57h1l290 708q13 34 13 70q-2 23 -15 33q-39 25 -124 25v50h429v-50q-84 0 -122.5 -25t-81.5 -103l-362 -822h-76l-394 822q-44 78 -82 103t-122 25z"/>
<glyph glyph-name="w" horiz-adv-x="1890" unicode="w" d="M25 950v50h482v-50q-64 0 -98.5 -18t-34.5 -44q0 -25 17 -66l285 -651l-15 -57h1l237 643l-30 65q-44 78 -82 103t-122 25v50h482v-50q-64 0 -98.5 -18t-34.5 -44q0 -25 17 -66l285 -651l-15 -57h1l260 708q13 34 13 70q-2 23 -15 33q-39 25 -124 25v50h429v-50 q-84 0 -122.5 -25t-81.5 -103l-332 -822h-76l-305 653l-259 -653h-76l-384 822q-44 78 -82 103t-122 25z"/>
<glyph glyph-name="x" horiz-adv-x="1268" unicode="x" d="M40 950v50h500v-50q-80 0 -110 -8q-14 -8 -14 -23q0 -19 24 -51l196 -278l187 278q24 32 24 51q0 15 -13 23q-31 8 -101 8v50h431v-50q-90 0 -152.5 -25t-122.5 -103l-208 -288l272 -356q59 -78 121.5 -103t153.5 -25v-50h-500v50q70 0 101 9q13 7 13 22q0 19 -24 51 l-224 312l-234 -339q-7 -10 -7 -18q0 -23 52 -33q70 -4 120 -4v-50h-475v50q91 0 153.5 25t121.5 103l224 322l-234 322q-59 78 -121.5 103t-153.5 25z"/>
<glyph glyph-name="y" horiz-adv-x="1247" unicode="y" d="M30 950v50h480v-50q-107 0 -119 -10t-12 -25q0 -26 19 -72l285 -647l-4 -72q286 721 286 794q-9 32 -152 32v50h404v-50q-96 0 -118.5 -21.5t-251 -618t-310.5 -709t-183 -112.5q-69 0 -100 31.5t-31 72.5q0 52 26.5 78.5t64.5 26.5q37 0 63.5 -21.5t26.5 -58.5l-1 -6 q58 16 212 376l-368 834q-40 82 -93.5 105t-123.5 23z"/>
<glyph glyph-name="z" horiz-adv-x="994" unicode="z" d="M50 0v54l706 890h-515l-60 -208h-76v264h839v-44l-726 -900h584l60 208h76v-264h-888z"/>
<glyph glyph-name="braceleft" horiz-adv-x="795" unicode="{" d="M50 677v30q291 18 291 403q0 38 -2 80q-3 30 -3 59q0 415 419 583l20 -63q-281 -112 -281 -554q0 -30 1 -61q1 -22 1 -42q0 -353 -259 -420q259 -67 259 -419q0 -20 -1 -42q-1 -31 -1 -61q0 -443 281 -555l-20 -63q-419 168 -419 583q0 29 3 60q2 41 2 79q0 385 -291 403 z"/>
<glyph glyph-name="bar" horiz-adv-x="275" unicode="|" d="M75 -468v2300h110v-2300h-110z"/>
<glyph glyph-name="braceright" horiz-adv-x="795" unicode="}" d="M20 -385q281 112 281 555q0 30 -1 61q-1 22 -1 42q0 352 259 419q-259 67 -259 420q0 20 1 42q1 31 1 61q0 442 -281 554l20 63q419 -168 419 -583q0 -29 -2 -59q-3 -42 -3 -80q0 -385 291 -403v-30q-291 -18 -291 -403q0 -38 3 -79q2 -31 2 -60q0 -415 -419 -583z"/>
<glyph glyph-name="asciitilde" horiz-adv-x="1216" unicode="~" d="M50 436q35 303 282 303q108 0 256 -57q193 -75 319 -75q193 0 229 175h30q-35 -303 -282 -303q-108 0 -256 58q-193 74 -319 74q-193 0 -229 -175h-30z"/>
<glyph glyph-name="uni00A0" horiz-adv-x="610" unicode=" "/>
<glyph glyph-name="cent" horiz-adv-x="1070" unicode="¢" d="M100 470q0 208 117 362q131 173 357 183l106 366h100l-107 -370q63 -10 122 -38q91 -43 131 -99q18 -24 18 -54q0 -38 -26.5 -64t-63.5 -26t-63.5 26t-26.5 64q0 58 -51 97q-26 20 -59 30l-237 -822q77 -81 203 -81q148 0 264 106l40 -40q-125 -126 -320 -126 q-121 0 -218 36l-118 -409h-100l130 451q-3 2 -5 3q-193 123 -193 405zM345 222l212 732q-96 -11 -164 -89q-103 -119 -103 -364q0 -26 1 -53q5 -132 54 -226z"/>
<glyph glyph-name="sterling" horiz-adv-x="1090" unicode="£" d="M50 762v98h212q-90 178 -90 337q0 208 114.5 313.5t261.5 105.5q138 0 211 -57t99 -128t26 -121q0 -48 -26.5 -74t-63.5 -26t-63.5 26t-26.5 64q0 113 -35 184.5t-137 71.5q-92 0 -164.5 -71t-72.5 -252q0 -156 167 -373h364v-98h-308q30 -71 30 -145q0 -90 -45 -184 q-43 -92 -146 -188l-9 -8q58 28 120 28q76 0 159 -42q116 -59 201 -59q114 0 172 109h40q-33 -289 -196 -289q-82 0 -197 74q-147 94 -252 94q-140 0 -205 -168l-33 60q207 331 207 544q0 100 -46 174h-268z"/>
<glyph glyph-name="yen" horiz-adv-x="1440" unicode="¥" d="M191 598v100h490v39l-386 685q-59 78 -112 103t-139 25v50h495v-50q-77 0 -111 -8q-23 -8 -23 -25t20 -49l341 -608l295 608q9 23 11 41v6q-3 20 -23 27q-26 8 -94 8v50h424v-50q-85 0 -140 -25t-101 -103l-326 -645v-79h425v-100h-425v-96h425v-100h-425v-224 q0 -78 32 -103t121 -25v-50h-437v50q88 0 120.5 25t32.5 103v224h-490v100h490v96h-490z"/>
<glyph glyph-name="dieresis" horiz-adv-x="823" unicode="¨" d="M528 1868q0 46 32.5 78t77.5 32q46 0 78 -32t32 -78t-32 -78t-78 -32q-45 0 -77.5 32t-32.5 78zM75 1868q0 46 32.5 78t77.5 32t77.5 -32t32.5 -78t-32.5 -78t-77.5 -32t-77.5 32t-32.5 78z"/>
<glyph glyph-name="copyright" horiz-adv-x="1820" unicode="©" d="M441 777q0 44 4 87q29 186 154 319t314 133q130 0 213 -34t116 -61l-45 -205h-63v156q-35 48 -92.5 73t-140.5 25q-132 0 -226 -95.5t-106 -335.5q0 -55 2.5 -102.5t29 -143t111 -179.5t213.5 -84q178 10 269 119l38 -31q-119 -134 -319 -134q-189 0 -314 110.5 t-154 295.5q-4 44 -4 87zM162 800q0 -314 219 -536.5t529 -222.5t529 222.5t219 536.5t-219 536.5t-529 222.5t-529 -222.5t-219 -536.5zM60 800q0 352 249 601t601 249t601 -249t249 -601t-249 -601t-601 -249t-601 249t-249 601z"/>
<glyph glyph-name="guillemotleft" horiz-adv-x="689" unicode="«" d="M322 634l295 444l70 -70l-185 -374l185 -374l-70 -70zM65 634l295 444l70 -70l-185 -374l185 -374l-70 -70z"/>
<glyph glyph-name="uni00AD" horiz-adv-x="994" unicode="­" d="M65 535v143h864v-143h-864z"/>
<glyph glyph-name="registered" horiz-adv-x="1820" unicode="®" d="M730 826q77 -5 144 -5q122 0 168.5 53t46.5 149q0 86 -45 137.5t-164 51.5q-53 0 -150 -8v-378zM537 336v29q59 0 82 14.5t23 59.5v714q0 45 -23 59t-82 14v29q179 5 374 5q126 -3 201.5 -54.5t81.5 -182.5q0 -93 -32 -138.5t-76.5 -64t-119.5 -31.5q62 -12 96 -49 t84 -184t78.5 -169.5t79.5 -22.5v-25l-95 -8q-69 0 -103 41t-77.5 181t-83.5 180t-215 44v-338q0 -45 26 -59.5t86 -14.5v-29h-305zM162 800q0 -314 219 -536.5t529 -222.5t529 222.5t219 536.5t-219 536.5t-529 222.5t-529 -222.5t-219 -536.5zM60 800q0 352 249 601 t601 249t601 -249t249 -601t-249 -601t-601 -249t-601 249t-249 601z"/>
<glyph glyph-name="acute" horiz-adv-x="470" unicode="´" d="M65 1710l120 400h220l-270 -400h-70z"/>
<glyph glyph-name="cedilla" horiz-adv-x="426" unicode="¸" d="M60 -471q171 45 171 135q0 99 -143 113l84 223h100l-49 -122q143 -39 143 -161q0 -188 -306 -188z"/>
<glyph glyph-name="guillemotright" horiz-adv-x="689" unicode="»" d="M322 260l185 374l-185 374l70 70l295 -444l-295 -444zM65 260l185 374l-185 374l70 70l295 -444l-295 -444z"/>
<glyph glyph-name="circumflex" horiz-adv-x="830" unicode="ˆ" d="M75 1710l320 400h40l320 -400h-150l-190 250l-190 -250h-150z"/>
<glyph glyph-name="tilde" horiz-adv-x="866" unicode="˜" d="M75 1766q33 240 169 240q71 0 169 -64q137 -90 222 -90q94 0 126 110h30q-33 -231 -166 -231q-72 0 -172 66q-133 87 -218 87q-98 0 -130 -118h-30z"/>
<glyph glyph-name="afii10023" horiz-adv-x="1277" unicode="Ё" d="M813 1858q0 50 35.5 85t84.5 35q50 0 85 -35t35 -85t-35 -85t-85 -35q-49 0 -84.5 35t-35.5 85zM300 1858q0 50 35.5 85t84.5 35t84.5 -35t35.5 -85t-35.5 -85t-84.5 -35t-84.5 35t-35.5 85zM65 0v50q114 0 159 25t45 103v1244q0 78 -45 103t-159 25v50h1137v-314h-80 l-60 234l-639 -20v-648h419l48 170h50v-424h-50l-48 170h-419v-668l649 -20l60 234h80v-314h-1147z"/>
<glyph glyph-name="afii10053" d="M50 764q0 70 6 138q46 294 243.5 504t497.5 210q206 0 337 -53.5t183 -96.5l-70 -324h-100v247q-55 75 -146.5 115t-222.5 40q-209 0 -358 -151t-167 -542q68 -15 145 -15q106 0 205.5 23t162.5 23q80 0 148 -27q121 -46 151 -142h-69q-41 64 -121 64q-29 0 -177 -28.5 t-212 -28.5q-118 0 -231 57q0 -123 44.5 -289t178.5 -299t338 -133q282 16 425 189l60 -50q-187 -211 -504 -211q-300 0 -497.5 174.5t-243.5 467.5q-6 70 -6 138z" unicode="Є"/>
<glyph glyph-name="afii10055" horiz-adv-x="688" unicode="І" d="M224 1870q0 50 35 85t85 35t85 -35t35 -85t-35 -85t-85 -35t-85 35t-35 85zM65 0v50q114 0 159 25t45 103v1244q0 78 -45 103t-159 25v50h558v-50q-114 0 -159 -25t-45 -103v-1244q0 -78 45 -103t159 -25v-50h-558z"/>
<glyph glyph-name="afii10056" horiz-adv-x="660" unicode="Ї" d="M402 1870q0 50 28.5 85t69.5 35q40 0 68.5 -35t28.5 -85t-28.5 -85t-68.5 -35q-41 0 -69.5 35t-28.5 85zM99 1870q0 50 28.5 85t68.5 35q41 0 69.5 -35t28.5 -85t-28.5 -85t-69.5 -35q-40 0 -68.5 35t-28.5 85zM69 0v50q114 0 159 25t45 103v1244q0 78 -45 103t-159 25 v50h558v-50q-114 0 -159 -25t-45 -103v-1244q0 -78 45 -103t159 -25v-50h-558z"/>
<glyph glyph-name="afii10017" horiz-adv-x="1655" unicode="А" d="M549 761h500l-249 735h-3zM30 0v50q104 0 142 25t68 103l446 1294q4 12 5 22v3q0 53 -135 53v50h366l488 -1422q30 -78 68 -103t142 -25v-50h-522v50q84 0 133 20q32 16 32 42q0 25 -15 66l-171 500h-556l-173 -500q-17 -43 -19 -70q2 -23 15 -33q29 -25 154 -25v-50 h-468z"/>
<glyph glyph-name="afii10018" horiz-adv-x="1271" unicode="Б" d="M403 88q163 -14 268 -14q225 0 301 95t76 260q0 212 -79 309t-268 97q-140 0 -298 -24v-723zM65 0v50q104 0 144 25t40 103v1244q0 78 -40 103t-144 25v50h1067v-314h-100l-60 234l-569 -10v-615q202 36 345 36q223 0 353 -102.5t130 -379.5q0 -253 -136.5 -353 t-376.5 -100q-341 0 -653 4z"/>
<glyph glyph-name="afii10019" horiz-adv-x="1303" unicode="В" d="M403 849q120 -8 260 -8q201 0 284 87t83 254q0 160 -93 250t-314 90q-91 0 -220 -14v-659zM403 88q139 -14 232 -14q255 0 340 90t85 250q0 167 -92.5 253.5t-302.5 86.5q-142 -1 -262 -13v-653zM65 0v50q104 0 144 25t40 103v1244q0 78 -40 103t-144 25v50q450 4 613 4 q270 -4 402.5 -99t132.5 -293q0 -158 -55 -249.5t-173 -147.5q-34 -9 -93 -14q63 -3 108 -15q137 -55 190 -142.5t53 -229.5q0 -228 -127.5 -323t-427.5 -95q-311 0 -623 4z"/>
<glyph glyph-name="afii10020" horiz-adv-x="1202" unicode="Г" d="M65 0v50q114 0 159 25t45 103v1244q0 78 -45 103t-159 25v50h1087v-314h-100l-60 234l-569 -20v-1322q10 -78 60 -103t184 -25v-50h-602z"/>
<glyph glyph-name="afii10021" horiz-adv-x="1560" unicode="Д" d="M373 84h781v1432h-606q-10 -813 -61 -1074.5t-114 -357.5zM30 84h187q18 20 37 47q78 110 123.5 358t55.5 902q0 109 -60 134t-153 25v50h1260v-50q-94 0 -134 -25t-40 -103v-1338h189l-50 -434h-134v350h-1097v-350h-134z"/>
<glyph glyph-name="afii10022" horiz-adv-x="1278" unicode="Е" d="M65 0v50q114 0 159 25t45 103v1244q0 78 -45 103t-159 25v50h1138v-314h-80l-60 234l-640 -20v-648h420l48 170h50v-424h-50l-48 170h-420v-668l650 -20l60 234h80v-314h-1148z"/>
<glyph glyph-name="afii10024" horiz-adv-x="2257" unicode="Ж" d="M35 0v44q89 0 141 39t147.5 295.5t159 335.5t232.5 87l20 2l-20 4q-187 64 -258.5 356.5t-80.5 316t-30 23.5q-19 0 -27 -35t-44 -182h-90v304q47 18 125 18q25 0 47 -3q127 -21 176.5 -322.5t164.5 -385.5q82 -57 353 -60v585q0 78 -43 103t-137 25v50h514v-50 q-94 0 -137 -25t-43 -103v-585q272 3 354 60q115 84 164.5 385.5t176.5 322.5q22 3 47 3q78 0 125 -18v-304h-90q-36 147 -44 182t-27 35q-21 0 -30 -23.5t-80.5 -316t-258.5 -356.5l-20 -4l20 -2q169 -8 234.5 -87t159 -335.5t145.5 -295.5t141 -39v-44l-162 -13 q-122 0 -181.5 71.5t-144 315t-153.5 315t-376 74.5v-585q0 -78 43 -103t137 -25v-50h-514v50q94 0 137 25t43 103v585q-306 -3 -375 -74.5t-153.5 -315t-144 -315t-181.5 -71.5z"/>
<glyph glyph-name="afii10025" horiz-adv-x="1103" unicode="З" d="M60 180l51 247h100v-263q38 -30 92 -60t215 -40q161 0 254 83.5t93 259.5q0 202 -121.5 280t-283.5 82q-59 0 -104.5 -7t-72.5 -7q-32 0 -46.5 13t-14.5 49t14.5 49t45.5 13t75.5 -7t102.5 -7q155 4 280 102.5t125 281.5q0 146 -86 220.5t-241 74.5q-93 0 -176.5 -36.5 t-128.5 -124.5v-247h-100l-70 300q80 82 202.5 131t283.5 49q489 0 489 -381q0 -177 -110 -285t-248 -128l-33 -2l33 -3q146 -2 250 -85t108 -301q0 -225 -132.5 -336t-376.5 -111q-155 0 -265 49.5t-204 146.5z"/>
<glyph glyph-name="afii10026" horiz-adv-x="1652" unicode="И" d="M65 0v50q104 0 144 25t40 103v1244q0 78 -40 103t-144 25v50h522v-50q-104 0 -144 -25t-40 -103v-1098l836 1098q0 78 -40 103t-144 25v50h522v-50q-104 0 -144 -25t-40 -103v-1244q0 -78 40 -103t144 -25v-50h-522v50q104 0 144 25t40 103v1098l-836 -1098 q0 -78 40 -103t144 -25v-50h-522z"/>
<glyph glyph-name="afii10027" horiz-adv-x="1658" unicode="Й" d="M430 1908q0 45 32 77.5t78 32.5q45 0 78 -32.5t33 -77.5q0 -32 -16.5 -58.5t-43.5 -40.5q47 -46 100 -64.5t132 -19.5q80 1 133 19.5t100 64.5q-27 14 -43.5 40.5t-16.5 58.5q0 45 33 77.5t78 32.5t78 -32.5t33 -77.5q0 -115 -112.5 -177.5t-282.5 -62.5q-169 0 -281 62 t-112 178zM65 0v40q104 0 144 25t40 113v1244q0 88 -40 113t-144 25v40h522v-40q-104 0 -144 -25t-40 -113v-1098l842 1098q0 88 -40 113t-144 25v40h522v-40q-104 0 -144 -25t-40 -113v-1244q0 -88 40 -113t144 -25v-40h-522v40q104 0 144 25t40 113v1098l-842 -1098 q0 -88 40 -113t144 -25v-40h-522z"/>
<glyph glyph-name="afii10028" horiz-adv-x="1505" unicode="К" d="M65 0v50q104 0 144 25t40 103v1244q0 78 -40 103t-144 25v50h532v-50q-114 0 -154 -25t-40 -103v-585q303 0 389 60q115 84 169.5 385.5t181.5 322.5q22 3 47 3q78 0 125 -18v-304h-90q-36 147 -44 182t-27 35q-21 0 -30 -23.5t-85.5 -316t-263.5 -356.5l-20 -4l20 -2 q173 -8 236.5 -87t164 -335.5t150.5 -295.5t139 -39v-44l-162 -13q-122 0 -181.5 71.5t-149 315t-160 316.5t-409.5 73v-585q0 -78 40 -103t154 -25v-50h-532z"/>
<glyph glyph-name="afii10029" horiz-adv-x="1520" unicode="Л" d="M23 20v274h96q26 -137 39 -167t41 -30q46 0 85.5 58t92.5 320t59 916q0 102 -60 130.5t-153 28.5v50h1222v-50q-104 0 -144 -25t-40 -103v-1244q0 -78 40 -103t144 -25v-50h-532v50q104 0 149 25t45 103v1338h-556q-6 -813 -71 -1153t-279 -376q-22 -3 -47 -3 q-94 8 -131 36z"/>
<glyph glyph-name="afii10030" horiz-adv-x="2004" unicode="М" d="M65 0v50q104 0 144 25t40 103v1244q0 78 -40 103t-144 25v50h426l536 -1340l510 1340h392v-50q-104 0 -144 -25t-40 -103v-1244q0 -78 40 -103t144 -25v-50h-522v50q104 0 144 25t40 103v1298l-11 -39l-542 -1437h-98l-579 1431l-10 45v-1298q0 -78 40 -103t144 -25v-50 h-470z"/>
<glyph glyph-name="afii10031" horiz-adv-x="1648" unicode="Н" d="M65 0v50q104 0 142 25t38 103v1244q0 78 -38 103t-142 25v50h514v-50q-104 0 -142 -25t-38 -103v-581h840v581q0 78 -38 103t-142 25v50h514v-50q-104 0 -142 -25t-38 -103v-1244q0 -78 38 -103t142 -25v-50h-514v50q104 0 142 25t38 103v580h-840v-580q0 -78 38 -103 t142 -25v-50h-514z"/>
<glyph glyph-name="afii10032" horiz-adv-x="1551" unicode="О" d="M229 799q0 -41 2 -85q10 -195 114 -382q153 -276 431 -276q311 0 451 284q95 191 95 461q0 41 -2 85q-10 195 -114 382q-153 276 -430 276q-312 0 -452 -284q-95 -191 -95 -461zM25 784q0 379 249 632q198 200 502 200q303 0 501 -185q249 -233 249 -615 q0 -379 -249 -632q-198 -200 -501 -200q-304 0 -502 185q-249 233 -249 615z"/>
<glyph glyph-name="afii10033" horiz-adv-x="1632" unicode="П" d="M65 0v50q104 0 144 25t40 103v1244q0 78 -40 103t-144 25v50h1492v-50q-104 0 -144 -25t-40 -103v-1244q0 -78 40 -103t144 -25v-50h-522v50q104 0 144 25t40 103v1329h-816v-1329q0 -78 40 -103t144 -25v-50h-522z"/>
<glyph glyph-name="afii10034" horiz-adv-x="1230" unicode="Р" d="M399 851q90 -90 334 -90q266 13 275 347q1 32 1 52q-10 185 -99.5 271t-262.5 97q-23 2 -74 2q-61 0 -174 -14v-665zM65 0v50q104 0 142 25t38 103v1244q0 70 -38 99t-142 29v50q227 4 621 4q433 0 503 -330q6 -52 6 -95q0 -42 -6 -85q-25 -198 -151.5 -298.5 t-311.5 -107.5q-130 0 -327 32v-522q0 -98 53 -123t157 -25v-50h-544z"/>
<glyph glyph-name="afii10035" d="M50 764q0 70 6 138q46 294 243.5 504t497.5 210q206 0 337 -53.5t183 -96.5l-70 -324h-100v247q-55 75 -146.5 115t-222.5 40q-209 0 -358 -151t-167 -532q0 -87 3.5 -162t45.5 -226t176 -284t338 -133q282 16 425 189l60 -50q-187 -211 -504 -211q-300 0 -497.5 174.5 t-243.5 467.5q-6 70 -6 138z" unicode="С"/>
<glyph glyph-name="afii10036" horiz-adv-x="1304" unicode="Т" d="M50 1286v314h1204v-314h-90l-60 239h-375v-1347q10 -78 55 -103t159 -25v-50h-582v50q114 0 159 25t55 103v1347h-375l-60 -239h-90z"/>
<glyph glyph-name="afii10037" horiz-adv-x="1604" unicode="У" d="M25 1550v50h512v-50q-80 0 -110 -8q-18 -8 -23 -23q0 -19 9 -51l412 -969l-15 -59l435 1028q9 26 9 43q0 28 -24 32q-39 7 -109 7v50h458v-50q-90 0 -138.5 -14.5t-96.5 -113.5l-539 -1216q-98 -221 -299 -222q-112 8 -149 36v274h104q18 -207 99 -207q97 0 179 257 l-469 1068q-39 88 -96.5 113t-148.5 25z"/>
<glyph glyph-name="afii10038" horiz-adv-x="2290" unicode="Ф" d="M1220 327q155 -80 296 -80q219 0 372 137t153 459q-7 227 -66.5 338.5t-154 173.5t-228.5 62q-40 0 -84 -5q-149 -21 -288 -93v-992zM249 824q7 -227 66.5 -337t166 -179.5t300.5 -69.5q149 11 288 83v992q-155 80 -296 90q-27 2 -54 2q-184 0 -327.5 -129.5 t-143.5 -451.5zM50 757q0 70 6 138q36 264 221 423t436 159q29 0 60 -2q188 -20 297 -97v94q0 78 -40 100t-144 22v46h518v-46q-104 0 -144 -22t-40 -100v-94q154 83 317 106q43 3 83 3q247 0 405 -117t205 -332q10 -60 10 -128q0 -70 -6 -138q-36 -264 -231.5 -430.5 t-485.5 -166.5q-188 10 -297 77v-82q0 -88 40 -113t144 -25v-50h-518v50q104 0 144 25t40 113v82q-154 -73 -317 -86q-306 0 -476 124t-217 339q-10 60 -10 128z"/>
<glyph glyph-name="afii10039" horiz-adv-x="1714" unicode="Х" d="M35 1550v50h582v-50q-90 0 -130 -8q-28 -8 -28 -25t24 -49l396 -572l362 572q21 33 21 52q0 15 -24 22q-31 8 -111 8v50h498v-50q-100 0 -164.5 -25t-124.5 -103l-398 -592l450 -651q74 -87 132 -108t159 -21v-50h-586v50q80 0 125 9q27 7 27 32q0 19 -14 41l-404 588 l-377 -565q-39 -51 -39 -68q1 -28 52 -33q70 -4 120 -4v-50h-518v50q101 0 163.5 25t111.5 103l428 618l-438 626q-69 78 -131.5 103t-163.5 25z"/>
<glyph glyph-name="afii10040" horiz-adv-x="1609" unicode="Ц" d="M65 0v50q104 0 144 25t40 103v1244q0 78 -40 103t-144 25v50h522v-50q-104 0 -144 -25t-40 -103v-1338h818v1338q0 78 -40 103t-144 25v50h508v-50q-104 0 -137 -25t-33 -103v-1338h184l-50 -434h-164l60 350h-1340z"/>
<glyph glyph-name="afii10041" horiz-adv-x="1561" unicode="Ч" d="M25 1550v50h522v-50q-104 0 -144 -25t-40 -103v-420q14 -60 104 -137t291 -87q305 10 415 229v415q0 78 -40 103t-144 25v50h522v-50q-104 0 -144 -25t-40 -103v-1244q0 -78 40 -103t144 -25v-50h-552v50q114 0 164 25t50 103v662q-152 -142 -415 -142 q-268 0 -403.5 100.5t-145.5 193.5v430q0 78 -40 103t-144 25z"/>
<glyph glyph-name="afii10042" horiz-adv-x="2256" unicode="Ш" d="M65 0v50q110 0 142 23.5t32 104.5v1244q0 81 -32 104.5t-142 23.5v50h492v-50q-100 0 -132 -23.5t-32 -104.5v-1338h653v1338q0 81 -33.5 104.5t-133.5 23.5v50h488v-50q-100 0 -133.5 -23.5t-33.5 -104.5v-1338h653v1338q0 81 -32 104.5t-132 23.5v50h492v-50 q-110 0 -142 -23.5t-32 -104.5v-1244q0 -81 32 -104.5t142 -23.5v-50h-2116z"/>
<glyph glyph-name="afii10043" horiz-adv-x="2241" unicode="Щ" d="M65 0v50q110 0 142 23.5t32 104.5v1244q0 81 -32 104.5t-142 23.5v50h492v-50q-100 0 -132 -23.5t-32 -104.5v-1338h653v1338q0 81 -33.5 104.5t-133.5 23.5v50h488v-50q-100 0 -133.5 -23.5t-33.5 -104.5v-1338h653v1338q0 81 -32 104.5t-132 23.5v50h492v-50 q-110 0 -142 -23.5t-32 -104.5v-1338h184l-50 -434h-164l60 350h-1972z"/>
<glyph glyph-name="afii10044" horiz-adv-x="1529" unicode="Ъ" d="M711 88q153 -14 244 -14q219 0 290 95t71 245q0 167 -74 259t-257 92q-126 0 -274 -20v-657zM50 1286v314h875v-50q-104 0 -159 -25t-55 -103v-593q192 32 325 32q193 0 287 -53t135 -142.5t41 -251.5q-20 -228 -141.5 -323t-351.5 -95q-321 0 -633 4v50q104 0 144 25 t40 103v1312l-347 30l-60 -234h-100z"/>
<glyph glyph-name="afii10045" horiz-adv-x="1808" unicode="Ы" d="M1239 0v50q94 0 132 25t38 103v1244q0 78 -38 103t-132 25v50h494v-50q-94 0 -132 -25t-38 -103v-1244q0 -78 38 -103t132 -25v-50h-494zM403 88q153 -14 244 -14q219 0 290 95t71 245q0 167 -74 259t-257 92q-126 0 -274 -20v-657zM65 0v50q104 0 144 25t40 103v1244 q0 78 -40 103t-144 25v50h522v-50q-104 0 -144 -25t-40 -103v-593q192 32 325 32q193 0 287 -53t135 -142.5t41 -251.5q-20 -228 -141.5 -323t-351.5 -95q-321 0 -633 4z"/>
<glyph glyph-name="afii10046" horiz-adv-x="1221" unicode="Ь" d="M403 88q153 -14 244 -14q219 0 290 95t71 245q0 167 -74 259t-257 92q-126 0 -274 -20v-657zM65 0v50q104 0 144 25t40 103v1244q0 78 -40 103t-144 25v50h552v-50q-104 0 -159 -25t-55 -103v-593q192 32 325 32q193 0 287 -53t135 -142.5t41 -251.5 q-20 -228 -141.5 -323t-351.5 -95q-321 0 -633 4z"/>
<glyph glyph-name="afii10047" d="M50 1466q52 43 183 96.5t337 53.5q300 0 497.5 -160t243.5 -494q6 -68 6 -138q0 -68 -6 -138q-46 -293 -243.5 -497.5t-497.5 -204.5q-317 0 -504 211l60 50q143 -173 425 -189q216 0 344 128t173 289t45 304q-114 -57 -232 -57q-64 0 -212 28.5t-177 28.5 q-80 0 -121 -64h-69q30 96 151 142q68 27 148 27q63 0 162.5 -23t205.5 -23q77 0 145 15q-9 366 -147 523.5t-368 169.5q-141 0 -232.5 -40t-146.5 -115v-247h-100z" unicode="Э"/>
<glyph glyph-name="afii10048" horiz-adv-x="2209" unicode="Ю" d="M944 861q0 -87 3.5 -147t24.5 -189q51 -203 173 -336t326 -133q217 10 330 153.5t148 348.5q11 93 11 188q0 83 -3.5 141.5t-26.5 187.5q-51 203 -173 336t-324 133q-218 -10 -331.5 -153.5t-148.5 -348.5q-9 -90 -9 -181zM65 0v50q104 0 142 25t38 103v1244 q0 78 -38 103t-142 25v50h524v-50q-104 0 -147 -25t-43 -103v-583h347q1 41 5 83q46 294 223.5 494t477.5 200t477.5 -184.5t222.5 -477.5q7 -68 7 -138q0 -68 -7 -138q-45 -294 -222.5 -494t-477.5 -200t-477.5 184.5t-223.5 477.5q-5 62 -6 120h-346v-588q0 -78 43 -103 t147 -25v-50h-524z"/>
<glyph glyph-name="afii10049" horiz-adv-x="1458" unicode="Я" d="M430 1192q0 -167 81 -259t294 -92q106 0 240 8v659q-169 14 -250 14q-209 0 -287 -90t-78 -240zM25 0v44q89 0 139 39t151.5 295.5t161.5 321t187 85.5q-151 12 -228 39t-133 101.5t-56 246.5q10 228 141.5 328t351.5 104q331 0 643 -8v-50q-104 0 -144 -25t-40 -103 v-1244q0 -78 40 -103t144 -25v-50h-532v50q104 0 149 25t45 103v589q-296 -6 -366 -76t-160.5 -313.5t-150 -315t-181.5 -71.5z"/>
<glyph glyph-name="afii10065" horiz-adv-x="910" unicode="а" d="M215 243q5 -91 42 -127t107 -36q64 0 114.5 32t123.5 109v296q-33 -26 -210 -77q-177 -52 -177 -197zM55 223q0 202 254 274q253 72 292 112v93q0 133 -51.5 193.5t-149.5 60.5q-73 0 -104 -45t-31 -111q0 -38 -26 -64t-64 -26q-37 0 -58.5 26t-21.5 64q0 27 18 59 q97 157 305 157q208 -5 281 -137q53 -93 53 -241v-399q0 -131 34 -163t99 -32v-44h-138q-44 0 -89 22q-56 30 -56 135q-44 -74 -116 -123.5t-177 -49.5q-248 0 -254 239z"/>
<glyph glyph-name="afii10066" horiz-adv-x="1048" unicode="б" d="M214 509q0 -87 18 -177q39 -128 110 -208t185 -80q123 0 199 91.5t96 216.5q6 57 6 115q0 21 -1.5 63.5t-15.5 125.5q-29 124 -105 206t-191 82q-122 0 -198 -91.5t-89.5 -189t-13.5 -154.5zM30 544q0 53 11.5 178t56.5 278q101 267 351.5 367t286.5 119q75 41 95 134h40 v-211q-30 -50 -104 -92q-79 -39 -200 -72.5t-209 -79.5q-81 -44 -140 -135.5t-104 -336.5q87 177 194 244t218 67q201 0 330 -118t157 -289q5 -43 5 -87q0 -43 -5 -87q-30 -185 -163 -312t-334 -127q-199 0 -318 108.5t-158 310.5q-10 50 -10 141z"/>
<glyph glyph-name="afii10067" horiz-adv-x="1009" unicode="в" d="M365 540q83 -5 139 -5q47 0 100 9.5t104.5 60.5t51.5 136q-6 120 -67.5 159t-189.5 39q-47 0 -138 -7v-392zM365 78q76 -13 128 -16q76 0 151 13q100 34 116 130q5 58 5 74q0 74 -42 123q-62 64 -199 66q-60 0 -159 -5v-385zM65 0v50q94 0 127 25t33 103v644 q0 78 -33 103t-127 25v50q226 4 465 4q396 0 396 -265q0 -86 -54 -150.5t-158 -83.5l-22 -2l23 -1q113 -20 168.5 -76t55.5 -169q0 -261 -374 -261q-193 0 -500 4z"/>
<glyph glyph-name="afii10068" horiz-adv-x="904" unicode="г" d="M65 0v50q104 0 137 25t33 103v644q0 78 -33 103t-137 25v50h799v-264h-80l-60 204l-349 -20v-742q0 -78 33 -103t157 -25v-50h-500z"/>
<glyph glyph-name="afii10069" horiz-adv-x="1117" unicode="д" d="M279 64h480v868h-353q0 -521 -91 -773q-21 -58 -36 -95zM15 64h160q69 170 75 192q60 217 67 565q0 78 -33 103.5t-146 25.5v50h916v-50q-94 0 -127 -25t-33 -103v-758h173l-50 -394h-110v330h-732v-330h-110z"/>
<glyph glyph-name="afii10070" horiz-adv-x="924" unicode="е" d="M240 712h463q0 89 -35 153q-50 92 -159 92q-101 0 -167 -64q-65 -63 -102 -181zM30 465q0 261 187 435q125 116 307 116q206 0 304 -149q66 -100 66 -219h-667q-13 -58 -13 -128q0 -92 22 -188q29 -124 107 -206t207 -82q166 0 284 106l40 -40q-135 -126 -340 -126 q-262 0 -394 154q-110 128 -110 327z"/>
<glyph glyph-name="afii10072" horiz-adv-x="1502" unicode="ж" d="M25 0v44q69 0 112 37t74 136q60 173 110 221.5t160 57.5l19 1l-19 5q-173 56 -199.5 206.5t-52.5 216.5q-6 -23 -25 -38t-43 -15q-29 0 -49.5 20.5t-20.5 49.5q0 62 62 73q10 1 16 1q149 0 182.5 -209.5t132.5 -254.5q46 -20 199 -30v300q0 88 -33 113t-117 25v40h436 v-40q-84 0 -117 -25t-33 -113v-300q153 10 199 30q99 45 132.5 254.5t182.5 209.5q6 0 16 -1q62 -11 62 -73q0 -29 -20.5 -49.5t-49.5 -20.5q-24 0 -43 15t-25 38q-26 -66 -52.5 -216.5t-199.5 -206.5l-19 -5l19 -1q110 -9 160 -57.5t110 -221.5q31 -99 74 -136t112 -37v-44 l-142 -13q-72 0 -111.5 36.5t-108 212t-105.5 204t-191 28.5v-290q0 -88 33 -113t107 -25v-40h-416v40q74 0 107 25t33 113v290q-154 0 -191 -28.5t-105.5 -204t-108 -212t-111.5 -36.5z"/>
<glyph glyph-name="afii10073" horiz-adv-x="829" unicode="з" d="M70 130l1 2l32 164h86v-188q78 -54 199 -54q219 0 219 193q0 95 -54.5 154t-152.5 63q-39 0 -89.5 -7t-57.5 -7q-51 0 -51 50t50 50q11 0 60.5 -7t87.5 -7q95 4 151 64t56 173q0 185 -199 185q-176 0 -176 -138q0 -38 -21.5 -64t-68.5 -26q-37 0 -54.5 26t-17.5 64 q0 80 104 138t265 58q329 0 335 -277q0 -87 -53 -150.5t-147 -83.5l-33 -2l33 -3q93 -19 146.5 -80.5t53.5 -148.5q0 -155 -95.5 -221t-269.5 -66q-235 0 -339 146z"/>
<glyph glyph-name="afii10074" horiz-adv-x="1286" unicode="и" d="M65 0v50q94 0 127 25t33 103v644q0 78 -33 103t-127 25v50h460v-50q-94 0 -127 -25t-33 -103v-570l546 600q0 48 -33 73t-127 25v50h460v-50q-94 0 -127 -25t-33 -103v-644q0 -78 33 -103t127 -25v-50h-460v50q94 0 127 25t33 103v570l-546 -600q0 -48 33 -73t127 -25 v-50h-460z"/>
<glyph glyph-name="afii10075" horiz-adv-x="1286" unicode="й" d="M278 1307q0 42 29.5 71.5t71.5 29.5q41 0 71 -29.5t30 -71.5q0 -29 -15 -53t-40 -37q43 -42 91.5 -59t121.5 -18q73 1 121.5 18t91.5 59q-25 13 -40 37t-15 53q0 42 30 71.5t71 29.5q42 0 72 -29.5t30 -71.5q0 -105 -103 -162t-258 -57t-257.5 56.5t-102.5 162.5zM65 0 v50q94 0 127 25t33 103v644q0 78 -33 103t-127 25v50h460v-50q-94 0 -127 -25t-33 -103v-570l546 600q0 48 -33 73t-127 25v50h460v-50q-94 0 -127 -25t-33 -103v-644q0 -78 33 -103t127 -25v-50h-460v50q94 0 127 25t33 103v570l-546 -600q0 -48 33 -73t127 -25v-50h-460z "/>
<glyph glyph-name="afii10076" horiz-adv-x="1134" unicode="к" d="M65 0v50q94 0 127 25t33 103v644q0 78 -33 103t-127 25v50h470v-50q-104 0 -137 -25t-33 -103v-300q193 10 239 30q89 45 127.5 254.5t167.5 209.5q16 0 36 -3q60 -9 62 -71q0 -39 -20.5 -59.5t-49.5 -20.5q-24 0 -43 15t-25 38q-26 -66 -57.5 -211.5t-174.5 -201.5 l-19 -5l19 -1q109 -9 172.5 -72.5t104 -182.5t83.5 -158t122 -39v-44l-152 -13q-82 0 -121.5 36.5t-98 197.5t-115 204t-257.5 43v-290q0 -78 33 -103t137 -25v-50h-470z"/>
<glyph glyph-name="afii10077" horiz-adv-x="1149" unicode="л" d="M20 86q0 47 26.5 73.5t63.5 26.5q36 0 57.5 -26t21.5 -64q0 -9 -6 -15q55 21 107 162t69 578q0 79 -33 104t-126 25v50h874v-50q-94 0 -127 -25t-33 -103v-644q0 -78 33 -103t127 -25v-50h-460v50q94 0 127 25t33 103v752h-333v-170q-10 -391 -52 -568 q-36 -108 -95.5 -158t-149.5 -50q-77 0 -100.5 27t-23.5 75z"/>
<glyph glyph-name="afii10078" horiz-adv-x="1498" unicode="м" d="M65 0v50q94 0 127 25t33 103v644q0 78 -33 103t-127 25v50h354l337 -790l337 790h330v-50q-94 0 -127 -25t-33 -103v-644q0 -78 33 -103t127 -25v-50h-450v50q84 0 117 25t33 103v708l-11 -39l-359 -847h-58l-376 841l-10 45v-708q0 -78 33 -103t127 -25v-50h-404z"/>
<glyph glyph-name="afii10079" horiz-adv-x="1286" unicode="н" d="M65 0v50q94 0 127 25t33 103v644q0 78 -33 103t-127 25v50h460v-50q-94 0 -127 -25t-33 -103v-285h546v285q0 78 -33 103t-127 25v50h460v-50q-94 0 -127 -25t-33 -103v-644q0 -78 33 -103t127 -25v-50h-460v50q94 0 127 25t33 103v290h-546v-290q0 -78 33 -103t127 -25 v-50h-460z"/>
<glyph glyph-name="afii10080" horiz-adv-x="1066" unicode="о" d="M218 513q0 -32 2 -66q10 -145 83 -259q90 -144 240 -144q162 0 244 158q54 121 61 285q0 32 -2 66q-10 145 -83 259q-90 144 -240 144q-162 0 -244 -158q-61 -119 -61 -285zM30 490q0 205 136 360q146 166 367 166q176 0 302 -80q201 -126 201 -426q0 -205 -136 -360 q-146 -166 -367 -166q-176 0 -302 80q-201 126 -201 426z"/>
<glyph glyph-name="afii10081" horiz-adv-x="1250" unicode="п" d="M65 0v50q94 0 127 25t33 103v644q0 78 -33 103t-127 25v50h1110v-50q-94 0 -127 -25t-33 -103v-644q0 -78 33 -103t127 -25v-50h-460v50q94 0 127 25t33 103v743h-510v-743q0 -78 33 -103t127 -25v-50h-460z"/>
<glyph glyph-name="afii10082" horiz-adv-x="1143" unicode="р" d="M295 425q4 -47 11 -93q29 -124 108.5 -204.5t204.5 -80.5q115 0 180.5 66.5t92.5 160t27 203.5q0 40 -3 82q-16 200 -111.5 297t-219.5 97q-118 0 -194 -90t-96 -215v-223zM15 -450q90 0 115 23.5t25 104.5v1124q0 81 -25 104.5t-115 23.5v50l280 20v-176 q108 192 358 192q158 0 282 -93q168 -128 168 -386q0 -319 -187 -459q-125 -94 -304 -94q-176 0 -317 128v-434q0 -81 25 -104.5t135 -23.5v-50h-440v50z"/>
<glyph glyph-name="afii10083" horiz-adv-x="904" unicode="с" d="M30 470q0 208 117 362q139 184 387 184q100 0 191 -43t131 -99q18 -24 18 -54q0 -38 -26.5 -64t-63.5 -26t-63.5 26t-26.5 64q0 58 -51 97t-125 39q-117 0 -195 -91q-103 -119 -103 -364q0 -26 1 -53q8 -205 122 -319q78 -85 207 -85q148 0 264 106l40 -40 q-125 -126 -320 -126q-182 0 -311 81q-193 123 -193 405z"/>
<glyph glyph-name="afii10084" horiz-adv-x="978" unicode="т" d="M50 736v264h878v-264h-76l-60 208h-233v-766q0 -78 33 -103t137 -25v-50h-480v50q104 0 137 25t33 103v766h-233l-60 -208h-76z"/>
<glyph glyph-name="afii10085" horiz-adv-x="1247" unicode="у" d="M30 950v50h480v-50q-107 0 -119 -10t-12 -25q0 -26 19 -72l285 -647l-4 -72q286 721 286 794q-9 32 -152 32v50h404v-50q-96 0 -118.5 -21.5t-251 -618t-310.5 -709t-183 -112.5q-69 0 -100 31.5t-31 72.5q0 52 26.5 78.5t64.5 26.5q37 0 63.5 -21.5t26.5 -58.5l-1 -6 q58 16 212 376l-368 834q-40 82 -93.5 105t-123.5 23z"/>
<glyph glyph-name="afii10086" horiz-adv-x="1698" unicode="ф" d="M914 425q4 -47 17 -132t79 -167t180 -82q130 0 200.5 84t92.5 224q6 57 6 115q0 21 -1 43q-3 79 -24 180.5t-102 183.5t-199 82q-117 0 -173 -96.5t-76 -221.5v-213zM209 533q0 -21 1 -43q3 -79 16 -158q29 -124 110 -206t199 -82q117 0 173 96.5t76 221.5v213 q-4 47 -17 132t-79 167t-185 82q-125 0 -195.5 -84t-92.5 -224q-6 -57 -6 -115zM30 490q0 52 4 87q30 185 158 312t315 127q176 0 277 -178v554q0 81 -25 104.5t-125 23.5v50l280 20v-766q70 162 254 188q33 4 64 4q155 0 276.5 -104.5t155.5 -314.5q4 -34 4 -87 q0 -52 -4 -87q-30 -185 -158 -312t-315 -127q-176 0 -277 168v-474q0 -81 30 -104.5t130 -23.5v-50h-450v50q100 0 130 23.5t30 104.5v498q-70 -162 -254 -188q-33 -4 -64 -4q-155 0 -276.5 104.5t-155.5 314.5q-4 34 -4 87z"/>
<glyph glyph-name="afii10087" horiz-adv-x="1268" unicode="х" d="M40 950v50h500v-50q-80 0 -110 -8q-14 -8 -14 -23q0 -19 24 -51l196 -278l187 278q24 32 24 51q0 15 -13 23q-31 8 -101 8v50h431v-50q-90 0 -152.5 -25t-122.5 -103l-208 -288l272 -356q59 -78 121.5 -103t153.5 -25v-50h-500v50q70 0 101 9q13 7 13 22q0 19 -24 51 l-224 312l-234 -339q-7 -10 -7 -18q0 -23 52 -33q70 -4 120 -4v-50h-475v50q91 0 153.5 25t121.5 103l224 322l-234 322q-59 78 -121.5 103t-153.5 25z"/>
<glyph glyph-name="afii10088" horiz-adv-x="1245" unicode="ц" d="M65 0v50q94 0 127 25t33 103v644q0 78 -33 103t-127 25v50h460v-50q-94 0 -127 -25t-33 -103v-748h520v748q0 78 -33 103t-127 25v50h460v-50q-94 0 -127 -25t-33 -103v-758h170l-50 -394h-130l50 330h-1000z"/>
<glyph glyph-name="afii10089" horiz-adv-x="1272" unicode="ч" d="M65 950v50h460v-50q-94 0 -127 -25t-33 -103v-184q0 -56 63 -113t182 -57q207 0 287 170v184q0 78 -33 103t-127 25v50h460v-50q-94 0 -127 -25t-33 -103v-644q0 -78 33 -103t127 -25v-50h-480v50q104 0 142 25t38 103v320q-122 -92 -287 -92q-192 0 -288.5 76.5 t-96.5 169.5v170q0 78 -33 103t-127 25z"/>
<glyph glyph-name="afii10090" horiz-adv-x="1724" unicode="ш" d="M65 0v50q100 0 125 23.5t25 104.5v644q0 81 -25 104.5t-125 23.5v50h430v-50q-90 0 -115 -23.5t-25 -104.5v-748h432v748q0 81 -25 104.5t-115 23.5v50h420v-50q-90 0 -115 -23.5t-25 -104.5v-748h432v748q0 81 -25 104.5t-115 23.5v50h430v-50q-100 0 -125 -23.5 t-25 -104.5v-644q0 -81 25 -104.5t125 -23.5v-50h-1584z"/>
<glyph glyph-name="afii10091" horiz-adv-x="1709" unicode="щ" d="M65 0v50q100 0 125 23.5t25 104.5v644q0 81 -25 104.5t-125 23.5v50h430v-50q-90 0 -115 -23.5t-25 -104.5v-748h432v748q0 81 -25 104.5t-115 23.5v50h420v-50q-90 0 -115 -23.5t-25 -104.5v-748h432v748q0 81 -25 104.5t-115 23.5v50h430v-50q-100 0 -125 -23.5 t-25 -104.5v-758h160l-50 -394h-130l50 330h-1464z"/>
<glyph glyph-name="afii10092" horiz-adv-x="1128" unicode="ъ" d="M544 78q83 -14 139 -14q133 0 181 46.5t48 158.5q0 116 -49.5 162.5t-133.5 46.5q-59 0 -185 -10v-390zM50 726v274h624v-50q-74 0 -102 -25t-28 -103v-290q142 26 240 26q33 0 108.5 -10.5t130.5 -79.5t55 -209q-10 -141 -103 -202t-251 -61q-206 0 -500 4v50 q104 0 142 25t38 103v758h-214l-60 -210h-80z"/>
<glyph glyph-name="afii10093" horiz-adv-x="1430" unicode="ы" d="M905 0v50q84 0 117 25t33 103v644q0 78 -33 103t-117 25v50h450v-50q-94 0 -127 -25t-33 -103v-644q0 -78 33 -103t127 -25v-50h-450zM365 78q83 -14 139 -14q133 0 181 46.5t48 158.5q0 116 -49.5 162.5t-133.5 46.5q-59 0 -185 -10v-390zM65 0v50q94 0 127 25t33 103 v644q0 78 -33 103t-127 25v50h460v-50q-94 0 -127 -25t-33 -103v-290q132 26 230 26q33 0 108.5 -10.5t130.5 -79.5t55 -209q-10 -141 -103 -202t-251 -61q-196 0 -470 4z"/>
<glyph glyph-name="afii10094" horiz-adv-x="949" unicode="ь" d="M365 78q83 -14 139 -14q133 0 181 46.5t48 158.5q0 116 -49.5 162.5t-133.5 46.5q-59 0 -185 -10v-390zM65 0v50q94 0 127 25t33 103v644q0 78 -33 103t-127 25v50h460v-50q-94 0 -127 -25t-33 -103v-290q142 26 240 26q33 0 108.5 -10.5t130.5 -79.5t55 -209 q-10 -141 -103 -202t-251 -61q-206 0 -480 4z"/>
<glyph glyph-name="afii10095" horiz-adv-x="916" unicode="э" d="M30 820q0 30 18 54q40 56 134.5 99t209.5 43q193 -4 326 -114t163 -295q5 -43 5 -87q0 -43 -5 -87q-30 -185 -163 -317t-336 -132q-205 0 -340 126l40 40q118 -106 316 -106q115 0 206.5 105t91.5 326q-77 -28 -156 -28q-40 0 -133 18t-106 18q-50 0 -76 -38h-50 q28 67 83 90t105 23q40 0 103 -14.5t130 -14.5q52 0 100 11q0 205 -92.5 310.5t-222.5 105.5q-74 0 -127.5 -39t-53.5 -97q0 -38 -26.5 -64t-63.5 -26t-58.5 26t-21.5 64z"/>
<glyph glyph-name="afii10096" horiz-adv-x="1604" unicode="ю" d="M792 537q0 -53 2 -89.5t14 -115.5q29 -128 109 -208t183 -80q110 6 185 92.5t95 215.5q6 57 6 115q0 51 -2 86.5t-15 114.5q-29 128 -109 208t-182 80q-111 -6 -186 -92.5t-95 -215.5q-5 -55 -5 -111zM65 0v50q84 0 117 25t33 103v644q0 78 -33 103t-117 25v50h430v-50 q-74 0 -107 -25t-33 -103v-286h250q1 22 3 41q31 189 162.5 314t318.5 125t318.5 -115t161.5 -304q5 -43 5 -87q0 -43 -5 -87q-30 -189 -161.5 -314t-318.5 -125t-318.5 115t-162.5 304q-3 33 -4 67h-249v-292q0 -78 33 -103t107 -25v-50h-430z"/>
<glyph glyph-name="afii10097" horiz-adv-x="1123" unicode="я" d="M370 722q0 -74 47.5 -129.5t151.5 -60.5q16 -1 47 -1t142 5v404q-99 3 -137 3q-37 0 -77 -6q-170 -25 -174 -215zM50 0v44q79 0 122 39t81.5 146.5t89.5 193.5q31 38 80 54q11 3 53 3q-43 1 -53 3q-95 7 -151 70t-56 180q0 139 98 205t276 66q209 0 458 -4v-50 q-94 0 -127 -25t-33 -103v-644q0 -78 33 -103t127 -25v-50h-430v50q74 0 107 25t33 103v288q-191 -8 -228 -31q-81 -50 -124 -210.5t-102.5 -199t-131.5 -38.5z"/>
<glyph glyph-name="afii10071" horiz-adv-x="924" unicode="ё" d="M581 1218q0 50 29.5 85t70.5 35q42 0 71 -35t29 -85t-29 -85t-71 -35q-41 0 -70.5 35t-29.5 85zM239 712h464q0 89 -35 153q-50 92 -159 92q-102 0 -168 -64q-65 -63 -102 -181zM220 1218q0 50 29.5 85t70.5 35t70.5 -35t29.5 -85t-29.5 -85t-70.5 -35t-70.5 35t-29.5 85 zM30 455q0 261 187 445q125 116 307 116q206 0 304 -149q66 -100 66 -219h-668q-13 -58 -13 -128q0 -92 22 -188q29 -124 107 -203q78 -80 208 -85q166 0 284 106l40 -40q-135 -126 -340 -126q-262 0 -394 144q-110 128 -110 327z"/>
<glyph glyph-name="afii10101" horiz-adv-x="912" unicode="є" d="M30 480q0 252 149.5 394t362.5 142q100 0 191 -43t120 -83t29 -70q0 -38 -26.5 -64t-63.5 -26t-63.5 26t-26.5 64q0 58 -51 97t-125 39q-116 0 -207 -101.5t-91 -314.5q45 -11 97 -11q67 0 130 14.5t103 14.5q50 0 93 -17q77 -29 96 -96h-50q-26 38 -77 38 q-12 0 -105.5 -18t-133.5 -18q-77 0 -151 27q10 -216 105 -323t233 -107q156 0 274 106l40 -40q-135 -126 -340 -126q-213 0 -356 117t-156 379z"/>
<glyph glyph-name="afii10103" horiz-adv-x="659" unicode="і" d="M207 1304q0 49 34.5 83.5t83.5 34.5t83.5 -34.5t34.5 -83.5t-34.5 -83.5t-83.5 -34.5t-83.5 34.5t-34.5 83.5zM65 0v50q114 0 152 25t38 103v644q0 78 -38 103t-152 25v50h519v-50q-114 0 -152 -25t-38 -103v-644q0 -78 38 -103t152 -25v-50h-519z"/>
<glyph glyph-name="afii10104" horiz-adv-x="659" unicode="ї" d="M362 1304q0 49 28.5 83.5t68.5 34.5q41 0 69.5 -34.5t28.5 -83.5t-28.5 -83.5t-69.5 -34.5q-40 0 -68.5 34.5t-28.5 83.5zM93 1304q0 49 28 83.5t69 34.5q40 0 68.5 -34.5t28.5 -83.5t-28.5 -83.5t-68.5 -34.5q-41 0 -69 34.5t-28 83.5zM65 0v50q114 0 152 25t38 103v644 q0 78 -38 103t-152 25v50h519v-50q-114 0 -152 -25t-38 -103v-644q0 -78 38 -103t152 -25v-50h-519z"/>
<glyph glyph-name="afii10050" horiz-adv-x="1202" unicode="Ґ" d="M65 0v50q114 0 159 25t45 103v1244q0 78 -45 103t-159 25v50h927l60 234h100v-314h-729v-1342q10 -78 60 -103t184 -25v-50h-602z"/>
<glyph glyph-name="afii10098" horiz-adv-x="904" unicode="ґ" d="M65 0v50q104 0 137 25t33 103v644q0 78 -33 103t-137 25v50h659l60 204h80v-264h-489v-762q0 -78 33 -103t157 -25v-50h-500z"/>
<glyph glyph-name="uni2002" horiz-adv-x="1055" unicode=" "/>
<glyph glyph-name="uni2003" horiz-adv-x="2110" unicode=" "/>
<glyph glyph-name="uni2009" horiz-adv-x="422" unicode=" "/>
<glyph glyph-name="endash" horiz-adv-x="1420" unicode="–" d="M65 608v103h1280v-103h-1280z"/>
<glyph glyph-name="emdash" horiz-adv-x="1780" unicode="—" d="M65 628v100h1640v-100h-1640z"/>
<glyph glyph-name="quoteleft" horiz-adv-x="373" unicode="‘" d="M50 1268q0 223 176 348l40 -40q-90 -85 -116 -186q12 2 24 2q51 0 87.5 -36.5t36.5 -87.5t-36.5 -87.5t-87.5 -36.5t-87.5 36.5t-36.5 87.5z"/>
<glyph glyph-name="quotesinglbase" horiz-adv-x="373" unicode="‚" d="M50 108q0 51 36.5 87.5t87.5 36.5t87.5 -36.5t36.5 -87.5q0 -223 -176 -348l-40 40q90 85 116 186q-12 -2 -24 -2q-51 0 -87.5 36.5t-36.5 87.5z"/>
<glyph glyph-name="quotedblleft" horiz-adv-x="720" unicode="“" d="M397 1268q0 223 176 348l40 -40q-90 -85 -116 -186q12 2 24 2q51 0 87.5 -36.5t36.5 -87.5t-36.5 -87.5t-87.5 -36.5t-87.5 36.5t-36.5 87.5zM50 1268q0 223 176 348l40 -40q-90 -85 -116 -186q12 2 24 2q51 0 87.5 -36.5t36.5 -87.5t-36.5 -87.5t-87.5 -36.5t-87.5 36.5 t-36.5 87.5z"/>
<glyph glyph-name="quotedblright" horiz-adv-x="720" unicode="”" d="M397 1492q0 51 36.5 87.5t87.5 36.5t87.5 -36.5t36.5 -87.5q0 -223 -176 -348l-40 40q90 85 116 186q-12 -2 -24 -2q-51 0 -87.5 36.5t-36.5 87.5zM50 1492q0 51 36.5 87.5t87.5 36.5t87.5 -36.5t36.5 -87.5q0 -223 -176 -348l-40 40q90 85 116 186q-12 -2 -24 -2 q-51 0 -87.5 36.5t-36.5 87.5z"/>
<glyph glyph-name="ellipsis" horiz-adv-x="1570" unicode="…" d="M1026 108q0 51 36.5 87.5t87.5 36.5t87.5 -36.5t36.5 -87.5t-36.5 -87.5t-87.5 -36.5t-87.5 36.5t-36.5 87.5zM543 108q0 51 36.5 87.5t87.5 36.5t87.5 -36.5t36.5 -87.5t-36.5 -87.5t-87.5 -36.5t-87.5 36.5t-36.5 87.5zM61 108q0 51 36.5 87.5t87.5 36.5t87.5 -36.5 t36.5 -87.5t-36.5 -87.5t-87.5 -36.5t-87.5 36.5t-36.5 87.5z"/>
<glyph glyph-name="guilsinglleft" horiz-adv-x="505" unicode="‹" d="M65 634l295 444l70 -70l-185 -374l185 -374l-70 -70z"/>
<glyph glyph-name="guilsinglright" horiz-adv-x="505" unicode="›" d="M65 260l185 374l-185 374l70 70l295 -444l-295 -444z"/>
<glyph glyph-name="Euro" horiz-adv-x="1450" unicode="€" d="M58 764q0 70 6 138q46 294 244 504t497 210q206 0 337 -54t183 -96l-70 -324h-100v247q-55 75 -147 115t-222 40q-209 0 -358 -151q-140 -142 -164 -485h-196v-100h193q1 -57 3 -109q1 -21 5 -47h636v-100h-616q9 -36 21 -79q42 -151 176 -284t338 -133q282 16 425 189 l60 -50q-187 -211 -504 -211q-299 0 -497 174q-172 152 -230 394h-10v50l-4 24q-6 70 -6 138zM261 808h644v100h-641q-2 -23 -3 -47v-53z"/>
<glyph glyph-name="trademark" horiz-adv-x="1470" unicode="™" d="M35 898v126h242v-20q47 0 65 -10h-2v-539q3 -20 13 -31q-4 -6 -11 -10q-18 -10 -65 -10v-20h-103v20q52 0 72 10t25 41v539h-169l-27 -96h-40zM436 384h53v20q-47 0 -65 10t-18 41v519l4 -18l261 -572h44l244 575l5 15v-519q0 -31 -18 -41t-65 -10v-20h235v20 q-47 0 -65 10t-18 41v498q0 31 18 41t65 10v20h-176l-230 -536l-228 506h-140q18 -10 18 -41v-498q0 -20 -7 -31q5 -6 12 -10q20 -10 71 -10v-20zM482 994l-13 30h107v-126h-40l-27 96h-27z"/>
</font>
</defs>
</svg>
