<?xml version="1.0" encoding="UTF-8" standalone="no"?>
<!DOCTYPE svg  PUBLIC '-//W3C//DTD SVG 1.1//EN'  'http://www.w3.org/Graphics/SVG/1.1/DTD/svg11.dtd'>
<svg xmlns="http://www.w3.org/2000/svg">
<defs>
<font id="ModernH-Light" horiz-adv-x="1122">
<font-face underline-position="-102" font-weight="400" descent="-410" panose-1="2 11 6 3 0 0 0 2 0 4" units-per-em="2048" unicode-range="U+000D-2122" bbox="-55 -489 2191 1876" x-height="1065" underline-thickness="102" font-family="ModernH" ascent="1638" cap-height="1466"/>
<missing-glyph horiz-adv-x="2048"/>
<glyph glyph-name=".notdef" horiz-adv-x="2048"/>
<glyph glyph-name="glyph1" horiz-adv-x="0"/>
<glyph glyph-name="glyph1" horiz-adv-x="0"/>
<glyph glyph-name="uni000D" horiz-adv-x="2048" unicode=""/>
<glyph glyph-name="space" horiz-adv-x="614" unicode=" "/>
<glyph glyph-name="exclam" horiz-adv-x="614" unicode="!" d="M211 -61v202h186v-202h-186zM205 1516h205l-39 -1104h-129z"/>
<glyph glyph-name="quotedbl" horiz-adv-x="864" unicode='&quot;' d="M512 1538h170l-31 -555h-41q-35 0 -53 22.5t-20 49.5zM156 1538h172l-29 -555h-45q-35 0 -51.5 22.5t-18.5 49.5z"/>
<glyph glyph-name="numbersign" horiz-adv-x="1429" unicode="#" d="M479 510h402l71 430h-403zM57 383v127h262l72 430h-221v127h242l69 428h160l-72 -428h404l69 428h160l-72 -428h238v-72q0 -33 -13.5 -44t-43.5 -11h-201l-70 -430h215v-72q0 -33 -13 -44t-44 -11h-178l-66 -401q-12 -72 -65 -72h-105l76 473h-401l-66 -401 q-12 -72 -65 -72h-105l76 473h-242z"/>
<glyph glyph-name="dollar" horiz-adv-x="1073" unicode="$" d="M616 133q117 16 168.5 70.5t51.5 142.5q0 33 -8.5 64.5t-31 62.5t-66.5 60.5t-114 62.5v-463zM248 1071q0 -92 51 -145.5t160 -104.5v451q-41 -4 -80 -16.5t-67.5 -36t-46 -59.5t-17.5 -89zM82 0v51q0 41 21.5 58.5t84.5 17.5h271v539l-111 49q-135 59 -198.5 150 t-63.5 206q0 145 90 230t283 100v155h157v-151h316v-51q0 -53 -25.5 -65.5t-79.5 -12.5h-211v-528l82 -37q160 -74 228.5 -161t68.5 -202q0 -92 -31.5 -154.5t-85 -102.5t-121 -60.5t-141.5 -26.5v-154h-96q-35 0 -48 17.5t-13 56.5v76h-377z"/>
<glyph glyph-name="percent" horiz-adv-x="1751" unicode="%" d="M1165 295q0 -43 7.5 -82t26 -68.5t51 -46t83.5 -16.5t84 16.5t51.5 46t24.5 68.5t6 82t-6 83t-24.5 68.5t-51.5 46t-84 17.5t-83.5 -17.5t-51 -46t-26 -68.5t-7.5 -83zM1006 295q0 162 84 252t243 90q156 0 242 -90t86 -252t-85 -251t-243 -89q-160 0 -243.5 87 t-83.5 253zM432 -61l707 1527h168l-680 -1470q-16 -35 -36 -46t-54 -11h-105zM242 1102q0 -43 6 -82t24.5 -68.5t51 -46t86.5 -16.5q51 0 82.5 16.5t50 46t24.5 68.5t6 82t-6 82t-24.5 68.5t-50 46t-82.5 16.5q-53 0 -86 -16.5t-51.5 -46t-24.5 -68.5t-6 -82zM82 1102 q0 160 84 251t244 91q154 0 239.5 -91t85.5 -251q0 -158 -85 -249t-240 -91q-160 0 -244 87t-84 253z"/>
<glyph glyph-name="ampersand" horiz-adv-x="1419" unicode="&amp;" d="M373 1182v-8q0 -52 25.5 -95t47.5 -71l129 -158l168 115q55 39 84 96t29 113q0 90 -64.5 140t-175.5 50q-117 0 -178 -45t-65 -137zM238 299q0 -61 26.5 -108.5t72.5 -81t109.5 -51t137.5 -17.5q111 0 219 36t170 113l-428 476l-158 -111q-84 -59 -116.5 -119.5 t-32.5 -136.5zM76 301q0 70 20.5 126t53 101t71.5 79t76 61l156 106l-109 129q-49 59 -90 124t-41 153q0 66 23.5 123t73.5 100t126 67.5t180 24.5q86 0 159 -22.5t127 -64.5t85 -101.5t31 -132.5q0 -86 -43 -164t-119 -133l-188 -138l389 -426q18 33 30.5 73t20.5 81t13 81 t5 73l146 -17q-4 -117 -36 -220t-81 -181l225 -264h-184l-129 143q-82 -84 -200.5 -128t-282.5 -44q-137 0 -233.5 33.5t-158 89t-89 125t-27.5 143.5z"/>
<glyph glyph-name="quotesingle" horiz-adv-x="548" unicode="&apos;" d="M193 1538h167l-28 -555h-41q-35 0 -52.5 22.5t-19.5 49.5z"/>
<glyph glyph-name="parenleft" horiz-adv-x="675" unicode="(" d="M174 723q0 86 3 169t13 155q23 166 97.5 294.5t222.5 221.5l78 -88q-104 -66 -162.5 -178.5t-79.5 -247.5q-10 -70 -13 -155t-3 -171q0 -92 3 -173t13 -153q8 -63 26.5 -125.5t49.5 -119t72 -103.5t94 -80l-80 -94q-66 37 -120 93.5t-95 126t-67.5 147t-35.5 157.5 q-8 72 -12 155t-4 169z"/>
<glyph glyph-name="parenright" horiz-adv-x="675" unicode=")" d="M131 -31q53 33 94 80t72 103.5t49.5 119t26.5 125.5q10 72 13 153t3 173q0 86 -3 171t-13 155q-20 135 -78.5 247.5t-163.5 178.5l78 88q147 -92 222 -221.5t97 -294.5q10 -72 13.5 -155t3.5 -169t-4 -169t-13 -155q-10 -80 -35.5 -157.5t-66.5 -147t-95.5 -126 t-119.5 -93.5z"/>
<glyph glyph-name="asterisk" horiz-adv-x="1144" unicode="*" d="M129 922l365 145l-361 174l90 152l318 -240l-35 385h160l-29 -381l313 221l84 -153l-348 -160l348 -162l-86 -141l-311 211l35 -369h-164l33 367l-316 -207z"/>
<glyph glyph-name="plus" horiz-adv-x="1218" unicode="+" d="M113 643v129h413v420h164v-420h418v-129h-418v-430h-164v430h-413z"/>
<glyph glyph-name="comma" horiz-adv-x="485" unicode="," d="M135 -61v233h213v-244q0 -102 -43 -166.5t-123 -103.5l-45 59q51 33 77 74t26 96v52h-105z"/>
<glyph glyph-name="hyphen" horiz-adv-x="1118" unicode="-" d="M135 641v131h850v-131h-850z"/>
<glyph glyph-name="period" horiz-adv-x="485" unicode="." d="M150 -61v233h184v-233h-184z"/>
<glyph glyph-name="slash" horiz-adv-x="966" unicode="/" d="M117 -106l583 1644h164l-585 -1644h-162z"/>
<glyph glyph-name="zero" horiz-adv-x="1064" unicode="0" d="M231 709q0 -154 8.5 -277t39 -210t90 -134t161.5 -47q106 0 168 47t90.5 134t35.5 210t7 277q0 147 -6 268t-35.5 207t-90 133t-169.5 47q-102 0 -161.5 -47t-90 -133t-39 -207t-8.5 -268zM72 709q0 188 18.5 334.5t68.5 247t139 152.5t232 52q147 0 237.5 -50 t140.5 -149.5t67.5 -247t17.5 -339.5q0 -213 -22.5 -364.5t-75.5 -248t-142 -141.5t-223 -45q-137 0 -226 49t-140 149.5t-71.5 250t-20.5 350.5z"/>
<glyph glyph-name="one" horiz-adv-x="1064" unicode="1" d="M260 1337v129h358q59 0 60 -59v-1468h-74q-47 0 -67.5 24.5t-20.5 79.5v1294h-256z"/>
<glyph glyph-name="two" horiz-adv-x="1064" unicode="2" d="M102 49v199q0 86 35 147.5t99 106.5l399 295q100 72 130 149.5t30 151.5q0 123 -89.5 195.5t-234.5 72.5q-80 0 -164 -13.5t-176 -37.5v131q86 23 164 36t176 13q104 0 197.5 -27.5t157 -79t97 -123t33.5 -157.5v-10q-2 -129 -55 -226.5t-170 -179.5l-387 -286 q-51 -35 -65.5 -77t-14.5 -93v-168h711v-45q0 -35 -19.5 -59.5t-72.5 -24.5h-660q-63 0 -92 21.5t-29 88.5z"/>
<glyph glyph-name="three" horiz-adv-x="1064" unicode="3" d="M109 -4q0 35 18.5 51t44.5 16q10 0 21 -2q59 -10 108 -14t121 -4q86 0 157.5 13.5t123 49t79 97t27.5 157.5q0 170 -86 236t-252 66h-229q-23 0 -31 7t-8 29v93h268q164 0 231.5 80.5t67.5 226.5q0 127 -79 197.5t-240 70.5q-82 0 -160 -10t-150 -31v127q82 20 164 31.5 t148 11.5q106 0 195 -23.5t152.5 -72.5t97.5 -123t34 -171v-11q-2 -129 -58.5 -225.5t-158.5 -135.5q135 -39 194.5 -138t59.5 -222q0 -127 -38 -216t-109.5 -144.5t-170 -79t-212.5 -23.5h-19q-39 0 -73 1t-68.5 4t-74.5 8t-95 16v57z"/>
<glyph glyph-name="four" horiz-adv-x="1064" unicode="4" d="M201 350h534v996zM39 223v148l551 1011q23 41 51.5 62.5t83.5 21.5h164v-1116h135v-59q0 -37 -16.5 -52.5t-49.5 -15.5h-69v-284h-72q-45 0 -63.5 24.5t-18.5 79.5v180h-696z"/>
<glyph glyph-name="five" horiz-adv-x="1064" unicode="5" d="M117 -2q0 23 10 35t23.5 18t29 6t27.5 -2q63 -6 117.5 -10t113.5 -6h16q172 0 255.5 85t83.5 259q0 86 -12.5 140.5t-48.5 98.5t-99.5 71.5t-165.5 27.5h-330v745h783v-61q0 -41 -20.5 -54.5t-55.5 -13.5h-545v-487h168q260 0 373.5 -120t113.5 -347q0 -242 -130 -357.5 t-382 -115.5q-59 0 -146 7t-179 22v59z"/>
<glyph glyph-name="six" horiz-adv-x="1064" unicode="6" d="M244 354q0 -160 66.5 -233.5t228.5 -73.5q139 0 210.5 76t71.5 233v107q0 166 -70.5 234.5t-203.5 68.5q-147 0 -225 -67.5t-78 -225.5v-119zM90 330v573q0 131 25.5 235.5t86 177.5t159 111.5t243.5 38.5q78 0 149.5 -4t151.5 -12v-68q0 -35 -19.5 -46t-41.5 -11 q-66 0 -125.5 5t-112.5 5q-86 0 -147.5 -20.5t-101.5 -54t-62.5 -77.5t-33.5 -89t-14 -88t-3 -78v-162q47 63 120.5 99t186.5 36q215 0 319.5 -111.5t104.5 -297.5v-162q0 -205 -113.5 -312.5t-322.5 -107.5q-211 0 -330 107.5t-119 312.5z"/>
<glyph glyph-name="seven" horiz-adv-x="1064" unicode="7" d="M92 1337v129h823q23 0 37.5 -8t14.5 -37v-63q0 -29 -6.5 -53.5t-16.5 -51.5l-459 -1257q-10 -23 -27.5 -40t-47.5 -17h-101l510 1398h-727z"/>
<glyph glyph-name="eight" horiz-adv-x="1064" unicode="8" d="M242 1085q0 -278 286 -278q145 0 220 67.5t75 212.5q0 152 -80.5 214.5t-210.5 62.5q-139 0 -214.5 -66.5t-75.5 -212.5zM207 358q0 -152 82 -234.5t246 -82.5q92 0 156.5 26.5t101 70.5t52 100.5t15.5 115.5q0 80 -16.5 142.5t-55 105.5t-103.5 65.5t-155 22.5 q-174 0 -248.5 -87t-74.5 -245zM45 338q0 158 49 258t166 160q-53 25 -88 61.5t-54.5 79.5t-27.5 91t-8 97q0 111 34 189t95 127t144 71.5t175 22.5t176.5 -23.5t146.5 -72.5t97 -127t35 -185q0 -49 -10 -100t-32.5 -96t-59.5 -82t-88 -57q66 -27 109.5 -67t69 -91 t36 -112.5t10.5 -131.5q0 -98 -27.5 -179t-88 -139.5t-153.5 -90t-216 -31.5q-104 0 -196.5 25.5t-157 79t-100.5 134t-36 189.5z"/>
<glyph glyph-name="nine" horiz-adv-x="1064" unicode="9" d="M244 942q0 -166 70.5 -234.5t203.5 -68.5q147 0 225 67.5t78 225.5v119q0 160 -66.5 233.5t-228.5 73.5q-139 0 -210.5 -76t-71.5 -233v-107zM90 913v162q0 205 113.5 312.5t322.5 107.5q211 0 330 -107.5t119 -312.5v-573q0 -131 -25.5 -235.5t-86 -177.5t-159 -111.5 t-243.5 -38.5q-78 0 -149.5 4t-151.5 12v68q0 35 19.5 46t41.5 11q66 0 125.5 -5t112.5 -5q131 0 203.5 44t107.5 107.5t43 134t8 121.5v162q-47 -63 -120.5 -99t-186.5 -36q-215 0 -319.5 111.5t-104.5 297.5z"/>
<glyph glyph-name="colon" horiz-adv-x="485" unicode=":" d="M150 1020v205h184v-205h-184zM150 184v205h184v-205h-184z"/>
<glyph glyph-name="semicolon" horiz-adv-x="487" unicode=";" d="M158 1020v205h184v-205h-184zM88 -39l82 438h174l-168 -503h-55q-16 0 -26 9.5t-10 27.5q0 12 3 28z"/>
<glyph glyph-name="less" horiz-adv-x="1024" unicode="&lt;" d="M162 696l586 652l112 -99l-500 -553l500 -555l-115 -100z"/>
<glyph glyph-name="equal" horiz-adv-x="1173" unicode="=" d="M162 905v129h850v-129h-850zM162 414v129h850v-129h-850z"/>
<glyph glyph-name="greater" horiz-adv-x="1024" unicode="&gt;" d="M162 141l500 555l-500 553l112 99l586 -652l-584 -655z"/>
<glyph glyph-name="question" horiz-adv-x="1062" unicode="?" d="M373 -61v202h184v-202h-184zM88 1456q57 18 105.5 29.5t93.5 17.5t88 9.5t90 3.5q111 0 204 -27t159.5 -77t103.5 -125t37 -171q0 -121 -44 -206t-124 -140l-187 -131q-51 -35 -59 -76t-8 -104v-97h-162v105q0 90 16.5 150.5t63.5 91.5l192 133q88 59 119 130.5t31 141.5 q0 123 -87 197.5t-251 74.5q-98 0 -183 -15t-188 -42z"/>
<glyph glyph-name="at" horiz-adv-x="1878" unicode="@" d="M711 498q0 -82 46 -114t148 -32h246v355q-41 4 -70.5 7t-56.5 4t-54.5 2t-64.5 1q-98 0 -146 -28.5t-48 -112.5v-82zM74 709q0 184 57 340.5t171 270.5t283 178.5t390 64.5q207 0 361.5 -56.5t258 -158t154.5 -241.5t51 -308q0 -117 -37 -222.5t-102.5 -183.5 t-155.5 -124t-198 -46h-443q-143 0 -230 71t-87 187v105q0 135 87 198.5t240 63.5q43 0 77 -1t65 -2t62.5 -4t72.5 -7v104q0 66 -30.5 99.5t-125.5 33.5h-295q-47 0 -61 15.5t-14 50.5v63h399q80 0 135 -20.5t89 -57.5t49.5 -89t15.5 -118v-550q72 0 131 39.5t102 102 t66.5 139.5t23.5 151q0 137 -35.5 253.5t-115.5 201.5t-207 133.5t-309 48.5t-319.5 -57.5t-229.5 -156t-138 -231.5t-46 -284q0 -154 40.5 -282t130 -220t228.5 -144.5t336 -52.5q82 0 180 15.5t197 44.5l30 -86q10 -33 -14 -41q-94 -29 -205.5 -47.5t-220.5 -18.5 q-219 0 -381 62.5t-269.5 173t-160.5 264t-53 336.5z"/>
<glyph glyph-name="A" horiz-adv-x="1318" unicode="A" d="M391 530h539l-271 830zM35 -61l514 1527h162q23 0 47 -19.5t33 -41.5l495 -1466h-164l-176 540q-23 -35 -59.5 -58.5t-77.5 -23.5h-461l-145 -458h-168z"/>
<glyph glyph-name="B" horiz-adv-x="1284" unicode="B" d="M307 793h428q70 0 116 21.5t71.5 56t36 76.5t10.5 83v82q0 94 -58.5 160.5t-175.5 66.5h-428v-546zM307 68h424q72 0 124 19t87 53t52.5 79t17.5 96v97q0 51 -15.5 97t-49.5 80t-86 54.5t-128 20.5h-426v-596zM150 -61v1527h583q100 0 175 -25.5t123 -71.5t71.5 -109.5 t23.5 -137.5v-94q0 -98 -39.5 -180t-119.5 -119q104 -35 154 -112.5t50 -176.5v-135q0 -98 -35.5 -167.5t-96 -113.5t-140.5 -64.5t-166 -20.5h-583z"/>
<glyph glyph-name="C" horiz-adv-x="1153" unicode="C" d="M125 324v766q0 176 116.5 276t329.5 100h488v-39q0 -37 -20.5 -62.5t-94.5 -25.5h-366q-293 0 -293 -278v-723q0 -53 15 -102.5t46 -86t77 -59t107 -22.5h549v-43q0 -16 -4 -32t-16 -28t-36 -19t-60 -7h-441q-86 0 -159.5 27.5t-126 77.5t-82 121t-29.5 159z"/>
<glyph glyph-name="D" horiz-adv-x="1327" unicode="D" d="M309 68h393q158 0 248 77.5t90 214.5v680q0 147 -88 223t-250 76h-393v-1271zM152 -61v1527h550q129 0 222.5 -32.5t154 -89t90 -134t29.5 -170.5v-680q0 -92 -30.5 -168.5t-92 -133t-155 -88t-218.5 -31.5h-550z"/>
<glyph glyph-name="E" horiz-adv-x="1191" unicode="E" d="M152 -61v1527h925v-32q0 -45 -16.5 -70t-75.5 -25h-674v-524h699v-39q0 -37 -15.5 -62.5t-74.5 -25.5h-609v-620h791v-41q0 -35 -16.5 -61.5t-73.5 -26.5h-860z"/>
<glyph glyph-name="F" horiz-adv-x="1148" unicode="F" d="M152 37v1429h950v-36q0 -39 -19.5 -65t-81.5 -26h-690v-524h721v-39q0 -39 -21.5 -63.5t-80.5 -24.5h-619v-749h-69q-49 0 -69.5 22.5t-20.5 75.5z"/>
<glyph glyph-name="G" horiz-adv-x="1341" unicode="G" d="M137 332v749q0 92 33 164t91 121t135 74.5t167 25.5h611v-34q0 -49 -24 -71t-85 -22h-502q-115 0 -190.5 -67.5t-75.5 -190.5v-751q0 -55 16.5 -102.5t50 -83t84 -56t115.5 -20.5h256q57 0 100.5 19t72 52t43 78t14.5 94v281q0 41 -16.5 51t-47.5 10h-225q-53 0 -78 14.5 t-25 61.5v53h416q78 0 106.5 -35.5t28.5 -107.5v-328q0 -188 -107.5 -280t-279.5 -92h-258q-94 0 -172 24.5t-134 73.5t-88 122.5t-32 172.5z"/>
<glyph glyph-name="H" horiz-adv-x="1357" unicode="H" d="M152 33v1433h159v-653h729v653h160v-1527h-67q-49 0 -71 21.5t-22 72.5v731q-23 -35 -61.5 -56.5t-95.5 -21.5h-572v-747h-69q-47 0 -68.5 21.5t-21.5 72.5z"/>
<glyph glyph-name="I" horiz-adv-x="497" unicode="I" d="M172 33v1433h162v-1527h-72q-47 0 -68.5 21.5t-21.5 72.5z"/>
<glyph glyph-name="J" horiz-adv-x="817" unicode="J" d="M27 -14q0 47 22.5 64.5t77.5 17.5h131q123 0 183.5 55t60.5 194v1149h162v-1149q0 -193 -97.5 -285.5t-308.5 -92.5h-231v47z"/>
<glyph glyph-name="K" horiz-adv-x="1232" unicode="K" d="M406 729l591 737h197l-592 -735l623 -792h-129q-27 0 -55.5 11t-45.5 34zM152 35v1431h159v-1527h-71q-88 0 -88 96z"/>
<glyph glyph-name="L" horiz-adv-x="1081" unicode="L" d="M152 -61v1527h159v-1398h733v-41q0 -47 -18 -67.5t-70 -20.5h-804z"/>
<glyph glyph-name="M" horiz-adv-x="1800" unicode="M" d="M158 20v1446h176l518 -972q24 -46 45 -46h1q20 1 44 46l520 972h176v-1527h-69q-47 0 -68.5 21.5t-21.5 70.5v1171l-439 -811q-23 -39 -56.5 -68.5t-86.5 -29.5q-51 0 -86 30.5t-55 65.5l-439 813v-1263h-69q-45 0 -67.5 22.5t-22.5 58.5z"/>
<glyph glyph-name="N" horiz-adv-x="1351" unicode="N" d="M152 33v1433h626q104 0 183 -17t131.5 -60t79 -119t26.5 -193v-1138h-68q-47 0 -69.5 21.5t-22.5 72.5v1046q0 76 -13 126t-44 80t-81 42t-122 12h-467v-1400h-69q-47 0 -68.5 21.5t-21.5 72.5z"/>
<glyph glyph-name="O" horiz-adv-x="1409" unicode="O" d="M281 555q0 -268 105.5 -387t315.5 -119q211 0 316.5 119t105.5 389v293q0 106 -16 199.5t-68.5 161t-132.5 106.5t-205 39t-203.5 -39t-132 -106.5t-69.5 -161t-16 -201.5v-293zM121 557v291q0 309 142 478t439 169t439.5 -169t142.5 -478v-293q0 -307 -142.5 -476 t-439.5 -169t-439 169t-142 478z"/>
<glyph glyph-name="P" horiz-adv-x="1243" unicode="P" d="M309 657h389q141 0 205 59.5t64 178.5v205q0 111 -60.5 173t-208.5 62h-389v-678zM150 33v1433h548q100 0 180 -19.5t135.5 -63.5t84 -113.5t28.5 -169.5v-205q0 -53 -11 -117.5t-54 -120t-128 -93.5t-235 -38h-389v-587h-67q-49 0 -70.5 21.5t-21.5 72.5z"/>
<glyph glyph-name="Q" horiz-adv-x="1392" unicode="Q" d="M283 555q0 -258 100 -382t322 -124q221 0 321 124t100 384v293q0 119 -26.5 211t-73.5 154.5t-124 101.5t-197 39q-125 0 -200 -38t-122 -100.5t-73.5 -155.5t-26.5 -214v-293zM123 557v291q0 311 144.5 479t437.5 168t437 -169t144 -478v-293q0 -180 -48 -313t-148 -215 l200 -263h-92q-47 0 -74.5 15.5t-46.5 38.5l-110 137q-55 -23 -121 -34t-141 -11q-297 0 -439.5 169t-142.5 478z"/>
<glyph glyph-name="R" horiz-adv-x="1261" unicode="R" d="M309 750h434q123 0 187.5 60t64.5 179v117q0 109 -57 169t-195 60h-434v-585zM150 33v1433h593q217 0 314.5 -92t97.5 -235v-168q0 -55 -14.5 -108.5t-47 -99.5t-85 -80t-125.5 -50l321 -694h-172l-311 679h-412v-679h-71q-47 0 -67.5 21.5t-20.5 72.5z"/>
<glyph glyph-name="S" horiz-adv-x="1144" unicode="S" d="M82 -14q0 43 20.5 62.5t79.5 19.5h363q170 0 258 63.5t88 187.5q0 88 -56.5 154t-197.5 129l-272 121q-141 63 -204 159.5t-63 223.5q0 162 113 261t352 99h436v-49q0 -49 -25.5 -63.5t-78.5 -14.5h-332q-59 0 -113.5 -11t-96.5 -37.5t-67.5 -71.5t-25.5 -113 q0 -98 53.5 -156.5t159.5 -107.5l258 -119q92 -43 153.5 -85t99.5 -89t53.5 -102.5t15.5 -124.5q0 -115 -45 -189t-116 -117t-161 -60t-178 -17h-471v47z"/>
<glyph glyph-name="T" horiz-adv-x="1204" unicode="T" d="M37 1339v127h1137v-36q0 -49 -16.5 -70t-80.5 -21h-393v-1400h-70q-47 0 -68.5 21.5t-21.5 72.5v1306h-487z"/>
<glyph glyph-name="U" horiz-adv-x="1366" unicode="U" d="M154 330v1136h159v-1138q0 -76 13.5 -126t44 -80t81 -42t121.5 -12h467v1398h160v-1527h-627q-104 0 -183 17t-131 61t-78.5 120t-26.5 193z"/>
<glyph glyph-name="V" horiz-adv-x="1296" unicode="V" d="M27 1466h168l452 -1394l455 1394h168l-510 -1527h-150q-41 0 -61.5 16t-30.5 49z"/>
<glyph glyph-name="W" horiz-adv-x="1849" unicode="W" d="M29 1466h157l320 -1394l340 1259h172l340 -1259l319 1394h156l-356 -1527h-127q-53 0 -84 30.5t-47 91.5l-287 1055l-318 -1177h-114q-61 0 -95 32.5t-47 85.5z"/>
<glyph glyph-name="X" horiz-adv-x="1288" unicode="X" d="M37 -61l512 768l-504 759h176l418 -628l416 628h180l-502 -759l508 -768h-180l-422 632l-418 -632h-184z"/>
<glyph glyph-name="Y" horiz-adv-x="1318" unicode="Y" d="M33 1466h170l450 -778l455 778h174l-553 -919v-608h-67q-47 0 -70 21.5t-23 72.5v516z"/>
<glyph glyph-name="Z" horiz-adv-x="1249" unicode="Z" d="M68 -61v153l901 1247h-877v127h1045v-143l-908 -1255h942v-86q0 -25 -12 -34t-35 -9h-1056z"/>
<glyph glyph-name="bracketleft" horiz-adv-x="872" unicode="[" d="M272 -156v1774h451v-129h-289v-1516h289v-129h-451z"/>
<glyph glyph-name="backslash" horiz-adv-x="1026" unicode="\" d="M123 1538h164l585 -1644h-163z"/>
<glyph glyph-name="bracketright" horiz-adv-x="872" unicode="]" d="M162 -27h287v1516h-287v129h448v-1774h-448v129z"/>
<glyph glyph-name="asciicircum" horiz-adv-x="1198" unicode="^" d="M170 1186l344 485h176l342 -485h-174l-256 364l-254 -364h-178z"/>
<glyph glyph-name="underscore" horiz-adv-x="1226" unicode="_" d="M211 -117h813v-129h-813v129z"/>
<glyph glyph-name="grave" horiz-adv-x="612" unicode="`" d="M127 1638l160 74l215 -493l-39 -19q-17 -9 -33 -9q-13 0 -31 9.5t-32 34.5z"/>
<glyph glyph-name="a" horiz-adv-x="1083" unicode="a" d="M272 240q0 -51 19.5 -85t49.5 -53.5t65.5 -26.5t68.5 -7h313v444q-92 12 -168.5 17.5t-144.5 5.5q-106 0 -154.5 -40t-48.5 -145v-110zM113 229v129q0 172 97 246q92 70 246 70h17q78 -2 149.5 -7t165.5 -20v117q0 80 -47 125t-145 45h-287q-74 0 -93 23.5t-19 58.5v49 h399q184 0 269 -77t85 -224v-825h-477q-166 0 -263 73.5t-97 216.5z"/>
<glyph glyph-name="b" horiz-adv-x="1110" unicode="b" d="M315 68h260q115 0 183.5 61t68.5 184v375q0 127 -68.5 186.5t-180.5 59.5h-263v-866zM154 -61v1538h161v-412h260q203 0 308.5 -88t105.5 -266v-418q0 -180 -105.5 -267t-308.5 -87h-421z"/>
<glyph glyph-name="c" horiz-adv-x="1003" unicode="c" d="M127 309v379q0 86 29.5 155.5t84 119t130 76t166.5 26.5h374v-39q0 -37 -18.5 -64.5t-87.5 -27.5h-268q-121 0 -184.5 -61.5t-63.5 -184.5v-377q0 -109 63.5 -176t184.5 -67h383v-43q0 -35 -19.5 -60.5t-93.5 -25.5h-270q-90 0 -166 25.5t-130.5 73.5t-84 116.5 t-29.5 154.5z"/>
<glyph glyph-name="d" horiz-adv-x="1101" unicode="d" d="M279 313q0 -123 68.5 -184t182.5 -61h261v866h-263q-113 0 -181 -59.5t-68 -186.5v-375zM119 293v418q0 178 104.5 266t306.5 88h261v412h161v-1538h-422q-203 0 -307 87t-104 267z"/>
<glyph glyph-name="e" horiz-adv-x="1099" unicode="e" d="M274 565h488q39 0 50 12.5t11 49.5v110q0 104 -71.5 166t-206.5 62q-125 0 -198 -61.5t-73 -166.5v-172zM113 293v401q0 106 34.5 183t94 124.5t137.5 70t166 22.5q94 0 175 -23.5t140.5 -69t92 -112t32.5 -152.5v-168q0 -66 -31.5 -99.5t-109.5 -33.5h-570v-143 q0 -109 64.5 -167t157.5 -58h446v-50q0 -37 -18.5 -58t-92.5 -21h-335q-86 0 -157 24.5t-121 70.5t-77.5 111.5t-27.5 147.5z"/>
<glyph glyph-name="f" horiz-adv-x="862" unicode="f" d="M57 934v131h226v143q0 61 11 110.5t42 85.5t84 54.5t135 18.5h250v-33q0 -96 -115 -96h-135q-37 0 -58.5 -11.5t-33.5 -30t-15.5 -41t-3.5 -42.5v-158h316v-57q0 -41 -35 -57.5t-70 -16.5h-211v-995h-69q-47 0 -69.5 22.5t-22.5 75.5v897h-226z"/>
<glyph glyph-name="g" d="M283 291q0 -70 22.5 -114t57 -68.5t74.5 -32.5t77 -8h303v866h-303q-119 0 -175 -63.5t-56 -159.5v-420zM123 295v418q0 176 106.5 264t284.5 88h465v-1264q0 -53 -15.5 -105t-53.5 -93t-100 -66.5t-157 -25.5h-430v49q0 43 24.5 61.5t78.5 18.5h321q86 0 128 47t42 118 v134h-303q-184 0 -287.5 91t-103.5 265z" unicode="g"/>
<glyph glyph-name="h" horiz-adv-x="1148" unicode="h" d="M152 37v1440h161v-412h332q190 0 279.5 -83t89.5 -249v-794h-68q-47 0 -70.5 22.5t-23.5 75.5v694q0 109 -54.5 156t-152.5 47h-332v-995h-71q-47 0 -68.5 22.5t-21.5 75.5z"/>
<glyph glyph-name="i" horiz-adv-x="471" unicode="i" d="M152 37v1028h161v-1126h-67q-51 0 -72.5 22.5t-21.5 75.5zM147 1360v117h170v-228h-49q-49 0 -85 29t-36 82z"/>
<glyph glyph-name="j" horiz-adv-x="616" unicode="j" d="M299 1360v117h168v-228h-49q-49 0 -84 29t-35 82zM-23 -442q0 41 26 62.5t65 21.5h92q47 0 74.5 12t43 36.5t20.5 59.5t5 78v1237h160v-1237q0 -166 -74 -241.5t-229 -75.5h-183v47z"/>
<glyph glyph-name="k" horiz-adv-x="1075" unicode="k" d="M391 547l453 518h184l-459 -520l490 -606h-115q-25 0 -52.5 9t-43.5 29zM154 37v1440h159v-1538h-67q-49 0 -70.5 22.5t-21.5 75.5z"/>
<glyph glyph-name="l" horiz-adv-x="475" unicode="l" d="M150 37v1440h161v-1538h-71q-47 0 -68.5 22.5t-21.5 75.5z"/>
<glyph glyph-name="m" horiz-adv-x="1579" unicode="m" d="M141 37v1028h955q178 0 259 -75t81 -236v-815h-74q-47 0 -67.5 22.5t-20.5 75.5v717q0 180 -178 180h-226v-995h-69q-49 0 -70.5 22.5t-21.5 75.5v897h-406v-995h-72q-47 0 -68.5 22.5t-21.5 75.5z"/>
<glyph glyph-name="n" horiz-adv-x="1142" unicode="n" d="M143 37v1028h484q104 0 175.5 -18.5t115 -60.5t62.5 -108.5t19 -160.5v-778h-69q-49 0 -71.5 22.5t-22.5 75.5v680q0 63 -11.5 105t-36 66.5t-64.5 35t-97 10.5h-322v-995h-67q-49 0 -72 22.5t-23 75.5z"/>
<glyph glyph-name="o" horiz-adv-x="1150" unicode="o" d="M285 373q0 -182 69.5 -257t218.5 -75q147 0 218 71.5t71 260.5v262q0 94 -13 150.5t-49 97.5t-88.5 61.5t-138.5 20.5q-145 0 -216.5 -73t-71.5 -257v-262zM123 373v262q0 248 117.5 353.5t332.5 105.5q219 0 335 -104.5t116 -354.5v-262q0 -248 -113.5 -355.5 t-337.5 -107.5q-217 0 -333.5 106.5t-116.5 356.5z"/>
<glyph glyph-name="p" horiz-adv-x="1103" unicode="p" d="M303 68h270q242 0 242 239v385q0 119 -58.5 180.5t-183.5 61.5h-270v-866zM141 -360v1425h432q403 0 404 -373v-385q0 -193 -104.5 -280.5t-299.5 -87.5h-270v-398h-70q-49 0 -70.5 22.5t-21.5 76.5z"/>
<glyph glyph-name="q" horiz-adv-x="1097" unicode="q" d="M289 307q0 -239 237 -239h2h273v866h-273q-125 0 -182 -61.5t-57 -180.5v-385zM127 307v385q0 373 401 373h433v-1524h-68q-49 0 -70.5 22.5t-21.5 76.5v299h-273q-195 0 -298 88t-103 280z"/>
<glyph glyph-name="r" horiz-adv-x="813" unicode="r" d="M137 37v756q0 129 64.5 200.5t218.5 71.5h354v-27q0 -59 -36 -81.5t-91 -22.5h-227q-72 0 -97.5 -41t-25.5 -100v-854h-70q-47 0 -68.5 22.5t-21.5 75.5z"/>
<glyph glyph-name="s" horiz-adv-x="935" unicode="s" d="M98 776q0 51 20.5 102.5t64.5 92.5t111.5 67.5t162.5 26.5h340v-51q0 -43 -28 -61.5t-83 -18.5h-229q-106 0 -151.5 -46t-45.5 -112q0 -57 29.5 -101t111.5 -69l189 -57q137 -41 199.5 -121t62.5 -184q0 -147 -102.5 -226t-276.5 -79h-369v43q0 86 105 86h264 q98 0 157.5 42t59.5 134q0 63 -30.5 104t-104.5 66l-188 63q-133 45 -201 113.5t-68 185.5z"/>
<glyph glyph-name="t" horiz-adv-x="708" unicode="t" d="M29 934v131h190v371h162v-371h274v-47q0 -37 -22.5 -60.5t-93.5 -23.5h-158v-723q0 -68 23.5 -105.5t101.5 -37.5h166v-45q0 -33 -23.5 -58.5t-89.5 -25.5h-53q-158 0 -222.5 66.5t-64.5 205.5v723h-190z"/>
<glyph glyph-name="u" d="M133 319v746h160v-746q0 -80 13 -129t42 -76.5t76 -36.5t115 -9h280v997h162v-1126h-442q-104 0 -181 17t-126.5 60t-74 117t-24.5 186z" unicode="u"/>
<glyph glyph-name="v" horiz-adv-x="1015" unicode="v" d="M23 1065h153l334 -1010l330 1010h145l-373 -1126h-137q-41 0 -64.5 19t-37.5 62z"/>
<glyph glyph-name="w" horiz-adv-x="1499" unicode="w" d="M10 1065h144l241 -967l275 920h153l279 -920l237 967h146l-289 -1126h-104q-78 0 -105 94l-239 776l-267 -870h-98q-55 0 -74.5 26.5t-32.5 73.5z"/>
<glyph glyph-name="x" horiz-adv-x="1079" unicode="x" d="M31 -61l413 565l-399 561h170l317 -453l320 453h174l-401 -561l415 -565h-172l-329 456l-334 -456h-174z"/>
<glyph glyph-name="y" d="M131 293v772h162v-770q0 -115 39 -172q38 -55 140 -55h7q84 2 176.5 8t163.5 12v977h162v-1262q0 -61 -19.5 -115.5t-60.5 -93t-105.5 -61t-154.5 -22.5h-455v49q0 47 23.5 68.5t83.5 21.5h348q104 0 141 42t37 113v154q-78 -8 -165 -12t-183 -8h-14q-165 0 -244 90 q-82 94 -82 264z" unicode="y"/>
<glyph glyph-name="z" horiz-adv-x="1005" unicode="z" d="M74 -61v145l659 850h-631v131h789v-143l-666 -852h693v-78q0 -53 -56 -53h-788z"/>
<glyph glyph-name="braceleft" horiz-adv-x="874" unicode="{" d="M203 668v118q78 4 129 38t51 118v420q0 125 59.5 191.5t182.5 66.5h116v-117q-104 -4 -155 -33.5t-51 -109.5v-406q0 -86 -27 -139t-80 -88q106 -80 107 -229v-389q0 -86 48 -113t158 -29v-117h-127q-231 0 -231 248v412q0 76 -52 114t-128 44z"/>
<glyph glyph-name="bar" horiz-adv-x="638" unicode="|" d="M262 -106v1677h141v-1677h-141z"/>
<glyph glyph-name="braceright" horiz-adv-x="876" unicode="}" d="M154 -33q113 2 160.5 29t47.5 113v389q0 76 25 132t82 97q-55 35 -81 88t-26 139v406q0 80 -52 109.5t-156 33.5v117h116q123 0 183.5 -66.5t60.5 -191.5v-420q0 -84 51 -117.5t129 -38.5v-118q-78 -6 -129 -44t-51 -114v-412q0 -248 -233 -248h-127v117z"/>
<glyph glyph-name="asciitilde" horiz-adv-x="1482" unicode="~" d="M127 545q6 80 30.5 148.5t67.5 118.5t105.5 79t142.5 29q57 0 105.5 -13.5t89.5 -39t78.5 -64.5t76.5 -88q43 -55 95.5 -85t117.5 -30q90 0 141.5 59.5t53.5 188.5h145q0 -76 -18.5 -144.5t-58 -121t-103 -83t-156.5 -30.5q-113 0 -192.5 48t-145.5 130q-61 78 -112 111 t-113 33q-94 0 -143 -68t-58 -178h-149z"/>
<glyph glyph-name="uni00A0" horiz-adv-x="614" unicode=" "/>
<glyph glyph-name="cent" horiz-adv-x="1001" unicode="¢" d="M291 311q0 -152 115 -215l231 838h-98q-121 0 -184.5 -61.5t-63.5 -184.5v-377zM129 309v379q0 86 29.5 155.5t84 119t130.5 76t166 26.5h135l69 248h140l-70 -248h100v-39q0 -37 -17 -64.5t-89 -27.5h-29l-241 -866h385v-43q0 -35 -19.5 -60.5t-93.5 -25.5h-270h-18.5 t-18.5 2l-64 -232h-139l70 256q-111 39 -175.5 127t-64.5 217z"/>
<glyph glyph-name="sterling" horiz-adv-x="1153" unicode="£" d="M78 -61v141q74 35 119 120t45 189v238h-158v129h158v340q0 104 33.5 180t95 124t147.5 71.5t191 23.5q78 0 163.5 -13.5t190.5 -45.5l-10 -125q-51 16 -94.5 26.5t-83 16.5t-81.5 8t-92 2q-139 0 -220 -63.5t-81 -204.5v-340h326v-41q0 -35 -19.5 -61.5t-93.5 -26.5h-213 v-234q0 -104 -41 -186t-127 -139h857v-43q0 -35 -19.5 -60.5t-93.5 -25.5h-899z"/>
<glyph glyph-name="yen" horiz-adv-x="1355" unicode="¥" d="M47 1466h172l457 -784l459 784h176l-477 -792h327v-43q0 -35 -19.5 -60.5t-92.5 -25.5h-295v-199h407v-43q0 -35 -19.5 -60.5t-92.5 -25.5h-295v-278h-70q-47 0 -69.5 21.5t-22.5 74.5v182h-408v129h408v199h-408v129h330z"/>
<glyph glyph-name="dieresis" horiz-adv-x="641" unicode="¨" d="M414 1219v184h172v-184h-172zM59 1219v184h174v-184h-174z"/>
<glyph glyph-name="copyright" horiz-adv-x="1773" unicode="©" d="M477 557v277q0 86 30 155.5t84 117.5t130 74.5t166 26.5h289v-37q0 -37 -17.5 -64.5t-89.5 -27.5h-182q-121 0 -184.5 -61.5t-63.5 -183.5v-275q0 -111 63.5 -177.5t184.5 -66.5h297v-43q0 -35 -19.5 -61.5t-93.5 -26.5h-184q-90 0 -166 27t-130 75t-84 116.5t-30 154.5z M201 711q0 -152 50 -277t140 -215t217 -140t281 -50q152 0 277.5 50t216 140t140.5 215t50 277q0 150 -49 274.5t-139.5 213.5t-216.5 139.5t-279 50.5q-154 0 -280 -50.5t-217 -140.5t-141 -213.5t-50 -273.5zM78 711q0 178 60.5 325.5t168 253t257 164.5t327.5 59 t326.5 -59t256 -164.5t168 -253t60.5 -325.5t-60.5 -326.5t-168 -254t-256 -165t-326.5 -59.5t-327.5 59.5t-257 165t-168 254t-60.5 326.5z"/>
<glyph glyph-name="guillemotleft" horiz-adv-x="921" unicode="«" d="M395 526l336 551l105 -69l-291 -484l291 -481l-105 -70zM84 526l336 551l104 -69l-291 -484l291 -481l-104 -70z"/>
<glyph glyph-name="uni00AD" horiz-adv-x="1118" unicode="­" d="M135 641v131h850v-131h-850z"/>
<glyph glyph-name="registered" horiz-adv-x="1783" unicode="®" d="M698 741h260q158 0 158 150v57q0 68 -38 105t-120 37h-260v-349zM561 262v946h397q150 0 222.5 -65.5t72.5 -169.5v-94q0 -35 -10 -72t-32.5 -69.5t-57.5 -58.5t-86 -38l207 -459h-146l-190 441h-240v-441h-63q-37 0 -55.5 18.5t-18.5 61.5zM201 711q0 -152 50 -277 t140 -215t217 -140t281 -50q152 0 277.5 50t216 140t140.5 215t50 277q0 150 -49 274.5t-139.5 213.5t-216.5 139.5t-279 50.5q-154 0 -280 -50.5t-217 -140.5t-141 -213.5t-50 -273.5zM78 711q0 178 60.5 325.5t168 253t257 164.5t327.5 59t326.5 -59t256 -164.5t168 -253 t60.5 -325.5t-60.5 -326.5t-168 -254t-256 -165t-326.5 -59.5t-327.5 59.5t-257 165t-168 254t-60.5 326.5z"/>
<glyph glyph-name="acute" horiz-adv-x="634" unicode="´" d="M152 1196l163 299h179l-187 -248q-23 -29 -43 -40t-61 -11h-51z"/>
<glyph glyph-name="cedilla" horiz-adv-x="647" unicode="¸" d="M143 -467l15 94q63 -6 92 -6q92 0 131 20.5t39 57.5q0 20 -7 36.5t-26.5 27t-55.5 16.5t-93 10l55 164h125l-29 -88q88 -14 123 -55t35 -107q0 -86 -67.5 -133t-209.5 -47q-35 0 -66.5 3t-60.5 7z"/>
<glyph glyph-name="guillemotright" horiz-adv-x="921" unicode="»" d="M395 43l291 481l-291 484l105 69l336 -551l-336 -553zM84 43l291 481l-291 484l104 69l336 -551l-336 -553z"/>
<glyph glyph-name="circumflex" horiz-adv-x="931" unicode="ˆ" d="M164 1190l219 268h164l219 -268h-154l-147 184l-148 -184h-153z"/>
<glyph glyph-name="uni0400" horiz-adv-x="1191" unicode="Ѐ" d="M412 1876h178l149 -270h-51q-41 0 -61.5 11t-42.5 40zM152 -61v1527h925v-32q0 -45 -16.5 -70t-75.5 -25h-674v-526h699v-39q0 -37 -15.5 -62.5t-74.5 -25.5h-609v-618h791v-41q0 -35 -16.5 -61.5t-73.5 -26.5h-860z"/>
<glyph glyph-name="afii10023" horiz-adv-x="1191" unicode="Ё" d="M698 1628v184h172v-184h-172zM344 1628v184h174v-184h-174zM152 -61v1527h925v-32q0 -45 -16.5 -70t-75.5 -25h-674v-526h699v-39q0 -37 -15.5 -62.5t-74.5 -25.5h-609v-618h791v-41q0 -35 -16.5 -61.5t-73.5 -26.5h-860z"/>
<glyph glyph-name="afii10051" horiz-adv-x="1755" unicode="Ђ" d="M33 1339v127h1138v-36q0 -49 -17 -70t-81 -21h-393v-510q215 113 428 113q115 0 213 -32.5t171 -96t115 -158t42 -217.5q0 -246 -131.5 -372.5t-374.5 -126.5h-127v38q0 37 19.5 64t80.5 27h21q174 0 262 78.5t88 275.5q0 190 -105.5 287.5t-277.5 97.5 q-104 0 -204.5 -23.5t-219.5 -83.5v-761h-68q-47 0 -69.5 21.5t-22.5 72.5v1306h-487z"/>
<glyph glyph-name="afii10052" horiz-adv-x="1142" unicode="Ѓ" d="M502 1606l149 270h178l-172 -219q-23 -29 -43 -40t-61 -11h-51zM152 37v1429h950v-36q0 -39 -19.5 -65t-81.5 -26h-690v-1400h-69q-49 0 -69.5 22.5t-20.5 75.5z"/>
<glyph glyph-name="afii10053" horiz-adv-x="1171" unicode="Є" d="M133 324v766q0 174 117 275t330 101h487v-39q0 -37 -19.5 -62.5t-95.5 -25.5h-366q-293 0 -293 -278v-289h604v-41q0 -35 -16.5 -61.5t-75.5 -26.5h-512v-305q0 -53 15.5 -102.5t46 -86t76.5 -59t108 -22.5h548v-43q0 -33 -20 -59.5t-94 -26.5h-443q-86 0 -159.5 28.5 t-125.5 78.5t-82 121t-30 157z"/>
<glyph glyph-name="afii10054" horiz-adv-x="1144" unicode="Ѕ" d="M82 -14q0 43 20.5 62.5t79.5 19.5h363q170 0 258 63.5t88 187.5q0 88 -56.5 155t-197.5 130l-272 119q-141 63 -204 159.5t-63 223.5q0 162 113 261t352 99h436v-49q0 -49 -25.5 -63.5t-78.5 -14.5h-332q-59 0 -113.5 -11t-96.5 -37.5t-67.5 -71.5t-25.5 -113 q0 -98 53.5 -157.5t159.5 -108.5l258 -117q92 -43 153.5 -86t99.5 -90t53.5 -102.5t15.5 -122.5q0 -115 -45 -189t-116 -117t-161 -60t-178 -17h-471v47z"/>
<glyph glyph-name="afii10055" horiz-adv-x="497" unicode="І" d="M172 33v1433h162v-1527h-72q-47 0 -68.5 21.5t-21.5 72.5z"/>
<glyph glyph-name="afii10056" horiz-adv-x="460" unicode="Ї" d="M322 1628v184h172v-184h-172zM152 33v1433h161v-1527h-71q-47 0 -68.5 21.5t-21.5 72.5zM-33 1628v184h174v-184h-174z"/>
<glyph glyph-name="afii10057" horiz-adv-x="817" unicode="Ј" d="M27 -14q0 47 22.5 64.5t77.5 17.5h131q123 0 183.5 55t60.5 194v1149h162v-1149q0 -193 -97.5 -285.5t-308.5 -92.5h-231v47z"/>
<glyph glyph-name="afii10058" horiz-adv-x="2328" unicode="Љ" d="M1337 68h414q72 0 124 19t87 53t52.5 79t17.5 96v97q0 51 -15.5 97t-49.5 80t-86 54.5t-128 20.5h-416v-596zM47 -14q0 47 21.5 64.5t76.5 17.5h27q55 0 91 13t55.5 42t27.5 77t8 117v1149h983v-673h418q86 0 166 -20.5t139.5 -63.5t95 -110t35.5 -159v-135 q0 -100 -35.5 -169.5t-95 -114t-139.5 -63.5t-168 -19h-573v1400h-664v-1022q0 -96 -18.5 -166.5t-60.5 -117.5t-111.5 -70.5t-173.5 -23.5h-105v47z"/>
<glyph glyph-name="afii10059" horiz-adv-x="2164" unicode="Њ" d="M1198 68h412q70 0 123 19t86.5 53t51 79t17.5 96v97q0 51 -15 97t-48 80t-86 54.5t-127 20.5h-414v-596zM152 33v1433h159v-653h729v653h158v-673h412q92 0 172 -22.5t139 -67t93 -111t34 -152.5v-135q0 -98 -36 -167.5t-96.5 -113.5t-139 -64.5t-164.5 -20.5h-572v815 q-25 -31 -64.5 -49.5t-92.5 -18.5h-572v-747h-69q-47 0 -68.5 21.5t-21.5 72.5z"/>
<glyph glyph-name="afii10060" horiz-adv-x="1533" unicode="Ћ" d="M43 1339v127h1137v-36q0 -49 -16.5 -70t-80.5 -21h-393v-284h330q188 0 276 -81t88 -247v-788h-67q-92 0 -92 96v690q0 109 -54.5 156t-150.5 47h-330v-989h-69q-53 0 -72 26.5t-19 69.5v1304h-487z"/>
<glyph glyph-name="afii10061" horiz-adv-x="1245" unicode="Ќ" d="M438 1606l150 270h178l-172 -219q-23 -29 -43.5 -40t-61.5 -11h-51zM385 727q63 39 108.5 84t79 98.5t61.5 120t56 150.5q47 139 146.5 212.5t255.5 73.5h90v-32q0 -45 -16.5 -70t-75.5 -25q-76 0 -147 -48t-116 -165q-41 -109 -95 -222t-148 -195l620 -770h-186zM154 35 v1431h159v-1527h-71q-88 0 -88 96z"/>
<glyph glyph-name="uni040D" horiz-adv-x="1347" unicode="Ѝ" d="M524 1876h178l150 -270h-51q-41 0 -61.5 11t-43.5 40zM152 20v1446h159v-1390l688 1390h193v-1527h-70q-47 0 -68.5 21.5t-21.5 70.5v1179l-575 -1175q-25 -49 -60 -72.5t-88 -23.5h-67q-45 0 -67.5 22.5t-22.5 58.5z"/>
<glyph glyph-name="afii10062" horiz-adv-x="1251" unicode="Ў" d="M328 1839h116q6 -84 58.5 -122t122.5 -38q66 0 117 39t59 121h117q-6 -115 -81 -189.5t-219 -74.5q-135 0 -209.5 74.5t-80.5 189.5zM113 766v700h159v-698q0 -223 205 -223q55 0 120 2t128 7t119.5 11t95.5 13v888h160v-1237q0 -61 -18.5 -114.5t-59.5 -92t-104.5 -61 t-153.5 -22.5h-598v49q0 47 23.5 67.5t82.5 20.5h492q104 0 140 42t36 113v220q-47 -6 -108.5 -12.5t-127 -12.5t-127 -9t-108.5 -3q-176 0 -266 92t-90 260z"/>
<glyph glyph-name="afii10145" horiz-adv-x="1355" unicode="Џ" d="M150 -61v1527h159v-1398h727v1398h160v-1527h-444v-349h-68q-47 0 -69.5 21.5t-22.5 75.5v252h-442z"/>
<glyph glyph-name="afii10017" horiz-adv-x="1318" unicode="А" d="M391 530h539l-271 830zM35 -61l514 1527h162q23 0 47 -19.5t33 -41.5l495 -1466h-164l-174 530q-29 -31 -64.5 -51.5t-74.5 -20.5h-461l-145 -458h-168z"/>
<glyph glyph-name="afii10018" horiz-adv-x="1284" unicode="Б" d="M307 68h424q72 0 124 19t87 53t52.5 79t17.5 96v97q0 51 -15.5 97t-49.5 80t-86 54.5t-128 20.5h-426v-596zM150 -61v1527h878v-41q0 -37 -16.5 -62.5t-73.5 -25.5h-631v-544h428q94 0 174 -21.5t138.5 -65.5t91 -111t32.5 -155v-135q0 -98 -35.5 -167.5t-97 -113.5 t-140.5 -64.5t-165 -20.5h-583z"/>
<glyph glyph-name="afii10019" horiz-adv-x="1284" unicode="В" d="M307 793h428q70 0 116 21.5t71.5 56t36 76.5t10.5 83v82q0 94 -58.5 160.5t-175.5 66.5h-428v-546zM307 68h424q72 0 124 19t87 53t52.5 79t17.5 96v97q0 51 -15.5 97t-49.5 80t-86 54.5t-128 20.5h-426v-596zM150 -61v1527h583q100 0 175 -25.5t123 -71.5t71.5 -109.5 t23.5 -137.5v-94q0 -98 -36.5 -181t-124.5 -120q102 -33 154 -107.5t52 -179.5v-135q0 -98 -37.5 -167.5t-99 -113.5t-140.5 -64.5t-161 -20.5h-583z"/>
<glyph glyph-name="afii10020" horiz-adv-x="1142" unicode="Г" d="M152 37v1429h950v-36q0 -39 -19.5 -65t-81.5 -26h-690v-1400h-69q-49 0 -69.5 22.5t-20.5 75.5z"/>
<glyph glyph-name="afii10021" horiz-adv-x="1402" unicode="Д" d="M322 88h729v1251h-551v-213q0 -96 -7.5 -226t-27 -270.5t-54 -281.5t-89.5 -260zM41 88h109q35 55 68.5 151.5t61 227.5t44 295t16.5 356v348h870v-1378h123v-498h-71q-47 0 -67.5 21.5t-20.5 75.5v272h-973v-369h-72q-45 0 -66.5 21.5t-21.5 75.5v401z"/>
<glyph glyph-name="afii10022" horiz-adv-x="1191" unicode="Е" d="M152 -61v1527h925v-32q0 -45 -16.5 -70t-75.5 -25h-674v-526h699v-39q0 -37 -15.5 -62.5t-74.5 -25.5h-609v-618h791v-41q0 -35 -16.5 -61.5t-73.5 -26.5h-860z"/>
<glyph glyph-name="afii10024" horiz-adv-x="1832" unicode="Ж" d="M1018 727q63 39 111.5 84t86 98.5t68.5 120t59 150.5q25 70 51.5 123t64.5 90t92.5 55t131.5 18h91v-32q0 -45 -16.5 -70t-76.5 -25q-37 0 -64.5 -11t-51 -36.5t-43 -66.5t-41.5 -99q-41 -109 -104.5 -222t-159.5 -195l579 -770h-186zM838 35v1431h159v-1527h-71 q-88 0 -88 96zM37 -61l579 770q-96 82 -159.5 195.5t-104.5 221.5q-23 57 -42 98.5t-42.5 67t-51.5 36.5t-64 11q-59 0 -76 25t-17 70v32h91q78 0 131 -18t92 -55t65.5 -90.5t50.5 -122.5q29 -84 60 -150.5t68.5 -120t85 -98.5t112.5 -84l-592 -788h-186z"/>
<glyph glyph-name="afii10025" horiz-adv-x="1071" unicode="З" d="M76 -2q0 65 60 65q10 0 22 -2q59 -8 128.5 -12t145.5 -4q88 0 159 12.5t120 47t75.5 95t26.5 156.5q0 88 -19.5 148.5t-60.5 95.5t-102.5 50.5t-147.5 15.5h-276q-23 0 -31 8t-8 31v90h315q82 0 138.5 17t90 55t48 97.5t14.5 143.5q0 258 -287 258q-100 0 -199.5 -10 t-191.5 -29v125q100 20 200.5 31.5t192.5 11.5q94 0 177.5 -21.5t142.5 -67.5t92 -119t33 -171v-12q-4 -129 -45 -223.5t-144 -141.5q70 -20 115 -57t69.5 -86t34 -106.5t9.5 -118.5q0 -129 -37 -217t-105.5 -143.5t-166 -78t-214.5 -22.5h-20q-45 0 -84 1t-81 4t-87 8 t-102 16v59z"/>
<glyph glyph-name="afii10026" horiz-adv-x="1347" unicode="И" d="M152 20v1446h159v-1390l688 1390h193v-1527h-70q-47 0 -68.5 21.5t-21.5 70.5v1179l-575 -1175q-25 -49 -60 -72.5t-88 -23.5h-67q-45 0 -67.5 22.5t-22.5 58.5z"/>
<glyph glyph-name="afii10027" horiz-adv-x="1347" unicode="Й" d="M412 1839h116q6 -84 58.5 -122t122.5 -38q66 0 117 39t59 121h116q-6 -115 -80.5 -189.5t-218.5 -74.5q-135 0 -209.5 74.5t-80.5 189.5zM152 20v1446h159v-1390l688 1390h193v-1527h-70q-47 0 -68.5 21.5t-21.5 70.5v1179l-575 -1175q-25 -49 -60 -72.5t-88 -23.5h-67 q-45 0 -67.5 22.5t-22.5 58.5z"/>
<glyph glyph-name="afii10028" horiz-adv-x="1245" unicode="К" d="M385 727q63 39 108.5 84t79 98.5t61.5 120t56 150.5q47 139 146.5 212.5t255.5 73.5h90v-32q0 -45 -16.5 -70t-75.5 -25q-76 0 -147 -48t-116 -165q-41 -109 -95 -222t-148 -195l620 -770h-186zM154 35v1431h159v-1527h-71q-88 0 -88 96z"/>
<glyph glyph-name="afii10029" horiz-adv-x="1509" unicode="Л" d="M47 -14q0 47 22.5 64.5t77.5 17.5q66 0 106 13t62.5 42t30.5 77t8 117v1149h987v-1527h-67q-47 0 -69.5 21.5t-22.5 72.5v1306h-666v-1022q0 -96 -17.5 -166.5t-59.5 -117.5t-111.5 -70.5t-173.5 -23.5h-107v47z"/>
<glyph glyph-name="afii10030" horiz-adv-x="1800" unicode="М" d="M158 20v1446h176l516 -962q24 -46 47 -46h11q12 1 36 46l518 962h176v-1527h-69q-47 0 -68.5 21.5t-21.5 70.5v1167l-439 -807q-23 -39 -56.5 -68.5t-86.5 -29.5q-51 0 -86 30.5t-55 65.5l-439 809v-1259h-69q-45 0 -67.5 22.5t-22.5 58.5z"/>
<glyph glyph-name="afii10031" horiz-adv-x="1357" unicode="Н" d="M152 33v1433h159v-653h729v653h160v-1527h-67q-49 0 -71 21.5t-22 72.5v727q-25 -33 -63.5 -53.5t-93.5 -20.5h-572v-747h-69q-47 0 -68.5 21.5t-21.5 72.5z"/>
<glyph glyph-name="afii10032" horiz-adv-x="1409" unicode="О" d="M281 555q0 -248 105.5 -377t315.5 -129q211 0 316.5 129t105.5 379v293q0 106 -26.5 199.5t-78.5 161t-132 106.5t-185 39q-104 0 -183 -39t-132 -106.5t-79.5 -161t-26.5 -201.5v-293zM121 557v291q0 309 142 478t439 169t439.5 -169t142.5 -478v-293 q0 -307 -142.5 -476t-439.5 -169t-439 169t-142 478z"/>
<glyph glyph-name="afii10033" horiz-adv-x="1363" unicode="П" d="M154 33v1433h1046v-1527h-67q-47 0 -70 21.5t-23 72.5v1306h-727v-1400h-69q-47 0 -68.5 21.5t-21.5 72.5z"/>
<glyph glyph-name="afii10034" horiz-adv-x="1243" unicode="Р" d="M309 657h389q141 0 205 59.5t64 178.5v205q0 111 -60.5 173t-208.5 62h-389v-678zM150 33v1433h548q100 0 180 -19.5t135.5 -63.5t84 -113.5t28.5 -169.5v-205q0 -53 -11 -117.5t-54 -120t-128 -93.5t-235 -38h-389v-587h-67q-49 0 -70.5 21.5t-21.5 72.5z"/>
<glyph glyph-name="afii10035" horiz-adv-x="1153" unicode="С" d="M125 324v766q0 176 116.5 276t329.5 100h488v-39q0 -37 -20.5 -62.5t-94.5 -25.5h-366q-293 0 -293 -278v-723q0 -53 15 -102.5t46 -86t77 -59t107 -22.5h549v-43q0 -16 -4 -32t-16 -28t-36 -19t-60 -7h-441q-86 0 -159.5 27.5t-126 77.5t-82 121t-29.5 159z"/>
<glyph glyph-name="afii10036" horiz-adv-x="1204" unicode="Т" d="M37 1339v127h1137v-36q0 -49 -16.5 -70t-80.5 -21h-393v-1400h-70q-47 0 -68.5 21.5t-21.5 72.5v1306h-487z"/>
<glyph glyph-name="afii10037" horiz-adv-x="1251" unicode="У" d="M113 766v700h159v-698q0 -223 205 -223q55 0 120 2t128 7t119.5 11t95.5 13v888h160v-1237q0 -61 -18.5 -114.5t-59.5 -92t-104.5 -61t-153.5 -22.5h-598v49q0 47 23.5 67.5t82.5 20.5h492q104 0 140 42t36 113v220q-47 -6 -108.5 -12.5t-127 -12.5t-127 -9t-108.5 -3 q-176 0 -266 92t-90 260z"/>
<glyph glyph-name="afii10038" horiz-adv-x="1380" unicode="Ф" d="M772 301q86 8 149.5 33.5t106.5 73t64.5 120t21.5 174.5v43q0 176 -85 276.5t-257 121.5v-842zM270 700q0 -203 85 -294t255 -105v842q-340 -41 -340 -400v-43zM111 702v41q0 264 131 393.5t368 145.5v195h162v-195q238 -16 370 -146t132 -393v-43q0 -262 -132 -391 t-370 -147v-223h-70q-92 0 -92 96v127q-238 16 -368.5 146t-130.5 394z"/>
<glyph glyph-name="afii10039" horiz-adv-x="1288" unicode="Х" d="M37 -61l512 768l-504 759h178l414 -622l416 622h182l-504 -759l510 -768h-184l-420 626l-416 -626h-184z"/>
<glyph glyph-name="afii10040" horiz-adv-x="1400" unicode="Ц" d="M150 -61v1527h159v-1398h727v1398h160v-1386h147v-490h-69q-47 0 -68.5 21.5t-21.5 75.5v252h-1034z"/>
<glyph glyph-name="afii10041" horiz-adv-x="1306" unicode="Ч" d="M143 750v716h160v-714q0 -106 54.5 -153.5t148.5 -47.5h477v915h160v-1527h-68q-92 0 -92 96v387h-477q-186 0 -274.5 82t-88.5 246z"/>
<glyph glyph-name="afii10042" horiz-adv-x="1775" unicode="Ш" d="M150 -61v1527h159v-1398h494v1398h160v-1398h493v1398h160v-1527h-1466z"/>
<glyph glyph-name="afii10043" horiz-adv-x="1810" unicode="Щ" d="M150 -61v1527h159v-1398h494v1398h160v-1398h493v1398h160v-1398h143v-478h-69q-47 0 -69 21.5t-22 75.5v252h-1449z"/>
<glyph glyph-name="afii10044" horiz-adv-x="1454" unicode="Ъ" d="M477 68h424q70 0 123 19t88 53t52.5 79t17.5 96v97q0 51 -15.5 97t-49.5 80t-86 54.5t-128 20.5h-426v-596zM47 1305v129h430v-641h428q94 0 174 -19.5t138.5 -62.5t91 -109.5t32.5 -161.5v-135q0 -98 -35.5 -167.5t-97 -113.5t-140.5 -64.5t-165 -20.5h-584v1366h-272z "/>
<glyph glyph-name="afii10045" horiz-adv-x="1714" unicode="Ы" d="M1393 35v1442h159v-1538h-69q-90 0 -90 96zM311 68h424q70 0 123 19t88 53t52.5 79t17.5 96v97q0 51 -15.5 97t-49 80t-86 54.5t-128.5 20.5h-426v-596zM154 -61v1527h157v-673h428q94 0 174 -18.5t138.5 -59.5t91.5 -108.5t33 -166.5v-135q0 -98 -36 -167.5 t-97.5 -113.5t-140.5 -64.5t-165 -20.5h-583z"/>
<glyph glyph-name="afii10046" horiz-adv-x="1284" unicode="Ь" d="M309 68h424q70 0 123 19t88 53t52.5 79t17.5 96v97q0 51 -15.5 97t-49.5 80t-86 54.5t-128 20.5h-426v-596zM152 -61v1527h157v-673h428q94 0 174 -19.5t138.5 -62.5t91.5 -109.5t33 -161.5v-135q0 -98 -36 -167.5t-97.5 -113.5t-140.5 -64.5t-165 -20.5h-583z"/>
<glyph glyph-name="afii10047" horiz-adv-x="1157" unicode="Э" d="M68 25v43h546q61 0 108.5 22.5t78 59t46 86t15.5 102.5v305h-577q-59 0 -74.5 26.5t-15.5 61.5v41h667v289q0 278 -291 278h-2h-368q-74 0 -93.5 26t-19.5 62v39h487q213 0 330 -101t117 -275v-766q0 -86 -29.5 -157t-83 -121t-126 -78.5t-158.5 -28.5h-443 q-74 0 -94 26.5t-20 59.5z"/>
<glyph glyph-name="afii10048" horiz-adv-x="1916" unicode="Ю" d="M786 555q0 -248 105.5 -377t314.5 -129q213 0 318.5 129t105.5 379v293q0 106 -26.5 199.5t-80 161t-132 106.5t-185.5 39q-104 0 -182 -39t-131 -106.5t-80 -161t-27 -201.5v-293zM150 35v1442h159v-707h318v78q0 309 141 478t438 169t440.5 -169t143.5 -478v-293 q0 -309 -142.5 -477t-441.5 -168q-297 0 -438 169t-141 478v84h-318v-702h-69q-90 0 -90 96z"/>
<glyph glyph-name="afii10049" horiz-adv-x="1259" unicode="Я" d="M250 987q0 -119 64.5 -179t187.5 -60h434v587h-434q-129 0 -190.5 -60.5t-61.5 -168.5v-119zM41 -61l324 696q-82 14 -135.5 47t-84 78t-43 99t-12.5 110v170q0 143 101.5 235t310.5 92h594v-1527h-68q-92 0 -92 96v581h-412l-311 -677h-172z"/>
<glyph glyph-name="afii10065" horiz-adv-x="1083" unicode="а" d="M272 240q0 -51 19.5 -85t49.5 -53.5t65.5 -26.5t68.5 -7h313v442q-92 12 -168.5 17t-144.5 5q-106 0 -154.5 -39.5t-48.5 -144.5v-108zM113 229v127q0 172 94.5 244t248.5 72h17q78 -2 149.5 -7.5t165.5 -19.5v119q0 80 -47 125t-145 45h-287q-74 0 -93 23.5t-19 58.5v49 h399q184 0 269 -77t85 -224v-825h-477q-166 0 -263 73.5t-97 216.5z"/>
<glyph glyph-name="afii10066" horiz-adv-x="1165" unicode="б" d="M291 350q0 -154 76.5 -231.5t212.5 -77.5q78 0 133 24.5t90 65.5t50 97.5t15 121.5v303q0 156 -74.5 234t-213.5 78t-214 -80t-75 -232v-303zM129 350v303q0 209 27.5 345.5t89 218t158 119.5t235.5 48q33 2 64.5 5.5t59.5 11.5t50.5 23.5t38.5 41.5h143 q-16 -115 -109 -164t-247 -57q-141 -8 -218 -60t-108 -169q53 37 120 57.5t147 20.5q223 0 336.5 -106.5t113.5 -334.5v-303q0 -229 -115.5 -334.5t-334.5 -105.5q-215 0 -333 106.5t-118 333.5z"/>
<glyph glyph-name="afii10067" horiz-adv-x="1177" unicode="в" d="M307 586h307q70 0 116 11t72.5 34.5t37 57.5t10.5 81q0 96 -60.5 130t-175.5 34h-307v-348zM307 68h303q143 0 213 41t70 145v12q0 106 -64.5 148.5t-216.5 42.5h-305v-389zM150 -61v1126h462q205 0 301.5 -71.5t96.5 -219.5q0 -104 -44 -166.5t-116 -85.5 q104 -20 153.5 -82.5t49.5 -146.5v-49q0 -98 -39 -157.5t-101.5 -92.5t-141.5 -44t-159 -11h-462z"/>
<glyph glyph-name="afii10068" horiz-adv-x="966" unicode="г" d="M145 39v1026h748v-39q0 -39 -19.5 -65.5t-80.5 -26.5h-486v-995h-69q-49 0 -71 22.5t-22 77.5z"/>
<glyph glyph-name="afii10069" horiz-adv-x="1241" unicode="д" d="M338 68h553v866h-410v-86q0 -98 -4 -204.5t-19.5 -209t-44 -198t-75.5 -168.5zM61 68h107q39 61 67.5 131.5t48 162t29 208t9.5 270.5v225h731v-997h102v-471h-72q-47 0 -68.5 21.5t-21.5 74.5v246h-772v-342h-71q-47 0 -68 21.5t-21 74.5v375z"/>
<glyph glyph-name="afii10070" horiz-adv-x="1099" unicode="е" d="M274 565h488q39 0 50 12.5t11 49.5v110q0 104 -71.5 166t-206.5 62q-125 0 -198 -61.5t-73 -166.5v-172zM113 293v401q0 106 34.5 183t94 124.5t137.5 70t166 22.5q94 0 175 -23.5t140.5 -69t92 -112t32.5 -152.5v-168q0 -66 -31.5 -99.5t-109.5 -33.5h-570v-143 q0 -109 64.5 -167t157.5 -58h446v-50q0 -37 -18.5 -58t-92.5 -21h-335q-86 0 -157 24.5t-121 70.5t-77.5 111.5t-27.5 147.5z"/>
<glyph glyph-name="afii10072" horiz-adv-x="1544" unicode="ж" d="M33 1030v35h92q57 0 101 -10.5t80 -38t65.5 -73.5t56.5 -118q37 -100 95.5 -167.5t160.5 -125.5v533h160v-535q98 59 162.5 131t99.5 164q51 133 121.5 186.5t181.5 53.5h92v-35q0 -45 -16.5 -70.5t-77.5 -25.5q-23 0 -45.5 -6t-45 -23.5t-45 -50.5t-42.5 -88 q-29 -78 -81 -157t-147 -128l478 -542h-185l-450 532v-532h-72q-47 0 -67.5 22.5t-20.5 75.5v428l-444 -526h-183l469 542q-94 49 -143 128t-78 157q-20 55 -42.5 88t-45 50.5t-45 23.5t-45.5 6q-61 0 -77.5 25.5t-16.5 70.5z"/>
<glyph glyph-name="afii10073" horiz-adv-x="960" unicode="з" d="M70 2q0 66 63 66q10 0 21 -2q59 -8 108 -14.5t127 -6.5q158 0 240 44t82 165q0 119 -80 162t-254 43h-195q-14 0 -16 6t-2 22v101h213q156 0 224.5 43t68.5 164q0 88 -63.5 129t-205.5 41q-53 0 -94 -2t-75.5 -7.5t-68.5 -12.5t-71 -15v121q43 12 81 20t74 14.5t73.5 8.5 t82.5 2q76 0 153 -11.5t138.5 -45t99 -91t37.5 -142.5v-13q-2 -100 -40.5 -160t-137.5 -101q121 -37 169 -110.5t48 -163.5q0 -106 -30.5 -175t-92 -108t-145.5 -51t-184 -12h-31q-27 0 -65.5 3t-82.5 7t-88.5 9t-80.5 12v61z"/>
<glyph glyph-name="afii10074" horiz-adv-x="1247" unicode="и" d="M152 20v1045h161v-985l574 985h211v-1126h-70q-47 0 -69.5 20.5t-22.5 73.5v819l-471 -815q-23 -41 -64 -69.5t-90 -28.5h-67q-92 0 -92 81z"/>
<glyph glyph-name="afii10075" horiz-adv-x="1247" unicode="й" d="M334 1430h117q6 -84 58 -122t122 -38q66 0 117 39t59 121h117q-6 -115 -81 -190t-218 -75q-135 0 -210 75t-81 190zM152 20v1045h161v-985l574 985h211v-1126h-70q-47 0 -69.5 20.5t-22.5 73.5v819l-471 -815q-23 -41 -64 -69.5t-90 -28.5h-67q-92 0 -92 81z"/>
<glyph glyph-name="afii10076" d="M381 518q111 47 177.5 126t107.5 179q53 137 128.5 189.5t186.5 52.5h92v-35q0 -45 -16.5 -70.5t-77.5 -25.5q-23 0 -45.5 -5t-45 -23.5t-45 -52.5t-42.5 -89q-31 -78 -78 -147.5t-131 -129.5l457 -548h-183zM154 37v1028h159v-1126h-71q-47 0 -67.5 22.5t-20.5 75.5z " unicode="к"/>
<glyph glyph-name="afii10077" horiz-adv-x="1306" unicode="л" d="M47 -14q0 47 21.5 64.5t76.5 17.5q66 0 101 12t51 38.5t19 69.5t3 107v770h844v-1126h-67q-47 0 -69.5 21.5t-22.5 74.5v899h-523v-612q0 -98 -12 -170t-48 -119t-99.5 -70.5t-167.5 -23.5h-107v47z"/>
<glyph glyph-name="afii10078" horiz-adv-x="1517" unicode="м" d="M152 20v1045h188l387 -543q25 -34 47 -34q23 0 45 34l367 543h188v-1126h-71q-47 0 -69 20.5t-22 73.5v821l-301 -451q-27 -37 -62.5 -59t-76.5 -22t-75.5 22.5t-59.5 56.5l-324 449v-911h-69q-92 0 -92 81z"/>
<glyph glyph-name="afii10079" horiz-adv-x="1220" unicode="н" d="M152 35v1030h159v-457h590v457h162v-1126h-70q-49 0 -70.5 21.5t-21.5 74.5v497q-23 -25 -55.5 -40t-79.5 -15h-455v-538h-69q-47 0 -68.5 21.5t-21.5 74.5z"/>
<glyph glyph-name="afii10080" horiz-adv-x="1150" unicode="о" d="M285 352q0 -152 74.5 -231.5t213.5 -79.5q137 0 213 77t76 234v303q0 63 -15.5 121t-50 98.5t-90 65.5t-133.5 25q-135 0 -211.5 -78t-76.5 -232v-303zM123 352v303q0 227 117.5 333t332.5 106q219 0 335 -104.5t116 -334.5v-303q0 -227 -113.5 -334.5t-337.5 -107.5 q-217 0 -333.5 106.5t-116.5 335.5z"/>
<glyph glyph-name="afii10081" horiz-adv-x="1126" unicode="п" d="M137 37v1028h856v-1126h-69q-49 0 -72 22.5t-23 75.5v897h-530v-995h-68q-49 0 -71.5 22.5t-22.5 75.5z"/>
<glyph glyph-name="afii10082" horiz-adv-x="1103" unicode="р" d="M303 145h270q242 0 242 240v307q0 119 -58.5 180.5t-183.5 61.5h-270v-789zM141 -360v1425h432q403 0 404 -373v-307q0 -193 -104.5 -281t-299.5 -88h-270v-475h-70q-49 0 -70.5 22.5t-21.5 76.5z"/>
<glyph glyph-name="afii10083" horiz-adv-x="1003" unicode="с" d="M127 309v379q0 86 29.5 155.5t84 119t130 76t166.5 26.5h374v-39q0 -37 -18.5 -64.5t-87.5 -27.5h-268q-121 0 -184.5 -61.5t-63.5 -184.5v-377q0 -109 63.5 -176t184.5 -67h383v-43q0 -35 -19.5 -60.5t-93.5 -25.5h-270q-90 0 -166 25.5t-130.5 73.5t-84 116.5 t-29.5 154.5z"/>
<glyph glyph-name="afii10084" horiz-adv-x="1009" unicode="т" d="M37 934v131h938v-39q0 -49 -16.5 -70.5t-81.5 -21.5h-291v-995h-70q-47 0 -69.5 21.5t-22.5 74.5v899h-387z"/>
<glyph glyph-name="afii10085" d="M131 352v713h162v-711q0 -115 38 -170t148 -55q84 0 176.5 6t163.5 17v913h162v-1262q0 -61 -19.5 -115.5t-60.5 -93t-105.5 -61t-154.5 -22.5h-455v49q0 47 23.5 68.5t83.5 21.5h348q104 0 141 42t37 113v213q-78 -8 -165 -14t-183 -6q-174 0 -257 85t-83 269z" unicode="у"/>
<glyph glyph-name="afii10086" horiz-adv-x="1736" unicode="ф" d="M950 68h258q240 0 240 239v385q0 119 -57.5 180.5t-182.5 61.5h-258v-866zM291 313q0 -123 67.5 -184t182.5 -61h247v866h-249q-113 0 -180.5 -59.5t-67.5 -186.5v-375zM129 293v418q0 178 104.5 266t307.5 88h247v412h162v-412h258q401 0 402 -373v-385 q0 -193 -104.5 -280.5t-297.5 -87.5h-258v-398h-67q-49 0 -72 22.5t-23 76.5v299h-247q-203 0 -307.5 87t-104.5 267z"/>
<glyph glyph-name="afii10087" horiz-adv-x="1079" unicode="х" d="M31 -61l413 565l-401 561h180l309 -444l314 444h182l-403 -561l415 -565h-178l-323 456l-328 -456h-180z"/>
<glyph glyph-name="afii10088" horiz-adv-x="1314" unicode="ц" d="M150 -61v1126h159v-997h609v997h161v-999h150v-476h-70q-47 0 -68.5 21.5t-21.5 75.5v252h-919z"/>
<glyph glyph-name="afii10089" horiz-adv-x="1204" unicode="ч" d="M143 649v416h160v-412q0 -111 55.5 -157.5t151.5 -46.5h377v616h160v-1126h-70q-47 0 -68.5 22.5t-21.5 75.5v282h-381q-188 0 -275.5 82t-87.5 248z"/>
<glyph glyph-name="afii10090" horiz-adv-x="1601" unicode="ш" d="M145 -61v1126h162v-997h412v997h162v-997h413v997h162v-1126h-1311z"/>
<glyph glyph-name="afii10091" horiz-adv-x="1662" unicode="щ" d="M145 -61v1126h162v-997h412v997h162v-997h413v997h162v-997h141v-478h-69q-47 0 -69.5 21.5t-22.5 75.5v252h-1291z"/>
<glyph glyph-name="afii10092" horiz-adv-x="1351" unicode="ъ" d="M481 68h301q145 0 214 63.5t69 165.5q0 100 -64.5 163.5t-216.5 63.5h-303v-456zM47 934v131h434v-412h305q94 0 175 -16t140.5 -54t92.5 -102.5t33 -161.5v-32q0 -98 -37 -166t-98.5 -108t-141.5 -57t-166 -17h-462v995h-275z"/>
<glyph glyph-name="afii10093" horiz-adv-x="1548" unicode="ы" d="M1235 37v1028h162v-1126h-70q-47 0 -69.5 22.5t-22.5 75.5zM307 68h301q145 0 214 63.5t69 165.5q0 100 -64.5 163.5t-216.5 63.5h-303v-456zM147 -61v1126h160v-412h305q94 0 175 -17.5t140.5 -57t92.5 -103t33 -156.5v-32q0 -98 -37 -166t-98.5 -108t-141.5 -57 t-166 -17h-463z"/>
<glyph glyph-name="afii10094" horiz-adv-x="1185" unicode="ь" d="M307 68h301q145 0 214 63.5t69 165.5q0 100 -64.5 163.5t-216.5 63.5h-303v-456zM147 -61v1126h160v-412h305q94 0 175 -19.5t140.5 -60.5t92.5 -103t33 -151v-32q0 -98 -37 -166t-98.5 -108t-141.5 -57t-166 -17h-463z"/>
<glyph glyph-name="afii10095" horiz-adv-x="987" unicode="э" d="M66 25v43h383q121 0 184 67.5t63 175.5v127h-434q-59 0 -75.5 25.5t-16.5 62.5v41h526v121q0 123 -63.5 184.5t-183.5 61.5h-269q-35 0 -56.5 7t-32.5 20.5t-14 30t-3 34.5v39h375q90 0 165.5 -26.5t130 -76t84 -119t29.5 -155.5v-379q0 -86 -29.5 -154.5t-84 -116.5 t-130 -73.5t-165.5 -25.5h-271q-72 0 -92 25.5t-20 60.5z"/>
<glyph glyph-name="afii10096" horiz-adv-x="1574" unicode="ю" d="M713 352q0 -152 74.5 -231.5t213.5 -79.5q137 0 213 77t76 234v303q0 63 -15 121t-50 98.5t-90.5 65.5t-133.5 25q-135 0 -211.5 -78t-76.5 -232v-303zM143 37v1028h162v-498h246v88q0 227 117.5 333t332.5 106q219 0 335 -104.5t116 -334.5v-303q0 -227 -113.5 -334.5 t-337.5 -107.5q-217 0 -333.5 106.5t-116.5 335.5v86h-246v-499h-72q-47 0 -68.5 22.5t-21.5 75.5z"/>
<glyph glyph-name="afii10097" horiz-adv-x="1132" unicode="я" d="M227 743q0 -121 64.5 -159.5t189.5 -38.5h355v385h-355q-129 0 -191.5 -41t-62.5 -146zM61 -61l285 491q-80 8 -134 38t-87 73t-46 96t-13 108q0 154 102 237t313 83h516v-1155h-69q-47 0 -69.5 22.5t-22.5 75.5v402h-328l-275 -471h-172z"/>
<glyph glyph-name="uni0450" horiz-adv-x="1099" unicode="ѐ" d="M350 1466h178l150 -270h-51q-41 0 -61.5 11.5t-43.5 39.5zM274 565h488q39 0 50 12.5t11 49.5v110q0 104 -71.5 166t-206.5 62q-125 0 -198 -61.5t-73 -166.5v-172zM113 293v401q0 106 34.5 183t94 124.5t137.5 70t166 22.5q94 0 175 -23.5t140.5 -69t92 -112 t32.5 -152.5v-168q0 -66 -31.5 -99.5t-109.5 -33.5h-570v-143q0 -109 64.5 -167t157.5 -58h446v-50q0 -37 -18.5 -58t-92.5 -21h-335q-86 0 -157 24.5t-121 70.5t-77.5 111.5t-27.5 147.5z"/>
<glyph glyph-name="afii10071" horiz-adv-x="1099" unicode="ё" d="M639 1219v184h172v-184h-172zM285 1219v184h174v-184h-174zM274 565h488q39 0 50 12.5t11 49.5v110q0 104 -71.5 166t-206.5 62q-125 0 -198 -61.5t-73 -166.5v-172zM113 293v401q0 106 34.5 183t94 124.5t137.5 70t166 22.5q94 0 175 -23.5t140.5 -69t92 -112 t32.5 -152.5v-168q0 -66 -31.5 -99.5t-109.5 -33.5h-570v-143q0 -109 64.5 -167t157.5 -58h446v-50q0 -37 -18.5 -58t-92.5 -21h-335q-86 0 -157 24.5t-121 70.5t-77.5 111.5t-27.5 147.5z"/>
<glyph glyph-name="afii10099" horiz-adv-x="1271" unicode="ђ" d="M57 1208v129h213v140h162v-140h412v-41q0 -37 -16.5 -62.5t-75.5 -25.5h-320v-143h332q190 0 279.5 -83t89.5 -249v-940q0 -131 -63.5 -191.5t-201.5 -60.5h-129v37q0 39 19.5 65.5t83.5 26.5q80 0 104.5 28t24.5 99v934q0 109 -54.5 156t-152.5 47h-332v-995h-72 q-47 0 -68.5 22.5t-21.5 75.5v1171h-213z"/>
<glyph glyph-name="afii10100" horiz-adv-x="966" unicode="ѓ" d="M379 1196l149 270h179l-172 -219q-23 -29 -43.5 -40t-61.5 -11h-51zM145 39v1026h748v-39q0 -39 -19.5 -65.5t-80.5 -26.5h-486v-995h-69q-49 0 -71 22.5t-22 77.5z"/>
<glyph glyph-name="afii10101" horiz-adv-x="1001" unicode="є" d="M127 309v379q0 86 29.5 155.5t84 119t130 76t166.5 26.5h374v-39q0 -37 -18.5 -64.5t-87.5 -27.5h-268q-121 0 -184.5 -61.5t-63.5 -184.5v-121h526v-41q0 -37 -16.5 -62.5t-75.5 -25.5h-434v-127q0 -109 63.5 -176t184.5 -67h383v-43q0 -35 -19.5 -60.5t-93.5 -25.5 h-270q-90 0 -166 25.5t-130.5 73.5t-84 116.5t-29.5 154.5z"/>
<glyph glyph-name="afii10102" horiz-adv-x="935" unicode="ѕ" d="M98 776q0 51 20.5 102.5t64.5 92.5t111.5 67.5t162.5 26.5h340v-51q0 -43 -28 -61.5t-83 -18.5h-229q-106 0 -151.5 -46t-45.5 -112q0 -57 29.5 -101t111.5 -69l189 -57q137 -41 199.5 -121t62.5 -184q0 -147 -102.5 -226t-276.5 -79h-369v43q0 86 105 86h264 q98 0 157.5 42t59.5 134q0 63 -30.5 104t-104.5 66l-188 63q-133 45 -201 113.5t-68 185.5z"/>
<glyph glyph-name="afii10103" horiz-adv-x="471" unicode="і" d="M152 1360v117h161v-228h-41q-49 0 -84.5 29t-35.5 82zM152 37v1028h161v-1126h-67q-51 0 -72.5 22.5t-21.5 75.5z"/>
<glyph glyph-name="afii10104" horiz-adv-x="450" unicode="ї" d="M299 1219v184h172v-184h-172zM141 37v1028h162v-1126h-70q-49 0 -70.5 22.5t-21.5 75.5zM-55 1219v184h174v-184h-174z"/>
<glyph glyph-name="afii10105" horiz-adv-x="616" unicode="ј" d="M303 1360v117h160v-228h-41q-49 0 -84 29t-35 82zM-23 -442q0 41 26 62.5t65 21.5h92q47 0 74.5 12t43 36.5t20.5 59.5t5 78v1237h160v-1237q0 -166 -74 -241.5t-229 -75.5h-183v47z"/>
<glyph glyph-name="afii10106" horiz-adv-x="1923" unicode="љ" d="M1122 68h240q145 0 214 63.5t69 165.5q0 100 -64.5 163.5t-216.5 63.5h-242v-456zM47 -14q0 47 21.5 64.5t78.5 17.5q63 0 99.5 12t51.5 38.5t18 69.5t3 107v770h803v-412h244q94 0 175 -16t140.5 -55t92 -103.5t32.5 -159.5v-32q0 -98 -36.5 -166t-98 -108t-141.5 -57 t-166 -17h-401v995h-482v-612q0 -98 -12 -170t-47 -119t-99.5 -70.5t-168.5 -23.5h-107v47z"/>
<glyph glyph-name="afii10107" horiz-adv-x="1806" unicode="њ" d="M1014 68h239q145 0 214 63.5t69 165.5q0 100 -64.5 163.5t-216.5 63.5h-241v-456zM152 35v1030h159v-457h543v457h160v-412h243q94 0 175 -16t140.5 -55t92.5 -103.5t33 -159.5v-32q0 -98 -37 -166t-98.5 -108t-141.5 -57t-166 -17h-401v585q-27 -23 -61.5 -35t-75.5 -12 h-406v-538h-69q-47 0 -68.5 21.5t-21.5 74.5z"/>
<glyph glyph-name="afii10108" horiz-adv-x="1224" unicode="ћ" d="M57 1206v129h174v142h162v-142h451v-41q0 -37 -16.5 -62.5t-75.5 -25.5h-359v-141h334q188 0 277.5 -83t89.5 -249v-794h-68q-47 0 -69.5 22.5t-22.5 75.5v694q0 109 -55.5 156t-151.5 47h-334v-995h-69q-47 0 -70 22.5t-23 75.5v1169h-174z"/>
<glyph glyph-name="afii10109" d="M457 1196l149 270h178l-172 -219q-23 -29 -43 -40t-61 -11h-51zM381 518q111 47 177.5 126t107.5 179q53 137 128.5 189.5t186.5 52.5h92v-35q0 -45 -16.5 -70.5t-77.5 -25.5q-23 0 -45.5 -5t-45 -23.5t-45 -52.5t-42.5 -89q-31 -78 -78 -147.5t-131 -129.5l457 -548 h-183zM154 37v1028h159v-1126h-71q-47 0 -67.5 22.5t-20.5 75.5z" unicode="ќ"/>
<glyph glyph-name="uni045D" horiz-adv-x="1247" unicode="ѝ" d="M446 1466h179l149 -270h-51q-41 0 -61.5 11.5t-43.5 39.5zM152 20v1045h161v-985l574 985h211v-1126h-70q-47 0 -69.5 20.5t-22.5 73.5v819l-471 -815q-23 -41 -64 -69.5t-90 -28.5h-67q-92 0 -92 81z"/>
<glyph glyph-name="afii10110" d="M266 1430h117q6 -84 58.5 -122t121.5 -38q66 0 117 39t59 121h117q-6 -115 -81 -190t-218 -75q-135 0 -210 75t-81 190zM131 352v713h162v-711q0 -115 38 -170t148 -55q84 0 176.5 6t163.5 17v913h162v-1262q0 -61 -19.5 -115.5t-60.5 -93t-105.5 -61t-154.5 -22.5h-455 v49q0 47 23.5 68.5t83.5 21.5h348q104 0 141 42t37 113v213q-78 -8 -165 -14t-183 -6q-174 0 -257 85t-83 269z" unicode="ў"/>
<glyph glyph-name="afii10193" horiz-adv-x="1228" unicode="џ" d="M150 -61v1126h161v-997h609v997h161v-1126h-379v-349h-69q-47 0 -69.5 21.5t-22.5 75.5v252h-391z"/>
<glyph glyph-name="uni0460" horiz-adv-x="2007" unicode="Ѡ" d="M139 324v766q0 174 117 275t328 101h215v-39q0 -37 -19.5 -62.5t-93.5 -25.5h-96q-291 0 -291 -278v-723q0 -53 15.5 -102.5t46 -86t76.5 -59t108 -22.5h114q117 0 188 69.5t71 200.5v563h159v-563q0 -131 72 -200.5t188 -69.5h115q61 0 107.5 22.5t77 59t46 86 t15.5 102.5v723q0 278 -289 278h-2h-96q-74 0 -93.5 26t-19.5 62v39h215q211 0 328 -101t117 -275v-766q0 -86 -30 -157t-82 -121t-126 -78.5t-160 -28.5h-123q-231 0 -340 149q-108 -149 -335 -149h-3h-122q-86 0 -160 28.5t-126 78.5t-82 121t-30 157z"/>
<glyph glyph-name="uni0461" horiz-adv-x="1396" unicode="ѡ" d="M51 1065h158q0 -86 10 -182.5t37 -215t73 -261t117 -320.5l154 494q-10 31 -23.5 85t-23.5 121.5t-15.5 131.5t-5.5 116v31h152q-1 -24 -1 -48q0 -67 9.5 -151t39.5 -199.5t78 -258t120 -322.5l291 979h141l-350 -1126h-86q-57 0 -79 27.5t-40 74.5l-133 334l-146 -436 h-94q-53 0 -78.5 33.5t-42.5 74.5q-66 166 -114.5 308.5t-81.5 266t-49.5 233.5t-16.5 210z"/>
<glyph glyph-name="afii10146" horiz-adv-x="1581" unicode="Ѣ" d="M604 68h424q72 0 124 19t87 53t52.5 79t17.5 96v99q0 51 -15.5 97t-49.5 80t-86 54.5t-128 20.5h-426v-598zM51 1051v129h395v286h158v-286h434v-41q0 -35 -15 -61.5t-75 -26.5h-344v-256h428q94 0 174 -18.5t138.5 -59.5t91 -108.5t32.5 -166.5v-137q0 -98 -35.5 -167.5 t-97 -113.5t-140.5 -64.5t-165 -20.5h-584v1112h-395z"/>
<glyph glyph-name="afii10194" horiz-adv-x="1456" unicode="ѣ" d="M594 68h301q143 0 213 63.5t70 165.5q0 100 -64.5 163.5t-216.5 63.5h-303v-456zM45 965v129h389v372h160v-372h448v-39q0 -37 -15 -63.5t-75 -26.5h-358v-312h305q92 0 172 -18.5t140.5 -58t94 -103t33.5 -154.5v-32q0 -98 -36.5 -166t-98 -108t-141.5 -57t-166 -17 h-463v1026h-389z"/>
<glyph glyph-name="uni0464" horiz-adv-x="1685" unicode="Ѥ" d="M152 33v1433h161v-694h357v318q0 174 116.5 275t329.5 101h467v-39q0 -37 -19.5 -62.5t-95.5 -25.5h-346q-293 0 -293 -278v-289h605v-41q0 -35 -15.5 -61.5t-75.5 -26.5h-514v-305q0 -53 15.5 -102.5t46.5 -86t77 -59t107 -22.5h529v-43q0 -33 -20.5 -59.5t-94.5 -26.5 h-422q-86 0 -159.5 28.5t-126 78.5t-82 121t-29.5 157v319h-357v-704h-71q-47 0 -68.5 21.5t-21.5 72.5z"/>
<glyph glyph-name="uni0465" horiz-adv-x="1435" unicode="ѥ" d="M145 35v1030h164v-498h279v121q0 86 29.5 155.5t84 119t130 76t165.5 26.5h355v-39q0 -37 -18.5 -64.5t-88.5 -27.5h-248q-119 0 -183 -61.5t-64 -184.5v-121h505v-41q0 -37 -16 -62.5t-76 -25.5h-413v-127q0 -109 64.5 -176t182.5 -67h363v-43q0 -35 -19.5 -60.5 t-93.5 -25.5h-250q-90 0 -165.5 25.5t-130 73.5t-84 116.5t-29.5 154.5v129h-279v-499h-71q-47 0 -70 21.5t-23 74.5z"/>
<glyph glyph-name="uni0466" horiz-adv-x="1304" unicode="Ѧ" d="M440 676h443l-224 684zM35 -61l514 1527h162q23 0 47 -19.5t33 -41.5l495 -1466h-164l-198 610h-183v-610h-69q-45 0 -67.5 21.5t-22.5 72.5v516h-183l-196 -610h-168z"/>
<glyph glyph-name="uni0467" horiz-adv-x="1034" unicode="ѧ" d="M352 451h334l-168 518zM41 -61l375 1126h135q41 0 64.5 -20.5t37.5 -63.5l351 -1042h-152l-125 383h-123v-383h-69q-47 0 -70 21.5t-23 74.5v287h-131l-123 -383h-147z"/>
<glyph glyph-name="uni0468" horiz-adv-x="1759" unicode="Ѩ" d="M885 676h444l-223 684zM154 33v1433h161v-790h414l266 790h162q23 0 47.5 -19.5t32.5 -41.5l496 -1466h-164l-199 610h-182v-610h-70q-45 0 -67.5 21.5t-22.5 72.5v516h-184l-197 -610h-166l205 610h-371v-610h-71q-47 0 -68.5 21.5t-21.5 72.5z"/>
<glyph glyph-name="uni0469" horiz-adv-x="1523" unicode="ѩ" d="M840 514h293l-148 455zM152 35v1030h163v-551h385l185 551h135q41 0 64.5 -20.5t37.5 -63.5l351 -1042h-154l-145 446h-113v-446h-70q-47 0 -69.5 21.5t-22.5 74.5v350h-100l-142 -446h-147l147 446h-342v-446h-73q-47 0 -68.5 21.5t-21.5 74.5z"/>
<glyph glyph-name="uni046A" horiz-adv-x="1646" unicode="Ѫ" d="M487 1331l344 -610l359 610h-703zM139 33q0 166 23.5 289.5t81 209.5t156 134.5t247.5 64.5l-420 735h1215l-430 -735q262 -29 376.5 -179.5t114.5 -432.5v-180h-71q-47 0 -69 21.5t-22 72.5q0 160 -20.5 265t-70.5 168.5t-135 92.5t-214 37v-657h-72q-47 0 -67.5 21.5 t-20.5 72.5v563q-139 -10 -225 -45t-133 -97.5t-64.5 -154.5t-17.5 -217v-143h-72q-47 0 -68.5 21.5t-21.5 72.5z"/>
<glyph glyph-name="uni046B" horiz-adv-x="1398" unicode="ѫ" d="M434 942l266 -434l275 434h-541zM131 35q0 102 25.5 189t76 153.5t127 106.5t179.5 46l-340 533h1007l-342 -533q408 -27 408 -514v-77h-72q-47 0 -68.5 21.5t-21.5 74.5q0 88 -16.5 156.5t-55.5 115.5t-101.5 73t-154.5 26v-467h-71q-47 0 -67.5 21.5t-20.5 74.5v371 q-184 0 -257 -102.5t-73 -307.5v-57h-72q-49 0 -69.5 21.5t-20.5 74.5z"/>
<glyph glyph-name="uni046C" horiz-adv-x="2048" unicode="Ѭ" d="M918 1331l344 -610l358 610h-702zM152 33v1433h163v-731h760l-418 731h1215l-430 -735q262 -29 376.5 -179.5t114.5 -432.5v-180h-71q-47 0 -68.5 21.5t-21.5 72.5q0 160 -20.5 265t-71 168.5t-135.5 92.5t-214 37v-657h-71q-47 0 -68 21.5t-21 72.5v563 q-139 -10 -225 -45t-133 -97.5t-64.5 -154.5t-17.5 -217v-143h-72q-47 0 -68.5 21.5t-21.5 72.5q0 207 37 348t135 227h-426v-669h-71q-47 0 -69.5 21.5t-22.5 72.5z"/>
<glyph glyph-name="uni046D" horiz-adv-x="1818" unicode="ѭ" d="M856 942l266 -426l275 426h-541zM152 35v1030h163v-498h621l-315 496h1007l-342 -533q205 -14 306.5 -151t101.5 -383v-57h-72q-47 0 -68.5 21.5t-21.5 74.5q0 88 -16.5 156.5t-55.5 115.5t-101.5 73t-154.5 26v-467h-71q-47 0 -68 21.5t-21 74.5v371 q-184 0 -256.5 -102.5t-72.5 -307.5v-57h-72q-49 0 -69.5 21.5t-20.5 74.5q0 129 40 233.5t120 169.5h-398v-499h-73q-47 0 -68.5 21.5t-21.5 74.5z"/>
<glyph glyph-name="uni046E" horiz-adv-x="1062" unicode="Ѯ" d="M164 1868h153l148 -185l147 185h154l-219 -269h-164zM72 -215q0 143 103.5 204.5t291.5 71.5q82 4 144.5 18.5t105.5 47.5t64.5 87t21.5 138q0 88 -23.5 148.5t-67.5 95.5t-109.5 50.5t-149.5 15.5h-256q-23 0 -31 8t-8 30v91h295q168 0 238.5 73.5t70.5 243.5 q0 129 -85 193.5t-226 64.5q-104 0 -191.5 -12.5t-173.5 -28.5v125q98 23 186 34t181 11q94 0 181 -21.5t151.5 -69.5t100.5 -120t36 -169v-11q-2 -117 -45 -216.5t-158 -152.5q72 -20 119 -61t74.5 -91.5t39 -107.5t11.5 -108q0 -231 -127 -335t-365 -108 q-106 -2 -170.5 -34.5t-64.5 -104.5q0 -61 44 -81.5t95 -20.5q43 0 82 8t74.5 17t72.5 17.5t78 8.5q92 0 140 -45t52 -148h-151q-4 23 -16.5 37t-51.5 14q-35 0 -73.5 -8t-78.5 -17t-81 -17.5t-80 -8.5q-51 0 -100 15.5t-87 46t-60.5 76t-22.5 106.5z"/>
<glyph glyph-name="uni046F" horiz-adv-x="960" unicode="ѯ" d="M123 1458h153l148 -184l147 184h154l-219 -268h-164zM90 924v125q43 12 81 20t74 14.5t73.5 8.5t82.5 2q76 0 153 -11.5t138.5 -45t99 -91.5t37.5 -146v-9q-2 -100 -44 -165t-136 -94q125 -31 172 -100.5t47 -159.5q0 -104 -27.5 -170.5t-78.5 -105.5t-124 -54.5 t-165 -15.5q-109 0 -151.5 -33.5t-42.5 -99.5q0 -61 40.5 -88t85.5 -27h13q39 4 71.5 13.5t64.5 19.5t64.5 17.5t69.5 7.5q186 0 193 -195h-152q-4 23 -23.5 40.5t-58.5 12.5q-29 -2 -52.5 -8t-47 -13t-50 -14.5t-59.5 -9.5q-27 -2 -52 -2q-115 0 -194 58.5t-79 191.5 q0 123 86 193.5t278 75.5q117 4 173.5 46t56.5 158q0 109 -80 148t-252 39h-182q-20 0 -25.5 8t-5.5 31v90h213q156 0 224.5 44t68.5 165q0 88 -63.5 129t-205.5 41q-53 0 -94 -3.5t-75.5 -8.5t-68.5 -13t-71 -16z"/>
<glyph glyph-name="uni0470" horiz-adv-x="1538" unicode="Ѱ" d="M127 1042v424h156v-385q0 -131 14 -222t55 -148.5t117 -84t197 -26.5h20v877h160v-877h20q113 0 187.5 26.5t119 87t61.5 157t17 235.5v360h156v-405q0 -147 -26.5 -258t-89 -184.5t-166 -112.5t-259.5 -41h-20v-526h-70q-90 0 -90 96v430h-18q-164 2 -268.5 44 t-165 116.5t-84 180t-23.5 236.5z"/>
<glyph glyph-name="uni0471" horiz-adv-x="1482" unicode="ѱ" d="M133 522v543h158v-504q0 -131 12 -224t49 -153.5t104.5 -88t178.5 -27.5h20v997h162v-997h25q102 0 168.5 28.5t105.5 91t54.5 160.5t15.5 238v479h155v-524q0 -147 -23.5 -260t-80.5 -189t-154.5 -114.5t-242.5 -38.5h-23v-400h-69q-47 0 -70 21.5t-23 74.5v304h-18 q-154 0 -252 40.5t-154.5 117.5t-77 184.5t-20.5 240.5z"/>
<glyph glyph-name="afii10147" horiz-adv-x="1429" unicode="Ѳ" d="M291 831h371l126 -108h347v127q0 106 -27 199.5t-79 161t-132 106.5t-184 39t-183 -39t-132.5 -106.5t-80 -161t-26.5 -201.5v-17zM291 555q0 -248 105.5 -377t316.5 -129t316.5 129t105.5 379v18h-394l-127 111h-323v-131zM131 557v291q0 309 142.5 478t439.5 169 t439 -169t142 -478v-293q0 -307 -142 -476t-439 -169t-439.5 169t-142.5 478z"/>
<glyph glyph-name="afii10195" horiz-adv-x="1150" unicode="ѳ" d="M291 627h239l125 -107h213v135q0 63 -15 121t-50 98.5t-90.5 65.5t-132.5 25q-135 0 -212 -78t-77 -232v-28zM291 352q0 -152 74.5 -231.5t214.5 -79.5q139 0 213.5 77t74.5 234v25h-256l-123 104h-198v-129zM129 352v303q0 227 118 333t333 106q219 0 334.5 -104.5 t115.5 -334.5v-303q0 -227 -113.5 -334.5t-336.5 -107.5q-217 0 -334 106.5t-117 335.5z"/>
<glyph glyph-name="afii10148" horiz-adv-x="1456" unicode="Ѵ" d="M43 1466h166l455 -1400l362 1118q25 80 53.5 134t70.5 87t103.5 46t153.5 13v-127q-55 0 -93 -6t-65.5 -30.5t-49 -70.5t-48.5 -126l-377 -1165h-149q-39 0 -60.5 16t-32.5 49z"/>
<glyph glyph-name="afii10196" d="M41 1065h154l333 -1030l256 801q14 45 34 86t52.5 72.5t84 50t130.5 18.5h21v-131h-23q-37 0 -61.5 -7t-42.5 -26.5t-34.5 -54.5t-35.5 -90l-280 -815h-135q-41 0 -64.5 19t-38.5 62z" unicode="ѵ"/>
<glyph glyph-name="uni0476" horiz-adv-x="1456" unicode="Ѷ" d="M618 1767h179l149 -270h-51q-41 0 -61.5 11.5t-42.5 39.5zM340 1767h178l150 -270h-52q-41 0 -61 11.5t-43 39.5zM43 1466h166l455 -1400l362 1118q25 80 53.5 134t70.5 87t103.5 46t153.5 13v-127q-55 0 -93 -6t-65.5 -30.5t-49 -70.5t-48.5 -126l-377 -1165h-149 q-39 0 -60.5 16t-32.5 49z"/>
<glyph glyph-name="uni0477" d="M483 1466h179l149 -270h-51q-41 0 -61.5 11.5t-43.5 39.5zM205 1466h178l149 -270h-51q-41 0 -61.5 11.5t-42.5 39.5zM41 1065h154l333 -1030l256 801q14 45 34 86t52.5 72.5t84 50t130.5 18.5h21v-131h-23q-37 0 -61.5 -7t-42.5 -26.5t-34.5 -54.5t-35.5 -90l-280 -815 h-135q-41 0 -64.5 19t-38.5 62z" unicode="ѷ"/>
<glyph glyph-name="uni0478" horiz-adv-x="2330" unicode="Ѹ" d="M1362 340v725h160v-723q0 -113 39.5 -168t139.5 -55h7q92 2 168 8t147 16v922h160v-1266q0 -61 -19.5 -114.5t-60.5 -91t-104.5 -60t-153.5 -22.5h-428v47q0 47 22.5 67.5t82.5 20.5h323q104 0 141 42t37 113v209q-78 -8 -153.5 -12t-169.5 -8h-14q-163 0 -243.5 91 t-80.5 259zM303 555q0 -123 16.5 -218t56.5 -158.5t109.5 -96.5t173.5 -33q106 0 177 33t111 97.5t56.5 158.5t16.5 219v293q0 106 -16.5 199.5t-56.5 161t-110.5 106.5t-177.5 39q-104 0 -173.5 -39t-109.5 -106.5t-56.5 -161t-16.5 -201.5v-293zM143 557v291 q0 154 26 274.5t85 203.5t158.5 126t246.5 43q150 0 249.5 -43t159.5 -126t86 -204t26 -274v-293q0 -154 -26 -273.5t-86 -202.5t-159.5 -126t-249.5 -43q-147 0 -246.5 43t-158.5 126t-85 203.5t-26 274.5z"/>
<glyph glyph-name="uni0479" horiz-adv-x="2091" unicode="ѹ" d="M1124 340v725h160v-723q0 -113 39.5 -168t139.5 -55h7q92 2 168 8t148 16v922h160v-1266q0 -61 -19.5 -114.5t-60.5 -91t-104.5 -60t-153.5 -22.5h-428v47q0 47 22.5 67.5t81.5 20.5h324q104 0 141 42t37 113v209q-78 -8 -154 -12t-170 -8h-14q-163 0 -243.5 91 t-80.5 259zM291 352q0 -152 55 -231.5t195 -79.5q141 0 196.5 77t55.5 234v303q0 63 -9.5 121t-37 98.5t-76.5 65.5t-129 25q-137 0 -193.5 -78t-56.5 -232v-303zM129 352v303q0 219 98.5 329t313.5 110q217 0 315 -107.5t98 -331.5v-303q0 -221 -96 -331.5t-317 -110.5 q-215 0 -313.5 106.5t-98.5 335.5z"/>
<glyph glyph-name="uni047A" horiz-adv-x="1501" unicode="Ѻ" d="M283 553q0 -236 102 -359.5t291 -142.5v142h139v-144q190 18 292.5 142t102.5 364v295q0 102 -26.5 189t-76.5 152.5t-124 106.5t-168 54v-135h-139v135q-94 -12 -167 -53.5t-123 -107t-76.5 -152.5t-26.5 -191v-295zM123 555v293q0 301 139 463t414 180v139h139v-139 q274 -18 414.5 -180t140.5 -463v-295q0 -299 -140 -461t-415 -180v-137h-139v137q-274 18 -413.5 180t-139.5 463z"/>
<glyph glyph-name="uni047B" horiz-adv-x="1249" unicode="ѻ" d="M291 352q0 -133 74.5 -211t189.5 -96v148h139v-146q111 18 185.5 94t74.5 211v303q0 113 -68.5 197t-191.5 106v-133h-139v133q-111 -16 -187.5 -93t-76.5 -210v-303zM129 352v303q0 104 30.5 182t87 132.5t134.5 84t174 38.5v149h139v-151q94 -8 171 -38t132.5 -83.5 t86 -131t30.5 -182.5v-303q0 -207 -114.5 -315.5t-305.5 -122.5v-139h-139v137q-96 8 -174 38t-134.5 84t-87 134t-30.5 184z"/>
<glyph glyph-name="uni047C" horiz-adv-x="2000" unicode="Ѽ" d="M692 1575q0 104 58.5 156.5t150.5 52.5h213q43 0 67.5 20.5t24.5 63.5h119q0 -94 -51 -148.5t-144 -54.5h-217q-47 0 -74.5 -20.5t-29.5 -69.5h-117zM139 324v766q0 174 117 275t328 101h235v-39q0 -37 -19.5 -62.5t-92.5 -25.5h-117q-291 0 -291 -278v-723 q0 -53 15.5 -102.5t46 -86t76.5 -59t108 -22.5h114q117 0 188 69.5t71 200.5v74h159v-74q0 -131 72 -200.5t188 -69.5h115q61 0 107.5 22.5t77 59t46 86t15.5 102.5v723q0 278 -289 278h-2h-117q-74 0 -93 26t-19 62v39h235q211 0 328 -101t117 -275v-766q0 -86 -30 -157 t-82 -121t-126 -78.5t-160 -28.5h-123q-231 0 -340 149q-108 -149 -335 -149h-3h-122q-86 0 -160 28.5t-126 78.5t-82 121t-30 157z"/>
<glyph glyph-name="uni047D" horiz-adv-x="1841" unicode="ѽ" d="M592 1192q0 104 58.5 156.5t150.5 52.5h213q43 0 67.5 20.5t24.5 63.5h119q0 -94 -51.5 -148.5t-143.5 -54.5h-217q-47 0 -74.5 -20.5t-29.5 -69.5h-117zM139 328v354q0 174 118 278.5t333 104.5h151v-41q0 -37 -19.5 -63.5t-94.5 -26.5h-31q-297 0 -297 -279v-313 q0 -55 15.5 -104.5t47 -87t78.5 -60t109 -22.5h24q55 0 102.5 15t82.5 45t55.5 74t20.5 101v109h161v-72q0 -133 72 -202.5t188 -69.5h29q61 0 108.5 22.5t78 60t46 87t15.5 104.5v313q0 279 -295 279h-31q-76 0 -95 26.5t-19 63.5v41h151q215 0 333 -104.5t118 -278.5v-354 q0 -86 -30 -158t-83 -123t-127 -79.5t-162 -28.5h-37q-117 0 -203.5 37.5t-140.5 109.5q-111 -147 -338 -147h-32q-88 0 -162 28.5t-127 79.5t-83 123t-30 158z"/>
<glyph glyph-name="uni047E" horiz-adv-x="1998" unicode="Ѿ" d="M643 1587v174h684v-174h-98v70h-201v-70h-96v70h-193v-70h-96zM139 324v766q0 174 117 275t328 101h235v-39q0 -37 -19.5 -62.5t-92.5 -25.5h-117q-291 0 -291 -278v-723q0 -53 15.5 -102.5t46 -86t76.5 -59t108 -22.5h114q117 0 188 69.5t71 200.5v565h159v-565 q0 -131 72 -200.5t188 -69.5h115q61 0 107.5 22.5t77 59t46 86t15.5 102.5v723q0 278 -289 278h-2h-117q-74 0 -93 26t-19 62v39h235q211 0 328 -101t117 -275v-766q0 -86 -30 -157t-82 -121t-126 -78.5t-160 -28.5h-123q-231 0 -340 149q-108 -149 -335 -149h-3h-122 q-86 0 -160 28.5t-126 78.5t-82 121t-30 157z"/>
<glyph glyph-name="uni047F" horiz-adv-x="1384" unicode="ѿ" d="M354 1223v174h684v-174h-98v69h-201v-69h-96v69h-192v-69h-97zM37 1065h158q0 -86 7 -173t32.5 -198.5t72.5 -258t125 -347.5l154 492q-8 25 -19.5 73.5t-21.5 114.5t-17.5 142.5t-9.5 154.5h152q2 -96 12 -192.5t36.5 -210t74 -253t122.5 -321.5l291 977h142l-351 -1126 h-94q-53 0 -74.5 26.5t-37.5 71.5l-134 336l-143 -434h-94q-53 0 -72.5 24.5t-36.5 59.5q-45 88 -93 224t-87 284.5t-65.5 291t-28.5 242.5z"/>
<glyph glyph-name="uni0480" horiz-adv-x="1421" unicode="Ҁ" d="M123 535v333q0 311 151.5 469t450.5 158q592 0 602 -606h-160q-2 106 -31.5 192t-87 147.5t-138.5 94.5t-185 33t-186 -35t-139.5 -99.5t-87 -154.5t-29.5 -199v-336q0 -236 113.5 -356.5t303.5 -120.5h109v-514h-70q-47 0 -68.5 21.5t-21.5 75.5v274q-260 18 -393 175 t-133 448z"/>
<glyph glyph-name="uni0481" horiz-adv-x="1249" unicode="ҁ" d="M115 434v127q0 254 128 394.5t394 140.5q264 0 392 -130t132 -384h-162q-4 82 -25.5 150.5t-65.5 118.5t-110.5 77.5t-160.5 27.5q-96 0 -165 -28.5t-113 -80.5t-64.5 -125t-20.5 -161v-129q0 -203 90.5 -294t247.5 -91h109v-506h-70q-47 0 -69.5 21.5t-22.5 75.5v270 q-223 16 -333.5 144t-110.5 382z"/>
<glyph glyph-name="uni0482" horiz-adv-x="1138" unicode="҂" d="M47 629l68 114l311 -170l160 361l-307 168l67 115l295 -158l180 407h154l-211 -473l328 -178l-68 -119l-317 172l-160 -358l313 -168l-67 -119l-301 162l-199 -446h-148l228 512z"/>
<glyph glyph-name="uni0483" horiz-adv-x="755" unicode="҃" d="M61 1157q0 104 58.5 156.5t150.5 52.5h213q43 0 67.5 20.5t24.5 63.5h119q0 -94 -51 -148.5t-143 -54.5h-217q-47 0 -75 -20.5t-30 -69.5h-117z"/>
<glyph glyph-name="uni0484" horiz-adv-x="729" unicode="҄" d="M82 1229v104q82 2 127 13.5t74 29.5q47 29 83.5 46.5t88.5 21.5q9 1 18 1q82 0 138.5 -53t56.5 -151h-117q0 51 -25.5 75.5t-62.5 24.5q-39 0 -75 -25.5t-64 -39.5q-86 -45 -242 -47z"/>
<glyph glyph-name="uni0485" horiz-adv-x="681" unicode="҅" d="M82 1102v364h129v-129h389v-114h-389v-121h-129z"/>
<glyph glyph-name="uni0486" horiz-adv-x="681" unicode="҆" d="M82 1223v114h389v129h129v-364h-129v121h-389z"/>
<glyph glyph-name="uni0488" horiz-adv-x="2093" unicode="҈" d="M1493 455q2 51 20.5 95t52 76.5t81 52t102.5 19.5q59 0 108.5 -19.5t84 -52t54 -76.5t21.5 -95h-116q-6 63 -49.5 97t-102.5 34q-57 0 -95 -37t-44 -94h-117zM1284 918q2 51 20.5 95t52.5 76.5t81 52t102 19.5q59 0 108.5 -19.5t84 -52t54 -76.5t21.5 -95h-116 q-6 63 -49.5 97t-102.5 34q-57 0 -95 -37t-44 -94h-117zM1284 -12q2 51 20.5 95t52.5 77t81 52t102 19q59 0 108.5 -19t84 -52t54 -77t21.5 -95h-116q-6 63 -49.5 97t-102.5 34q-57 0 -95 -37t-44 -94h-117zM774 1208q2 51 20.5 95.5t52.5 77t81 52t102 19.5 q59 0 108.5 -19.5t84 -52t54 -76.5t21.5 -96h-116q-6 63 -49 97t-103 34q-57 0 -95 -36.5t-44 -94.5h-117zM774 -338q2 51 20.5 95t52.5 77t81 52.5t102 19.5q59 0 108.5 -19.5t84 -52.5t54 -77t21.5 -95h-116q-6 63 -49 97t-103 34q-57 0 -95 -37t-44 -94h-117zM254 -12 q2 51 20.5 95t52 77t81 52t102.5 19q59 0 108.5 -19t84 -52t54 -77t21.5 -95h-116q-6 63 -49.5 97t-102.5 34q-57 0 -95 -37t-44 -94h-117zM252 918q2 51 20.5 95t52 76.5t81 52t102.5 19.5q59 0 108.5 -19.5t84 -52t54 -76.5t21.5 -95h-117q-6 63 -49 97t-102 34 q-57 0 -95 -37t-44 -94h-117zM49 455q2 51 20.5 95t52.5 76.5t81 52t102 19.5q59 0 108.5 -19.5t84 -52t54 -76.5t21.5 -95h-116q-6 63 -49 97t-103 34q-57 0 -95 -37t-44 -94h-117z"/>
<glyph glyph-name="uni0489" horiz-adv-x="1978" unicode="҉" d="M1462 512v215l174 2q100 0 173 -43t112 -123l-49 -37q-66 106 -182 107h-21v-119zM1251 1028l121 123q72 72 130 86.5t92 14.5q49 0 98 -17l-9 -59q-31 8 -60 8q-82 0 -144 -62l-15 -16l84 -84l-145 -148zM1249 209l152 151l125 -122q72 -72 86 -129.5t14 -91.5 q0 -48 -16 -97l-62 8q8 32 8 61q0 83 -61 144l-14 14l-84 -84zM879 1094v174q0 102 43 173.5t122 110.5l37 -49q-109 -68 -108 -182v-21h121v-206h-215zM879 -61v206h215v-174q0 -102 -43 -173.5t-123 -110.5l-37 49q109 68 108 182v21h-120zM360 1130.5q-14 57.5 -14 91.5 q0 48 16 97l62 -8q-8 -32 -8 -61q0 -83 61 -144l15 -14l83 84l148 -146l-152 -151l-125 122q-72 72 -86 129.5zM281 4l8 59q31 -8 60 -8q83 0 145 62l14 16l-84 84l145 148l152 -154l-121 -123q-72 -72 -129.5 -86.5t-91.5 -14.5q-49 0 -98 17zM51 676l49 37 q66 -106 183 -107h20v119l207 2v-215l-174 -2q-100 0 -173 43t-112 123z"/>
<glyph glyph-name="uni048A" horiz-adv-x="1347" unicode="Ҋ" d="M381 1835h117q6 -84 58 -122t122 -38q66 0 117 39t59 121h117q-6 -115 -81 -189.5t-218 -74.5q-135 0 -210 74.5t-81 189.5zM152 20v1446h159v-1390l688 1390h193v-1398h158l-168 -375h-170l110 246q-47 0 -68.5 21.5t-21.5 70.5v1179l-575 -1175q-25 -49 -60 -72.5 t-88 -23.5h-67q-45 0 -67.5 22.5t-22.5 58.5z"/>
<glyph glyph-name="uni048B" horiz-adv-x="1247" unicode="ҋ" d="M346 1411h117q6 -84 58 -122t122 -38q66 0 117 39t59 121h117q-6 -115 -81 -189.5t-218 -74.5q-135 0 -210 74.5t-81 189.5zM152 20v1045h161v-985l574 985h211v-997h159l-155 -375h-170l102 246h-6q-47 0 -69.5 20.5t-22.5 73.5v819l-471 -815q-23 -41 -64 -69.5 t-90 -28.5h-67q-92 0 -92 81z"/>
<glyph glyph-name="uni048C" horiz-adv-x="1363" unicode="Ҍ" d="M387 68h424q72 0 124 19t87 53t52.5 79t17.5 96v99q0 51 -15.5 97t-49.5 80t-86 54.5t-128 20.5h-426v-598zM47 1040v129h182v297h158v-297h227v-41q0 -35 -15 -61.5t-75 -26.5h-137v-245h428q92 0 171 -20.5t138.5 -63.5t93 -109.5t33.5 -159.5v-137q0 -98 -35.5 -167.5 t-97 -113.5t-140.5 -64.5t-165 -20.5h-584v1101h-182z"/>
<glyph glyph-name="uni048D" horiz-adv-x="1245" unicode="ҍ" d="M391 68h301q143 0 213 63.5t70 165.5q0 100 -64.5 163.5t-216.5 63.5h-303v-456zM49 965v129h182v372h160v-372h232v-39q0 -37 -16.5 -63.5t-76.5 -26.5h-139v-312h305q94 0 175 -18.5t140.5 -58t92.5 -103t33 -154.5v-32q0 -98 -37 -166t-98.5 -108t-141.5 -57t-166 -17 h-463v1026h-182z"/>
<glyph glyph-name="uni048E" horiz-adv-x="1253" unicode="Ҏ" d="M309 657h389q82 0 144 23l-234 192l86 99l248 -201q25 49 25 125v205q0 111 -60.5 173t-208.5 62h-389v-678zM150 33v1433h548q100 0 180 -19.5t135.5 -63.5t84 -113.5t28.5 -169.5v-205q0 -51 -10 -112.5t-47 -114.5l186 -152l-86 -102l-202 166q-47 -25 -113 -39.5 t-156 -14.5h-389v-587h-67q-49 0 -70.5 21.5t-21.5 72.5z"/>
<glyph glyph-name="uni048F" horiz-adv-x="1097" unicode="ҏ" d="M315 129h263q37 0 68.5 5t55.5 18l-192 153l86 101l201 -160q10 25 15 55.5t5 65.5v325q0 119 -57.5 180.5t-181.5 61.5h-263v-805zM154 -360v1425h424q401 0 401 -373v-325q0 -135 -55 -222l174 -135l-84 -104l-187 147q-94 -53 -249 -53h-263v-459h-67 q-49 0 -71.5 22.5t-22.5 76.5z"/>
<glyph glyph-name="afii10050" horiz-adv-x="1177" unicode="Ґ" d="M158 37v1429h790v353h160v-480h-791v-1400h-69q-49 0 -69.5 22.5t-20.5 75.5z"/>
<glyph glyph-name="afii10098" horiz-adv-x="974" unicode="ґ" d="M152 39v1026h587v352h160v-483h-586v-995h-69q-49 0 -70.5 22.5t-21.5 77.5z"/>
<glyph glyph-name="uni0492" horiz-adv-x="1269" unicode="Ғ" d="M49 674v129h219v663h949v-36q0 -39 -19.5 -65t-81.5 -26h-688v-536h461v-39q0 -37 -15.5 -63.5t-74.5 -26.5h-371v-735h-70q-49 0 -69.5 22.5t-20.5 75.5v637h-219z"/>
<glyph glyph-name="uni0493" horiz-adv-x="1058" unicode="ғ" d="M27 428v129h213v508h747v-39q0 -39 -20.5 -65.5t-83.5 -26.5h-482v-377h369v-41q0 -37 -15.5 -62.5t-74.5 -25.5h-279v-489h-69q-51 0 -71.5 22.5t-20.5 77.5v389h-213z"/>
<glyph glyph-name="uni0494" horiz-adv-x="1382" unicode="Ҕ" d="M154 33v1433h858v-36q0 -49 -16.5 -70t-80.5 -21h-602v-524h406q281 0 421 -151.5t140 -473.5q0 -172 -53 -294.5t-151.5 -201.5t-239 -116t-314.5 -37h-127v39q0 37 19.5 63.5t81.5 26.5h20q129 0 238.5 27t190.5 87t127 155.5t46 234.5q0 274 -104.5 394t-321.5 120 h-379v-749h-69q-47 0 -68.5 21.5t-21.5 72.5z"/>
<glyph glyph-name="uni0495" horiz-adv-x="1200" unicode="ҕ" d="M156 37v1028h848v-41q0 -37 -15.5 -63.5t-75.5 -26.5h-598v-373h228q272 0 405 -122t133 -380v-55q0 -109 -40 -194.5t-111.5 -145t-171 -91.5t-217.5 -32h-129v37q0 39 19.5 65.5t82.5 26.5q86 0 160 23.5t128 67.5t86 106.5t32 140.5v49q0 195 -92.5 285t-284.5 90 h-228v-493h-69q-47 0 -68.5 22.5t-21.5 75.5z"/>
<glyph glyph-name="uni0496" horiz-adv-x="1904" unicode="Җ" d="M1018 727q63 39 111.5 84t86 98.5t68.5 120t59 150.5q25 70 51.5 123t64.5 90t92.5 55t131.5 18h91v-32q0 -45 -16.5 -70t-76.5 -25q-37 0 -64.5 -11t-51 -36.5t-43 -66.5t-41.5 -99q-41 -109 -104.5 -222t-159.5 -195l481 -641h139v-478h-70q-47 0 -68.5 21.5 t-21.5 75.5v252h-67zM838 35v1431h159v-1527h-71q-88 0 -88 96zM37 -61l579 770q-96 82 -159.5 195.5t-104.5 221.5q-23 57 -42 98.5t-42.5 67t-51.5 36.5t-64 11q-59 0 -76 25t-17 70v32h91q78 0 131 -18t92 -55t65.5 -90.5t50.5 -122.5q29 -84 60 -150.5t68.5 -120 t85 -98.5t112.5 -84l-592 -788h-186z"/>
<glyph glyph-name="uni0497" horiz-adv-x="1570" unicode="җ" d="M33 1030v35h92q57 0 101 -10.5t80 -38t65.5 -73.5t56.5 -118q37 -100 95.5 -167.5t160.5 -125.5v533h160v-535q98 59 162.5 131t99.5 164q51 133 121.5 186.5t181.5 53.5h92v-35q0 -45 -16.5 -70.5t-77.5 -25.5q-23 0 -45.5 -6t-45 -23.5t-45 -50.5t-42.5 -88 q-29 -78 -81 -157t-147 -128q86 -102 179.5 -205.5t185.5 -207.5h143v-478h-71q-47 0 -68.5 21.5t-21.5 75.5v252h-54l-450 532v-532h-72q-47 0 -67.5 22.5t-20.5 75.5v428l-444 -526h-183l469 542q-94 49 -143 128t-78 157q-20 55 -42.5 88t-45 50.5t-45 23.5t-45.5 6 q-61 0 -77.5 25.5t-16.5 70.5z"/>
<glyph glyph-name="uni0498" horiz-adv-x="1044" unicode="Ҙ" d="M66 -2q0 65 59 65q10 0 22 -2q59 -8 129 -12t146 -4q88 0 158.5 12.5t120 47t76 95t26.5 156.5q0 88 -19.5 148.5t-60.5 95.5t-102.5 50.5t-147.5 15.5h-276q-23 0 -31 8t-8 31v90h315q82 0 138.5 17t90 55t48 97.5t14.5 143.5q0 258 -287 258q-100 0 -199.5 -10 t-191.5 -29v125q100 20 200.5 31.5t192.5 11.5q94 0 177 -21.5t142.5 -67.5t92.5 -119t33 -171v-12q-4 -129 -45 -223.5t-144 -141.5q70 -20 115 -57t69.5 -86t34 -106.5t9.5 -118.5q0 -197 -84 -302.5t-240 -140.5v-155q0 -106 -64.5 -169t-197.5 -63q-74 0 -160 25v108 q47 -14 85 -16t73 -2q74 0 99.5 35t25.5 106v115q-20 -2 -40 -2h-40q-45 0 -84 1t-81 4t-87 8t-102 16v59z"/>
<glyph glyph-name="uni0499" horiz-adv-x="960" unicode="ҙ" d="M70 2q0 66 63 66q10 0 21 -2q59 -8 108 -14.5t127 -6.5q158 0 240 44t82 165q0 119 -80 162t-254 43h-195q-14 0 -16 6t-2 22v101h213q156 0 224.5 43t68.5 164q0 88 -63.5 129t-205.5 41q-53 0 -94 -2t-75.5 -7.5t-68.5 -12.5t-71 -15v121q43 12 81 20t74 14.5t73.5 8.5 t82.5 2q76 0 153 -11.5t138.5 -45t99 -91t37.5 -142.5v-13q-2 -100 -40.5 -160t-137.5 -101q121 -37 169 -110.5t48 -163.5q0 -162 -70.5 -236.5t-205.5 -97.5v-147q0 -109 -65.5 -171.5t-200.5 -62.5q-76 0 -162 25v108q47 -14 86 -16t74 -2q76 0 101.5 36t25.5 107v111 h-66q-27 0 -65.5 3t-82.5 7t-88.5 9t-80.5 12v61z"/>
<glyph glyph-name="uni049A" horiz-adv-x="1314" unicode="Қ" d="M385 727q63 39 108.5 84t79 98.5t61.5 120t56 150.5q47 139 146.5 212.5t255.5 73.5h90v-32q0 -45 -16.5 -70t-75.5 -25q-76 0 -147 -48t-116 -165q-41 -109 -95 -222t-148 -195l516 -641h147v-478h-69q-47 0 -69 21.5t-22 75.5v252h-69zM154 35v1431h159v-1527h-71 q-88 0 -88 96z"/>
<glyph glyph-name="uni049B" horiz-adv-x="1148" unicode="қ" d="M381 518q111 47 177.5 126t107.5 179q53 137 128.5 189.5t186.5 52.5h92v-35q0 -45 -16.5 -70.5t-77.5 -25.5q-23 0 -45.5 -5t-45 -23.5t-45 -52.5t-42.5 -89q-29 -78 -77 -147.5t-132 -129.5l348 -419h145v-478h-69q-47 0 -68.5 21.5t-21.5 75.5v252h-60zM154 37v1028 h159v-1126h-71q-47 0 -67.5 22.5t-20.5 75.5z"/>
<glyph glyph-name="uni049C" horiz-adv-x="1445" unicode="Ҝ" d="M154 35v1431h159v-749q109 14 193 55v358h160v-243q59 59 108 127.5t98 140.5q41 59 81 115.5t88.5 99.5t108.5 69.5t140 26.5h90v-32q0 -45 -16 -70t-76 -25q-39 0 -76.5 -22.5t-74.5 -59t-73 -85t-71 -99.5q-86 -129 -161.5 -220t-161.5 -151l733 -763h-193l-544 569 v-301h-70q-47 0 -68.5 21.5t-21.5 74.5v313q-82 -27 -193 -38v-639h-71q-88 0 -88 96z"/>
<glyph glyph-name="uni049D" horiz-adv-x="1165" unicode="ҝ" d="M154 37v1028h161v-549q31 2 57.5 7t53.5 16v323h141v-225q31 35 58.5 76t54.5 88q37 68 70.5 118t69.5 82.5t79 48t100 15.5h93v-35q0 -45 -16.5 -70.5t-78.5 -25.5q-47 0 -94 -45t-106 -156q-45 -82 -93.5 -149.5t-111.5 -114.5l473 -530h-180l-318 362v-178h-49 q-47 0 -69.5 22.5t-22.5 75.5v168q-27 -6 -54.5 -10t-56.5 -4v-436h-71q-47 0 -68.5 22.5t-21.5 75.5z"/>
<glyph glyph-name="uni049E" horiz-adv-x="1355" unicode="Ҟ" d="M487 727q63 39 108.5 84t79.5 98.5t61.5 120t56.5 150.5q47 139 146 212.5t255 73.5h90v-32q0 -45 -16.5 -70t-75.5 -25q-76 0 -146.5 -48t-115.5 -165q-41 -109 -95.5 -222t-148.5 -195l621 -770h-187zM43 1114v129h213v223h160v-223h225v-41q0 -35 -16.5 -61.5 t-75.5 -26.5h-133v-1175h-72q-88 0 -88 96v1079h-213z"/>
<glyph glyph-name="uni049F" horiz-adv-x="1200" unicode="ҟ" d="M471 518q111 47 177.5 126t107.5 179q53 137 129 189.5t186 52.5h92v-35q0 -45 -16.5 -70.5t-77.5 -25.5q-23 0 -45.5 -5t-45 -23.5t-45 -52.5t-42.5 -89q-29 -78 -77 -147.5t-132 -129.5l457 -548h-183zM45 1126v129h199v211h159v-211h215v-38q0 -37 -16 -64t-76 -27 h-123v-1187h-71q-47 0 -67.5 22.5t-20.5 75.5v1089h-199z"/>
<glyph glyph-name="uni04A0" horiz-adv-x="1394" unicode="Ҡ" d="M528 727q63 39 108.5 84t79.5 98.5t61.5 120t56.5 150.5q47 139 146 212.5t255 73.5h90v-32q0 -45 -16.5 -70t-75.5 -25q-76 0 -146.5 -48t-115.5 -165q-41 -109 -95.5 -222t-148.5 -195l621 -770h-187zM23 1339v127h434v-1527h-72q-88 0 -88 96v1304h-274z"/>
<glyph glyph-name="uni04A1" horiz-adv-x="1288" unicode="ҡ" d="M557 518q111 47 177.5 126t107.5 179q53 137 129 189.5t186 52.5h92v-35q0 -45 -16 -70.5t-78 -25.5q-23 0 -45.5 -5t-45 -23.5t-45 -52.5t-42.5 -89q-29 -78 -77 -147.5t-132 -129.5l457 -548h-183zM45 934v131h444v-1126h-71q-47 0 -67.5 22.5t-20.5 75.5v897h-285z "/>
<glyph glyph-name="uni04A2" horiz-adv-x="1388" unicode="Ң" d="M152 33v1433h159v-653h729v653h160v-1398h143v-478h-69q-47 0 -68.5 21.5t-21.5 75.5v252h-51q-49 0 -71 21.5t-22 72.5v721q-25 -31 -64.5 -49.5t-92.5 -18.5h-572v-747h-69q-47 0 -68.5 21.5t-21.5 72.5z"/>
<glyph glyph-name="uni04A3" horiz-adv-x="1263" unicode="ң" d="M152 35v1030h159v-457h590v457h162v-997h141v-478h-69q-47 0 -70 21.5t-23 75.5v252h-49q-49 0 -70.5 21.5t-21.5 74.5v487q-55 -45 -135 -45h-455v-538h-69q-47 0 -68.5 21.5t-21.5 74.5z"/>
<glyph glyph-name="uni04A4" horiz-adv-x="1613" unicode="Ҥ" d="M152 33v1433h159v-653h729v653h525v-39q0 -37 -15.5 -62.5t-74.5 -25.5h-275v-1400h-67q-49 0 -71 21.5t-22 72.5v717q-27 -29 -66.5 -46.5t-90.5 -17.5h-572v-747h-69q-47 0 -68.5 21.5t-21.5 72.5z"/>
<glyph glyph-name="uni04A5" horiz-adv-x="1427" unicode="ҥ" d="M152 35v1030h159v-457h590v457h490v-41q0 -37 -16.5 -63.5t-76.5 -26.5h-235v-995h-70q-49 0 -70.5 21.5t-21.5 74.5v500q-23 -27 -55.5 -42.5t-79.5 -15.5h-455v-538h-69q-47 0 -68.5 21.5t-21.5 74.5z"/>
<glyph glyph-name="uni04A6" horiz-adv-x="2121" unicode="Ҧ" d="M150 33v1433h1046v-653h258q281 0 431.5 -152.5t150.5 -470.5q0 -172 -53.5 -294.5t-151.5 -201.5t-238.5 -116t-314.5 -37h-127v39q0 37 19.5 63.5t80.5 26.5q137 0 251 27t197 87t129 155.5t46 234.5q0 270 -105.5 391t-318.5 121h-254v-747h-68q-47 0 -69.5 21.5 t-22.5 72.5v1306h-727v-1400h-69q-47 0 -68.5 21.5t-21.5 72.5z"/>
<glyph glyph-name="uni04A7" horiz-adv-x="1703" unicode="ҧ" d="M143 37v1028h856v-508h95q137 0 237.5 -37t167 -102.5t99 -157.5t32.5 -205v-51q0 -109 -40 -194.5t-111.5 -145t-171 -91.5t-215.5 -32h-131v37q0 39 20 65.5t82 26.5q80 0 153.5 23.5t130 67.5t89 106.5t32.5 140.5v45q0 195 -96 285t-278 90h-95v-489h-69 q-47 0 -70.5 22.5t-23.5 75.5v897h-531v-995h-65q-51 0 -74 22.5t-23 75.5z"/>
<glyph glyph-name="uni04A8" horiz-adv-x="1482" unicode="Ҩ" d="M821 49q86 2 160 38t127 114t83 205t30 315t-27 310t-67 192.5t-87 97.5t-86 27q-68 0 -100.5 -45.5t-32.5 -157.5v-1096zM115 700q0 238 42 385.5t108.5 231.5t146.5 115.5t153 40.5v-134q-59 -16 -111.5 -49t-90 -102.5t-60 -184t-22.5 -294.5q0 -201 30.5 -326 t82.5 -196.5t121 -101.5t144 -38v1094q0 184 69 261t216 77q205 0 320.5 -184.5t115.5 -565.5q0 -219 -35.5 -368.5t-105.5 -245t-175.5 -141.5t-242.5 -58q2 -125 68.5 -185.5t183.5 -60.5h201v-41q0 -35 -15.5 -61.5t-74.5 -26.5h-115q-211 0 -310.5 91.5t-99.5 283.5 q-117 8 -216 44t-172.5 122t-114.5 235.5t-41 382.5z"/>
<glyph glyph-name="uni04A9" horiz-adv-x="1234" unicode="ҩ" d="M690 41q147 18 213 129t66 340q0 215 -45 322.5t-123 107.5q-63 0 -87 -41t-24 -149v-709zM113 489q0 162 24.5 270.5t69.5 176.5t107.5 101.5t138.5 45.5v-133q-47 -18 -82 -50t-56.5 -84t-32 -130t-10.5 -190q0 -123 20.5 -206t55.5 -135.5t81 -79t99 -34.5v702 q0 94 19.5 160t54.5 106t83 57t103 17q94 0 159 -42t104 -117.5t56 -180t17 -227.5q0 -272 -98 -422.5t-336 -183.5q2 -102 49 -170t160 -68h168v-41q0 -37 -16.5 -62.5t-75.5 -25.5h-84q-100 0 -169 25.5t-112 74t-62.5 116t-19.5 151.5q-76 6 -149.5 35.5t-133 94 t-96 174.5t-36.5 275z"/>
<glyph glyph-name="uni04AA" horiz-adv-x="1132" unicode="Ҫ" d="M125 324v766q0 174 116.5 275t329.5 101h488v-39q0 -37 -20.5 -62.5t-94.5 -25.5h-366q-293 0 -293 -278v-723q0 -53 15 -102.5t46 -86t77 -59t107 -22.5h549v-43q0 -16 -4 -32t-16 -28t-36 -19t-60 -7h-146v-166q0 -106 -64.5 -169t-199.5 -63q-35 0 -76 5t-84 18v110 q47 -14 86 -16t72 -2q76 0 101.5 35t25.5 106v142h-156q-86 0 -159.5 28.5t-126 78.5t-82 121t-29.5 157z"/>
<glyph glyph-name="uni04AB" horiz-adv-x="993" unicode="ҫ" d="M143 309v379q0 86 30 155.5t84 119t130 76t166 26.5h375v-39q0 -37 -17.5 -64.5t-89.5 -27.5h-268q-121 0 -184.5 -61.5t-63.5 -184.5v-377q0 -109 63.5 -176t184.5 -67h383v-43q0 -35 -19.5 -60.5t-93.5 -25.5h-106v-164q0 -109 -65.5 -171.5t-200.5 -62.5q-35 0 -76 5 t-84 18v110q47 -14 86 -16t72 -2q76 0 102.5 36t26.5 107v140h-25q-90 0 -166 25.5t-130 73.5t-84 116.5t-30 154.5z"/>
<glyph glyph-name="uni04AC" horiz-adv-x="1204" unicode="Ҭ" d="M37 1339v127h1137v-36q0 -49 -16.5 -70t-80.5 -21h-393v-1271h150v-478h-70q-45 0 -67.5 21.5t-22.5 75.5v252h-60q-47 0 -68.5 21.5t-21.5 72.5v1306h-487z"/>
<glyph glyph-name="uni04AD" horiz-adv-x="1009" unicode="ҭ" d="M37 934v131h938v-39q0 -49 -16.5 -70.5t-81.5 -21.5h-291v-866h157v-478h-69q-47 0 -69.5 21.5t-22.5 75.5v252h-66q-47 0 -69.5 21.5t-22.5 74.5v899h-387z"/>
<glyph glyph-name="uni04AE" horiz-adv-x="1341" unicode="Ү" d="M51 1466h170l451 -780l454 780h174l-552 -921v-606h-66q-47 0 -70.5 21.5t-23.5 72.5v514z"/>
<glyph glyph-name="uni04AF" horiz-adv-x="1159" unicode="ү" d="M51 1065h176l353 -926l356 926h180l-459 -1137v-387h-67q-49 0 -71.5 20.5t-22.5 73.5v291z"/>
<glyph glyph-name="uni04B0" horiz-adv-x="1341" unicode="Ұ" d="M51 1466h170l451 -780l454 780h174l-487 -811h293v-39q0 -37 -15.5 -62.5t-74.5 -25.5h-268v-589h-66q-47 0 -70.5 21.5t-23.5 72.5v495h-365v127h301z"/>
<glyph glyph-name="uni04B1" horiz-adv-x="1159" unicode="ұ" d="M51 1065h176l353 -928l356 928h180l-407 -997h309v-41q0 -35 -16.5 -61.5t-75.5 -26.5h-269v-398h-67q-49 0 -71.5 20.5t-22.5 73.5v304h-371v129h319z"/>
<glyph glyph-name="uni04B2" horiz-adv-x="1392" unicode="Ҳ" d="M59 -61l512 766l-503 761h178l413 -624l416 624h182l-503 -761l424 -637h145v-478h-70q-47 0 -68.5 21.5t-21.5 75.5v252h-86l-418 624l-415 -624h-185z"/>
<glyph glyph-name="uni04B3" horiz-adv-x="1175" unicode="ҳ" d="M57 -61l414 565l-401 561h178l311 -444l311 444h185l-406 -561l322 -436h141v-478h-70q-47 0 -68.5 21.5t-21.5 75.5v252h-63l-324 456l-327 -456h-181z"/>
<glyph glyph-name="uni04B4" horiz-adv-x="1783" unicode="Ҵ" d="M37 1339v127h1137v-36q0 -49 -16.5 -70t-80.5 -21h-393v-1271h727v1398h160v-1398h149v-478h-69q-47 0 -68.5 21.5t-21.5 75.5v252h-1037v1400h-487z"/>
<glyph glyph-name="uni04B5" horiz-adv-x="1556" unicode="ҵ" d="M37 934v131h915v-39q0 -49 -16 -70.5t-82 -21.5h-266v-866h606v997h162v-997h137v-478h-70q-47 0 -68.5 21.5t-21.5 75.5v252h-907v995h-389z"/>
<glyph glyph-name="uni04B6" horiz-adv-x="1357" unicode="Ҷ" d="M143 750v716h160v-714q0 -106 54.5 -153.5t150.5 -47.5h477v915h160v-1398h143v-478h-69q-45 0 -68 21.5t-23 75.5v252h-53q-90 0 -90 96v387h-477q-186 0 -275.5 82t-89.5 246z"/>
<glyph glyph-name="uni04B7" horiz-adv-x="1251" unicode="ҷ" d="M145 651v412h162v-408q0 -111 54.5 -157.5t150.5 -46.5h377v612h162v-995h133v-478h-70q-47 0 -69.5 21.5t-22.5 75.5v252h-43q-47 0 -68.5 22.5t-21.5 75.5v285h-377q-188 0 -277.5 81.5t-89.5 247.5z"/>
<glyph glyph-name="uni04B8" horiz-adv-x="1308" unicode="Ҹ" d="M147 750v716h160v-714q0 -106 54.5 -153.5t150.5 -47.5h63v332h160v-332h254v915h160v-1527h-70q-90 0 -90 96v387h-254v-340h-69q-45 0 -68 21.5t-23 74.5v244h-63q-188 0 -276.5 82t-88.5 246z"/>
<glyph glyph-name="uni04B9" horiz-adv-x="1200" unicode="ҹ" d="M141 651v414h160v-410q0 -111 55.5 -157.5t151.5 -46.5h10v247h158v-247h209v614h159v-1126h-69q-47 0 -68.5 22.5t-21.5 75.5v285h-209v-281h-66q-47 0 -69.5 21.5t-22.5 74.5v185h-10q-188 0 -277.5 81.5t-89.5 247.5z"/>
<glyph glyph-name="uni04BA" horiz-adv-x="1304" unicode="Һ" d="M154 35v1431h69q47 0 68.5 -21.5t21.5 -74.5v-389h478q186 0 275 -81t89 -247v-714h-70q-90 0 -90 96v616q0 109 -54 156t-150 47h-478v-915h-69q-90 0 -90 96z"/>
<glyph glyph-name="uni04BB" horiz-adv-x="1183" unicode="һ" d="M145 37v1028h70q47 0 68.5 -22.5t21.5 -75.5v-287h377q188 0 277.5 -83t89.5 -249v-409h-70q-47 0 -68.5 22.5t-21.5 75.5v309q0 111 -55.5 158t-151.5 47h-377v-612h-69q-47 0 -69 22.5t-22 75.5z"/>
<glyph glyph-name="uni04BC" horiz-adv-x="1589" unicode="Ҽ" d="M559 752h701q29 0 45 11t16 50v283q0 49 -15.5 93t-46 77.5t-74.5 53t-100 19.5h-260q-66 0 -116 -20.5t-83.5 -56t-50 -84t-16.5 -101.5v-325zM41 918v81h158v-81q0 -82 55 -119t145 -47v321q0 98 32 172t88 123t134 73.5t172 24.5h262q86 0 158 -22.5t124 -68.5 t82 -115.5t30 -163.5v-299q0 -72 -36 -122t-112 -50h-774v-299q0 -123 76 -190.5t190 -67.5h648v-50q0 -35 -18.5 -57t-90.5 -22h-539q-90 0 -166.5 25.5t-135 74.5t-91.5 121.5t-33 165.5v299q-186 6 -272 72.5t-86 220.5z"/>
<glyph glyph-name="uni04BD" horiz-adv-x="1386" unicode="ҽ" d="M569 565h488q37 0 49 12.5t12 49.5v90q0 51 -18.5 96t-53 79t-87 53.5t-119.5 19.5q-61 0 -111.5 -19.5t-86.5 -53.5t-54.5 -79t-18.5 -96v-152zM41 731v82h160v-82q0 -84 57 -122t150 -44v109q0 106 34.5 186t94 131t137.5 77t166 26q94 0 175 -26t139 -75t91 -118.5 t33 -157.5v-148q0 -66 -30.5 -99.5t-108.5 -33.5h-570v-143q0 -109 64.5 -167t157.5 -58h446v-50q0 -37 -19.5 -58t-91.5 -21h-335q-86 0 -157 24.5t-121 70.5t-77.5 111.5t-27.5 147.5v143q-190 4 -278.5 71.5t-88.5 223.5z"/>
<glyph glyph-name="uni04BE" horiz-adv-x="1585" unicode="Ҿ" d="M559 752h701q29 0 45 11t16 50v283q0 49 -14.5 93t-43 77.5t-71.5 53t-98 19.5h-269q-66 0 -116 -20.5t-83.5 -56t-50 -84t-16.5 -101.5v-325zM41 918v81h158v-81q0 -82 55 -119t145 -47v321q0 98 32 172t88 123t134 73.5t172 24.5h271q86 0 156.5 -22.5t120.5 -68.5 t79 -115.5t29 -163.5v-328q0 -72 -29 -107.5t-104 -35.5h-789v-299q0 -123 76 -190.5t190 -67.5h648v-50q0 -35 -18.5 -57t-90.5 -22h-322v-142q0 -72 26 -106.5t99 -34.5q35 0 73 3t85 17v-110q-45 -16 -83 -20.5t-77 -4.5q-133 0 -197.5 62.5t-64.5 169.5v166h-78 q-90 0 -166.5 25.5t-135 74.5t-91.5 121.5t-33 165.5v299q-186 6 -272 72.5t-86 220.5z"/>
<glyph glyph-name="uni04BF" horiz-adv-x="1390" unicode="ҿ" d="M569 565h488q37 0 49 12.5t12 49.5v90q0 51 -18.5 96t-53 79t-87 53.5t-119.5 19.5q-61 0 -111.5 -19.5t-86.5 -53.5t-54.5 -79t-18.5 -96v-152zM41 731v82h160v-82q0 -84 57 -122t150 -44v109q0 106 34.5 186t94 131t137.5 77t166 26q94 0 175 -26t139 -75t91 -118.5 t33 -157.5v-148q0 -66 -30.5 -99.5t-108.5 -33.5h-570v-143q0 -109 64.5 -167t157.5 -58h446v-50q0 -37 -19.5 -58t-91.5 -21h-213v-140q0 -72 26 -107.5t101 -35.5q35 0 74 3t86 17v-110q-47 -16 -85 -20.5t-77 -4.5q-135 0 -200.5 62.5t-65.5 171.5v164q-166 6 -265 100 t-99 254v143q-190 4 -278.5 71.5t-88.5 223.5z"/>
<glyph glyph-name="uni04C0" horiz-adv-x="497" unicode="Ӏ" d="M172 33v1433h162v-1527h-72q-47 0 -68.5 21.5t-21.5 72.5z"/>
<glyph glyph-name="uni04C1" horiz-adv-x="1832" unicode="Ӂ" d="M1018 727q63 39 111.5 84t86 98.5t68.5 120t59 150.5q25 70 51.5 123t64.5 90t92.5 55t131.5 18h91v-32q0 -45 -16.5 -70t-76.5 -25q-37 0 -64.5 -11t-51 -36.5t-43 -66.5t-41.5 -99q-41 -109 -104.5 -222t-159.5 -195l579 -770h-186zM838 35v1431h159v-1527h-71 q-88 0 -88 96zM627 1839h116q6 -84 58.5 -122t122.5 -38q66 0 117 39t59 121h117q-6 -115 -81 -189.5t-218 -74.5q-135 0 -210 74.5t-81 189.5zM37 -61l579 770q-96 82 -159.5 195.5t-104.5 221.5q-23 57 -42 98.5t-42.5 67t-51.5 36.5t-64 11q-59 0 -76 25t-17 70v32h91 q78 0 131 -18t92 -55t65.5 -90.5t50.5 -122.5q29 -84 60 -150.5t68.5 -120t85 -98.5t112.5 -84l-592 -788h-186z"/>
<glyph glyph-name="uni04C2" horiz-adv-x="1544" unicode="ӂ" d="M465 1430h117q6 -84 58 -122t122 -38q66 0 117 39t59 121h117q-6 -115 -81 -190t-218 -75q-135 0 -210 75t-81 190zM33 1030v35h92q57 0 101 -10.5t80 -38t65.5 -73.5t56.5 -118q37 -100 95.5 -167.5t160.5 -125.5v533h160v-535q98 59 162.5 131t99.5 164 q51 133 121.5 186.5t181.5 53.5h92v-35q0 -45 -16.5 -70.5t-77.5 -25.5q-23 0 -45.5 -6t-45 -23.5t-45 -50.5t-42.5 -88q-29 -78 -81 -157t-147 -128l478 -542h-185l-450 532v-532h-72q-47 0 -67.5 22.5t-20.5 75.5v428l-444 -526h-183l469 542q-94 49 -143 128t-78 157 q-20 55 -42.5 88t-45 50.5t-45 23.5t-45.5 6q-61 0 -77.5 25.5t-16.5 70.5z"/>
<glyph glyph-name="uni04C3" horiz-adv-x="1341" unicode="Ӄ" d="M154 35v1431h159v-653h35q139 35 219 126t138 241q53 145 147 215.5t254 70.5h90v-32q0 -45 -16.5 -70t-75.5 -25q-78 0 -150.5 -49t-115.5 -164q-45 -123 -96.5 -194.5t-114.5 -118.5h51q561 0 561 -618q0 -172 -53 -296t-151.5 -204t-238 -117t-313.5 -37h-129v39 q0 37 20.5 63.5t82.5 26.5h20q129 0 238.5 27t189.5 87t126 157.5t46 236.5q0 270 -104.5 389t-319.5 119h-340v-747h-71q-88 0 -88 96z"/>
<glyph glyph-name="uni04C4" horiz-adv-x="1185" unicode="ӄ" d="M154 37v1028h159v-508h58q109 25 185.5 95.5t125.5 174.5q31 66 62.5 112t66.5 73.5t78 40t98 12.5h92v-35q0 -45 -16 -70.5t-78 -25.5q-23 0 -44 -6t-42.5 -24.5t-44.5 -52.5t-47 -89q-63 -137 -152 -211q219 -23 324.5 -145.5t105.5 -350.5v-51q0 -109 -39.5 -194.5 t-111.5 -145t-171 -91.5t-218 -32h-129v37q0 39 19.5 65.5t82.5 26.5q80 0 153.5 23.5t130 67.5t89.5 106.5t33 140.5v45q0 195 -96.5 285t-280.5 90h-234v-489h-71q-47 0 -67.5 22.5t-20.5 75.5z"/>
<glyph glyph-name="uni04C5" horiz-adv-x="1558" unicode="Ӆ" d="M47 -14q0 47 21.5 64.5t78.5 17.5q66 0 107 13t63.5 43t30.5 78t8 120v1144h998v-1398h155l-163 -375h-170l106 246q-47 2 -68.5 22.5t-21.5 73.5v1302h-672v-1015q0 -98 -17.5 -170t-60.5 -119t-113.5 -70.5t-174.5 -23.5h-107v47z"/>
<glyph glyph-name="uni04C6" horiz-adv-x="1368" unicode="ӆ" d="M47 -14q0 47 21.5 64.5t78.5 17.5q63 0 99.5 12t51.5 38.5t18 69.5t3 107v770h848v-997h162l-155 -375h-170l102 246h-8q-47 0 -69.5 21.5t-22.5 74.5v899h-525v-612q0 -98 -12 -170t-47 -119t-99.5 -70.5t-168.5 -23.5h-107v47z"/>
<glyph glyph-name="uni04C7" horiz-adv-x="1357" unicode="Ӈ" d="M152 33v1433h159v-653h729v653h160v-1581q0 -193 -99.5 -283.5t-309.5 -90.5h-232v45q0 47 21.5 64.5t76.5 17.5h134q123 0 186 54t63 193v875q-25 -33 -63.5 -53.5t-93.5 -20.5h-572v-747h-69q-47 0 -68.5 21.5t-21.5 72.5z"/>
<glyph glyph-name="uni04C8" horiz-adv-x="1220" unicode="ӈ" d="M152 35v1030h159v-457h590v457h162v-1174q0 -197 -101.5 -288.5t-314.5 -91.5h-233v47q0 47 22.5 64.5t77.5 17.5h133q125 0 189.5 54t64.5 197v644q-23 -27 -55.5 -42.5t-79.5 -15.5h-455v-538h-69q-47 0 -68.5 21.5t-21.5 74.5z"/>
<glyph glyph-name="uni04C9" horiz-adv-x="1308" unicode="Ӊ" d="M152 33v1433h159v-653h721v653h160v-1398h158l-168 -375h-170l110 246q-49 2 -69.5 23.5t-20.5 70.5v717q-25 -29 -61.5 -46.5t-87.5 -17.5h-572v-747h-69q-47 0 -68.5 21.5t-21.5 72.5z"/>
<glyph glyph-name="uni04CA" horiz-adv-x="1171" unicode="ӊ" d="M152 35v1030h159v-457h582v457h162v-997h157l-163 -375h-170l106 246q-49 0 -70.5 21.5t-21.5 74.5v491q-45 -49 -127 -49h-455v-538h-69q-47 0 -68.5 21.5t-21.5 74.5z"/>
<glyph glyph-name="uni04CB" horiz-adv-x="1310" unicode="Ӌ" d="M143 750v716h160v-714q0 -106 54.5 -153.5t148.5 -47.5h477v915h160v-1527h-68q-45 0 -65 20v-369h-70q-45 0 -67.5 21.5t-22.5 75.5v381h133v354h-477q-186 0 -274.5 82t-88.5 246z"/>
<glyph glyph-name="uni04CC" horiz-adv-x="1204" unicode="ӌ" d="M145 651v414h160v-410q0 -111 55.5 -157.5t151.5 -46.5h377v614h160v-1126h-70q-49 0 -70 24v-373h-69q-47 0 -69.5 21.5t-22.5 75.5v381h141v254h-377q-188 0 -277.5 81.5t-89.5 247.5z"/>
<glyph glyph-name="uni04CD" horiz-adv-x="1794" unicode="Ӎ" d="M154 20v1446h176l516 -962q22 -38 47 -38q1 0 14 0.5t33 37.5l518 962h176v-1398h160l-156 -375h-170l103 246h-6q-47 0 -68.5 21.5t-21.5 70.5v1147l-439 -781q-23 -39 -56.5 -68.5t-86.5 -29.5q-51 0 -86 30.5t-55 65.5l-439 783v-1239h-69q-45 0 -67.5 22.5 t-22.5 58.5z"/>
<glyph glyph-name="uni04CE" horiz-adv-x="1521" unicode="ӎ" d="M152 20v1045h172l403 -551q33 -43 48.5 -43t43.5 43l383 551h172v-997h154l-156 -375h-170l103 246q-49 0 -71 20.5t-22 73.5v801l-292 -428q-27 -37 -62 -70t-86 -33t-85 33t-58 67l-316 428v-892h-69q-92 0 -92 81z"/>
<glyph glyph-name="uni04CF" horiz-adv-x="499" unicode="ӏ" d="M172 35v1431h164v-1527h-72q-47 0 -69.5 21.5t-22.5 74.5z"/>
<glyph glyph-name="uni04D0" horiz-adv-x="1318" unicode="Ӑ" d="M391 530h539l-271 830zM356 1839h117q6 -84 58.5 -122t121.5 -38q66 0 117 39t59 121h117q-6 -115 -80.5 -189.5t-218.5 -74.5q-135 0 -210 74.5t-81 189.5zM35 -61l514 1527h162q23 0 47 -19.5t33 -41.5l495 -1466h-164l-174 530q-29 -31 -64.5 -51.5t-74.5 -20.5h-461 l-145 -458h-168z"/>
<glyph glyph-name="uni04D1" horiz-adv-x="1083" unicode="ӑ" d="M272 240q0 -51 19.5 -85t49.5 -53.5t65.5 -26.5t68.5 -7h313v442q-92 12 -168.5 17t-144.5 5q-106 0 -154.5 -39.5t-48.5 -144.5v-108zM229 1430h117q6 -84 58.5 -122t121.5 -38q66 0 117 39t59 121h117q-6 -115 -80.5 -190t-218.5 -75q-135 0 -209.5 75t-81.5 190z M113 229v127q0 172 94.5 244t248.5 72h17q78 -2 149.5 -7.5t165.5 -19.5v119q0 80 -47 125t-145 45h-287q-74 0 -93 23.5t-19 58.5v49h399q184 0 269 -77t85 -224v-825h-477q-166 0 -263 73.5t-97 216.5z"/>
<glyph glyph-name="uni04D2" horiz-adv-x="1318" unicode="Ӓ" d="M737 1628v184h172v-184h-172zM391 530h539l-271 830zM383 1628v184h174v-184h-174zM35 -61l514 1527h162q23 0 47 -19.5t33 -41.5l495 -1466h-164l-174 530q-29 -31 -64.5 -51.5t-74.5 -20.5h-461l-145 -458h-168z"/>
<glyph glyph-name="uni04D3" horiz-adv-x="1083" unicode="ӓ" d="M610 1219v184h172v-184h-172zM272 240q0 -51 19.5 -85t49.5 -53.5t65.5 -26.5t68.5 -7h313v442q-92 12 -168.5 17t-144.5 5q-106 0 -154.5 -39.5t-48.5 -144.5v-108zM256 1219v184h174v-184h-174zM113 229v127q0 172 94.5 244t248.5 72h17q78 -2 149.5 -7.5t165.5 -19.5 v119q0 80 -47 125t-145 45h-287q-74 0 -93 23.5t-19 58.5v49h399q184 0 269 -77t85 -224v-825h-477q-166 0 -263 73.5t-97 216.5z"/>
<glyph glyph-name="uni04D4" horiz-adv-x="2011" unicode="Ӕ" d="M471 532h530v807h-174zM35 -61l678 1527h1212v-32q0 -45 -16.5 -70t-75.5 -25h-672v-524h697v-39q0 -37 -15.5 -62.5t-75.5 -25.5h-606v-620h789v-41q0 -35 -16.5 -61.5t-73.5 -26.5h-859v507q-23 -20 -57.5 -33.5t-79.5 -13.5h-452l-203 -460h-174z"/>
<glyph glyph-name="uni04D5" horiz-adv-x="1761" unicode="ӕ" d="M946 563h481q39 0 50.5 12.5t11.5 49.5v92q0 51 -17.5 96t-52.5 79t-86 53.5t-119 19.5q-61 0 -110 -18.5t-84 -51.5t-54.5 -77t-19.5 -93v-162zM274 240q0 -51 19.5 -85t49.5 -53.5t65.5 -26.5t68.5 -7h135q72 0 122 48t50 117v277q-92 12 -166.5 17t-140.5 5 q-106 0 -154.5 -39.5t-48.5 -144.5v-108zM113 229v127q0 172 95.5 244t249.5 72h17q78 -2 146.5 -7.5t162.5 -19.5v119q0 80 -47 125t-145 45h-285q-74 0 -93 23.5t-19 58.5v49h397q98 0 165.5 -24.5t119.5 -71.5q70 66 157.5 95.5t179.5 29.5q94 0 175 -26t138.5 -75 t90.5 -118.5t33 -157.5v-150q0 -66 -32 -99.5t-110 -33.5h-563v-151q0 -51 17.5 -91t48 -68t70.5 -42t85 -14h443v-50q0 -37 -18.5 -58t-92.5 -21h-332q-51 0 -91 6t-73.5 19t-64.5 34.5t-61 52.5q-41 -47 -93.5 -79.5t-132.5 -32.5h-176q-166 0 -264 73.5t-98 216.5z"/>
<glyph glyph-name="uni04D6" horiz-adv-x="1191" unicode="Ӗ" d="M299 1839h117q6 -84 58 -122t122 -38q66 0 117 39t59 121h117q-6 -115 -81 -189.5t-218 -74.5q-135 0 -210 74.5t-81 189.5zM152 -61v1527h925v-32q0 -45 -16.5 -70t-75.5 -25h-674v-526h699v-39q0 -37 -15.5 -62.5t-74.5 -25.5h-609v-618h791v-41q0 -35 -16.5 -61.5 t-73.5 -26.5h-860z"/>
<glyph glyph-name="uni04D7" horiz-adv-x="1099" unicode="ӗ" d="M274 565h488q39 0 50 12.5t11 49.5v110q0 104 -71.5 166t-206.5 62q-125 0 -198 -61.5t-73 -166.5v-172zM238 1430h116q6 -84 58.5 -122t122.5 -38q66 0 116.5 39t59.5 121h116q-6 -115 -80.5 -190t-218.5 -75q-135 0 -209.5 75t-80.5 190zM113 293v401q0 106 34.5 183 t94 124.5t137.5 70t166 22.5q94 0 175 -23.5t140.5 -69t92 -112t32.5 -152.5v-168q0 -66 -31.5 -99.5t-109.5 -33.5h-570v-143q0 -109 64.5 -167t157.5 -58h446v-50q0 -37 -18.5 -58t-92.5 -21h-335q-86 0 -157 24.5t-121 70.5t-77.5 111.5t-27.5 147.5z"/>
<glyph glyph-name="uni04D8" horiz-adv-x="1341" unicode="Ә" d="M281 311q0 -100 57 -171.5t170 -71.5h268q66 0 116 20.5t84 56t50 82.5t16 103v321h-700q-29 0 -45 -10t-16 -51v-279zM121 311v326q0 72 28.5 107.5t104.5 35.5h788v301q0 123 -75.5 190.5t-190.5 67.5h-504q-61 0 -83.5 21.5t-22.5 71.5v34h610q203 0 314.5 -99 t111.5 -286v-749q0 -98 -31.5 -172t-88 -123t-134.5 -73.5t-172 -24.5h-270q-86 0 -156.5 23.5t-121 69.5t-79 115.5t-28.5 163.5z"/>
<glyph glyph-name="afii10846" horiz-adv-x="1079" unicode="ә" d="M262 289q0 -51 18.5 -96.5t53.5 -79t87 -53t120 -19.5q61 0 111 19.5t86 53t54.5 79t18.5 96.5v149h-487q-39 0 -50.5 -13t-11.5 -48v-88zM100 289v145q0 66 32 99.5t110 33.5h569v144q0 109 -64.5 166t-156.5 57h-365q-61 0 -83.5 22.5t-22.5 71.5v37h471 q86 0 156.5 -25.5t121 -71.5t78 -111.5t27.5 -145.5v-383q0 -109 -35 -187t-94.5 -130t-137 -76.5t-165.5 -24.5q-96 0 -176 25.5t-139.5 74.5t-92.5 120t-33 159z"/>
<glyph glyph-name="uni04DA" horiz-adv-x="1341" unicode="Ӛ" d="M752 1628v184h172v-184h-172zM397 1628v184h174v-184h-174zM281 311q0 -100 57 -171.5t170 -71.5h268q66 0 116 20.5t84 56t50 82.5t16 103v321h-700q-29 0 -45 -10t-16 -51v-279zM121 311v326q0 72 28.5 107.5t104.5 35.5h788v301q0 123 -75.5 190.5t-190.5 67.5h-504 q-61 0 -83.5 21.5t-22.5 71.5v34h610q203 0 314.5 -99t111.5 -286v-749q0 -98 -31.5 -172t-88 -123t-134.5 -73.5t-172 -24.5h-270q-86 0 -156.5 23.5t-121 69.5t-79 115.5t-28.5 163.5z"/>
<glyph glyph-name="uni04DB" horiz-adv-x="1079" unicode="ӛ" d="M618 1219v184h173v-184h-173zM264 1219v184h174v-184h-174zM262 289q0 -51 18.5 -96.5t53.5 -79t87 -53t120 -19.5q61 0 111 19.5t86 53t54.5 79t18.5 96.5v149h-487q-39 0 -50.5 -13t-11.5 -48v-88zM100 289v145q0 66 32 99.5t110 33.5h569v144q0 109 -64.5 166 t-156.5 57h-365q-61 0 -83.5 22.5t-22.5 71.5v37h471q86 0 156.5 -25.5t121 -71.5t78 -111.5t27.5 -145.5v-383q0 -109 -35 -187t-94.5 -130t-137 -76.5t-165.5 -24.5q-96 0 -176 25.5t-139.5 74.5t-92.5 120t-33 159z"/>
<glyph glyph-name="uni04DC" horiz-adv-x="1832" unicode="Ӝ" d="M1018 727q63 39 111.5 84t86 98.5t68.5 120t59 150.5q25 70 51.5 123t64.5 90t92.5 55t131.5 18h91v-32q0 -45 -16.5 -70t-76.5 -25q-37 0 -64.5 -11t-51 -36.5t-43 -66.5t-41.5 -99q-41 -109 -104.5 -222t-159.5 -195l579 -770h-186zM1014 1628v184h172v-184h-172z M838 35v1431h159v-1527h-71q-88 0 -88 96zM659 1628v184h175v-184h-175zM37 -61l579 770q-96 82 -159.5 195.5t-104.5 221.5q-23 57 -42 98.5t-42.5 67t-51.5 36.5t-64 11q-59 0 -76 25t-17 70v32h91q78 0 131 -18t92 -55t65.5 -90.5t50.5 -122.5q29 -84 60 -150.5 t68.5 -120t85 -98.5t112.5 -84l-592 -788h-186z"/>
<glyph glyph-name="uni04DD" horiz-adv-x="1544" unicode="ӝ" d="M860 1219v184h172v-184h-172zM506 1219v184h174v-184h-174zM33 1030v35h92q57 0 101 -10.5t80 -38t65.5 -73.5t56.5 -118q37 -100 95.5 -167.5t160.5 -125.5v533h160v-535q98 59 162.5 131t99.5 164q51 133 121.5 186.5t181.5 53.5h92v-35q0 -45 -16.5 -70.5t-77.5 -25.5 q-23 0 -45.5 -6t-45 -23.5t-45 -50.5t-42.5 -88q-29 -78 -81 -157t-147 -128l478 -542h-185l-450 532v-532h-72q-47 0 -67.5 22.5t-20.5 75.5v428l-444 -526h-183l469 542q-94 49 -143 128t-78 157q-20 55 -42.5 88t-45 50.5t-45 23.5t-45.5 6q-61 0 -77.5 25.5t-16.5 70.5z "/>
<glyph glyph-name="uni04DE" horiz-adv-x="1071" unicode="Ӟ" d="M580 1628v184h172v-184h-172zM225 1628v184h174v-184h-174zM76 -2q0 65 60 65q10 0 22 -2q59 -8 128.5 -12t145.5 -4q88 0 159 12.5t120 47t75.5 95t26.5 156.5q0 88 -19.5 148.5t-60.5 95.5t-102.5 50.5t-147.5 15.5h-276q-23 0 -31 8t-8 31v90h315q82 0 138.5 17t90 55 t48 97.5t14.5 143.5q0 258 -287 258q-100 0 -199.5 -10t-191.5 -29v125q100 20 200.5 31.5t192.5 11.5q94 0 177.5 -21.5t142.5 -67.5t92 -119t33 -171v-12q-4 -129 -45 -223.5t-144 -141.5q70 -20 115 -57t69.5 -86t34 -106.5t9.5 -118.5q0 -129 -37 -217t-105.5 -143.5 t-166 -78t-214.5 -22.5h-20q-45 0 -84 1t-81 4t-87 8t-102 16v59z"/>
<glyph glyph-name="uni04DF" horiz-adv-x="960" unicode="ӟ" d="M549 1219v184h172v-184h-172zM195 1219v184h174v-184h-174zM70 2q0 66 63 66q10 0 21 -2q59 -8 108 -14.5t127 -6.5q158 0 240 44t82 165q0 119 -80 162t-254 43h-195q-14 0 -16 6t-2 22v101h213q156 0 224.5 43t68.5 164q0 88 -63.5 129t-205.5 41q-53 0 -94 -2 t-75.5 -7.5t-68.5 -12.5t-71 -15v121q43 12 81 20t74 14.5t73.5 8.5t82.5 2q76 0 153 -11.5t138.5 -45t99 -91t37.5 -142.5v-13q-2 -100 -40.5 -160t-137.5 -101q121 -37 169 -110.5t48 -163.5q0 -106 -30.5 -175t-92 -108t-145.5 -51t-184 -12h-31q-27 0 -65.5 3t-82.5 7 t-88.5 9t-80.5 12v61z"/>
<glyph glyph-name="uni04E0" horiz-adv-x="1128" unicode="Ӡ" d="M55 0q0 65 60 65q10 0 22 -2q59 -8 129 -13t148 -5q100 0 185 16.5t147.5 54.5t97.5 102.5t35 160.5q0 88 -18.5 154.5t-61.5 109.5t-115 64.5t-178 21.5h-107q-23 0 -32 8t-9 31v109l455 460h-735v129h919v-141l-465 -465q143 0 240.5 -33.5t156 -96t84 -148.5 t25.5 -191q0 -127 -44 -218t-126 -150.5t-193.5 -86t-243.5 -26.5h-19q-45 0 -85 1t-82 4t-87 8t-103 16v61z"/>
<glyph glyph-name="uni04E1" horiz-adv-x="1024" unicode="ӡ" d="M76 -2q0 65 61 65q10 0 23 -2q53 -8 106 -13t107 -5q80 0 150.5 11.5t122.5 38t82 72.5t30 114q0 45 -15.5 83.5t-49.5 67.5t-89 44t-137 15h-109q-23 0 -32 7.5t-9 29.5v109l363 297h-604v133h798v-143l-385 -306q119 -2 201 -26.5t133 -68.5t74 -102.5t23 -127.5 q0 -102 -39 -175t-112 -119t-169.5 -66.5t-207.5 -20.5h-21q-45 0 -77 2t-62.5 5t-66.5 8t-89 16v57z"/>
<glyph glyph-name="uni04E2" horiz-adv-x="1347" unicode="Ӣ" d="M348 1636v127h637v-127h-637zM152 20v1446h159v-1390l688 1390h193v-1527h-70q-47 0 -68.5 21.5t-21.5 70.5v1179l-575 -1175q-25 -49 -60 -72.5t-88 -23.5h-67q-45 0 -67.5 22.5t-22.5 58.5z"/>
<glyph glyph-name="uni04E3" horiz-adv-x="1247" unicode="ӣ" d="M311 1227v127h637v-127h-637zM152 20v1045h161v-985l574 985h211v-1126h-70q-47 0 -69.5 20.5t-22.5 73.5v819l-471 -815q-23 -41 -64 -69.5t-90 -28.5h-67q-92 0 -92 81z"/>
<glyph glyph-name="uni04E4" horiz-adv-x="1347" unicode="Ӥ" d="M752 1628v184h172v-184h-172zM397 1628v184h174v-184h-174zM152 20v1446h159v-1390l688 1390h193v-1527h-70q-47 0 -68.5 21.5t-21.5 70.5v1179l-575 -1175q-25 -49 -60 -72.5t-88 -23.5h-67q-45 0 -67.5 22.5t-22.5 58.5z"/>
<glyph glyph-name="uni04E5" horiz-adv-x="1247" unicode="ӥ" d="M713 1219v184h172v-184h-172zM358 1219v184h174v-184h-174zM152 20v1045h161v-985l574 985h211v-1126h-70q-47 0 -69.5 20.5t-22.5 73.5v819l-471 -815q-23 -41 -64 -69.5t-90 -28.5h-67q-92 0 -92 81z"/>
<glyph glyph-name="uni04E6" horiz-adv-x="1409" unicode="Ӧ" d="M803 1628v184h172v-184h-172zM449 1628v184h174v-184h-174zM281 555q0 -248 105.5 -377t315.5 -129q211 0 316.5 129t105.5 379v293q0 106 -26.5 199.5t-78.5 161t-132 106.5t-185 39q-104 0 -183 -39t-132 -106.5t-79.5 -161t-26.5 -201.5v-293zM121 557v291 q0 309 142 478t439 169t439.5 -169t142.5 -478v-293q0 -307 -142.5 -476t-439.5 -169t-439 169t-142 478z"/>
<glyph glyph-name="uni04E7" horiz-adv-x="1150" unicode="ӧ" d="M674 1219v184h172v-184h-172zM319 1219v184h175v-184h-175zM285 352q0 -152 74.5 -231.5t213.5 -79.5q137 0 213 77t76 234v303q0 63 -15.5 121t-50 98.5t-90 65.5t-133.5 25q-135 0 -211.5 -78t-76.5 -232v-303zM123 352v303q0 227 117.5 333t332.5 106 q219 0 335 -104.5t116 -334.5v-303q0 -227 -113.5 -334.5t-337.5 -107.5q-217 0 -333.5 106.5t-116.5 335.5z"/>
<glyph glyph-name="uni04E8" horiz-adv-x="1413" unicode="Ө" d="M283 770h843v80q0 113 -26.5 206t-78.5 159.5t-132 103.5t-184 37t-183.5 -37t-132.5 -104.5t-79.5 -160.5t-26.5 -206v-78zM283 555q0 -248 105.5 -377t316.5 -129t316 129t105 379v84h-843v-86zM123 557v291q0 309 142.5 478t439.5 169t439 -169t142 -478v-293 q0 -307 -142.5 -476t-438.5 -169q-297 0 -439.5 169t-142.5 478z"/>
<glyph glyph-name="uni04E9" horiz-adv-x="1136" unicode="ө" d="M279 571h577v84q0 63 -15.5 121t-50 98.5t-90 65.5t-133.5 25q-135 0 -211.5 -78t-76.5 -232v-84zM279 352q0 -152 74.5 -231.5t213.5 -79.5q137 0 213 77t76 234v90h-577v-90zM117 352v303q0 227 117.5 333t332.5 106q219 0 335 -104.5t116 -334.5v-303 q0 -227 -113.5 -334.5t-337.5 -107.5q-217 0 -333.5 106.5t-116.5 335.5z"/>
<glyph glyph-name="uni04EA" horiz-adv-x="1413" unicode="Ӫ" d="M803 1628v184h172v-184h-172zM449 1628v184h174v-184h-174zM283 770h843v80q0 113 -26.5 206t-78.5 159.5t-132 103.5t-184 37t-183.5 -37t-132.5 -104.5t-79.5 -160.5t-26.5 -206v-78zM283 555q0 -248 105.5 -377t316.5 -129t316 129t105 379v84h-843v-86zM123 557v291 q0 309 142.5 478t439.5 169t439 -169t142 -478v-293q0 -307 -142.5 -476t-438.5 -169q-297 0 -439.5 169t-142.5 478z"/>
<glyph glyph-name="uni04EB" horiz-adv-x="1136" unicode="ӫ" d="M666 1219v184h172v-184h-172zM311 1219v184h174v-184h-174zM279 571h577v84q0 63 -15.5 121t-50 98.5t-90 65.5t-133.5 25q-135 0 -211.5 -78t-76.5 -232v-84zM279 352q0 -152 74.5 -231.5t213.5 -79.5q137 0 213 77t76 234v90h-577v-90zM117 352v303q0 227 117.5 333 t332.5 106q219 0 335 -104.5t116 -334.5v-303q0 -227 -113.5 -334.5t-337.5 -107.5q-217 0 -333.5 106.5t-116.5 335.5z"/>
<glyph glyph-name="uni04EC" horiz-adv-x="1157" unicode="Ӭ" d="M627 1628v184h172v-184h-172zM272 1628v184h174v-184h-174zM68 25v43h546q61 0 108.5 22.5t78 59t46 86t15.5 102.5v305h-577q-59 0 -74.5 26.5t-15.5 61.5v41h667v289q0 278 -291 278h-2h-368q-74 0 -93.5 26t-19.5 62v39h487q213 0 330 -101t117 -275v-766 q0 -86 -29.5 -157t-83 -121t-126 -78.5t-158.5 -28.5h-443q-74 0 -94 26.5t-20 59.5z"/>
<glyph glyph-name="uni04ED" horiz-adv-x="987" unicode="ӭ" d="M541 1219v184h172v-184h-172zM186 1219v184h174v-184h-174zM66 25v43h383q121 0 184 67.5t63 175.5v127h-434q-59 0 -75.5 25.5t-16.5 62.5v41h526v121q0 123 -63.5 184.5t-183.5 61.5h-269q-35 0 -56.5 7t-32.5 20.5t-14 30t-3 34.5v39h375q90 0 165.5 -26.5t130 -76 t84 -119t29.5 -155.5v-379q0 -86 -29.5 -154.5t-84 -116.5t-130 -73.5t-165.5 -25.5h-271q-72 0 -92 25.5t-20 60.5z"/>
<glyph glyph-name="uni04EE" horiz-adv-x="1251" unicode="Ӯ" d="M305 1636v127h637v-127h-637zM113 766v700h159v-698q0 -223 205 -223q55 0 120 2t128 7t119.5 11t95.5 13v888h160v-1237q0 -61 -18.5 -114.5t-59.5 -92t-104.5 -61t-153.5 -22.5h-598v49q0 47 23.5 67.5t82.5 20.5h492q104 0 140 42t36 113v220q-47 -6 -108.5 -12.5 t-127 -12.5t-127 -9t-108.5 -3q-176 0 -266 92t-90 260z"/>
<glyph glyph-name="uni04EF" d="M244 1227v127h637v-127h-637zM131 352v713h162v-711q0 -115 38 -170t148 -55q84 0 176.5 6t163.5 17v913h162v-1262q0 -61 -19.5 -115.5t-60.5 -93t-105.5 -61t-154.5 -22.5h-455v49q0 47 23.5 68.5t83.5 21.5h348q104 0 141 42t37 113v213q-78 -8 -165 -14t-183 -6 q-174 0 -257 85t-83 269z" unicode="ӯ"/>
<glyph glyph-name="uni04F0" horiz-adv-x="1251" unicode="Ӱ" d="M709 1628v184h172v-184h-172zM354 1628v184h174v-184h-174zM113 766v700h159v-698q0 -223 205 -223q55 0 120 2t128 7t119.5 11t95.5 13v888h160v-1237q0 -61 -18.5 -114.5t-59.5 -92t-104.5 -61t-153.5 -22.5h-598v49q0 47 23.5 67.5t82.5 20.5h492q104 0 140 42t36 113 v220q-47 -6 -108.5 -12.5t-127 -12.5t-127 -9t-108.5 -3q-176 0 -266 92t-90 260z"/>
<glyph glyph-name="uni04F1" d="M645 1219v184h172v-184h-172zM291 1219v184h174v-184h-174zM131 352v713h162v-711q0 -115 38 -170t148 -55q84 0 176.5 6t163.5 17v913h162v-1262q0 -61 -19.5 -115.5t-60.5 -93t-105.5 -61t-154.5 -22.5h-455v49q0 47 23.5 68.5t83.5 21.5h348q104 0 141 42t37 113v213 q-78 -8 -165 -14t-183 -6q-174 0 -257 85t-83 269z" unicode="ӱ"/>
<glyph glyph-name="uni04F2" horiz-adv-x="1251" unicode="Ӳ" d="M621 1606l149 270h178l-172 -219q-23 -29 -43 -40t-61 -11h-51zM342 1606l150 270h178l-172 -219q-23 -29 -43.5 -40t-61.5 -11h-51zM113 766v700h159v-698q0 -223 205 -223q55 0 120 2t128 7t119.5 11t95.5 13v888h160v-1237q0 -61 -18.5 -114.5t-59.5 -92t-104.5 -61 t-153.5 -22.5h-598v49q0 47 23.5 67.5t82.5 20.5h492q104 0 140 42t36 113v220q-47 -6 -108.5 -12.5t-127 -12.5t-127 -9t-108.5 -3q-176 0 -266 92t-90 260z"/>
<glyph glyph-name="uni04F3" d="M580 1196l149 270h178l-172 -219q-23 -29 -43 -40t-61 -11h-51zM301 1196l150 270h178l-172 -219q-23 -29 -43.5 -40t-61.5 -11h-51zM131 352v713h162v-711q0 -115 38 -170t148 -55q84 0 176.5 6t163.5 17v913h162v-1262q0 -61 -19.5 -115.5t-60.5 -93t-105.5 -61 t-154.5 -22.5h-455v49q0 47 23.5 68.5t83.5 21.5h348q104 0 141 42t37 113v213q-78 -8 -165 -14t-183 -6q-174 0 -257 85t-83 269z" unicode="ӳ"/>
<glyph glyph-name="uni04F4" horiz-adv-x="1306" unicode="Ӵ" d="M748 1628v184h172v-184h-172zM393 1628v184h174v-184h-174zM143 750v716h160v-714q0 -106 54.5 -153.5t148.5 -47.5h477v915h160v-1527h-68q-92 0 -92 96v387h-477q-186 0 -274.5 82t-88.5 246z"/>
<glyph glyph-name="uni04F5" horiz-adv-x="1204" unicode="ӵ" d="M682 1219v184h172v-184h-172zM328 1219v184h174v-184h-174zM143 649v416h160v-412q0 -111 55.5 -157.5t151.5 -46.5h377v616h160v-1126h-70q-47 0 -68.5 22.5t-21.5 75.5v282h-381q-188 0 -275.5 82t-87.5 248z"/>
<glyph glyph-name="uni04F6" horiz-adv-x="1153" unicode="Ӷ" d="M158 39v1427h960v-39q0 -39 -19.5 -64.5t-80.5 -25.5h-699v-1269h146v-478h-72q-47 0 -68.5 21.5t-21.5 75.5v252h-53q-49 0 -70.5 22.5t-21.5 77.5z"/>
<glyph glyph-name="uni04F7" horiz-adv-x="966" unicode="ӷ" d="M152 39v1026h747v-39q0 -39 -19.5 -65.5t-80.5 -26.5h-486v-866h148v-478h-72q-47 0 -68.5 21.5t-21.5 75.5v252h-55q-49 0 -70.5 22.5t-21.5 77.5z"/>
<glyph glyph-name="uni04F8" horiz-adv-x="1714" unicode="Ӹ" d="M1393 35v1442h159v-1538h-69q-90 0 -90 96zM948 1628v184h172v-184h-172zM594 1628v184h174v-184h-174zM311 68h424q70 0 123 19t88 53t52.5 79t17.5 96v97q0 51 -15.5 97t-49 80t-86 54.5t-128.5 20.5h-426v-596zM154 -61v1527h157v-673h428q94 0 174 -18.5t138.5 -59.5 t91.5 -108.5t33 -166.5v-135q0 -98 -36 -167.5t-97.5 -113.5t-140.5 -64.5t-165 -20.5h-583z"/>
<glyph glyph-name="uni04F9" horiz-adv-x="1548" unicode="ӹ" d="M1235 37v1028h162v-1126h-70q-47 0 -69.5 22.5t-22.5 75.5zM872 1219v184h172v-184h-172zM518 1219v184h174v-184h-174zM307 68h301q145 0 214 63.5t69 165.5q0 100 -64.5 163.5t-216.5 63.5h-303v-456zM147 -61v1126h160v-412h305q94 0 175 -17.5t140.5 -57t92.5 -103 t33 -156.5v-32q0 -98 -37 -166t-98.5 -108t-141.5 -57t-166 -17h-463z"/>
<glyph glyph-name="uni04FA" horiz-adv-x="1269" unicode="Ӻ" d="M49 682v129h221v655h961v-39q0 -39 -19.5 -64.5t-83.5 -25.5h-696v-526h467v-39q0 -37 -15.5 -63.5t-74.5 -26.5h-377v-614h117v-293q0 -109 -65.5 -171.5t-200.5 -62.5q-35 0 -76 6.5t-84 18.5v115q47 -14 86 -19.5t72 -5.5q76 0 102.5 36t26.5 107v140h-48 q-49 0 -70.5 22.5t-21.5 77.5v643h-221z"/>
<glyph glyph-name="uni04FB" horiz-adv-x="1054" unicode="ӻ" d="M27 428v129h213v508h747v-39q0 -39 -19.5 -65.5t-82.5 -26.5h-484v-377h369v-41q0 -37 -15.5 -62.5t-74.5 -25.5h-279v-360h123v-293q0 -109 -65.5 -171.5t-200.5 -62.5q-76 0 -162 25v110q47 -14 86 -17t74 -3q76 0 101.5 36t25.5 107v140h-51q-51 0 -71.5 22.5 t-20.5 77.5v389h-213z"/>
<glyph glyph-name="uni04FC" horiz-adv-x="1341" unicode="Ӽ" d="M59 -61l521 766l-510 761h180l418 -624l422 624h182l-508 -761l424 -621q53 -80 80.5 -147.5t27.5 -141.5q0 -51 -17 -97t-55 -81t-100.5 -55.5t-152.5 -20.5q-35 0 -66 3t-74 18v112q37 -12 76 -15t62 -3q66 0 116 32.5t50 96.5q0 63 -20.5 106t-61.5 105l-385 563 l-420 -620h-189z"/>
<glyph glyph-name="uni04FD" horiz-adv-x="1132" unicode="ӽ" d="M57 -61l416 565l-401 561h178l309 -444l313 444h183l-404 -561l285 -385q70 -94 112 -170t42 -154q0 -111 -78 -182.5t-242 -71.5q-25 0 -68 5t-73 16v112q51 -10 77.5 -14t61.5 -4q74 0 120 39t46 92q0 51 -14.5 90t-42.5 78l-312 440l-325 -456h-183z"/>
<glyph glyph-name="uni04FE" horiz-adv-x="1323" unicode="Ӿ" d="M59 -61l478 706h-314v131h307l-462 690h180l418 -622l421 622h183l-463 -690h289v-41q0 -37 -16.5 -63.5t-75.5 -26.5h-201l473 -706h-186l-424 624l-420 -624h-187z"/>
<glyph glyph-name="uni2002" horiz-adv-x="938" unicode=" "/>
<glyph glyph-name="uni2003" horiz-adv-x="1876" unicode=" "/>
<glyph glyph-name="uni2009" horiz-adv-x="375" unicode=" "/>
<glyph glyph-name="endash" horiz-adv-x="1292" unicode="–" d="M135 641v131h1024v-131h-1024z"/>
<glyph glyph-name="emdash" horiz-adv-x="2316" unicode="—" d="M135 641v131h2048v-131h-2048z"/>
<glyph glyph-name="quoteleft" horiz-adv-x="661" unicode="‘" d="M197 1079v213q0 106 49 185t141 116q16 -23 29.5 -39t25.5 -34q-53 -29 -81.5 -71t-28.5 -99v-58h117v-213h-252z"/>
<glyph glyph-name="quotedblleft" horiz-adv-x="1003" unicode="“" d="M569 1079v213q0 106 49.5 185t141.5 116q16 -23 29.5 -39t25.5 -34q-53 -29 -81.5 -71t-28.5 -99v-58h116v-213h-252zM188 1079v213q0 106 49.5 185t141.5 116q16 -23 29.5 -39t25.5 -34q-53 -29 -81.5 -71t-28.5 -99v-58h116v-213h-252z"/>
<glyph glyph-name="quotedblright" horiz-adv-x="1003" unicode="”" d="M571 1374v213h252v-213q0 -106 -49 -185t-141 -116q-16 23 -29.5 39t-25.5 35q53 29 81.5 71t28.5 99v57h-117zM190 1374v213h252v-213q0 -106 -49 -185t-141 -116q-16 23 -29.5 39t-25.5 35q53 29 81.5 71t28.5 99v57h-117z"/>
<glyph glyph-name="ellipsis" horiz-adv-x="1157" unicode="…" d="M864 637v205h187v-205h-187zM494 637v205h186v-205h-186zM121 637v205h186v-205h-186z"/>
<glyph glyph-name="Euro" horiz-adv-x="1884" unicode="€" d="M256 393v131h279v273h-279v131h279v162q0 176 116.5 276t329.5 100h487v-39q0 -37 -20.5 -62.5t-93.5 -25.5h-367q-293 0 -293 -278v-133h441v-131h-441v-273h441v-131h-441v-55q0 -53 15.5 -102.5t46 -86t77 -59t107.5 -22.5h549v-43q0 -16 -4 -32t-16.5 -28t-36 -19 t-60.5 -7h-440q-86 0 -160 27.5t-126 77.5t-81.5 121t-29.5 159v69h-279z"/>
<glyph glyph-name="trademark" horiz-adv-x="1884" unicode="™" d="M872 678v788h226l198 -372q16 -30 32 -30t32 30l201 372h221v-845h-86q-63 0 -64 63v639l-202 -362q-16 -29 -41 -49.5t-60 -20.5q-37 0 -61.5 21.5t-38.5 45.5l-205 365v-702h-88q-63 0 -64 57zM109 1337v129h671v-67q0 -35 -11 -48.5t-54 -13.5h-195v-716h-90h-2 q-59 0 -59 65v651h-260z"/>
</font>
</defs>
</svg>
