<?xml version="1.0" encoding="UTF-8" standalone="no"?>
<!DOCTYPE svg  PUBLIC '-//W3C//DTD SVG 1.1//EN'  'http://www.w3.org/Graphics/SVG/1.1/DTD/svg11.dtd'>
<svg xmlns="http://www.w3.org/2000/svg">
<defs>
<font id="ModernH-EcoLight" horiz-adv-x="1064">
<font-face underline-position="-102" font-weight="400" descent="-410" panose-1="2 11 6 3 0 0 0 2 0 4" units-per-em="2048" unicode-range="U+000D-2122" bbox="-27 -489 2189 1890" x-height="1065" underline-thickness="102" font-family="ModernH" ascent="1638" cap-height="1466"/>
<missing-glyph horiz-adv-x="2048"/>
<glyph glyph-name=".notdef" horiz-adv-x="2048"/>
<glyph glyph-name="glyph1" horiz-adv-x="0"/>
<glyph glyph-name="glyph1" horiz-adv-x="0"/>
<glyph glyph-name="uni000D" horiz-adv-x="2048" unicode=""/>
<glyph glyph-name="space" horiz-adv-x="614" unicode=" "/>
<glyph glyph-name="exclam" horiz-adv-x="604" unicode="!" d="M229 -61v180h146v-180h-146zM221 1516h164l-35 -1102h-90z"/>
<glyph glyph-name="quotedbl" horiz-adv-x="737" unicode='&quot;' d="M428 1538h131q-6 -129 -14 -255t-15 -255h-26q-25 0 -37 17.5t-14 35.5zM152 1538h133q-6 -129 -14.5 -255t-14.5 -255h-29q-25 0 -36 16.5t-13 36.5q-6 117 -13 228.5t-13 228.5z"/>
<glyph glyph-name="numbersign" horiz-adv-x="1427" unicode="#" d="M446 489h463l76 476h-461zM57 395v94h271l78 476h-238v94h254l74 436h116l-71 -436h463l71 436h119l-72 -436h244v-62q0 -33 -37 -32h-223l-76 -476h223v-61q0 -33 -36 -33h-203l-72 -432q-8 -53 -45 -53h-82l78 485h-463l-70 -432q-8 -53 -45 -53h-82l78 485h-254z"/>
<glyph glyph-name="dollar" horiz-adv-x="1077" unicode="$" d="M608 90q145 16 210 81t65 171q0 82 -53.5 156.5t-200.5 134.5l-21 8v-551zM211 1081q0 -49 15.5 -86t44 -64.5t72.5 -52t99 -49.5l50 -22v512q-53 -4 -103.5 -15.5t-90.5 -38t-63.5 -70.5t-23.5 -114zM84 0v29q0 31 18.5 43t71.5 12h318v612l-134 58q-129 55 -199.5 134 t-70.5 193q0 147 97.5 231.5t306.5 92.5v151h116v-149h338v-29q0 -41 -20.5 -49t-65.5 -8h-252v-571l99 -43q84 -37 140 -76t91 -84t49 -95.5t14 -107.5q0 -90 -33.5 -152.5t-89 -102.5t-126 -59.5t-144.5 -25.5v-154h-76q-25 0 -32.5 12.5t-7.5 41.5v96h-408z"/>
<glyph glyph-name="percent" horiz-adv-x="1705" unicode="%" d="M1112 293q0 -51 9 -95t33 -78t61.5 -53.5t95.5 -19.5q57 0 96 19.5t61.5 53.5t31.5 78t9 95t-9 97t-31.5 80t-61.5 53.5t-96 19.5q-55 0 -93 -19.5t-61.5 -53.5t-34 -80t-10.5 -97zM993 293q0 160 82 247t236 87q152 0 235.5 -87t83.5 -247q0 -154 -83 -243t-236 -89 q-154 0 -236 86t-82 246zM436 -61l709 1527h123l-686 -1482q-23 -45 -74 -45h-72zM190 1106q0 -51 9.5 -95t33 -78t61.5 -53.5t97 -19.5q57 0 95 19.5t61.5 53.5t33 78t9.5 95t-9.5 97t-33 80t-61 53.5t-95.5 19.5q-55 0 -94 -19.5t-62.5 -53.5t-34 -80t-10.5 -97zM74 1106 q0 160 81 248t236 88q152 0 235 -88t83 -248q0 -154 -82 -243t-236 -89q-156 0 -236.5 86t-80.5 246z"/>
<glyph glyph-name="ampersand" horiz-adv-x="1394" unicode="&amp;" d="M334 1202q0 -66 26.5 -117t53.5 -79l155 -175l197 136q59 41 90 101t31 124q0 104 -73 159.5t-202 55.5q-131 0 -204.5 -46t-73.5 -159zM197 301q0 -72 27.5 -129t78.5 -96t122 -59.5t155 -20.5q59 0 120.5 13.5t117.5 37t105.5 58t86.5 77.5l-467 518l-185 -125 q-94 -63 -127.5 -124.5t-33.5 -149.5zM78 305q0 66 19.5 119t50 96t69.5 76t76 57l184 121l-131 148q-49 55 -91 121.5t-42 154.5q0 129 96.5 213t302.5 84q86 0 160 -20.5t126 -60.5t82 -96t30 -126q0 -86 -42 -156.5t-114 -122.5l-225 -159l442 -490q20 39 35.5 85t25 93 t14.5 93.5t7 82.5l100 -10q-2 -117 -32.5 -229.5t-81.5 -190.5l215 -249h-131l-146 161q-86 -86 -203.5 -138t-293.5 -52q-139 0 -234.5 32.5t-155 87t-86 126t-26.5 149.5z"/>
<glyph glyph-name="quotesingle" horiz-adv-x="522" unicode="&apos;" d="M197 1538h135l-29 -510h-29q-27 0 -38 16.5t-13 36.5z"/>
<glyph glyph-name="parenleft" horiz-adv-x="716" unicode="(" d="M172 719q0 88 3 168t13 153q23 164 93.5 290t212.5 216l51 -57q-102 -78 -160.5 -190.5t-81.5 -251.5q-10 -72 -14 -155t-4 -173q0 -191 18 -338q16 -127 77.5 -241.5t164.5 -192.5l-51 -60q-123 76 -205 210t-101 290q-10 78 -13 159t-3 173z"/>
<glyph glyph-name="parenright" horiz-adv-x="716" unicode=")" d="M174 -53q104 78 165 192.5t77 241.5q18 147 18 338q0 90 -4 173t-14 155q-23 135 -82.5 249.5t-159.5 192.5l51 57q141 -90 212 -216t93 -290q10 -74 13.5 -153.5t3.5 -167.5q0 -92 -3 -173t-14 -159q-18 -156 -99 -290t-206 -210z"/>
<glyph glyph-name="asterisk" horiz-adv-x="1122" unicode="*" d="M131 893l406 176l-406 182l70 111l350 -242l-37 418h119l-31 -418l342 246l66 -113l-392 -184l390 -172l-66 -111l-340 238l35 -412h-119l33 412l-348 -238z"/>
<glyph glyph-name="plus" horiz-adv-x="1218" unicode="+" d="M113 625v94h438v436h115v-436h442v-94h-442v-445h-115v445h-438z"/>
<glyph glyph-name="comma" horiz-adv-x="473" unicode="," d="M139 -264q53 29 82 69.5t29 110.5v25h-107v184h189v-209q0 -47 -16.5 -83t-42 -62.5t-55.5 -43t-54 -24.5z"/>
<glyph glyph-name="hyphen" horiz-adv-x="1112" unicode="-" d="M135 625v94h844v-94h-844z"/>
<glyph glyph-name="period" horiz-adv-x="454" unicode="." d="M152 -61v163h147v-163h-147z"/>
<glyph glyph-name="slash" horiz-adv-x="923" unicode="/" d="M123 -106l584 1644h112l-583 -1644h-113z"/>
<glyph glyph-name="zero" d="M207 707q0 -168 11 -300.5t46 -223.5t101 -139t170 -48q111 0 177 48t100 139t43 223.5t9 300.5q0 164 -10 293.5t-45 220t-101.5 138.5t-172.5 48q-100 0 -166 -47t-102 -137t-48 -220.5t-12 -295.5zM84 707q0 197 18.5 344t68.5 246.5t139.5 148.5t224.5 49 q137 0 227 -47t141 -144.5t68.5 -246t17.5 -350.5q0 -221 -22.5 -373t-75.5 -246t-141 -136t-215 -42q-129 0 -218.5 47t-140.5 144.5t-71.5 248t-20.5 357.5z" unicode="0"/>
<glyph glyph-name="one" d="M254 1378v88h350q41 0 41 -39v-1488h-55q-37 0 -52.5 19t-15.5 65v1355h-268z" unicode="1"/>
<glyph glyph-name="two" d="M96 29v213q0 82 35 139t96 100l422 303q59 39 94 82t50.5 81t22.5 81t7 86q0 137 -95 211t-269 74q-84 0 -164 -16.5t-170 -43.5v105q84 20 157.5 35.5t176.5 15.5q115 0 204 -24.5t151.5 -72.5t97 -120t34.5 -164q-2 -150 -58.5 -241t-160.5 -164l-414 -295 q-59 -41 -76.5 -84t-17.5 -101v-202h754v-25q0 -29 -15.5 -46t-56.5 -17h-700q-57 0 -81 17t-24 73z" unicode="2"/>
<glyph glyph-name="three" d="M106 -14q0 23 13.5 36t48.5 7q63 -10 118.5 -18.5t131.5 -8.5q92 0 171 17.5t134 58.5t86 108.5t31 169.5q0 186 -95.5 259t-275.5 73h-246q-18 0 -18 14v74h264q164 0 248 76t84 260q0 147 -92.5 220t-259.5 73q-29 0 -71 -5t-85 -14.5t-84 -19.5t-70 -20v96 q78 27 159 40t153 13q104 0 193 -23.5t151.5 -70.5t95.5 -118t33 -164v-11q-4 -152 -64.5 -245t-165.5 -128q72 -16 123 -52t83 -86t47.5 -109.5t15.5 -118.5q0 -129 -38 -217.5t-110 -142.5t-174 -76.5t-225 -22.5q-86 0 -161 9t-149 24v43z" unicode="3"/>
<glyph glyph-name="four" d="M172 319h573v1057zM45 231v93l576 1065q20 37 41.5 57t68.5 20h135v-1147h164v-40q0 -47 -43 -48h-121v-292h-61q-59 0 -60 84v208h-700z" unicode="4"/>
<glyph glyph-name="five" d="M117 -6q0 29 26.5 36t42.5 3l43 -6q51 -8 100.5 -13.5t102.5 -7.5h15q195 0 288.5 100.5t93.5 303.5q0 63 -13 125.5t-50 111.5t-104.5 80t-176.5 31h-346v708h772v-41q0 -29 -15 -39t-38 -10h-596v-530h223q141 0 227.5 -32t139.5 -88t76.5 -137t23.5 -179 q0 -256 -130 -378t-388 -122q-63 0 -143 8t-174 25v51z" unicode="5"/>
<glyph glyph-name="six" d="M205 340q0 -182 75.5 -260t258.5 -78q154 0 236.5 82t82.5 258v145q0 168 -80 249t-231 81q-160 0 -251 -86t-91 -235v-156zM92 313v629q0 121 30 218t92 165t159.5 104.5t232.5 36.5q78 0 146.5 -2t146.5 -12v-53q0 -20 -12.5 -28.5t-28.5 -6.5q-139 12 -250 12 q-135 0 -215 -42t-122 -103.5t-54 -133t-12 -130.5v-213q57 70 147 114.5t199 44.5q215 0 318.5 -105.5t103.5 -291.5v-203q0 -203 -112.5 -303t-321.5 -100q-215 0 -331 95t-116 308z" unicode="6"/>
<glyph glyph-name="seven" d="M109 1378v88h829q10 0 19.5 -5t9.5 -19v-39q0 -23 -7.5 -48.5t-17.5 -51.5l-489 -1321q-6 -16 -18.5 -29.5t-37.5 -13.5h-71l528 1439h-745z" unicode="7"/>
<glyph glyph-name="eight" d="M205 1104q0 -164 84.5 -238.5t238.5 -74.5q160 0 246 73.5t86 239.5q0 82 -24.5 140.5t-68.5 94t-105.5 52t-129.5 16.5q-154 0 -240.5 -71.5t-86.5 -231.5zM168 348q0 -174 93 -263t274 -89q102 0 173.5 29.5t113.5 79t59.5 112t17.5 127.5q0 88 -17.5 158.5t-60.5 118 t-116 73t-175 25.5q-94 0 -164.5 -25.5t-114.5 -73t-63.5 -116t-19.5 -156.5zM45 328q0 172 60.5 272t175.5 160q-104 55 -150.5 148t-46.5 192q0 111 34 186.5t94 121.5t143 66.5t175 20.5t176.5 -20.5t145.5 -67.5t96 -122t35 -181q0 -102 -46 -195.5t-161 -146.5 q76 -29 124 -73t74.5 -98t36 -117.5t9.5 -133.5q0 -98 -27.5 -178t-88 -136.5t-153.5 -86t-216 -29.5q-104 0 -196.5 23.5t-157 73.5t-100.5 130t-36 191z" unicode="8"/>
<glyph glyph-name="nine" d="M207 922q0 -94 21.5 -159t61.5 -103.5t97 -55t131 -16.5q76 0 139.5 17.5t108.5 56t69.5 100t24.5 149.5v152q0 180 -75.5 258t-258.5 78q-158 0 -238.5 -81t-80.5 -257v-139zM92 891v199q0 201 113.5 301t320.5 104h16q200 0 315.5 -101.5t115.5 -303.5v-605 q0 -125 -24.5 -225t-84 -172t-158 -110.5t-247.5 -38.5q-78 0 -145.5 4t-145.5 12v53q0 23 13.5 30t25.5 5q25 -2 48.5 -4t45.5 -4q41 -4 80 -6t76 -2q143 0 225 45t121 111.5t48 141t9 136.5v190q-51 -72 -143 -113.5t-203 -41.5q-215 0 -318.5 104.5t-103.5 290.5z" unicode="9"/>
<glyph glyph-name="colon" horiz-adv-x="454" unicode=":" d="M154 1038v166h147v-166h-147zM154 205v164h147v-164h-147z"/>
<glyph glyph-name="semicolon" horiz-adv-x="440" unicode=";" d="M150 1038v166h145v-166h-145zM94.5 -51.5q-2.5 7.5 -2.5 14.5q0 12 4 33l68 403h129l-154 -458h-30q-12 0 -14.5 7.5z"/>
<glyph glyph-name="less" horiz-adv-x="921" unicode="&lt;" d="M129 696l582 643l80 -71l-521 -572l523 -575l-82 -72z"/>
<glyph glyph-name="equal" horiz-adv-x="1167" unicode="=" d="M164 922v86h842v-86h-842zM164 451v86h842v-86h-842z"/>
<glyph glyph-name="greater" horiz-adv-x="921" unicode="&gt;" d="M131 121l520 575l-520 572l80 71l582 -643l-582 -647z"/>
<glyph glyph-name="question" horiz-adv-x="1083" unicode="?" d="M385 -61v184h145v-184h-145zM88 1450q113 35 208 50.5t183 15.5q236 0 370 -93.5t134 -271.5q0 -119 -49 -206t-141 -148l-191 -127q-29 -18 -44 -36t-24.5 -39.5t-11.5 -49t-2 -66.5v-102h-121v106q0 82 15.5 134.5t56.5 80.5l203 138q55 37 92 72.5t58.5 72.5t29.5 76 t8 84q0 137 -92 209.5t-285 72.5q-100 0 -194 -17t-197 -46z"/>
<glyph glyph-name="at" horiz-adv-x="1875" unicode="@" d="M678 489q0 -98 54 -137t175 -39h281v416q-47 6 -83 10t-67.5 5t-62.5 2.5t-68 1.5q-117 0 -173 -35t-56 -138v-86zM72 705q0 193 55 351t168 272t283 176.5t401 62.5q213 0 367.5 -53.5t256 -152.5t150.5 -240.5t49 -315.5q0 -121 -31.5 -226.5t-93 -184.5t-150.5 -124 t-202 -45h-461q-141 0 -226 63.5t-85 182.5v111q0 129 85 189t239 60q45 0 80.5 -1t70.5 -3t73 -6t87 -8v135q0 78 -38 120t-151 42h-307q-35 0 -45 11.5t-10 33.5v45h393q156 0 217.5 -73.5t61.5 -200.5v-602q88 0 157.5 41t116.5 107.5t71.5 152.5t24.5 178 q0 154 -38.5 277.5t-123.5 210.5t-219.5 135.5t-324.5 48.5q-193 0 -339.5 -58.5t-244.5 -162t-147 -245t-49 -309.5q0 -170 45 -305t138 -230t239.5 -146.5t349.5 -51.5q84 0 187 13.5t189 50.5l15 -51q6 -23 -4.5 -34.5t-24.5 -15.5q-90 -29 -191.5 -43t-205.5 -14 q-221 0 -383 59.5t-267.5 168t-156.5 262t-51 342.5z"/>
<glyph glyph-name="A" horiz-adv-x="1296" unicode="A" d="M346 500h606l-303 901zM37 -61l516 1527h147q18 0 36 -15t24 -34l502 -1478h-123l-183 540q-16 -31 -53 -50t-78 -19h-506l-159 -471h-123z"/>
<glyph glyph-name="B" horiz-adv-x="1273" unicode="B" d="M266 776h465q80 0 131 23.5t80 62.5t40 85t11 93v84q0 109 -63.5 181.5t-198.5 72.5h-465v-602zM266 27h461q156 0 232.5 69.5t76.5 204.5v102q0 57 -17.5 109.5t-54 91.5t-95 61.5t-140.5 22.5h-463v-661zM150 -61v1527h579q106 0 180 -24.5t118 -68.5t63.5 -105.5 t19.5 -132.5v-97q0 -102 -37 -180t-139 -125q109 -27 166 -111.5t57 -189.5v-141q0 -98 -30.5 -165t-87 -109t-135.5 -60t-175 -18h-579z"/>
<glyph glyph-name="C" horiz-adv-x="1140" unicode="C" d="M125 313v787q0 176 113.5 271t322.5 95h479v-22q0 -29 -16 -47.5t-76 -18.5h-381q-322 0 -321 -307v-743q0 -59 17.5 -114.5t51 -96.5t85 -65.5t120.5 -24.5h543v-23q0 -27 -17.5 -46t-78.5 -19h-455q-84 0 -155.5 25.5t-123 73.5t-80 117.5t-28.5 157.5z"/>
<glyph glyph-name="D" horiz-adv-x="1316" unicode="D" d="M270 27h428q174 0 272.5 84t98.5 239v701q0 164 -98.5 245.5t-272.5 81.5h-428v-1351zM152 -61v1527h546q125 0 216.5 -30.5t151.5 -85t90 -131t30 -168.5v-701q0 -92 -30 -168t-90 -130t-151.5 -83.5t-216.5 -29.5h-546z"/>
<glyph glyph-name="E" horiz-adv-x="1177" unicode="E" d="M152 -61v1527h907v-16q0 -35 -13.5 -53.5t-58.5 -18.5h-715v-581h717v-23q0 -29 -12 -47t-57 -18h-648v-682h811v-21q0 -29 -13 -48t-56 -19h-862z"/>
<glyph glyph-name="F" horiz-adv-x="1134" unicode="F" d="M152 16v1450h931v-20q0 -29 -15 -48.5t-64 -19.5h-732v-581h740v-23q0 -29 -17.5 -47t-64.5 -18h-658v-770h-30q-41 0 -65.5 17t-24.5 60z"/>
<glyph glyph-name="G" horiz-adv-x="1331" unicode="G" d="M137 322v768q0 90 33 160.5t89 118.5t132 72.5t164 24.5h604v-18q0 -37 -18.5 -53.5t-67.5 -16.5h-518q-129 0 -212 -76.5t-83 -216.5v-766q0 -61 18.5 -114t55.5 -93t92 -62.5t129 -22.5h264q63 0 111.5 21.5t81 58t48 87t15.5 105.5v289q0 53 -23.5 69.5t-64.5 16.5 h-209q-43 0 -61.5 10t-18.5 43v35h371q127 0 127 -125v-338q0 -182 -102.5 -271t-272.5 -89h-266q-92 0 -169 23.5t-132 71.5t-86 119.5t-31 168.5z"/>
<glyph glyph-name="H" horiz-adv-x="1335" unicode="H" d="M154 12v1454h120v-669h781v669h121v-1527h-50q-39 0 -55 16t-16 57v762q-42 -65 -125 -65h-2h-654v-770h-51q-37 0 -53 16t-16 57z"/>
<glyph glyph-name="I" horiz-adv-x="466" unicode="I" d="M174 23v1443h125v-1527h-43q-37 0 -59.5 21.5t-22.5 62.5z"/>
<glyph glyph-name="J" horiz-adv-x="798" unicode="J" d="M29 -35q0 35 17 48.5t60 13.5h138q141 0 207.5 60t66.5 220v1159h123v-1159q0 -190 -92 -279t-305 -89h-215v26z"/>
<glyph glyph-name="K" horiz-adv-x="1101" unicode="K" d="M356 727l564 739h139l-561 -737l592 -790h-93q-20 0 -40.5 9t-32.5 25zM156 23v1443h120v-1527h-45q-76 0 -75 84z"/>
<glyph glyph-name="L" d="M154 -61v1527h120v-1439h752v-21q0 -35 -13.5 -51t-51.5 -16h-807z" unicode="L"/>
<glyph glyph-name="M" horiz-adv-x="1746" unicode="M" d="M158 18v1448h145l520 -956q16 -29 26.5 -40t20.5 -11t21.5 11t28.5 40l522 956h143v-1527h-43q-37 0 -57.5 23.5t-20.5 62.5v1263l-479 -868q-16 -29 -48 -49.5t-67 -20.5q-41 0 -68.5 20.5t-43.5 47.5l-477 870v-1349h-50q-35 0 -54 25.5t-19 53.5z"/>
<glyph glyph-name="N" horiz-adv-x="1345" unicode="N" d="M152 27v1439h628q102 0 179 -16t128.5 -59t77 -117t25.5 -189v-1146h-39q-37 0 -59.5 19t-22.5 60v1069q0 86 -15.5 142.5t-50 89.5t-90 46t-137.5 13h-502v-1439h-41q-37 0 -59 23.5t-22 64.5z"/>
<glyph glyph-name="O" horiz-adv-x="1400" unicode="O" d="M244 549q0 -287 112.5 -415t339.5 -128q231 0 344 128t113 417v303q0 117 -23.5 216t-80 173t-147.5 115t-206 41q-113 0 -201.5 -41t-147 -110.5t-81 -174t-22.5 -221.5v-303zM121 551v301q0 313 141 478t434 165q297 0 438.5 -166t141.5 -477v-303q0 -311 -141.5 -475 t-438.5 -164q-293 0 -434 164t-141 477z"/>
<glyph glyph-name="P" horiz-adv-x="1232" unicode="P" d="M272 635h422q158 0 228.5 66.5t70.5 201.5v207q0 61 -15 110.5t-50 85t-92.5 54t-141.5 18.5h-422v-743zM152 23v1443h542q199 0 309.5 -80.5t110.5 -275.5v-207q0 -51 -11 -113.5t-53 -117t-126 -91t-230 -36.5h-422v-606h-36q-39 0 -61.5 21.5t-22.5 62.5z"/>
<glyph glyph-name="Q" horiz-adv-x="1386" unicode="Q" d="M246 549q0 -279 112.5 -411t339.5 -132q231 0 344 132t113 413v303q0 117 -23.5 216t-81 174t-142.5 115t-210 40q-123 0 -209 -40t-141 -117t-78.5 -175t-23.5 -215v-303zM123 551v301q0 313 141 478t434 165q297 0 438.5 -166t141.5 -477v-303q0 -367 -199 -529 q47 -61 99.5 -127.5t101.5 -130.5h-66q-37 0 -60.5 8.5t-43.5 34.5l-123 160q-123 -55 -289 -55q-293 0 -434 164t-141 477z"/>
<glyph glyph-name="R" horiz-adv-x="1236" unicode="R" d="M272 727h469q281 0 281 270v119q0 127 -64.5 194.5t-216.5 67.5h-469v-651zM150 23v1443h591q217 0 309.5 -81.5t92.5 -233.5v-172q0 -53 -12.5 -105.5t-44 -98.5t-88 -81t-144.5 -53l330 -702h-129l-324 698h-459v-698h-36q-35 0 -60.5 21.5t-25.5 62.5z"/>
<glyph glyph-name="S" horiz-adv-x="1132" unicode="S" d="M84 -43q0 33 17.5 51.5t64.5 18.5h375q186 0 282.5 70.5t96.5 211.5q0 98 -60.5 169t-214.5 140l-280 127q-129 59 -197 156.5t-68 214.5q0 78 28 142.5t84 110.5t142 71.5t205 25.5h426v-32q0 -35 -19.5 -45.5t-64.5 -10.5h-342q-66 0 -127 -11t-107 -41t-74 -81 t-28 -129q0 -111 56.5 -176.5t173.5 -116.5l270 -121q160 -72 238.5 -171t78.5 -220q0 -111 -44 -183.5t-114.5 -114.5t-158.5 -58t-176 -16h-463v18z"/>
<glyph glyph-name="T" horiz-adv-x="1196" unicode="T" d="M37 1378v88h1126v-20q0 -37 -13 -52.5t-63 -15.5h-425v-1439h-44q-35 0 -56 20.5t-21 60.5v1358h-504z"/>
<glyph glyph-name="U" horiz-adv-x="1355" unicode="U" d="M154 319v1147h122v-1149q0 -162 70 -226t219 -64h502v1439h121v-1527h-623q-102 0 -179 16t-129 59t-77.5 117t-25.5 188z"/>
<glyph glyph-name="V" horiz-adv-x="1239" unicode="V" d="M29 1466h121l481 -1443l459 1443h120l-485 -1527h-133q-27 0 -46.5 16t-25.5 37z"/>
<glyph glyph-name="W" horiz-adv-x="1753" unicode="W" d="M29 1466h116l324 -1400l340 1267h147l340 -1270l322 1403h117l-353 -1527h-73q-43 0 -72 28.5t-43 79.5l-311 1147l-336 -1255h-68q-53 0 -80.5 25.5t-40.5 78.5z"/>
<glyph glyph-name="X" horiz-adv-x="1247" unicode="X" d="M43 -61l518 766l-508 761h127l438 -665l441 665h129l-504 -761l512 -766h-133l-445 663l-440 -663h-135z"/>
<glyph glyph-name="Y" horiz-adv-x="1280" unicode="Y" d="M37 1466h125l473 -823l475 823h125l-541 -919v-608h-49q-37 0 -54.5 16t-17.5 57v535z"/>
<glyph glyph-name="Z" horiz-adv-x="1239" unicode="Z" d="M68 27l917 1351h-893v88h1024v-88l-921 -1351h964v-27q0 -29 -19.5 -45t-45.5 -16h-1026v88z"/>
<glyph glyph-name="bracketleft" horiz-adv-x="849" unicode="[" d="M274 -156v1774h424v-88h-301v-1596h301v-90h-424z"/>
<glyph glyph-name="backslash" horiz-adv-x="985" unicode="\" d="M129 1538h113l585 -1644h-114z"/>
<glyph glyph-name="bracketright" horiz-adv-x="851" unicode="]" d="M164 -66h301v1596h-301v88h424v-1774h-424v90z"/>
<glyph glyph-name="asciicircum" horiz-adv-x="1155" unicode="^" d="M197 1192l305 438h155l306 -438h-136l-247 369l-248 -369h-135z"/>
<glyph glyph-name="underscore" horiz-adv-x="1218" unicode="_" d="M213 -133h803v-86h-803v86z"/>
<glyph glyph-name="grave" horiz-adv-x="569" unicode="`" d="M133 1628l125 62q51 -117 99.5 -229.5t97.5 -229.5l-31 -14q-10 -5 -19 -5q-6 0 -16 3.5t-27 29.5z"/>
<glyph glyph-name="a" horiz-adv-x="1077" unicode="a" d="M236 229q0 -63 22.5 -102t56 -61.5t74.5 -30.5t80 -8h352v512q-106 12 -192 19t-160 7q-123 0 -178 -49t-55 -170v-117zM113 219v135q0 166 94 239q89 69 241 69h17q90 -2 170 -8.5t186 -22.5v143q0 94 -55 148.5t-170 54.5h-301q-59 0 -75.5 16.5t-16.5 42.5v29h393 q188 0 268 -73.5t80 -217.5v-835h-477q-166 0 -260 69.5t-94 210.5z"/>
<glyph glyph-name="b" horiz-adv-x="1103" unicode="b" d="M276 27h297q129 0 208 68.5t79 211.5v389q0 141 -77.5 211t-207.5 70h-299v-950zM156 -61v1538h120v-412h297q199 0 304.5 -87t105.5 -261v-432q0 -176 -105.5 -261t-304.5 -85h-417z"/>
<glyph glyph-name="c" horiz-adv-x="995" unicode="c" d="M129 303v393q0 84 29.5 151.5t83 116t128 75t165.5 26.5h366v-16q0 -29 -14.5 -50.5t-73.5 -21.5h-278q-139 0 -212 -71.5t-73 -209.5v-391q0 -125 72.5 -201.5t212.5 -76.5h376v-23q0 -27 -18.5 -46t-77.5 -19h-280q-90 0 -165 25.5t-128.5 72.5t-83 114.5t-29.5 151.5z "/>
<glyph glyph-name="d" horiz-adv-x="1095" unicode="d" d="M242 307q0 -143 77.5 -211.5t206.5 -68.5h297v950h-299q-129 0 -205.5 -69.5t-76.5 -211.5v-389zM119 285v432q0 174 104.5 261t302.5 87h297v412h123v-1538h-420q-199 0 -303 85t-104 261z"/>
<glyph glyph-name="e" horiz-adv-x="1093" unicode="e" d="M236 545h532q57 0 72.5 16.5t15.5 69.5v112q0 121 -81 192t-234 71q-141 0 -223 -71t-82 -192v-198zM113 285v415q0 106 34.5 181t93 122.5t136.5 69t164 21.5q94 0 175 -23.5t139 -68t91 -110t33 -149.5v-172q0 -57 -28.5 -85.5t-96.5 -28.5h-618v-172q0 -63 20 -111.5 t55 -81.5t81 -49t100 -16h442v-29q0 -27 -15.5 -43t-76.5 -16h-350q-86 0 -156 23.5t-119 68.5t-76.5 109.5t-27.5 144.5z"/>
<glyph glyph-name="f" horiz-adv-x="849" unicode="f" d="M57 977v88h238v154q0 59 11 106t40 81t80 52.5t129 18.5h236v-17q0 -74 -95 -74h-141q-47 0 -73.5 -14t-41 -35.5t-18.5 -49t-4 -52.5v-170h327v-37q0 -29 -23.5 -40t-59.5 -11h-244v-1038h-51q-41 0 -56.5 16t-15.5 61v961h-238z"/>
<glyph glyph-name="g" horiz-adv-x="1116" unicode="g" d="M246 283q0 -82 25.5 -132.5t64.5 -78t86 -36.5t88 -9h340v950h-340q-68 0 -118 -20.5t-83 -55.5t-48 -82t-15 -102v-434zM123 285v434q0 172 105.5 259t281.5 87h463v-1274q0 -51 -15.5 -101t-52.5 -90t-98.5 -64.5t-153.5 -24.5h-424v28q0 59 82 60h336q104 0 153.5 55 t49.5 143v142h-340q-182 0 -284.5 88t-102.5 258z"/>
<glyph glyph-name="h" horiz-adv-x="1142" unicode="h" d="M152 25v1452h122v-412h371q186 0 274.5 -80t88.5 -244v-802h-41q-39 0 -60.5 16t-21.5 61v723q0 129 -63.5 183.5t-176.5 54.5h-371v-1038h-38q-39 0 -61.5 20.5t-22.5 65.5z"/>
<glyph glyph-name="i" horiz-adv-x="438" unicode="i" d="M156 25v1040h123v-1126h-43q-80 0 -80 86zM152 1358v119h131v-211h-29q-43 0 -72.5 23.5t-29.5 68.5z"/>
<glyph glyph-name="j" horiz-adv-x="598" unicode="j" d="M317 1358v119h127v-211h-26q-41 0 -71 23.5t-30 68.5zM-18 -465q0 33 19 49.5t52 16.5h94q57 0 91 15t52.5 43t25 69t6.5 90v1247h120v-1247q0 -160 -71.5 -233.5t-223.5 -73.5h-165v24z"/>
<glyph glyph-name="k" horiz-adv-x="942" unicode="k" d="M332 545l432 520h129l-434 -520l461 -606h-82q-39 0 -70 36zM158 16v1461h121v-1538h-39q-41 0 -61.5 16t-20.5 61z"/>
<glyph glyph-name="l" horiz-adv-x="442" unicode="l" d="M154 23v1454h120v-1538h-36q-39 0 -61.5 19t-22.5 65z"/>
<glyph glyph-name="m" horiz-adv-x="1550" unicode="m" d="M141 16v1049h934q174 0 253 -71.5t79 -229.5v-825h-37q-37 0 -61.5 16t-24.5 61v748q0 213 -209 213h-239v-1038h-50q-41 0 -57 16t-16 61v961h-449v-1038h-41q-39 0 -60.5 16t-21.5 61z"/>
<glyph glyph-name="n" horiz-adv-x="1136" unicode="n" d="M143 25v1040h484q102 0 172.5 -18.5t113.5 -58.5t61.5 -104.5t18.5 -158.5v-786h-41q-84 0 -84 86v700q0 74 -12 123t-41 77.5t-75 40t-113 11.5h-361v-1038h-39q-84 0 -84 86z"/>
<glyph glyph-name="o" horiz-adv-x="1146" unicode="o" d="M246 371q0 -203 84 -287t241 -84q158 0 242 82t84 289v262q0 113 -17.5 174t-57.5 105t-101.5 66.5t-149.5 22.5q-154 0 -239.5 -77.5t-85.5 -290.5v-262zM123 367v270q0 248 117.5 352.5t330.5 104.5q217 0 333 -104.5t116 -352.5v-270q0 -248 -113.5 -352.5 t-335.5 -104.5q-215 0 -331.5 103.5t-116.5 353.5z"/>
<glyph glyph-name="p" horiz-adv-x="1095" unicode="p" d="M264 27h307q141 0 208 67.5t67 206.5v399q0 135 -65.5 206t-209.5 71h-307v-950zM141 -377v1442h430q397 0 398 -365v-399q0 -190 -103.5 -276t-294.5 -86h-307v-398h-26q-41 0 -69 15.5t-28 66.5z"/>
<glyph glyph-name="q" horiz-adv-x="1091" unicode="q" d="M250 301q0 -139 66.5 -206.5t207.5 -67.5h307v950h-307q-143 0 -208.5 -70.5t-65.5 -206.5v-399zM127 301v399q0 365 397 365h430v-1524h-36q-41 0 -64 17.5t-23 64.5v316h-307q-190 0 -293.5 86t-103.5 276z"/>
<glyph glyph-name="r" horiz-adv-x="798" unicode="r" d="M141 16v787q0 127 62.5 194.5t210.5 67.5h346v-4q0 -47 -20.5 -65.5t-67.5 -18.5h-258q-47 0 -76 -13.5t-46.5 -37t-23.5 -55t-6 -68.5v-864h-37q-37 0 -60.5 16t-23.5 61z"/>
<glyph glyph-name="s" horiz-adv-x="925" unicode="s" d="M100 784q0 49 20.5 99.5t63.5 90.5t109.5 65.5t161.5 25.5h329v-31q0 -57 -90 -57h-239q-125 0 -178.5 -57.5t-53.5 -135.5q0 -63 34 -115.5t130 -80.5l197 -62q147 -47 202.5 -120.5t55.5 -174.5q0 -143 -98.5 -217.5t-272.5 -74.5h-362v22q0 66 84 66h278 q111 0 181.5 48t70.5 156q0 72 -33 118t-125 77q-49 16 -99 31.5t-99 31.5q-139 47 -203 114t-64 181z"/>
<glyph glyph-name="t" horiz-adv-x="694" unicode="t" d="M31 977v88h200v369h123v-369h285v-25q0 -29 -18.5 -46t-79.5 -17h-187v-752q0 -41 5.5 -77.5t22.5 -63.5t47 -42t79 -15h149v-23q0 -25 -19.5 -45t-72.5 -20h-57q-152 0 -214.5 73.5t-62.5 212.5v752h-200z"/>
<glyph glyph-name="u" horiz-adv-x="1114" unicode="u" d="M133 334v731h121v-731q0 -86 14.5 -144.5t48 -95.5t87 -52t131.5 -15h315v1038h123v-1126h-438q-104 0 -180 20.5t-125.5 66.5t-73 121.5t-23.5 186.5z"/>
<glyph glyph-name="v" horiz-adv-x="970" unicode="v" d="M25 1065h106l361 -1053l339 1053h107l-358 -1126h-119q-35 0 -52.5 16t-29.5 53z"/>
<glyph glyph-name="w" horiz-adv-x="1413" unicode="w" d="M10 1065h105l250 -1018l270 971h139l266 -971l254 1018h105l-283 -1126h-74q-35 0 -56 22.5t-32 58.5l-249 891l-275 -972h-70q-45 0 -62 23.5t-28 62.5z"/>
<glyph glyph-name="x" horiz-adv-x="1028" unicode="x" d="M35 -61l416 563l-400 563h127l332 -481l332 481h127l-394 -563l410 -563h-127l-348 493l-348 -493h-127z"/>
<glyph glyph-name="y" horiz-adv-x="1114" unicode="y" d="M131 285v780h123v-776q0 -131 46 -199q43 -63 159 -63h14q45 2 95 4t101.5 4t97.5 6t83 8v1016h123v-1272q0 -59 -18.5 -110.5t-58.5 -90t-103.5 -60t-151.5 -21.5h-451v28q0 37 19.5 52.5t66.5 15.5h365q61 0 102 13t64.5 39t33 60.5t9.5 77.5v166q-82 -8 -185.5 -14 t-203.5 -10h-14q-161 0 -237 89q-79 93 -79 257z"/>
<glyph glyph-name="z" horiz-adv-x="997" unicode="z" d="M74 29l680 948h-652v88h777v-86l-689 -952h719v-37q0 -25 -16 -38t-39 -13h-780v90z"/>
<glyph glyph-name="braceleft" horiz-adv-x="856" unicode="{" d="M205 686v82q84 8 137 48t53 136v422q0 119 56.5 182.5t173.5 63.5h96v-74q-104 -2 -160.5 -43t-56.5 -131v-407q0 -90 -31 -145.5t-96 -92.5q66 -35 96.5 -99.5t30.5 -140.5v-391q0 -98 49 -134t168 -36v-76h-111q-111 0 -163 59.5t-52 176.5v414q0 86 -54 131t-136 55z "/>
<glyph glyph-name="bar" horiz-adv-x="606" unicode="|" d="M266 -106v1677h103v-1677h-103z"/>
<glyph glyph-name="braceright" horiz-adv-x="856" unicode="}" d="M156 -74q119 2 168 38t49 132v391q0 76 30.5 140.5t96.5 99.5q-66 37 -96.5 92t-30.5 146v407q0 92 -52.5 133t-164.5 41v74h96q117 0 173 -63.5t56 -182.5v-422q0 -98 51.5 -138t139.5 -46v-82q-84 -10 -137.5 -55t-53.5 -131v-414q0 -117 -52 -176.5t-165 -59.5h-108 v76z"/>
<glyph glyph-name="asciitilde" horiz-adv-x="1482" unicode="~" d="M127 555q4 74 28.5 136.5t67.5 108.5t102.5 71.5t135.5 25.5q111 0 191.5 -53t158.5 -152q47 -59 102.5 -94t130.5 -35q98 0 161 66.5t69 191.5h104q-4 -68 -23.5 -131t-59.5 -111.5t-100 -77t-146 -28.5q-111 0 -188 48t-142 128q-68 86 -123 124t-131 38 q-109 0 -168 -66.5t-66 -189.5h-104z"/>
<glyph glyph-name="uni00A0" horiz-adv-x="614" unicode=" "/>
<glyph glyph-name="cent" horiz-adv-x="993" unicode="¢" d="M252 305q0 -98 44 -166.5t134 -97.5l246 936h-139q-139 0 -212 -71.5t-73 -209.5v-391zM131 303v393q0 84 29.5 151.5t83 116t128 75t165.5 26.5h159l66 248h96l-65 -248h110v-16q0 -29 -14.5 -50.5t-73.5 -21.5h-45l-250 -950h393v-23q0 -27 -18 -46t-78 -19h-280h-19.5 t-19.5 2l-60 -232h-98l63 246q-125 35 -198.5 124t-73.5 224z"/>
<glyph glyph-name="sterling" horiz-adv-x="1153" unicode="£" d="M78 47q78 43 125 135t47 201v287h-160v88h160v342q0 104 33.5 179t95 123t146.5 70.5t190 22.5q76 0 163 -14.5t183 -40.5l-8 -82q-96 27 -172 38t-172 11q-156 0 -248 -73.5t-92 -233.5v-342h342v-21q0 -29 -17.5 -48t-79.5 -19h-245v-267q0 -104 -45 -205.5 t-148 -170.5h914v-23q0 -27 -17.5 -46t-77.5 -19h-917v108z"/>
<glyph glyph-name="yen" horiz-adv-x="1302" unicode="¥" d="M51 1466h125l473 -823q117 199 239 412t236 411h125l-483 -821h399v-20q0 -27 -16 -46.5t-76 -19.5h-356l-8 -12v-225h456v-21q0 -29 -16 -48.5t-76 -19.5h-364v-294h-50q-37 0 -54 16t-17 57v221h-398v89h398v225l-8 12h-390v86h340q-121 207 -239.5 412t-239.5 409z "/>
<glyph glyph-name="dieresis" horiz-adv-x="550" unicode="¨" d="M379 1247v146h131v-146h-131zM43 1247v146h133v-146h-133z"/>
<glyph glyph-name="copyright" horiz-adv-x="1769" unicode="©" d="M475 547v291q0 84 30 152.5t84 116.5t129 74.5t165 26.5h276v-16q0 -29 -14.5 -50.5t-73.5 -21.5h-188q-139 0 -212 -71.5t-73 -210.5v-289q0 -127 72.5 -204t212.5 -77h286v-20q0 -27 -17 -46.5t-79 -19.5h-190q-90 0 -165 25.5t-129 73t-84 115t-30 151.5zM168 709 q0 -168 49 -301.5t141.5 -226.5t225.5 -142t303 -49q168 0 301 49t226 142t143.5 226.5t50.5 301.5t-50.5 301t-143.5 227t-226 144.5t-301 50.5q-170 0 -303 -50.5t-225.5 -144.5t-141.5 -227t-49 -301zM78 709q0 186 57.5 335.5t164 254t256 161t333.5 56.5t332.5 -56.5 t255 -161t164 -254t57.5 -335.5q0 -184 -57.5 -333t-164 -253.5t-255 -160.5t-332.5 -56t-333.5 56t-256 160.5t-164 253.5t-57.5 333z"/>
<glyph glyph-name="guillemotleft" horiz-adv-x="899" unicode="«" d="M440 528l303 535l78 -45l-280 -490l297 -491l-70 -43zM57 528l308 535l75 -43l-282 -492l299 -489l-70 -45z"/>
<glyph glyph-name="uni00AD" horiz-adv-x="1112" unicode="­" d="M135 625v94h844v-94h-844z"/>
<glyph glyph-name="registered" horiz-adv-x="1779" unicode="®" d="M657 719h297q92 0 141.5 45t49.5 133v61q0 82 -46 127t-145 45h-297v-411zM563 240v968h391q80 0 133.5 -16t87 -46t48 -71t14.5 -90v-100q0 -76 -45 -142.5t-160 -85.5l236 -475h-97l-235 459h-279v-459h-41q-29 0 -41 12.5t-12 45.5zM168 709q0 -168 49 -301.5 t141.5 -226.5t225.5 -142t303 -49q168 0 301 49t226 142t143.5 226.5t50.5 301.5t-50.5 301t-143.5 227t-226 144.5t-301 50.5q-170 0 -303 -50.5t-225.5 -144.5t-141.5 -227t-49 -301zM78 709q0 186 57.5 335.5t164 254t256 161t333.5 56.5t332.5 -56.5t255 -161t164 -254 t57.5 -335.5q0 -184 -57.5 -333t-164 -253.5t-255 -160.5t-332.5 -56t-333.5 56t-256 160.5t-164 253.5t-57.5 333z"/>
<glyph glyph-name="acute" horiz-adv-x="577" unicode="´" d="M160 1237l143 258h127l-164 -213q-35 -45 -98 -45h-8z"/>
<glyph glyph-name="cedilla" horiz-adv-x="626" unicode="¸" d="M145 -457q2 12 5.5 29.5t5.5 30.5q25 -4 47 -6.5t45 -2.5q96 0 142 34t46 87q0 18 -7 31.5t-27.5 23t-57.5 15.5t-96 8l45 156h90l-35 -105q55 -4 90 -17t53.5 -30.5t25.5 -38t7 -41.5q0 -35 -16 -67.5t-49 -59t-83 -43t-120 -16.5q-29 0 -55.5 2t-55.5 10z"/>
<glyph glyph-name="guillemotright" horiz-adv-x="899" unicode="»" d="M440 39l299 489l-282 492l75 43l306 -535l-328 -534zM57 39l299 489l-282 490l80 45l303 -535l-328 -534z"/>
<glyph glyph-name="circumflex" horiz-adv-x="888" unicode="ˆ" d="M172 1196l209 256h127l209 -256h-107l-166 203l-165 -203h-107z"/>
<glyph glyph-name="uni0400" horiz-adv-x="1212" unicode="Ѐ" d="M377 1890h131l164 -278h-25q-63 0 -96 45zM152 -61v1527h907v-16q0 -35 -13.5 -53.5t-58.5 -18.5h-715v-581h717v-23q0 -29 -12 -47t-57 -18h-648v-682h811v-21q0 -29 -13 -48t-56 -19h-862z"/>
<glyph glyph-name="afii10023" horiz-adv-x="1212" unicode="Ё" d="M725 1657v145h131v-145h-131zM389 1657v145h133v-145h-133zM152 -61v1527h907v-16q0 -35 -13.5 -53.5t-58.5 -18.5h-715v-581h717v-23q0 -29 -12 -47t-57 -18h-648v-682h811v-21q0 -29 -13 -48t-56 -19h-862z"/>
<glyph glyph-name="afii10051" horiz-adv-x="1757" unicode="Ђ" d="M33 1378v88h1126v-20q0 -37 -13 -52.5t-63 -15.5h-428v-573q25 16 69 38.5t103.5 44t133 36t157.5 14.5q113 0 211 -34t169 -98.5t112 -158.5t41 -215q0 -242 -123 -367.5t-373 -125.5h-108v16q0 29 16 50.5t63 21.5h23q190 0 286.5 86t96.5 301q0 104 -29.5 183t-85 132 t-132.5 80t-171 27q-111 0 -221.5 -34t-237.5 -100v-763h-45q-33 0 -54 22.5t-21 56.5v1360h-502z"/>
<glyph glyph-name="afii10052" horiz-adv-x="1128" unicode="Ѓ" d="M469 1612l166 278h129l-174 -233q-33 -45 -96 -45h-25zM154 16v1450h931v-20q0 -29 -15 -48.5t-64 -19.5h-736v-1439h-47q-41 0 -55 17t-14 60z"/>
<glyph glyph-name="afii10053" horiz-adv-x="1159" unicode="Є" d="M133 313v787q0 166 113.5 266t322.5 100h480v-22q0 -29 -16.5 -47.5t-76.5 -18.5h-378q-326 0 -326 -307v-317h622v-19q0 -29 -12 -47t-59 -18h-551v-342q0 -59 17.5 -114.5t52 -96.5t86 -65.5t120.5 -24.5h543v-23q0 -27 -17.5 -46t-76.5 -19h-457q-84 0 -154.5 27.5 t-123 76.5t-81 117.5t-28.5 152.5z"/>
<glyph glyph-name="afii10054" horiz-adv-x="1132" unicode="Ѕ" d="M84 -35q0 33 17.5 47.5t64.5 14.5h375q186 0 282.5 70.5t96.5 211.5q0 98 -60.5 169t-214.5 140l-280 127q-129 59 -197 156.5t-68 214.5q0 78 28 142.5t84 110.5t142 71.5t205 25.5h426v-32q0 -35 -19.5 -45.5t-64.5 -10.5h-342q-66 0 -127 -11t-107 -41t-74 -81 t-28 -129q0 -111 56.5 -176.5t173.5 -116.5l270 -121q160 -72 238.5 -171t78.5 -220q0 -111 -44 -183.5t-114.5 -114.5t-158.5 -58t-176 -16h-463v26z"/>
<glyph glyph-name="afii10055" horiz-adv-x="462" unicode="І" d="M176 12v1454h119v-1527h-49q-37 0 -53.5 16t-16.5 57z"/>
<glyph glyph-name="afii10056" horiz-adv-x="462" unicode="Ї" d="M334 1657v145h131v-145h-131zM176 12v1454h119v-1527h-49q-37 0 -53.5 16t-16.5 57zM-2 1657v145h133v-145h-133z"/>
<glyph glyph-name="afii10057" horiz-adv-x="794" unicode="Ј" d="M29 -29q0 55 77 56h138q141 0 207.5 65.5t66.5 214.5v1159h119v-1159q0 -190 -94 -279t-299 -89h-215v32z"/>
<glyph glyph-name="afii10058" horiz-adv-x="2326" unicode="Љ" d="M1305 27h452q80 0 139.5 21.5t98.5 59t57.5 89t18.5 108.5v101q0 57 -17.5 108t-54.5 90t-96.5 60.5t-143.5 21.5h-454v-659zM47 -31q0 57 78 58q76 0 122 16t71.5 50t33.5 87t8 127v1159h945v-692h456q92 0 171 -17.5t136.5 -57.5t89 -104.5t31.5 -160.5v-141 q0 -96 -35.5 -163t-95 -110t-137.5 -62t-162 -19h-569v1439h-707v-1071q0 -94 -16 -163.5t-56 -114.5t-109 -67.5t-171 -22.5h-84v30z"/>
<glyph glyph-name="afii10059" horiz-adv-x="2177" unicode="Њ" d="M1174 27h456q80 0 139.5 21.5t97.5 59t57.5 89t19.5 108.5v96q0 57 -17.5 109.5t-54.5 91.5t-96.5 61.5t-143.5 22.5h-458v-659zM152 12v1454h120v-669h779v669h123v-692h460q92 0 170 -17.5t135.5 -58.5t89 -106.5t31.5 -161.5v-137q0 -96 -34.5 -163t-94 -110 t-137.5 -62t-162 -19h-581v827q-23 -27 -58 -42t-75 -15h-646v-770h-51q-37 0 -53 16t-16 57z"/>
<glyph glyph-name="afii10060" horiz-adv-x="1529" unicode="Ћ" d="M43 1378v88h1126v-20q0 -37 -13 -52.5t-62 -15.5h-426v-313h364q186 0 273.5 -80t87.5 -244v-802h-41q-37 0 -58.5 16t-21.5 61v723q0 129 -64.5 183.5t-175.5 54.5h-364v-1038h-52q-33 0 -51 23.5t-18 51.5v1364h-504z"/>
<glyph glyph-name="afii10061" horiz-adv-x="1128" unicode="Ќ" d="M446 1612l166 278h129l-174 -233q-33 -45 -96 -45h-25zM358 723q72 55 117 131t80 159t68.5 163.5t83 145t122 104.5t185.5 40h69v-12q0 -35 -12 -55.5t-59 -20.5q-78 0 -132.5 -35.5t-95.5 -94t-72.5 -130t-64.5 -144.5t-71.5 -138.5t-90.5 -108.5l598 -788h-135z M158 20v1446h121v-1527h-50q-35 0 -53 23.5t-18 57.5z"/>
<glyph glyph-name="uni040D" horiz-adv-x="1337" unicode="Ѝ" d="M530 1890h132l163 -278h-24q-63 0 -96 45zM154 0v1466h116v-1431l709 1431h201v-1527h-41q-39 0 -57.5 23.5t-18.5 62.5v1345l-649 -1343q-18 -39 -47 -63.5t-74 -24.5h-70q-70 0 -69 61z"/>
<glyph glyph-name="afii10062" horiz-adv-x="1239" unicode="Ў" d="M334 1843h88q4 -88 59.5 -138t132.5 -50q78 0 130.5 48t54.5 140h90q0 -53 -19.5 -100t-55.5 -83t-88 -57.5t-120 -21.5t-119 21.5t-84.5 57.5t-51 83t-17.5 100zM113 766v698h118v-696q0 -254 236 -254q61 0 131 3t137.5 7t129 11.5t104.5 17.5v911h116v-1249 q0 -119 -74.5 -197.5t-248.5 -78.5h-592v20q0 37 19.5 52.5t66.5 15.5h506q61 0 101 14t63.5 38.5t33 59.5t9.5 78v252q-51 -8 -119 -15.5t-138.5 -13.5t-137 -9t-115.5 -3q-170 0 -258 88t-88 250z"/>
<glyph glyph-name="afii10145" horiz-adv-x="1345" unicode="Џ" d="M150 -61v1527h118v-1439h799v1439h117v-1527h-457v-349h-49q-35 0 -52.5 17.5t-17.5 58.5v273h-458z"/>
<glyph glyph-name="afii10017" horiz-adv-x="1296" unicode="А" d="M346 500h606l-303 901zM37 -61l516 1527h147q18 0 36 -15t24 -34l502 -1478h-123l-183 540q-16 -31 -53 -50t-78 -19h-506l-159 -471h-123z"/>
<glyph glyph-name="afii10018" horiz-adv-x="1273" unicode="Б" d="M272 27h457q80 0 138.5 21.5t97.5 59t57 89t18 108.5v103q0 57 -17 109t-54 91t-96.5 61.5t-141.5 22.5h-459v-665zM152 -61v1527h860v-20q0 -29 -13.5 -48.5t-56.5 -19.5h-670v-598h461q92 0 170 -17.5t135.5 -58t89 -106.5t31.5 -162v-143q0 -96 -36 -163t-95 -110 t-136 -62t-161 -19h-579z"/>
<glyph glyph-name="afii10019" horiz-adv-x="1273" unicode="В" d="M266 776h465q80 0 131 23.5t80 62.5t40 85t11 93v84q0 109 -63.5 181.5t-198.5 72.5h-465v-602zM266 27h461q156 0 232.5 69.5t76.5 204.5v102q0 57 -17.5 109.5t-54 91.5t-95 61.5t-140.5 22.5h-463v-661zM150 -61v1527h579q106 0 180 -24.5t118 -68.5t63.5 -105.5 t19.5 -132.5v-97q0 -102 -37 -180t-139 -125q109 -27 166 -111.5t57 -189.5v-141q0 -98 -30.5 -165t-87 -109t-135.5 -60t-175 -18h-579z"/>
<glyph glyph-name="afii10020" horiz-adv-x="1128" unicode="Г" d="M154 16v1450h931v-20q0 -29 -15 -48.5t-64 -19.5h-736v-1439h-47q-41 0 -55 17t-14 60z"/>
<glyph glyph-name="afii10021" horiz-adv-x="1439" unicode="Д" d="M270 27h813v1351h-616v-237q0 -100 -8 -237.5t-29.5 -288t-59.5 -304t-100 -284.5zM41 27h100q39 61 76 165.5t65.5 246t47 316.5t18.5 375v336h852v-1439h170v-437h-41q-76 0 -76 84v265h-1095v-349h-45q-29 0 -50.5 25t-21.5 55v357z"/>
<glyph glyph-name="afii10022" horiz-adv-x="1177" unicode="Е" d="M152 -61v1527h907v-16q0 -35 -13.5 -53.5t-58.5 -18.5h-715v-581h717v-23q0 -29 -12 -47t-57 -18h-648v-682h811v-21q0 -29 -13 -48t-56 -19h-862z"/>
<glyph glyph-name="afii10024" horiz-adv-x="1820" unicode="Ж" d="M115 1454v12h69q74 0 128.5 -18t95.5 -54t70.5 -88.5t56.5 -121.5q49 -133 122.5 -231.5t186.5 -186.5v700h123v-704q106 84 180 185.5t125 236.5q27 70 57.5 122t71.5 88t94 54t127 18h72v-12q0 -35 -13.5 -53.5t-60.5 -18.5q-166 0 -250 -235q-20 -53 -50 -109.5 t-66.5 -112t-80 -105.5t-92.5 -87l590 -794h-133l-571 776v-776h-47q-37 0 -56.5 22.5t-19.5 63.5v684l-576 -770h-133l598 794q-49 37 -94 86t-84 104.5t-68.5 113t-48.5 110.5q-84 235 -251 235h-1q-47 0 -59 18.5t-12 53.5z"/>
<glyph glyph-name="afii10025" horiz-adv-x="1009" unicode="З" d="M66 12q0 23 14 36t47 7q63 -10 118.5 -17t129.5 -7q98 0 177 12t135 47t87 98.5t31 167.5q0 94 -23.5 158t-71.5 102.5t-119 54t-163 15.5h-246q-18 0 -18 14v74h264q178 0 257 76t79 260q0 74 -25.5 124t-74 83t-114 47t-144.5 14q-29 0 -70 -4t-84 -11t-84 -16.5 t-68 -19.5v92q76 20 157 33.5t151 13.5q96 0 184 -19.5t153.5 -62.5t103.5 -110t38 -159v-9q-2 -133 -60.5 -233.5t-169.5 -141.5q74 -20 125.5 -57t83 -85t46 -104.5t14.5 -115.5q0 -129 -38 -213t-109.5 -132.5t-174 -66.5t-231.5 -18q-86 0 -159 10t-148 22v41z"/>
<glyph glyph-name="afii10026" horiz-adv-x="1337" unicode="И" d="M154 0v1466h116v-1431l709 1431h201v-1527h-41q-39 0 -57.5 23.5t-18.5 62.5v1345l-649 -1343q-18 -39 -47 -63.5t-74 -24.5h-70q-70 0 -69 61z"/>
<glyph glyph-name="afii10027" horiz-adv-x="1337" unicode="Й" d="M418 1843h88q4 -88 59.5 -138t132.5 -50q78 0 130.5 48t54.5 140h90q0 -53 -19.5 -100t-55.5 -83t-88 -57.5t-120 -21.5t-119 21.5t-84.5 57.5t-51 83t-17.5 100zM154 0v1466h116v-1431l709 1431h201v-1527h-41q-39 0 -57.5 23.5t-18.5 62.5v1345l-649 -1343 q-18 -39 -47 -63.5t-74 -24.5h-70q-70 0 -69 61z"/>
<glyph glyph-name="afii10028" horiz-adv-x="1128" unicode="К" d="M358 723q72 55 117 131t80 159t68.5 163.5t83 145t122 104.5t185.5 40h69v-12q0 -35 -12 -55.5t-59 -20.5q-78 0 -132.5 -35.5t-95.5 -94t-72.5 -130t-64.5 -144.5t-71.5 -138.5t-90.5 -108.5l598 -788h-135zM158 20v1446h121v-1527h-50q-35 0 -53 23.5t-18 57.5z"/>
<glyph glyph-name="afii10029" horiz-adv-x="1503" unicode="Л" d="M47 -37q0 35 17.5 49.5t60.5 14.5h6q74 0 120 14t70.5 46t34 86t9.5 134v1159h970v-1527h-39q-37 0 -58 21.5t-21 62.5v1355h-734v-1071q0 -94 -17 -163.5t-58 -114.5t-109 -67.5t-168 -22.5h-84v24z"/>
<glyph glyph-name="afii10030" horiz-adv-x="1746" unicode="М" d="M158 18v1448h145l498 -946q33 -61 69 -61q39 0 72 61l500 946h143v-1527h-43q-37 0 -57.5 23.5t-20.5 62.5v1243l-467 -850q-18 -35 -52 -58.5t-75 -23.5q-47 0 -76.5 24.5t-45.5 55.5l-467 852v-1329h-50q-35 0 -54 25.5t-19 53.5z"/>
<glyph glyph-name="afii10031" horiz-adv-x="1335" unicode="Н" d="M154 12v1454h120v-669h781v669h121v-1527h-50q-39 0 -55 16t-16 57v762q-42 -65 -125 -65h-2h-654v-770h-51q-37 0 -53 16t-16 57z"/>
<glyph glyph-name="afii10032" horiz-adv-x="1400" unicode="О" d="M244 549q0 -268 112.5 -405.5t339.5 -137.5q231 0 344 137.5t113 407.5v303q0 117 -28.5 216t-85 173t-142.5 115t-201 41q-113 0 -197.5 -41t-141 -115t-85 -174t-28.5 -217v-303zM121 551v301q0 313 141 478t434 165q297 0 438.5 -166t141.5 -477v-303 q0 -311 -141.5 -475t-438.5 -164q-293 0 -434 164t-141 477z"/>
<glyph glyph-name="afii10033" horiz-adv-x="1353" unicode="П" d="M154 12v1454h1034v-1527h-45q-37 0 -54.5 16t-17.5 57v1366h-799v-1439h-47q-37 0 -54 16t-17 57z"/>
<glyph glyph-name="afii10034" horiz-adv-x="1232" unicode="Р" d="M272 635h422q158 0 228.5 66.5t70.5 201.5v207q0 61 -15 110.5t-50 85t-92.5 54t-141.5 18.5h-422v-743zM152 23v1443h542q199 0 309.5 -80.5t110.5 -275.5v-207q0 -51 -11 -113.5t-53 -117t-126 -91t-230 -36.5h-422v-606h-36q-39 0 -61.5 21.5t-22.5 62.5z"/>
<glyph glyph-name="afii10035" horiz-adv-x="1140" unicode="С" d="M125 313v787q0 176 113.5 271t322.5 95h479v-22q0 -29 -16 -47.5t-76 -18.5h-381q-322 0 -321 -307v-743q0 -59 17.5 -114.5t51 -96.5t85 -65.5t120.5 -24.5h543v-23q0 -27 -17.5 -46t-78.5 -19h-455q-84 0 -155.5 25.5t-123 73.5t-80 117.5t-28.5 157.5z"/>
<glyph glyph-name="afii10036" horiz-adv-x="1196" unicode="Т" d="M37 1378v88h1126v-20q0 -37 -13 -52.5t-63 -15.5h-425v-1439h-44q-35 0 -56 20.5t-21 60.5v1358h-504z"/>
<glyph glyph-name="afii10037" horiz-adv-x="1239" unicode="У" d="M113 766v698h118v-696q0 -254 236 -254q61 0 131 3t137.5 7t129 11.5t104.5 17.5v911h116v-1249q0 -119 -74.5 -197.5t-248.5 -78.5h-592v20q0 37 19.5 52.5t66.5 15.5h506q61 0 101 14t63.5 38.5t33 59.5t9.5 78v252q-51 -8 -119 -15.5t-138.5 -13.5t-137 -9t-115.5 -3 q-170 0 -258 88t-88 250z"/>
<glyph glyph-name="afii10038" horiz-adv-x="1372" unicode="Ф" d="M745 264q100 6 176 32t126.5 78t75 133t24.5 195v46q0 199 -99.5 309t-302.5 127v-920zM229 700q0 -115 25 -194.5t75 -131.5t124.5 -78t175.5 -32v920q-199 -16 -299.5 -128t-100.5 -311v-45zM111 702v43q0 264 137 392.5t381 142.5v197h116v-197q246 -14 383.5 -142 t137.5 -393v-45q0 -264 -137.5 -392t-383.5 -142v-227h-47q-37 0 -53 17t-16 58v152q-244 14 -381 141t-137 395z"/>
<glyph glyph-name="afii10039" horiz-adv-x="1247" unicode="Х" d="M43 -61l518 766l-508 761h127l438 -667l441 667h127l-502 -761l512 -766h-133l-445 665l-442 -665h-133z"/>
<glyph glyph-name="afii10040" horiz-adv-x="1353" unicode="Ц" d="M150 -61v1527h118v-1439h799v1439h117v-1439h112v-437h-51q-35 0 -51 17.5t-16 58.5v273h-1028z"/>
<glyph glyph-name="afii10041" horiz-adv-x="1296" unicode="Ч" d="M147 752v714h117v-708q0 -123 63.5 -178.5t172.5 -55.5h516v942h117v-1527h-48q-35 0 -52 17t-17 58v422h-516q-180 0 -266.5 79t-86.5 237z"/>
<glyph glyph-name="afii10042" horiz-adv-x="1777" unicode="Ш" d="M150 -61v1527h118v-1439h557v1439h117v-1439h559v1439h117v-1527h-1468z"/>
<glyph glyph-name="afii10043" horiz-adv-x="1773" unicode="Щ" d="M150 -61v1527h116v-1439h559v1439h117v-1439h557v1439h117v-1439h106v-437h-51q-35 0 -51 17.5t-16 58.5v273h-1454z"/>
<glyph glyph-name="afii10044" horiz-adv-x="1447" unicode="Ъ" d="M442 27h463q80 0 138.5 21.5t96.5 59t57.5 89t19.5 108.5v105q0 57 -17.5 109t-54.5 91t-96.5 61.5t-141.5 22.5h-465v-667zM47 1350v84h395v-652h467q92 0 170 -17t134.5 -58t89 -106.5t32.5 -162.5v-145q0 -96 -35.5 -163t-95 -110t-136.5 -62t-161 -19h-579v1411h-281 z"/>
<glyph glyph-name="afii10045" horiz-adv-x="1695" unicode="Ы" d="M1417 14v1452h117v-1527h-47q-35 0 -52.5 17t-17.5 58zM268 27h461q80 0 138.5 21.5t97.5 59t58 89t19 108.5v105q0 57 -17 109t-55 91t-97.5 61.5t-141.5 22.5h-463v-667zM152 -61v1527h116v-684h465q92 0 170 -17t135.5 -58t89 -106.5t31.5 -162.5v-145q0 -96 -36 -163 t-95 -110t-136 -62t-161 -19h-579z"/>
<glyph glyph-name="afii10046" horiz-adv-x="1271" unicode="Ь" d="M266 27h461q80 0 139.5 21.5t97 59t57 89t19.5 108.5v105q0 57 -17 109t-54 91t-96.5 61.5t-143.5 22.5h-463v-667zM152 -61v1527h114v-684h465q92 0 170 -17t135.5 -58t89 -106.5t31.5 -162.5v-145q0 -96 -35 -163t-94 -110t-137 -62t-162 -19h-577z"/>
<glyph glyph-name="afii10047" horiz-adv-x="1142" unicode="Э" d="M70 4v23h542q70 0 122 24.5t87 65.5t52.5 96t17.5 115v338h-619q-45 0 -57 18t-12 47v19h688v321q0 307 -326 307h-379q-61 0 -77.5 19.5t-16.5 48.5v20h479q209 0 323 -100t114 -266v-787q0 -84 -29 -152.5t-80 -117.5t-122.5 -76.5t-155.5 -27.5h-455q-61 0 -78.5 19 t-17.5 46z"/>
<glyph glyph-name="afii10048" horiz-adv-x="1921" unicode="Ю" d="M758 553q0 -268 113.5 -408.5t342.5 -140.5q231 0 345 140.5t114 410.5v295q0 117 -28.5 217t-86 174t-143.5 116t-201 42t-199.5 -42t-142 -116t-86 -175t-28.5 -218v-295zM152 25v1452h116v-727h369v98q0 313 141.5 480t435.5 167q297 0 438.5 -168t141.5 -479v-295 q0 -311 -141.5 -477t-438.5 -166q-295 0 -436 166t-141 479v111h-369v-727h-41q-76 0 -75 86z"/>
<glyph glyph-name="afii10049" horiz-adv-x="1239" unicode="Я" d="M203 995q0 -268 280 -268h469v651h-469q-147 0 -213.5 -65.5t-66.5 -196.5v-121zM43 -61l332 708q-88 14 -144.5 48t-90.5 78t-47 97.5t-13 106.5v174q0 154 94 234.5t309 80.5h590v-1527h-51q-37 0 -53.5 17t-16.5 58v623h-460l-322 -698h-127z"/>
<glyph glyph-name="afii10065" horiz-adv-x="1077" unicode="а" d="M233 229q0 -63 23 -102t57.5 -61.5t75.5 -30.5t80 -8h352v508q-106 12 -192 19t-160 7q-123 0 -179.5 -49t-56.5 -170v-113zM113 219v131q0 166 91 236.5t240 70.5h21q90 -2 170 -9t186 -21v147q0 94 -55 148.5t-170 54.5h-301q-59 0 -75.5 16.5t-16.5 42.5v29h393 q180 0 264 -73.5t84 -217.5v-835h-477q-166 0 -260 69.5t-94 210.5z"/>
<glyph glyph-name="afii10066" horiz-adv-x="1161" unicode="б" d="M252 344q0 -174 86 -261t240 -87q88 0 149 27.5t100 74.5t57.5 110.5t18.5 135.5v311q0 174 -85 262.5t-240 88.5q-158 0 -242 -90.5t-84 -260.5v-311zM129 344v311v27q0 191 27.5 326t91 219t161 118.5t232.5 34.5q74 0 134.5 14.5t94.5 71.5h111q-18 -100 -107.5 -141 t-232.5 -41q-90 0 -157.5 -17.5t-116 -57.5t-79 -103.5t-46.5 -153.5q72 80 157.5 111t178.5 31q221 0 334.5 -105.5t113.5 -333.5v-311q0 -227 -115.5 -330.5t-332.5 -103.5q-213 0 -331 103.5t-118 330.5z"/>
<glyph glyph-name="afii10067" horiz-adv-x="1173" unicode="в" d="M268 571h344q82 0 134.5 13.5t83 40t42 66.5t11.5 93q0 59 -17.5 96.5t-51.5 59t-84 29.5t-118 8h-344v-406zM268 27h340q164 0 242 47t78 172v14q0 125 -74 175t-244 50h-342v-458zM150 -61v1126h460q203 0 298.5 -65.5t95.5 -208.5q0 -113 -46.5 -176.5t-119.5 -86.5 q43 -10 80.5 -28.5t66.5 -47t46.5 -69.5t17.5 -94v-56q0 -96 -39 -153t-101.5 -89t-140.5 -42t-158 -10h-460z"/>
<glyph glyph-name="afii10068" horiz-adv-x="956" unicode="г" d="M150 27v1038h733v-16q0 -31 -16.5 -51.5t-65.5 -20.5h-531v-1038h-39q-82 0 -81 88z"/>
<glyph glyph-name="afii10069" horiz-adv-x="1327" unicode="д" d="M309 51h680v926h-514v-117q0 -94 -5 -199.5t-21.5 -212t-49 -208t-90.5 -189.5zM61 51h125q43 68 75 143.5t52.5 171t30.5 214t10 272.5v213h756v-1014h129v-454h-43q-33 0 -55.5 22.5t-22.5 58.5v287h-938v-368h-41q-33 0 -55.5 22.5t-22.5 58.5v373z"/>
<glyph glyph-name="afii10070" horiz-adv-x="1093" unicode="е" d="M236 543h532q57 0 72.5 17.5t15.5 70.5v112q0 121 -81 192t-234 71q-141 0 -223 -71t-82 -192v-200zM113 285v415q0 106 34.5 181t93 122.5t136.5 69t164 21.5q94 0 175 -23.5t139 -68t91 -110t33 -149.5v-172q0 -57 -28.5 -85.5t-96.5 -28.5h-618v-172q0 -63 20 -111.5 t55 -81.5t81 -49t100 -16h442v-29q0 -27 -15.5 -43t-76.5 -16h-350q-86 0 -156 23.5t-119 68.5t-76.5 109.5t-27.5 144.5z"/>
<glyph glyph-name="afii10072" horiz-adv-x="1456" unicode="ж" d="M33 1053v12h71q55 0 99.5 -10.5t79 -38t64.5 -73.5t56 -118q20 -53 42 -95t51.5 -77t69.5 -61.5t98 -46.5v520h122v-520q55 16 95.5 41.5t70 61.5t51 80t41.5 97q27 70 55.5 117t64.5 73.5t80 38t99 11.5h72v-12q0 -35 -13 -55.5t-61 -20.5q-27 0 -52 -7t-51 -28.5 t-50.5 -60.5t-48.5 -101q-14 -37 -33 -75.5t-46.5 -76.5t-65.5 -73t-91 -63l457 -553h-127l-447 538v-538h-53q-70 0 -69 77v463l-451 -540h-125l457 553q-104 57 -154.5 133.5t-81.5 154.5q-25 61 -49 100.5t-50 61t-51.5 28.5t-52.5 7q-47 0 -60 20.5t-13 55.5z"/>
<glyph glyph-name="afii10073" horiz-adv-x="956" unicode="з" d="M72 -23q0 23 16 35.5t45 7.5q59 -8 114.5 -14t135.5 -6q88 0 155.5 11.5t113.5 39t69.5 74.5t23.5 119q0 137 -92 187t-282 50h-199v86h199q88 0 150.5 10.5t102.5 38t59 72.5t19 117q0 104 -73.5 152.5t-231.5 48.5q-98 0 -165.5 -8.5t-137.5 -24.5v78q74 18 146.5 30.5 t158.5 12.5q74 0 151 -11.5t138.5 -43t98 -87.5t36.5 -142v-9q-4 -111 -50 -176.5t-118 -96.5q37 -8 75 -30.5t67.5 -58.5t48 -85t18.5 -108q-2 -104 -32.5 -171t-92 -105t-140 -49.5t-164.5 -11.5q-26 0 -54 1q-29 0 -65.5 3t-78.5 7l-84 8t-81 11v38z"/>
<glyph glyph-name="afii10074" horiz-adv-x="1245" unicode="и" d="M152 0v1065h122v-1026q154 248 321 513t320 513h181v-1126h-41q-39 0 -59.5 23.5t-20.5 64.5v929l-578 -927q-23 -37 -49 -63.5t-69 -26.5h-54q-74 0 -73 61z"/>
<glyph glyph-name="afii10075" horiz-adv-x="1245" unicode="й" d="M340 1434h88q4 -88 59.5 -138.5t133.5 -50.5t130 48t54 141h90q0 -53 -19.5 -100.5t-55.5 -83.5t-88 -57.5t-120 -21.5t-119 21.5t-84.5 57.5t-51 83t-17.5 101zM152 0v1065h122v-1026q154 248 321 513t320 513h181v-1126h-41q-39 0 -59.5 23.5t-20.5 64.5v929l-578 -927 q-23 -37 -49 -63.5t-69 -26.5h-54q-74 0 -73 61z"/>
<glyph glyph-name="afii10076" horiz-adv-x="1032" unicode="к" d="M328 518q57 31 99 62.5t72.5 67.5t54.5 80t46 99q27 72 57.5 118t67.5 72.5t82 37t100 10.5h74v-12q0 -35 -13.5 -55.5t-62.5 -20.5q-27 0 -53.5 -7t-51 -27.5t-49 -58.5t-49.5 -102q-33 -78 -82 -153.5t-139 -126.5l455 -563h-137zM154 23v1042h118v-1126h-43 q-76 0 -75 84z"/>
<glyph glyph-name="afii10077" horiz-adv-x="1312" unicode="л" d="M47 -29q0 33 17.5 44.5t62.5 11.5h6q74 0 115 15t59.5 47t21.5 81t3 117v778h837v-1126h-39q-80 0 -79 86v952h-596v-664q0 -96 -12.5 -166.5t-47.5 -116.5t-98.5 -68.5t-163.5 -22.5h-86v32z"/>
<glyph glyph-name="afii10078" horiz-adv-x="1517" unicode="м" d="M152 20v1045h143l410 -565q43 -61 69 -62q23 0 66 62l387 565h145v-1126h-43q-41 0 -59.5 22.5t-18.5 63.5v909l-352 -520q-23 -35 -53.5 -62.5t-73.5 -27.5q-45 0 -75.5 27.5t-55.5 62.5l-369 520v-995h-51q-35 0 -52 26.5t-17 54.5z"/>
<glyph glyph-name="afii10079" horiz-adv-x="1216" unicode="н" d="M152 12v1053h120v-473h664v473h123v-1126h-47q-41 0 -58.5 16t-17.5 57v541q-49 -49 -129 -49h-535v-565h-49q-39 0 -55 16t-16 57z"/>
<glyph glyph-name="afii10080" horiz-adv-x="1146" unicode="о" d="M246 346q0 -172 84 -261t241 -89q156 0 241 87t85 263v311q0 72 -18.5 135.5t-57.5 110.5t-100.5 75t-149.5 28q-154 0 -239.5 -88.5t-85.5 -260.5v-311zM123 346v311q0 227 117.5 332t330.5 105q217 0 333 -104.5t116 -332.5v-311q0 -227 -113.5 -331.5t-335.5 -104.5 q-215 0 -331.5 103.5t-116.5 332.5z"/>
<glyph glyph-name="afii10081" horiz-adv-x="1120" unicode="п" d="M137 16v1049h850v-1126h-49q-35 0 -55.5 21.5t-20.5 55.5v961h-604v-1038h-43q-35 0 -56.5 21.5t-21.5 55.5z"/>
<glyph glyph-name="afii10082" horiz-adv-x="1095" unicode="р" d="M264 88h305q141 0 209 67.5t68 206.5v338q0 135 -66.5 206t-210.5 71h-305v-889zM141 -377v1442h430q397 0 398 -365v-338q0 -190 -103.5 -276t-294.5 -86h-307v-459h-47q-76 0 -76 82z"/>
<glyph glyph-name="afii10083" horiz-adv-x="995" unicode="с" d="M129 303v393q0 84 29.5 151.5t83 116t128 75t165.5 26.5h366v-16q0 -29 -14.5 -50.5t-73.5 -21.5h-278q-139 0 -212 -71.5t-73 -209.5v-391q0 -125 72.5 -201.5t212.5 -76.5h376v-23q0 -27 -18.5 -46t-77.5 -19h-280q-90 0 -165 25.5t-128.5 72.5t-83 114.5t-29.5 151.5z "/>
<glyph glyph-name="afii10084" horiz-adv-x="1005" unicode="т" d="M37 977v88h934v-16q0 -39 -13.5 -55.5t-66.5 -16.5h-328v-1038h-41q-37 0 -58.5 21.5t-21.5 62.5v954h-405z"/>
<glyph glyph-name="afii10085" horiz-adv-x="1114" unicode="у" d="M131 324v741h123v-737q0 -131 44.5 -195.5t157.5 -64.5h17q45 0 95 3t101.5 7t97.5 8t83 8v971h123v-1272q0 -59 -18.5 -110.5t-58.5 -90t-103.5 -60t-151.5 -21.5h-451v28q0 37 19.5 52.5t66.5 15.5h365q61 0 102 13t64.5 39t33 60.5t9.5 77.5v205q-82 -8 -185.5 -14 t-203.5 -11h-14q-161 0 -238.5 91.5t-77.5 255.5z"/>
<glyph glyph-name="afii10086" horiz-adv-x="1734" unicode="ф" d="M928 27h282q274 0 275 272v401q0 135 -66.5 206t-208.5 71h-282v-950zM248 307q0 -143 79 -211.5t208 -68.5h270v950h-273q-127 0 -205.5 -69.5t-78.5 -211.5v-389zM129 285v432q0 174 103.5 261t302.5 87h270v412h123v-412h282q397 0 398 -365v-401q0 -190 -102.5 -275 t-295.5 -85h-282v-398h-37q-41 0 -63.5 21.5t-22.5 68.5v308h-270q-199 0 -302.5 85t-103.5 261z"/>
<glyph glyph-name="afii10087" horiz-adv-x="1028" unicode="х" d="M37 -61l416 563l-400 563h127l332 -481l332 481h127l-393 -563q104 -141 204.5 -282.5t204.5 -280.5h-127l-348 493l-348 -493h-127z"/>
<glyph glyph-name="afii10088" horiz-adv-x="1273" unicode="ц" d="M150 -61v1126h120v-1038h684v1038h121v-1038h113v-437h-39q-35 0 -57.5 21.5t-22.5 64.5v263h-919z"/>
<glyph glyph-name="afii10089" horiz-adv-x="1200" unicode="ч" d="M143 657v408h121v-406q0 -129 64.5 -183t175.5 -54h418v643h120v-1126h-49q-35 0 -53 16t-18 61v318h-418q-360 0 -361 323z"/>
<glyph glyph-name="afii10090" horiz-adv-x="1601" unicode="ш" d="M145 -61v1126h119v-1038h477v1038h121v-1038h477v1038h119v-1126h-1313z"/>
<glyph glyph-name="afii10091" horiz-adv-x="1630" unicode="щ" d="M145 -61v1126h119v-1038h477v1038h121v-1038h477v1038h119v-1038h107v-437h-39q-35 0 -57.5 21.5t-22.5 64.5v263h-1301z"/>
<glyph glyph-name="afii10092" horiz-adv-x="1353" unicode="ъ" d="M449 27h337q166 0 243 73.5t77 190.5q0 57 -17.5 105t-56.5 83t-98.5 54.5t-145.5 19.5h-339v-526zM47 977v88h402v-424h344q94 0 174 -15.5t138 -52t91 -100t33 -160.5v-32q0 -96 -36 -162t-97.5 -106t-141.5 -57t-166 -17h-460v1038h-281z"/>
<glyph glyph-name="afii10093" horiz-adv-x="1488" unicode="ы" d="M1219 16v1049h120v-1126h-49q-39 0 -55 16t-16 61zM268 27h338q166 0 243 73.5t77 190.5q0 57 -17.5 105t-56.5 83t-98.5 54.5t-145.5 19.5h-340v-526zM147 -61v1126h121v-424h344q94 0 174 -15.5t138.5 -52t91.5 -100t33 -160.5v-32q0 -96 -36 -162t-97.5 -106 t-141.5 -57t-166 -17h-461z"/>
<glyph glyph-name="afii10094" horiz-adv-x="1181" unicode="ь" d="M268 27h338q166 0 243 73.5t77 190.5q0 57 -17.5 105t-56.5 83t-98.5 54.5t-145.5 19.5h-340v-526zM147 -61v1126h121v-424h344q94 0 174 -15.5t138.5 -52t91.5 -100t33 -160.5v-32q0 -96 -36 -162t-97.5 -106t-141.5 -57t-166 -17h-461z"/>
<glyph glyph-name="afii10095" horiz-adv-x="978" unicode="э" d="M66 4v23h376q139 0 212 76.5t73 201.5v154h-479q-47 0 -59.5 20.5t-12.5 48.5v17h551v151q0 137 -72.5 209t-212.5 72h-278q-59 0 -74.5 21.5t-15.5 50.5v16h368q90 0 165 -26.5t128 -75t83 -116t30 -151.5v-393q0 -84 -30 -151.5t-83 -114.5t-128 -72.5t-165 -25.5h-280 q-63 0 -79.5 19t-16.5 46z"/>
<glyph glyph-name="afii10096" horiz-adv-x="1576" unicode="ю" d="M680 346q0 -172 85 -261t243 -89q156 0 241.5 87t85.5 263v311q0 72 -18.5 135.5t-58 110.5t-101 75t-149.5 28q-152 0 -240 -88.5t-88 -260.5v-311zM145 25v1040h119v-520h297v112q0 227 117 332t330 105q217 0 331.5 -103.5t114.5 -333.5v-311q0 -227 -112.5 -331.5 t-333.5 -104.5q-215 0 -331 103.5t-116 332.5v113h-297v-520h-37q-37 0 -59.5 20.5t-22.5 65.5z"/>
<glyph glyph-name="afii10097" horiz-adv-x="1126" unicode="я" d="M184 752q0 -72 18.5 -117t55.5 -71.5t91 -36t126 -9.5h393v455h-393q-150 0 -220.5 -49.5t-70.5 -171.5zM61 756q0 150 101.5 228.5t312.5 78.5h516v-1153h-49q-39 0 -56.5 16.5t-17.5 59.5v442h-381l-286 -489h-125l297 507q-88 10 -147.5 39t-96.5 71t-52.5 93 t-15.5 107z"/>
<glyph glyph-name="uni0450" horiz-adv-x="1093" unicode="ѐ" d="M360 1481h132l163 -279h-24q-63 0 -96 45zM236 543h532q57 0 72.5 17.5t15.5 70.5v112q0 121 -81 192t-234 71q-141 0 -223 -71t-82 -192v-200zM113 285v415q0 106 34.5 181t93 122.5t136.5 69t164 21.5q94 0 175 -23.5t139 -68t91 -110t33 -149.5v-172 q0 -57 -28.5 -85.5t-96.5 -28.5h-618v-172q0 -63 20 -111.5t55 -81.5t81 -49t100 -16h442v-29q0 -27 -15.5 -43t-76.5 -16h-350q-86 0 -156 23.5t-119 68.5t-76.5 109.5t-27.5 144.5z"/>
<glyph glyph-name="afii10071" horiz-adv-x="1093" unicode="ё" d="M637 1247v146h131v-146h-131zM301 1247v146h133v-146h-133zM236 543h532q57 0 72.5 17.5t15.5 70.5v112q0 121 -81 192t-234 71q-141 0 -223 -71t-82 -192v-200zM113 285v415q0 106 34.5 181t93 122.5t136.5 69t164 21.5q94 0 175 -23.5t139 -68t91 -110t33 -149.5v-172 q0 -57 -28.5 -85.5t-96.5 -28.5h-618v-172q0 -63 20 -111.5t55 -81.5t81 -49t100 -16h442v-29q0 -27 -15.5 -43t-76.5 -16h-350q-86 0 -156 23.5t-119 68.5t-76.5 109.5t-27.5 144.5z"/>
<glyph glyph-name="afii10099" horiz-adv-x="1269" unicode="ђ" d="M57 1268v86h219v123h121v-123h437v-17q0 -29 -13.5 -49t-58.5 -20h-365v-203h375q184 0 271 -80t87 -244v-960q0 -127 -59 -183.5t-194 -56.5h-111v15q0 31 16.5 52t65.5 21t81 8.5t50 27t24.5 48t6.5 72.5v954q0 129 -64.5 183.5t-175.5 54.5h-373v-1038h-39 q-82 0 -82 86v1243h-219z"/>
<glyph glyph-name="afii10100" horiz-adv-x="956" unicode="ѓ" d="M346 1202l166 279h129l-174 -234q-33 -45 -96 -45h-25zM150 27v1038h733v-16q0 -31 -16.5 -51.5t-65.5 -20.5h-531v-1038h-39q-82 0 -81 88z"/>
<glyph glyph-name="afii10101" horiz-adv-x="993" unicode="є" d="M127 303v393q0 84 29.5 151.5t83 116t128 75t164.5 26.5h367v-16q0 -29 -14.5 -50.5t-73.5 -21.5h-279q-139 0 -211.5 -71.5t-72.5 -209.5v-151h551v-17q0 -29 -12.5 -49t-59.5 -20h-479v-154q0 -125 72.5 -201.5t211.5 -76.5h377v-23q0 -27 -18.5 -46t-77.5 -19h-281 q-90 0 -164.5 25.5t-128 72.5t-83 114.5t-29.5 151.5z"/>
<glyph glyph-name="afii10102" horiz-adv-x="925" unicode="ѕ" d="M100 784q0 49 20.5 99.5t63.5 90.5t109.5 65.5t161.5 25.5h329v-31q0 -57 -90 -57h-239q-125 0 -178.5 -57.5t-53.5 -135.5q0 -59 36 -110t128 -82l197 -66q147 -49 202.5 -121.5t55.5 -173.5q0 -143 -98.5 -217.5t-272.5 -74.5h-362v22q0 66 84 66h278q111 0 181.5 48 t70.5 156q0 72 -33 120t-125 79l-198 66q-139 47 -203 110.5t-64 177.5z"/>
<glyph glyph-name="afii10103" horiz-adv-x="438" unicode="і" d="M156 1358v119h123v-211h-21q-43 0 -72.5 23.5t-29.5 68.5zM156 25v1040h123v-1126h-43q-80 0 -80 86z"/>
<glyph glyph-name="afii10104" horiz-adv-x="417" unicode="ї" d="M309 1247v146h131v-146h-131zM145 16v1049h123v-1126h-49q-41 0 -57.5 16t-16.5 61zM-27 1247v146h133v-146h-133z"/>
<glyph glyph-name="afii10105" horiz-adv-x="598" unicode="ј" d="M322 1358v119h120v-211h-20q-41 0 -70.5 23.5t-29.5 68.5zM-18 -465q0 33 19 49.5t52 16.5h94q57 0 91 15t52.5 43t25 69t6.5 90v1247h120v-1247q0 -160 -71.5 -233.5t-223.5 -73.5h-165v24z"/>
<glyph glyph-name="afii10106" horiz-adv-x="1923" unicode="љ" d="M1096 27h276q162 0 241 73.5t79 190.5q0 57 -18.5 105t-56.5 83t-98.5 54.5t-144.5 19.5h-278v-526zM45 -35q0 35 17.5 48.5t64.5 13.5q68 0 107.5 13t61 44t28 81t6.5 122v778h766v-424h280q94 0 174 -15.5t137.5 -52t90 -100t32.5 -160.5v-32q0 -96 -35.5 -162 t-96 -106t-139.5 -57t-165 -17h-397v1038h-524v-664q0 -94 -7.5 -163.5t-39 -116.5t-96 -70.5t-177.5 -23.5h-88v26z"/>
<glyph glyph-name="afii10107" horiz-adv-x="1818" unicode="њ" d="M989 27h279q166 0 242.5 72.5t76.5 189.5q0 57 -17.5 104t-56 82t-98 54.5t-145.5 19.5h-281v-522zM152 23v1042h118v-473h600v473h119v-428h283q94 0 175 -14.5t139.5 -51t91 -100t32.5 -160.5v-32q0 -96 -37 -161t-97 -105t-140 -57t-166 -17h-400v620 q-25 -29 -59.5 -42t-73.5 -13h-467v-565h-39q-80 0 -79 84z"/>
<glyph glyph-name="afii10108" horiz-adv-x="1214" unicode="ћ" d="M57 1255v86h174v136h121v-136h479v-16q0 -29 -12 -49.5t-59 -20.5h-408v-190h373q186 0 273 -80t87 -244v-802h-41q-37 0 -58 16t-21 61v723q0 129 -64.5 183.5t-175.5 54.5h-373v-1038h-39q-82 0 -82 86v1230h-174z"/>
<glyph glyph-name="afii10109" horiz-adv-x="1032" unicode="ќ" d="M383 1202l166 279h129l-174 -234q-33 -45 -96 -45h-25zM328 518q57 31 99 62.5t72.5 67.5t54.5 80t46 99q27 72 57.5 118t67.5 72.5t82 37t100 10.5h74v-12q0 -35 -13.5 -55.5t-62.5 -20.5q-27 0 -53.5 -7t-51 -27.5t-49 -58.5t-49.5 -102q-33 -78 -82 -153.5 t-139 -126.5l455 -563h-137zM154 23v1042h118v-1126h-43q-76 0 -75 84z"/>
<glyph glyph-name="uni045D" horiz-adv-x="1245" unicode="ѝ" d="M453 1481h131l164 -279h-25q-63 0 -96 45zM152 0v1065h122v-1026q154 248 321 513t320 513h181v-1126h-41q-39 0 -59.5 23.5t-20.5 64.5v929l-578 -927q-23 -37 -49 -63.5t-69 -26.5h-54q-74 0 -73 61z"/>
<glyph glyph-name="afii10110" horiz-adv-x="1114" unicode="ў" d="M272 1434h88q4 -88 59.5 -138.5t133.5 -50.5t130 48t54 141h90q0 -53 -19.5 -100.5t-55 -83.5t-88 -57.5t-119.5 -21.5q-68 0 -119 21.5t-85 57.5t-51.5 83t-17.5 101zM131 324v741h123v-737q0 -131 44.5 -195.5t157.5 -64.5h17q45 0 95 3t101.5 7t97.5 8t83 8v971h123 v-1272q0 -59 -18.5 -110.5t-58.5 -90t-103.5 -60t-151.5 -21.5h-451v28q0 37 19.5 52.5t66.5 15.5h365q61 0 102 13t64.5 39t33 60.5t9.5 77.5v205q-82 -8 -185.5 -14t-203.5 -11h-14q-161 0 -238.5 91.5t-77.5 255.5z"/>
<glyph glyph-name="afii10193" horiz-adv-x="1239" unicode="џ" d="M156 -61v1126h123v-1038h686v1038h118v-1126h-397v-349h-49q-35 0 -52.5 17.5t-17.5 62.5v269h-411z"/>
<glyph glyph-name="uni0460" horiz-adv-x="2009" unicode="Ѡ" d="M137 313v787q0 166 114 266t322 100h199v-22q0 -29 -17.5 -47.5t-76.5 -18.5h-98q-326 0 -326 -307v-743q0 -59 17.5 -114.5t52 -96.5t87 -65.5t121.5 -24.5h115q133 0 213 76.5t80 224.5v573h119v-573q0 -147 80 -224t209 -77h116q68 0 120 24.5t87 65.5t52.5 96 t17.5 115v743q0 307 -324 307h-100q-59 0 -75.5 18.5t-16.5 47.5v22h198q207 0 322 -100t115 -266v-787q0 -84 -29 -152.5t-81 -117.5t-123 -76.5t-154 -27.5h-125q-240 0 -351 176q-106 -176 -350 -176h-125q-84 0 -154.5 27.5t-121.5 76.5t-80 117.5t-29 152.5z"/>
<glyph glyph-name="uni0461" horiz-adv-x="1400" unicode="ѡ" d="M39 1065h115q0 -88 11 -182.5t42 -216t84 -284.5t139 -386l186 590q-12 31 -23 79t-21.5 110.5t-17.5 136t-9 153.5h108q2 -100 15.5 -203.5t44 -226.5t85 -276.5t138.5 -356.5l321 1063h97l-350 -1126h-74q-45 0 -63.5 25.5t-35.5 66.5l-167 411l-168 -503h-82 q-41 0 -61.5 28.5t-35.5 61.5q-49 111 -98 247t-88 276t-64.5 274.5t-27.5 238.5z"/>
<glyph glyph-name="afii10146" horiz-adv-x="1579" unicode="Ѣ" d="M575 27h461q80 0 138.5 21.5t97.5 59t58.5 89t19.5 108.5v105q0 57 -17.5 109t-55.5 90t-97.5 60.5t-141.5 22.5h-463v-665zM51 1083v84h406v299h118v-299h451v-16q0 -29 -12.5 -48.5t-57.5 -19.5h-381v-305h465q92 0 170 -17.5t135.5 -57t89 -104t31.5 -161.5v-145 q0 -96 -35.5 -163t-95 -110t-136.5 -62t-161 -19h-581v1144h-406z"/>
<glyph glyph-name="afii10194" horiz-adv-x="1456" unicode="ѣ" d="M561 27h340q164 0 242 73.5t78 190.5q0 57 -18.5 105t-56.5 83t-98.5 54.5t-144.5 19.5h-342v-526zM45 977v88h395v401h121v-401h481v-18q0 -29 -12 -49.5t-59 -20.5h-410v-336h344q94 0 174 -15.5t138.5 -52t91 -100t32.5 -160.5v-32q0 -96 -35.5 -162t-97 -106 t-140.5 -57t-165 -17h-463v1038h-395z"/>
<glyph glyph-name="uni0464" horiz-adv-x="1708" unicode="Ѥ" d="M152 23v1443h122v-716h437v350q0 166 113.5 266t322.5 100h459v-22q0 -29 -17.5 -47.5t-77.5 -18.5h-358q-326 0 -326 -307v-321h625v-19q0 -29 -12.5 -47t-57.5 -18h-555v-338q0 -59 17.5 -114.5t52.5 -96.5t87 -65.5t122 -24.5h520v-23q0 -27 -17.5 -46t-76.5 -19h-434 q-84 0 -156 27.5t-123 76.5t-79.5 117.5t-28.5 152.5v353h-437v-727h-43q-37 0 -58 21.5t-21 62.5z"/>
<glyph glyph-name="uni0465" horiz-adv-x="1456" unicode="ѥ" d="M145 23v1042h123v-520h357v151q0 84 29.5 151.5t83 116t128 75t164.5 26.5h344v-16q0 -29 -13 -50.5t-73 -21.5h-258q-137 0 -212 -71.5t-75 -209.5v-151h531v-17q0 -29 -13.5 -49t-58.5 -20h-459v-154q0 -125 75 -201.5t212 -76.5h352v-23q0 -27 -16 -46t-76 -19h-260 q-90 0 -164.5 25.5t-128 72.5t-83 114.5t-29.5 151.5v156h-357v-520h-41q-82 0 -82 84z"/>
<glyph glyph-name="uni0466" horiz-adv-x="1282" unicode="Ѧ" d="M397 651h504l-252 750zM37 -61l516 1527h147q18 0 36 -15t24 -34l502 -1478h-123l-209 628h-219v-628h-43q-76 0 -76 79v549h-223l-209 -628h-123z"/>
<glyph glyph-name="uni0467" horiz-adv-x="1013" unicode="ѧ" d="M313 424h387l-194 571zM43 -61l379 1126h119q35 0 52 -17.5t30 -54.5l358 -1054h-117l-135 397h-158v-397h-41q-78 0 -77 79v318h-170l-131 -397h-109z"/>
<glyph glyph-name="uni0468" horiz-adv-x="1753" unicode="Ѩ" d="M862 651h504l-252 750zM147 25v1441h125v-815h469l277 815h147q18 0 36 -15t24 -34l501 -1478h-122l-209 628h-219v-628h-50q-35 0 -52 16t-17 57v555h-223l-211 -628h-121l211 628h-441v-628h-45q-39 0 -59.5 22.5t-20.5 63.5z"/>
<glyph glyph-name="uni0469" horiz-adv-x="1525" unicode="ѩ" d="M831 489h340l-172 506zM152 23v1042h124v-576h447l192 576h119q35 0 53.5 -17.5t30.5 -54.5l357 -1054h-115l-160 464h-133v-464h-49q-37 0 -54.5 16t-17.5 57v391h-145l-156 -464h-106l153 464h-416v-464h-43q-82 0 -81 84z"/>
<glyph glyph-name="uni046A" horiz-adv-x="1644" unicode="Ѫ" d="M440 1378l389 -673l404 673h-793zM139 23v94q0 188 50.5 303t130 179.5t178 88t194.5 29.5q-109 186 -224.5 374.5t-221.5 374.5h1175l-452 -749q88 -8 183 -35t172 -93.5t127 -184t50 -306.5v-159h-37q-39 0 -60.5 22.5t-21.5 58.5v7v39q0 154 -25.5 257t-85 166.5 t-155.5 94t-235 39.5v-684h-39q-37 0 -58.5 22.5t-21.5 63.5v600q-164 -12 -262.5 -50t-151.5 -105t-70.5 -163t-17.5 -227v-141h-41q-80 0 -80 84z"/>
<glyph glyph-name="uni046B" horiz-adv-x="1402" unicode="ѫ" d="M403 975l302 -504l309 504h-611zM133 20q0 129 35 218.5t95.5 145.5t138 79.5t162.5 23.5h14l-349 576h953l-348 -576q78 0 156.5 -22.5t143 -79.5t104.5 -156.5t40 -255.5v-34h-39q-82 0 -82 86q0 98 -19.5 168.5t-65.5 117.5t-119.5 69.5t-184.5 22.5v-464h-37 q-39 0 -62.5 20.5t-23.5 60.5v383q-111 0 -185.5 -24.5t-120.5 -76.5t-65.5 -134t-19.5 -195v-34h-39q-82 0 -82 81z"/>
<glyph glyph-name="uni046C" horiz-adv-x="2050" unicode="Ѭ" d="M883 1378l381 -673l397 673h-778zM154 23v1443h118v-751h805h18.5t28.5 4l-434 747h1155l-446 -749q90 -8 185 -35t173 -93.5t128 -184t50 -306.5v-159h-37q-39 0 -60 22.5t-21 58.5v7v39q0 154 -26 257t-85 166.5t-155.5 94t-235.5 39.5v-684h-39q-37 0 -58.5 22.5 t-21.5 63.5v600q-164 -12 -262 -50t-152.5 -105t-72 -163t-17.5 -227v-141h-39q-80 0 -80 84v94q0 207 59.5 327.5t155.5 186.5h-516v-692h-39q-37 0 -58 21.5t-21 62.5z"/>
<glyph glyph-name="uni046D" horiz-adv-x="1812" unicode="ѭ" d="M815 975l303 -504l307 504h-610zM154 20v1045h120v-528h684q-78 131 -158.5 262t-158.5 264h952l-348 -576q78 0 157 -22.5t143.5 -79.5t104.5 -156.5t40 -255.5v-34h-37q-84 0 -84 86q0 98 -19.5 168.5t-65.5 117.5t-120 69.5t-184 22.5v-464h-35q-41 0 -64.5 20.5 t-23.5 60.5v383q-111 0 -185.5 -24.5t-120.5 -76.5t-65.5 -134t-19.5 -195v-34h-37q-84 0 -84 81q0 170 62.5 276.5t160.5 154.5h-494v-512h-41q-37 0 -58 20.5t-21 60.5z"/>
<glyph glyph-name="uni046E" horiz-adv-x="1046" unicode="Ѯ" d="M180 1862h107l166 -203l165 203h107l-209 -256h-127zM74 -231q0 70 24.5 114.5t72.5 70.5t119.5 37t168.5 15q182 6 276 87t94 247q0 98 -25.5 163.5t-75.5 105.5t-121.5 56.5t-164.5 16.5h-262q-18 0 -18 16v68h280q188 0 266 82t78 270q0 147 -91 219t-249 72 q-104 0 -188 -11.5t-170 -27.5v80q96 18 185 31.5t176 13.5q94 0 177 -21.5t145.5 -68.5t98 -122t35.5 -179q-2 -152 -69.5 -247t-165.5 -132q123 -23 199.5 -122t76.5 -251q0 -211 -118.5 -320.5t-364.5 -113.5q-68 0 -118 -5t-84 -20.5t-50 -45t-16 -78.5 q0 -70 40.5 -98.5t106.5 -28.5q45 0 87 13t83 28q41 16 83 27t85 11q84 0 130 -46t46 -121v-13h-115q0 14 -3 29.5t-11 28t-24.5 20.5t-43.5 8q-43 0 -81.5 -12t-79.5 -29q-41 -16 -83 -29.5t-85 -13.5q-119 0 -187.5 59.5t-68.5 166.5z"/>
<glyph glyph-name="uni046F" horiz-adv-x="970" unicode="ѯ" d="M152 1452h106l166 -203l166 203h106l-209 -256h-127zM92 973v76q74 18 145.5 31.5t157.5 13.5q74 0 150 -13.5t137 -46.5t98 -88.5t37 -137.5v-9q-2 -106 -50 -171t-134 -106q45 -12 87 -32.5t72.5 -54.5t49 -83t18.5 -114q0 -96 -28.5 -157t-77.5 -96.5t-114.5 -51 t-141.5 -17.5q-135 -4 -202 -29.5t-67 -113.5q0 -53 42 -87t108 -34q45 0 83 11t75 24q37 14 76.5 24t82.5 10q84 0 131 -47t50 -133h-113q0 14 -2 29.5t-11.5 28t-26.5 20.5t-48 8q-41 0 -76 -12t-68 -25q-35 -14 -76.5 -26.5t-90.5 -12.5q-59 0 -106.5 17.5t-81.5 48.5 t-51 71t-17 85q0 66 24.5 107.5t72.5 68t119.5 39t168.5 16.5q55 2 100 14.5t78 39t50 69.5t17 109q0 137 -91 188t-283 51h-187q-10 0 -10 14v72h197q176 0 254.5 50.5t78.5 191.5q0 96 -72.5 149.5t-232.5 53.5q-96 0 -163.5 -8.5t-137.5 -24.5z"/>
<glyph glyph-name="uni0470" horiz-adv-x="1533" unicode="Ѱ" d="M127 1053v413h115v-374q0 -139 15 -238.5t60 -163t127 -92.5t215 -29h48v908h116v-908h45q123 0 205 30t130 95.5t67.5 170t19.5 253.5v348h113v-393q0 -145 -25.5 -256.5t-88 -186.5t-165 -113t-256.5 -38h-45v-540h-41q-76 0 -75 84v456h-43q-160 0 -264.5 41t-165 116 t-84 180.5t-23.5 236.5z"/>
<glyph glyph-name="uni0471" horiz-adv-x="1484" unicode="ѱ" d="M133 524v541h117v-500q0 -143 13 -245.5t54 -167t116 -95t198 -30.5h47v1038h121v-1038h49q115 0 188.5 31.5t116.5 99t59.5 175t16.5 259.5v473h117v-520q0 -150 -24 -262.5t-82 -189.5t-154.5 -115.5t-241.5 -38.5h-45v-398h-37q-37 0 -60.5 19.5t-23.5 64.5v314h-43 q-154 0 -252 40.5t-153.5 117.5t-76 185.5t-20.5 241.5z"/>
<glyph glyph-name="afii10147" horiz-adv-x="1421" unicode="Ѳ" d="M254 815h391l131 -113h387v152q0 117 -28.5 216t-85 173t-142.5 115t-200 41q-113 0 -198 -41t-141.5 -115t-85 -174t-28.5 -217v-37zM254 549q0 -268 112.5 -405.5t340.5 -137.5q231 0 343.5 137.5t112.5 407.5v47h-418l-129 113h-362v-162zM131 551v301 q0 313 141.5 478t434.5 165q297 0 438 -166t141 -477v-303q0 -311 -141 -475t-438 -164q-293 0 -434.5 164t-141.5 477z"/>
<glyph glyph-name="afii10195" horiz-adv-x="1146" unicode="ѳ" d="M250 606h266l131 -108h254v159q0 72 -18.5 135.5t-57.5 110.5t-100 75t-150 28q-154 0 -239.5 -88.5t-85.5 -260.5v-51zM250 346q0 -172 84 -261t241 -89q156 0 241 87t85 263v49h-278l-131 111h-242v-160zM127 346v311q0 227 117.5 332t330.5 105q217 0 333 -104.5 t116 -332.5v-311q0 -227 -113.5 -331.5t-335.5 -104.5q-215 0 -331.5 103.5t-116.5 332.5z"/>
<glyph glyph-name="afii10148" horiz-adv-x="1445" unicode="Ѵ" d="M45 1466h137l469 -1443l383 1169q25 76 53.5 129t68.5 85t97.5 46t143.5 14v-88q-55 0 -93 -9t-68 -35.5t-54.5 -78t-51.5 -133.5l-385 -1183h-133q-27 0 -44 17t-27 36z"/>
<glyph glyph-name="afii10196" horiz-adv-x="1114" unicode="ѵ" d="M43 1065h121l352 -1053l268 832q14 43 35 83t55.5 70.5t89 48t134.5 17.5v-100q-43 0 -75 -7.5t-57.5 -28t-46 -57t-40.5 -96.5l-277 -835h-121q-35 0 -52 16t-32 53z"/>
<glyph glyph-name="uni0476" horiz-adv-x="1445" unicode="Ѷ" d="M600 1782h131l164 -279h-25q-63 0 -96 45zM362 1782h132l163 -279h-24q-63 0 -96 45zM45 1466h137l469 -1443l383 1169q25 76 53.5 129t68.5 85t97.5 46t143.5 14v-88q-55 0 -93 -9t-68 -35.5t-54.5 -78t-51.5 -133.5l-385 -1183h-133q-27 0 -46 16t-25 37z"/>
<glyph glyph-name="uni0477" horiz-adv-x="1114" unicode="ѷ" d="M442 1481h131l164 -279h-24q-63 0 -97 45zM205 1481h131l164 -279h-25q-63 0 -96 45zM43 1065h121l352 -1053l268 832q14 43 35 83t55.5 70.5t89 48t134.5 17.5v-100q-43 0 -75 -7.5t-57.5 -28t-46 -57t-40.5 -96.5l-277 -835h-121q-35 0 -53 16t-31 53z"/>
<glyph glyph-name="uni0478" horiz-adv-x="2308" unicode="Ѹ" d="M1362 319v746h121v-743q0 -129 43.5 -191.5t152.5 -62.5h17q94 2 179 7t167 17v973h119v-1278q0 -59 -18.5 -109.5t-56.5 -87t-99.5 -58t-147.5 -21.5h-422v28q0 37 19.5 52.5t66.5 15.5h334q121 0 163 49t42 133v215q-80 -8 -170 -14t-189 -10h-14q-159 0 -233 89 t-74 250zM264 553q0 -133 17.5 -235.5t62.5 -172t120 -105.5t191 -36q119 0 195 36t120 105.5t61.5 172t17.5 237.5v295q0 117 -17.5 217t-61.5 174t-120 116t-195 42q-117 0 -191.5 -42t-119.5 -116t-62.5 -175t-17.5 -218v-295zM145 555v293q0 156 26 276.5t85 202.5 t156.5 125t242.5 43q147 0 245.5 -43t158 -125t85 -202.5t25.5 -276.5v-295q0 -156 -25.5 -275.5t-85 -201.5t-157.5 -124t-246 -42q-145 0 -242.5 42t-156.5 124t-85 202.5t-26 276.5z"/>
<glyph glyph-name="uni0479" horiz-adv-x="2058" unicode="ѹ" d="M1094 326v739h118v-735q0 -131 47 -195.5t159 -64.5h14q90 2 185 7t177 19v969h119v-1272q0 -59 -18.5 -111.5t-58.5 -90t-102.5 -59t-152.5 -21.5h-428v30q0 37 19.5 52.5t66.5 15.5h344q63 0 104.5 14.5t65 40t32.5 59t9 72.5v209q-80 -8 -175 -14t-194 -10h-15 q-166 0 -241 88t-75 258zM248 346q0 -86 13 -150.5t46 -109.5t87.5 -67.5t135.5 -22.5q158 0 220.5 87t62.5 263v311q0 72 -10 135.5t-41 110.5t-86 75t-146 28q-158 0 -220 -88.5t-62 -260.5v-311zM129 346v311q0 217 94 327t307 110q215 0 309.5 -106.5t94.5 -330.5v-311 q0 -221 -92 -328.5t-312 -107.5q-213 0 -307 103.5t-94 332.5z"/>
<glyph glyph-name="uni047A" horiz-adv-x="1497" unicode="Ѻ" d="M244 551q0 -262 117.5 -398.5t334.5 -150.5v184h95v-184q219 14 336.5 150.5t117.5 400.5v297q0 117 -29.5 213t-88 168t-143.5 115t-193 51v-176h-95v176q-109 -8 -192.5 -51t-142 -115t-88 -169t-29.5 -214v-297zM123 553v295q0 305 145.5 468t427.5 177v117h95v-117 q287 -14 431 -177t144 -468v-297q0 -307 -144.5 -468t-430.5 -173v-115h-95v115q-283 14 -428 175t-145 468z"/>
<glyph glyph-name="uni047B" horiz-adv-x="1247" unicode="ѻ" d="M250 346q0 -78 24.5 -139.5t68.5 -105.5t103.5 -69.5t126.5 -33.5v188h99v-188q68 8 126 33.5t101 68.5t68.5 104.5t25.5 141.5v311q0 66 -22.5 125.5t-63.5 105.5t-101.5 75.5t-133.5 37.5v-170h-99v170q-68 -6 -127 -31.5t-102 -69.5t-68.5 -104.5t-25.5 -138.5v-311z M129 346v311q0 106 33 185.5t91 133.5t140 81.5t180 34.5v129h99v-129q98 -6 179 -35t139.5 -82t90 -132t31.5 -186v-311q0 -106 -31.5 -185t-89 -132.5t-138.5 -82t-181 -34.5v-117h-99v117q-98 6 -180 33.5t-140 81t-91 132.5t-33 187z"/>
<glyph glyph-name="uni047C" horiz-adv-x="2002" unicode="Ѽ" d="M711 1575q2 86 57 129t135 43h219q49 0 74 23.5t27 62.5h90q-2 -72 -44 -116t-128 -44h-226q-55 0 -84.5 -27.5t-31.5 -70.5h-88zM139 313v787q0 166 114 266t322 100h220v-22q0 -29 -16.5 -47.5t-76.5 -18.5h-120q-326 0 -326 -307v-743q0 -59 17.5 -114.5t52 -96.5 t87 -65.5t122.5 -24.5h114q133 0 213 76.5t80 224.5v78h119v-78q0 -147 80 -224t209 -77h114q68 0 120 24.5t87 65.5t52.5 96t17.5 115v743q0 307 -324 307h-121q-59 0 -76.5 18.5t-17.5 47.5v22h221q207 0 322 -100t115 -266v-787q0 -84 -29 -152.5t-81 -117.5t-123 -76.5 t-154 -27.5h-123q-119 0 -208 42t-143 138q-53 -96 -141 -138t-209 -42h-125q-84 0 -154.5 27.5t-121.5 76.5t-80 117.5t-29 152.5z"/>
<glyph glyph-name="uni047D" horiz-adv-x="1841" unicode="ѽ" d="M590 1198q2 86 53 130t143 44h226q49 0 77.5 23.5t30.5 66.5h88q-2 -80 -51 -123t-127 -43h-229q-53 0 -88 -24.5t-35 -73.5h-88zM139 319v369q0 172 117 274.5t332 102.5h135v-18q0 -29 -16.5 -49.5t-77.5 -20.5h-35q-166 0 -250 -81t-84 -237v-323q0 -61 18.5 -116.5 t53.5 -98.5t88 -68.5t125 -25.5h12q135 0 217 79.5t82 229.5v72h121v-72q-1 -12 -1 -24q0 -60 19 -113.5t59 -92t95 -59t123 -20.5h16q72 0 125 25.5t89 68.5t53.5 98t17.5 117v323q0 156 -83 237t-251 81h-33q-61 0 -77.5 20.5t-16.5 49.5v18h135q211 0 329 -102.5 t118 -274.5v-369q0 -84 -30 -154.5t-83 -120.5t-126 -77.5t-159 -27.5h-24q-123 0 -213 33.5t-144 125.5q-53 -92 -144 -125.5t-214 -33.5h-22q-86 0 -159 27.5t-125 77.5t-82 121t-30 154z"/>
<glyph glyph-name="uni047E" horiz-adv-x="2002" unicode="Ѿ" d="M643 1577v154h684v-154h-65v92h-250v-92h-64v92h-239v-92h-66zM139 313v787q0 166 114 266t322 100h220v-22q0 -29 -16.5 -47.5t-76.5 -18.5h-120q-326 0 -326 -307v-743q0 -59 17.5 -114.5t52 -96.5t87 -65.5t122.5 -24.5h114q133 0 213 76.5t80 224.5v573h119v-573 q0 -147 80 -224t209 -77h114q68 0 120 24.5t87 65.5t52.5 96t17.5 115v743q0 307 -324 307h-121q-59 0 -76.5 18.5t-17.5 47.5v22h221q207 0 322 -100t115 -266v-787q0 -84 -29 -152.5t-81 -117.5t-123 -76.5t-154 -27.5h-123q-119 0 -208 42t-143 138q-53 -96 -141 -138 t-209 -42h-125q-84 0 -154.5 27.5t-121.5 76.5t-80 117.5t-29 152.5z"/>
<glyph glyph-name="uni047F" horiz-adv-x="1388" unicode="ѿ" d="M356 1231v151h684v-151h-67v90h-250v-90h-64v90h-239v-90h-64zM39 1065h115q0 -88 11 -181t42 -215t84 -284t139 -385l186 586q-12 31 -23 79t-21.5 110.5t-17.5 136t-9 153.5h108q2 -100 15.5 -203.5t44 -226.5t85 -276.5t138.5 -356.5q37 125 78 259t82 271.5t81 272.5 t78 260h97l-348 -1126h-74q-45 0 -63.5 25.5t-35.5 66.5l-167 411q-18 -55 -40 -120.5t-44.5 -131t-44 -131t-39.5 -120.5h-80q-35 0 -58.5 30.5t-40.5 59.5q-51 111 -100 248t-88 279t-63.5 275.5t-26.5 233.5z"/>
<glyph glyph-name="uni0480" horiz-adv-x="1415" unicode="Ҁ" d="M123 530v340q0 311 150.5 468t447.5 157q287 0 437.5 -145.5t162.5 -431.5h-119q-6 109 -41 197.5t-96 151t-147.5 97.5t-196.5 35q-115 0 -204 -38t-150.5 -107.5t-93 -167t-31.5 -216.5v-342q0 -252 107.5 -381t314.5 -143h122v-463h-38q-35 0 -58.5 19.5t-23.5 62.5 v289q-543 27 -543 618z"/>
<glyph glyph-name="uni0481" horiz-adv-x="1251" unicode="ҁ" d="M115 424v133q0 258 128 397.5t394 139.5q258 0 387 -126t139 -366h-121q-8 82 -35.5 154.5t-76.5 125t-122 83t-171 30.5q-106 0 -182 -31.5t-125 -89t-71.5 -138.5t-22.5 -179v-135q0 -217 95 -322.5t263 -105.5h108v-453h-40q-37 0 -58.5 19.5t-21.5 64.5v275 q-233 12 -350 140t-117 384z"/>
<glyph glyph-name="uni0482" horiz-adv-x="1126" unicode="҂" d="M51 645l45 78l330 -180l174 393l-328 178l45 78l320 -172l201 446h108l-223 -493l336 -180l-49 -78l-324 174l-176 -391l328 -176l-50 -78l-315 172l-215 -477h-100l231 522z"/>
<glyph glyph-name="uni0483" horiz-adv-x="731" unicode="҃" d="M63 1167q2 84 54.5 127t138.5 43h219q98 0 103 86h90q-2 -72 -45 -115.5t-129 -43.5h-226q-47 0 -80.5 -25t-35.5 -72h-89z"/>
<glyph glyph-name="uni0484" horiz-adv-x="708" unicode="҄" d="M66 1235v65q78 4 124 12.5t72 26.5q66 45 103.5 68t83.5 23q55 0 92 -17.5t60.5 -43.5t33.5 -58.5t10 -63.5h-76q-2 41 -30.5 80t-92.5 39q-25 0 -45 -9t-39.5 -22.5t-39 -29t-41.5 -27.5q-39 -23 -92.5 -32t-122.5 -11z"/>
<glyph glyph-name="uni0485" horiz-adv-x="661" unicode="҅" d="M84 1094v336h86v-136h408v-71h-408v-129h-86z"/>
<glyph glyph-name="uni0486" horiz-adv-x="661" unicode="҆" d="M84 1223v71h405v136h89v-336h-89v129h-405z"/>
<glyph glyph-name="uni0488" horiz-adv-x="2117" unicode="҈" d="M1556 479q4 82 68 141.5t176 59.5q115 0 178.5 -58.5t67.5 -142.5h-76q-4 53 -53 91t-119 38t-116 -38t-50 -91h-76zM1343 961q4 82 69 141t175 59q115 0 178.5 -58.5t67.5 -141.5h-76q-4 53 -53 91t-119 38t-115 -38t-51 -91h-76zM1343 -8q4 82 69 141.5t175 59.5 q115 0 178.5 -58.5t67.5 -142.5h-76q-4 53 -53 91t-119 38t-115 -38t-51 -91h-76zM807 1257q4 82 67.5 141.5t176.5 59.5q115 0 178 -58.5t67 -142.5h-75q-4 53 -53.5 91t-118.5 38q-70 0 -116 -37.5t-50 -91.5h-76zM807 -346q4 82 67.5 140.5t176.5 58.5q115 0 178 -57.5 t67 -141.5h-75q-4 53 -53.5 91t-118.5 38q-70 0 -116 -38t-50 -91h-76zM258 961q4 82 67.5 141t176.5 59q115 0 178 -58.5t68 -141.5h-76q-4 53 -53.5 91t-118.5 38q-70 0 -116 -38t-50 -91h-76zM258 -8q4 82 67.5 141.5t176.5 59.5q115 0 178 -58.5t68 -142.5h-76 q-4 53 -53.5 91t-118.5 38q-70 0 -116 -38t-50 -91h-76zM47 479q4 82 68.5 141.5t175.5 59.5q115 0 178 -58.5t68 -142.5h-76q-4 53 -53.5 91t-118.5 38q-70 0 -116 -38t-50 -91h-76z"/>
<glyph glyph-name="uni0489" horiz-adv-x="1976" unicode="҉" d="M1489 516v189h170q49 0 89 -16.5t69.5 -41t49 -54.5t25.5 -56l-34 -25q-18 43 -66.5 76t-95.5 33h-21v-105h-186zM1284 1042l121 119q41 41 88 59.5t90 18.5q29 0 56.5 -8t50.5 -21l-9 -41q-31 10 -61 11q-35 0 -69.5 -13.5t-59.5 -38.5l-14 -14l73 -74l-131 -131z M1274 176q29 29 67.5 67t69.5 66l119 -121q39 -41 55.5 -87t16.5 -89q0 -31 -8.5 -59.5t-20.5 -50.5l-41 10q12 27 12 61q0 35 -12 69t-37 58l-14 15l-74 -74q-33 31 -67.5 66.5t-65.5 68.5zM895 1118v170q0 49 15.5 89t40 71t53 50.5t57.5 25.5l24 -35q-43 -18 -75.5 -67.5 t-32.5 -96.5v-20h104v-187h-186zM887 -264q43 18 75.5 66t32.5 98v20h-104v184h186v-167q0 -49 -15 -89.5t-40 -71t-54.5 -50t-56.5 -25.5zM367 1212q0 29 8 57.5t20 51.5l41 -6q-12 -31 -12 -62q0 -35 13.5 -70.5t35.5 -60.5l14 -14l74 76q31 -35 66 -69t65 -66l-135 -134 l-119 123q-39 39 -55 84t-16 90zM279 16l8 41q31 -10 61 -10q37 0 72 12.5t59 34.5l15 15l-72 75q33 31 65.5 65t65.5 64l135 -133l-125 -121q-39 -39 -84 -55t-88 -16q-33 0 -61.5 8t-50.5 20zM72 692l37 25q18 -43 66 -77t95 -34h21v107h186v-189h-170q-49 0 -89 15.5 t-70.5 40t-50 54.5t-25.5 58z"/>
<glyph glyph-name="uni048A" horiz-adv-x="1298" unicode="Ҋ" d="M432 1835h88q4 -88 59.5 -138t133.5 -50t130 48t54 140h90q0 -53 -19.5 -100t-55 -83t-88 -57.5t-119.5 -21.5q-68 0 -119 21.5t-85 57.5t-51.5 83t-17.5 100zM154 0v1466h116v-1431l709 1431h201v-1439h116q-35 -84 -71.5 -167t-71.5 -167h-117l101 246 q-37 0 -55.5 23.5t-18.5 62.5v1345l-649 -1343q-18 -39 -47 -63.5t-74 -24.5h-70q-70 0 -69 61z"/>
<glyph glyph-name="uni048B" horiz-adv-x="1245" unicode="ҋ" d="M362 1391h89q4 -88 59 -138.5t133 -50.5t130 48t54 141h91q0 -53 -19.5 -100.5t-55.5 -83.5t-88.5 -57.5t-119.5 -21.5q-68 0 -119 21.5t-85 57.5t-51.5 83t-17.5 101zM152 0v1065h122v-1026q154 248 321 513t320 513h181v-1038h100q-35 -84 -70.5 -167t-70.5 -167h-119 l102 248q-63 10 -63 86v929l-578 -927q-23 -37 -49 -63.5t-69 -26.5h-54q-74 0 -73 61z"/>
<glyph glyph-name="uni048C" horiz-adv-x="1357" unicode="Ҍ" d="M350 27h463q80 0 139.5 21.5t97 59t57 89t19.5 108.5v105q0 57 -17 109t-55 90t-97.5 60.5t-141.5 22.5h-465v-665zM47 1083v84h189v299h114v-299h236v-16q0 -29 -12.5 -48.5t-57.5 -19.5h-166v-305h467q92 0 171 -17.5t135.5 -57t89 -104t32.5 -161.5v-145 q0 -96 -35.5 -163t-95 -110t-137.5 -62t-162 -19h-579v1144h-189z"/>
<glyph glyph-name="uni048D" horiz-adv-x="1243" unicode="ҍ" d="M356 27h342q162 0 241 73.5t79 190.5q0 57 -18.5 105t-56.5 83t-98.5 54.5t-144.5 19.5h-344v-526zM51 977v88h189v401h116v-401h262v-18q0 -29 -13 -49.5t-58 -20.5h-191v-336h346q94 0 174 -15.5t137.5 -52t90.5 -100t33 -160.5v-32q0 -96 -36 -162t-96.5 -106 t-139.5 -57t-165 -17h-460v1038h-189z"/>
<glyph glyph-name="uni048E" horiz-adv-x="1234" unicode="Ҏ" d="M272 635h422q115 0 195 43l-279 227l58 64l284 -234q41 61 41 168v207q0 61 -15 110.5t-50 85t-92.5 54t-141.5 18.5h-422v-743zM150 23v1443h544q199 0 309.5 -80.5t110.5 -275.5v-207q0 -55 -12 -118.5t-60 -120.5l191 -160l-55 -66l-203 170q-49 -29 -118 -46 t-163 -17h-422v-606h-36q-39 0 -62.5 21.5t-23.5 62.5z"/>
<glyph glyph-name="uni048F" horiz-adv-x="1085" unicode="ҏ" d="M276 90h295q117 0 185 47l-250 205l59 66l250 -203q33 59 33 157v338q0 135 -66.5 206t-210.5 71h-295v-887zM154 -371v1436h419q397 0 398 -365v-338q0 -141 -66 -231l178 -143l-57 -72l-186 150q-51 -35 -119 -50.5t-148 -15.5h-297v-459h-38q-41 0 -62.5 20.5 t-21.5 67.5z"/>
<glyph glyph-name="afii10050" horiz-adv-x="1163" unicode="Ґ" d="M160 29v1437h809v353h123v-441h-809v-1439h-41q-82 0 -82 90z"/>
<glyph glyph-name="afii10098" horiz-adv-x="966" unicode="ґ" d="M156 31v1034h610v352h123v-440h-610v-1038h-46q-78 0 -77 92z"/>
<glyph glyph-name="uni0492" horiz-adv-x="1263" unicode="Ғ" d="M49 696v86h227v684h934v-20q0 -29 -16 -48.5t-66 -19.5h-731v-596h475v-18q0 -29 -13 -48.5t-58 -19.5h-404v-757h-39q-82 0 -82 84v673h-227z"/>
<glyph glyph-name="uni0493" horiz-adv-x="1056" unicode="ғ" d="M27 449v86h223v530h735v-16q0 -31 -16.5 -51.5t-65.5 -20.5h-530v-442h385v-19q0 -29 -13.5 -48t-58.5 -19h-313v-510h-39q-41 0 -62.5 19t-21.5 67v424h-223z"/>
<glyph glyph-name="uni0494" horiz-adv-x="1374" unicode="Ҕ" d="M154 20v1446h841v-20q0 -37 -14 -52.5t-61 -15.5h-648v-561h443q276 0 416.5 -151.5t140.5 -472.5q0 -174 -53.5 -297t-152.5 -202t-239.5 -116t-314.5 -37h-109v23q0 29 15.5 49t64.5 20h21q137 0 256 28t205 91.5t135 167t49 254.5q0 299 -112.5 429t-348.5 130h-416 v-794h-39q-35 0 -57 20.5t-22 60.5z"/>
<glyph glyph-name="uni0495" horiz-adv-x="1196" unicode="ҕ" d="M156 23v1042h854v-18q0 -29 -12.5 -49.5t-59.5 -20.5h-662v-408h263q274 0 406 -116.5t132 -384.5v-70q0 -109 -40 -194t-112.5 -143t-172 -89t-215.5 -31h-113v15q0 31 17.5 52t66.5 21q88 0 170 26t144.5 74t99 117.5t36.5 155.5v64q0 217 -108.5 317t-310.5 100h-263 v-544h-34q-39 0 -62.5 19t-23.5 65z"/>
<glyph glyph-name="uni0496" horiz-adv-x="1843" unicode="Җ" d="M1018 731q57 51 97 102.5t72 106.5t56.5 115.5t50.5 128.5q27 70 57.5 122t71.5 88t94.5 54t127.5 18h71v-12q0 -35 -13 -53.5t-61 -18.5q-166 0 -249 -235q-20 -53 -45 -108.5t-55.5 -110t-67.5 -104.5t-80 -91l487 -706h111v-437h-41q-35 0 -57.5 21.5t-22.5 62.5v265 h-61zM846 25v1441h123v-1527h-47q-37 0 -56.5 22.5t-19.5 63.5zM96 1454v12h70q74 0 128 -18t95 -54t70.5 -88.5t56.5 -121.5q27 -68 53.5 -128.5t58 -115.5t73.5 -106.5t100 -102.5l-551 -792h-133l557 794q-92 86 -153.5 195.5t-100.5 218.5q-84 235 -251 235h-1 q-47 0 -59.5 18.5t-12.5 53.5z"/>
<glyph glyph-name="uni0497" horiz-adv-x="1474" unicode="җ" d="M33 1053v12h71q55 0 98.5 -11.5t77 -40t62.5 -75.5t55 -119q23 -59 47.5 -101t55 -76t70.5 -64.5t94 -63.5v551h122v-551q51 31 91.5 61.5t71 65.5t55 78t47.5 100q51 133 117.5 189.5t174.5 56.5h72v-12q0 -35 -13 -55.5t-61 -20.5q-27 0 -52 -6t-50 -26.5t-49.5 -59.5 t-48.5 -105q-16 -39 -33.5 -77.5t-44.5 -75.5t-64.5 -72t-93.5 -63l381 -465h113v-437h-37q-35 0 -57.5 22.5t-22.5 63.5v263h-49l-447 538v-538h-45q-37 0 -57 24.5t-20 65.5v450l-451 -540h-125l455 553q-53 29 -91 62.5t-65 70.5t-46 75.5t-34 79.5q-25 66 -49.5 105 t-49 59.5t-50 26.5t-52.5 6q-47 0 -60 20.5t-13 55.5z"/>
<glyph glyph-name="uni0498" horiz-adv-x="1009" unicode="Ҙ" d="M63 12q0 23 14.5 36t47.5 7q63 -10 118.5 -17t129.5 -7q98 0 177 12t135 47t87 98.5t31 167.5q0 94 -23.5 158t-72 102.5t-119 54t-162.5 15.5h-246q-18 0 -18 14v74h264q178 0 257 76t79 260q0 74 -25.5 124t-74 83t-114 47t-145.5 14q-29 0 -69.5 -4t-83.5 -11 t-84 -16.5t-68 -19.5v92q76 20 157 33.5t151 13.5q96 0 184 -19.5t153.5 -62.5t103.5 -110t38 -159v-9q-2 -133 -60.5 -233.5t-169.5 -141.5q74 -20 125 -57t83 -85t46.5 -104.5t14.5 -115.5q0 -96 -21.5 -167t-63.5 -120t-101.5 -79t-135.5 -44v-147q0 -109 -59.5 -164.5 t-188.5 -57.5q-31 0 -68.5 7.5t-72.5 19.5v72q80 -18 139 -19q92 0 123 44t31 126v105q-61 -6 -135 -6q-41 0 -73 2t-62.5 5t-63.5 8t-76 11q-8 2 -15 3t-18 3v41z"/>
<glyph glyph-name="uni0499" horiz-adv-x="956" unicode="ҙ" d="M72 -23q0 23 16 35.5t45 7.5q59 -8 114.5 -14t135.5 -6q88 0 155.5 11.5t113.5 39t69.5 74.5t23.5 119q0 137 -92 187t-282 50h-199v86h199q88 0 150.5 10.5t102.5 38t59 72.5t19 117q0 104 -73.5 152.5t-231.5 48.5q-98 0 -165.5 -8.5t-137.5 -24.5v78q74 18 146.5 30.5 t158.5 12.5q74 0 151 -11.5t138.5 -43t98 -87.5t36.5 -142v-9q-4 -111 -53 -175.5t-137 -97.5q43 -8 84 -31.5t74.5 -59.5t53 -84t19.5 -107q-4 -162 -76.5 -234.5t-216.5 -93.5v-106q0 -109 -59 -165.5t-188 -58.5q-31 0 -69 7.5t-73 21.5v72q80 -18 140 -19q92 0 122.5 44 t30.5 124v72h-94q-29 0 -65.5 3t-78.5 7l-84 8t-81 11v38z"/>
<glyph glyph-name="uni049A" horiz-adv-x="1153" unicode="Қ" d="M360 723q57 55 96.5 109.5t69 110.5t53 116.5t50.5 126.5q49 137 143 208.5t246 71.5h69v-12q0 -35 -12 -53.5t-59 -18.5q-84 0 -165 -52t-128 -181q-41 -117 -94.5 -227.5t-143.5 -190.5l535 -704h104v-437h-39q-35 0 -57 21.5t-22 62.5v265h-52zM156 20v1446h120v-1527 h-47q-74 0 -73 81z"/>
<glyph glyph-name="uni049B" horiz-adv-x="1046" unicode="қ" d="M332 500q115 63 179 141t107 186q51 127 120 182.5t173 55.5h74v-12q0 -35 -13.5 -55.5t-62.5 -20.5q-27 0 -54.5 -7t-53 -27.5t-51 -58.5t-50.5 -102q-33 -78 -87 -152.5t-150 -127.5l393 -475h115v-437h-41q-35 0 -57.5 22.5t-22.5 63.5v263h-47zM158 23v1042h121 v-1126h-43q-78 0 -78 84z"/>
<glyph glyph-name="uni049C" horiz-adv-x="1423" unicode="Ҝ" d="M154 25v1441h122v-778q74 10 133.5 26.5t106.5 39.5v374h121v-297q94 86 154.5 171t121.5 178q43 63 82 116.5t84 91t100.5 58t131.5 20.5h69v-12q0 -35 -13 -53.5t-58 -18.5q-88 0 -153.5 -58t-135.5 -167q-86 -133 -183.5 -253t-199.5 -187q180 -195 363.5 -389.5 t365.5 -388.5h-135l-594 620v-350h-41q-37 0 -58.5 21.5t-21.5 62.5v358q-53 -23 -113.5 -36t-126.5 -19v-657h-45q-39 0 -58 22.5t-19 63.5z"/>
<glyph glyph-name="uni049D" horiz-adv-x="1173" unicode="ҝ" d="M154 27v1038h122v-569q109 10 177 39v325h96v-268q53 41 93 95t75 114q37 66 69.5 116t68.5 82.5t78 49t95 16.5h72v-12q0 -35 -13.5 -55.5t-60.5 -20.5q-59 0 -114.5 -50t-118.5 -171q-47 -88 -101.5 -159t-132.5 -118l483 -540h-124l-369 415v-231h-19q-35 0 -56 22.5 t-21 67.5v215q-41 -10 -85 -19.5t-92 -13.5v-456h-43q-37 0 -58 23.5t-21 64.5z"/>
<glyph glyph-name="uni049E" horiz-adv-x="1228" unicode="Ҟ" d="M455 723q57 55 98 109.5t70.5 110.5t53 116.5t46.5 126.5q47 137 143.5 208.5t245.5 71.5h70v-12q0 -35 -12.5 -53.5t-59.5 -18.5q-84 0 -165 -52t-128 -181q-41 -117 -94 -226.5t-141 -191.5q150 -199 300 -396.5t300 -395.5h-133zM43 1139v84h207v243h121v-243h213v-17 q0 -29 -12.5 -48t-57.5 -19h-143v-1200h-47q-74 0 -74 81v1119h-207z"/>
<glyph glyph-name="uni049F" horiz-adv-x="1116" unicode="ҟ" d="M426 500q115 63 179.5 141t107.5 186q51 127 118.5 182.5t174.5 55.5h71v-12q0 -35 -13 -55.5t-60 -20.5q-27 0 -54.5 -7t-54.5 -27.5t-52.5 -58.5t-49.5 -102q-31 -78 -85.5 -153.5t-152.5 -128.5l469 -561h-129zM47 1130v91h205v245h121v-245h225v-19 q0 -29 -12.5 -50.5t-57.5 -21.5h-155v-1191h-43q-78 0 -78 84v1107h-205z"/>
<glyph glyph-name="uni04A0" horiz-adv-x="1290" unicode="Ҡ" d="M518 723q57 55 97 109.5t70 110.5t52.5 116.5t46.5 126.5q49 137 144.5 208.5t245.5 71.5h71v-12q0 -35 -13 -53.5t-61 -18.5q-84 0 -164.5 -52t-125.5 -181q-41 -117 -95.5 -228.5t-142.5 -193.5l602 -788h-135zM23 1378v88h409v-1527h-47q-74 0 -74 81v1358h-288z"/>
<glyph glyph-name="uni04A1" horiz-adv-x="1206" unicode="ҡ" d="M518 500q115 63 179.5 141t107.5 186q49 127 118.5 182.5t174.5 55.5h71v-12q0 -35 -13 -55.5t-60 -20.5q-27 0 -54.5 -7t-54 -27.5t-52.5 -58.5t-50 -102q-31 -78 -85.5 -152.5t-152.5 -127.5l469 -563h-127zM47 977v88h420v-1126h-45q-78 0 -78 84v954h-297z"/>
<glyph glyph-name="uni04A2" horiz-adv-x="1329" unicode="Ң" d="M131 12v1454h123v-669h780v669h121v-1439h111v-437h-41q-35 0 -57.5 21.5t-22.5 62.5v265h-39q-39 0 -55.5 16t-16.5 57v754q-23 -27 -57.5 -42t-75.5 -15h-647v-770h-51q-39 0 -55.5 16t-16.5 57z"/>
<glyph glyph-name="uni04A3" horiz-adv-x="1218" unicode="ң" d="M125 12v1053h121v-473h663v473h123v-1038h98v-437h-38q-35 0 -57.5 22.5t-22.5 63.5v263h-27q-41 0 -58.5 16t-17.5 57v541q-49 -49 -129 -49h-534v-565h-49q-41 0 -56.5 16t-15.5 57z"/>
<glyph glyph-name="uni04A4" horiz-adv-x="1601" unicode="Ҥ" d="M152 12v1454h122v-669h781v669h497v-22q0 -29 -12 -47.5t-57 -18.5h-307v-1439h-50q-39 0 -55 16t-16 57v762q-42 -65 -126 -65h-3h-652v-770h-53q-37 0 -53 16t-16 57z"/>
<glyph glyph-name="uni04A5" horiz-adv-x="1421" unicode="ҥ" d="M152 12v1053h120v-473h664v473h448v-18q0 -29 -13 -49.5t-58 -20.5h-254v-1038h-49q-41 0 -57.5 16t-16.5 57v541q-49 -49 -129 -49h-535v-565h-51q-39 0 -54 16t-15 57z"/>
<glyph glyph-name="uni04A6" horiz-adv-x="2117" unicode="Ҧ" d="M150 12v1454h1034v-641h295q279 0 417 -152.5t138 -473.5q0 -174 -53.5 -298t-151.5 -204t-238.5 -118t-314.5 -38h-107v15q0 29 15.5 49t64.5 20h21q137 0 254.5 30t205 96.5t136.5 173t49 257.5q0 297 -114.5 426t-346.5 129h-270v-798h-47q-37 0 -55.5 16t-18.5 57 v1366h-795v-1439h-51q-37 0 -52 16t-15 57z"/>
<glyph glyph-name="uni04A7" horiz-adv-x="1703" unicode="ҧ" d="M143 16v1049h848v-494h105q274 0 406 -118.5t132 -386.5v-68q0 -109 -40 -194t-112.5 -143t-172 -89t-215.5 -31h-113v15q0 31 16.5 52t65.5 21q90 0 172 26t143.5 74t98 117.5t36.5 155.5v61q0 217 -106.5 318.5t-310.5 101.5h-105v-544h-45q-39 0 -56.5 16t-17.5 61 v961h-610v-1038h-47q-41 0 -56.5 16t-15.5 61z"/>
<glyph glyph-name="uni04A8" horiz-adv-x="1478" unicode="Ҩ" d="M797 27q106 4 192 33.5t145.5 106.5t91 210t31.5 344q0 199 -27.5 329t-69.5 206.5t-90 106.5t-91 30q-109 0 -145.5 -53.5t-36.5 -180.5v-1132zM115 700q0 229 39 374t100 228.5t135 119.5t146 48v-92q-57 -20 -110.5 -60t-94.5 -117t-65.5 -195.5t-24.5 -296.5 q0 -221 35.5 -351.5t97 -201t140.5 -97t165 -36.5v1132q0 180 74.5 252t216.5 72q195 0 301 -186.5t106 -563.5q0 -227 -34.5 -378.5t-107.5 -245t-181.5 -137.5t-255.5 -56q2 -145 78.5 -212t205.5 -67h185v-24q0 -29 -12.5 -48.5t-57.5 -19.5h-119q-207 0 -303 90t-96 283 q-121 8 -224.5 44t-178 122t-117.5 235.5t-43 384.5z"/>
<glyph glyph-name="uni04A9" horiz-adv-x="1234" unicode="ҩ" d="M670 18q90 8 154.5 38t105.5 88.5t60.5 148.5t19.5 219q0 236 -49.5 352.5t-141.5 116.5q-84 0 -116.5 -46t-32.5 -175v-742zM113 489q0 150 23.5 254.5t65.5 173t97 107.5t121 55v-96q-47 -23 -82 -57.5t-58.5 -92t-36 -139.5t-12.5 -198q0 -139 26 -228.5t69 -142.5 t100 -76.5t123 -32.5v738q0 92 19.5 155.5t54 101.5t82 55t100.5 17q92 0 153.5 -42t98.5 -116.5t52 -178t15 -228.5q0 -137 -24.5 -242.5t-78.5 -181.5t-140 -122t-211 -62q0 -66 14 -109t43 -67.5t74 -34.5t110 -10h152v-27q0 -29 -12.5 -50.5t-57.5 -21.5h-88 q-98 0 -165.5 16.5t-110.5 53.5t-61.5 98.5t-18.5 151.5q-80 6 -158 34.5t-139.5 93t-100 174.5t-38.5 277z"/>
<glyph glyph-name="uni04AA" horiz-adv-x="1120" unicode="Ҫ" d="M127 313v787q0 172 113.5 269t322.5 97h479v-22q0 -29 -16 -47.5t-76 -18.5h-381q-322 0 -321 -307v-743q0 -59 17.5 -114.5t51 -96.5t85 -65.5t120.5 -24.5h543v-23q0 -27 -17.5 -46t-78.5 -19h-174v-127q0 -109 -59.5 -164.5t-186.5 -57.5q-31 0 -70 7.5t-73 19.5v72 q80 -18 141 -19q90 0 120.5 44t30.5 126v99h-184q-84 0 -155.5 26.5t-123 75.5t-80 117.5t-28.5 154.5z"/>
<glyph glyph-name="uni04AB" horiz-adv-x="985" unicode="ҫ" d="M143 303v393q0 84 30 151.5t83 116t128 75t165 26.5h369v-16q0 -29 -15.5 -50.5t-75.5 -21.5h-278q-139 0 -212 -71.5t-73 -209.5v-391q0 -125 73 -201.5t212 -76.5h377v-23q0 -27 -18.5 -46t-78.5 -19h-133v-125q0 -109 -60.5 -165.5t-186.5 -58.5q-31 0 -70 7.5 t-74 21.5v72q80 -18 141 -19q90 0 121 44t31 124v99h-49q-90 0 -165 25.5t-128 72.5t-83 114.5t-30 151.5z"/>
<glyph glyph-name="uni04AC" horiz-adv-x="1196" unicode="Ҭ" d="M37 1378v88h1126v-20q0 -37 -13 -52.5t-63 -15.5h-425v-1351h112v-437h-39q-35 0 -57.5 20.5t-22.5 63.5v265h-37q-35 0 -56 20.5t-21 60.5v1358h-504z"/>
<glyph glyph-name="uni04AD" horiz-adv-x="1005" unicode="ҭ" d="M37 977v88h934v-16q0 -39 -13.5 -55.5t-66.5 -16.5h-328v-950h119v-437h-39q-37 0 -59.5 21.5t-22.5 64.5v263h-39q-37 0 -58.5 19t-21.5 60v959h-405z"/>
<glyph glyph-name="uni04AE" horiz-adv-x="1302" unicode="Ү" d="M55 1466h125l473 -823l480 823h124l-546 -919v-608h-49q-37 0 -54.5 16t-17.5 57v535z"/>
<glyph glyph-name="uni04AF" horiz-adv-x="1136" unicode="ү" d="M55 1065h131l385 -991l392 991h131l-467 -1128v-396h-47q-37 0 -54.5 16.5t-17.5 59.5v320z"/>
<glyph glyph-name="uni04B0" horiz-adv-x="1302" unicode="Ұ" d="M55 1466h125l473 -823q115 199 240 412t240 411h124l-497 -835h319v-19q0 -29 -12 -47t-57 -18h-299v-608h-49q-37 0 -54.5 16t-17.5 57v535h-375v84h326q-121 209 -243 417.5t-243 417.5z"/>
<glyph glyph-name="uni04B1" horiz-adv-x="1136" unicode="ұ" d="M53 1065h131l385 -991l392 991h131l-416 -1010h328v-18q0 -29 -12.5 -48.5t-57.5 -19.5h-297l-12 -32v-396h-47q-37 0 -54.5 16.5t-17.5 59.5v317l-14 35h-375v86h340q-102 254 -201.5 505t-202.5 505z"/>
<glyph glyph-name="uni04B2" horiz-adv-x="1304" unicode="Ҳ" d="M63 -61l519 766q-127 193 -254 381t-254 380h129l438 -667q106 166 219 333.5t219 333.5h127l-501 -761l452 -678h109v-437h-41q-35 0 -57.5 20.5t-22.5 63.5v265h-62l-442 665q-111 -166 -222.5 -334t-219.5 -331h-136z"/>
<glyph glyph-name="uni04B3" horiz-adv-x="1107" unicode="ҳ" d="M61 -61l416 563l-399 563h127l332 -481l331 481h127l-393 -563l346 -475h109v-437h-39q-35 0 -57.5 21.5t-22.5 64.5v263h-53l-348 493l-349 -493h-127z"/>
<glyph glyph-name="uni04B4" horiz-adv-x="1751" unicode="Ҵ" d="M35 1378v88h1128v-16q0 -37 -14 -54.5t-62 -17.5h-428v-1351h799v1439h117v-1439h115v-437h-41q-35 0 -57.5 20.5t-22.5 63.5v265h-1028v1439h-506z"/>
<glyph glyph-name="uni04B5" horiz-adv-x="1546" unicode="ҵ" d="M37 977v88h909v-16q0 -39 -13 -55.5t-65 -16.5h-303v-950h680v1038h123v-1038h113v-437h-39q-35 0 -57.5 21.5t-22.5 64.5v263h-920v1038h-405z"/>
<glyph glyph-name="uni04B6" horiz-adv-x="1308" unicode="Ҷ" d="M143 752v714h119v-708q0 -123 62.5 -178.5t171.5 -55.5h514v942h120v-1439h107v-437h-39q-35 0 -57.5 20.5t-22.5 63.5v265h-39q-37 0 -53 17t-16 58v422h-514q-352 0 -353 316z"/>
<glyph glyph-name="uni04B7" horiz-adv-x="1216" unicode="ҷ" d="M145 659v404h119v-399q0 -129 65.5 -183.5t176.5 -54.5h418v637h123v-1036h100v-437h-39q-35 0 -57.5 21.5t-22.5 64.5v263h-31q-39 0 -56 16t-17 61v320h-416q-186 0 -274.5 81t-88.5 242z"/>
<glyph glyph-name="uni04B8" horiz-adv-x="1296" unicode="Ҹ" d="M147 754v714h117v-708q0 -123 62.5 -178.5t173.5 -55.5h92v353h117v-353h303v942h121v-1529h-52q-37 0 -53 17t-16 58v424h-303v-356h-47q-35 0 -52.5 17.5t-17.5 58.5v280h-92q-180 0 -266.5 79t-86.5 237z"/>
<glyph glyph-name="uni04B9" horiz-adv-x="1196" unicode="ҹ" d="M145 659v404h119v-399q0 -129 65.5 -183.5t176.5 -54.5h31v270h116v-270h271v637h123v-1124h-50q-37 0 -55 16t-18 61v320h-271v-295h-45q-37 0 -54 16.5t-17 59.5v219h-29q-186 0 -274.5 81t-88.5 242z"/>
<glyph glyph-name="uni04BA" horiz-adv-x="1292" unicode="Һ" d="M156 14v1452h49q35 0 52 -17t17 -58v-424h514q180 0 266.5 -78t86.5 -238v-712h-47q-35 0 -52.5 17t-17.5 58v635q0 123 -62.5 177.5t-173.5 54.5h-514v-942h-49q-35 0 -52 17t-17 58z"/>
<glyph glyph-name="uni04BB" horiz-adv-x="1179" unicode="һ" d="M145 16v1049h50q37 0 54 -17.5t17 -60.5v-323h420q358 0 358 -324v-401h-49q-35 0 -53 16t-18 61v322q0 129 -63.5 183t-174.5 54h-420v-636h-49q-37 0 -54.5 16t-17.5 61z"/>
<glyph glyph-name="uni04BC" horiz-adv-x="1556" unicode="Ҽ" d="M494 729h747q43 0 66.5 16.5t23.5 69.5v287q0 55 -16.5 105t-49 88t-81.5 60.5t-113 22.5h-276q-74 0 -130.5 -23.5t-94.5 -64.5t-57 -94t-19 -115v-352zM41 926v61h115v-61q0 -109 60 -153t161 -44v354q0 96 31.5 168t87 120t132.5 71.5t167 23.5h278q166 0 270.5 -89 t104.5 -271v-338q0 -61 -24.5 -92t-90.5 -31h-839v-330q0 -139 79.5 -213.5t221.5 -74.5h645v-29q0 -27 -14.5 -43t-73.5 -16h-557q-199 0 -308.5 97t-109.5 279v330q-176 0 -256 61.5t-80 219.5z"/>
<glyph glyph-name="uni04BD" horiz-adv-x="1355" unicode="ҽ" d="M508 545h532q57 0 72.5 16.5t15.5 69.5v112q0 121 -80.5 192t-234.5 71q-141 0 -223 -71t-82 -192v-198zM43 741v62h119v-62q0 -109 60.5 -152.5t162.5 -43.5v155q0 106 35 181t93 122.5t136 69t164 21.5q94 0 175 -23.5t139.5 -68t91 -110t32.5 -149.5v-172 q0 -57 -29.5 -85.5t-95.5 -28.5h-618v-172q0 -63 20.5 -111.5t55 -81.5t81 -49t99.5 -16h440v-29q0 -27 -15 -43t-75 -16h-350q-86 0 -155.5 23.5t-119 68.5t-77 109.5t-27.5 144.5v172q-180 2 -261 69.5t-81 214.5z"/>
<glyph glyph-name="uni04BE" horiz-adv-x="1552" unicode="Ҿ" d="M494 729h747q43 0 66.5 16.5t23.5 69.5v287q0 55 -16.5 105t-49 88t-81.5 60.5t-113 22.5h-276q-74 0 -130.5 -23.5t-94.5 -64.5t-57 -94t-19 -115v-352zM41 926v61h115v-61q0 -109 60 -153t161 -44v354q0 96 31.5 168t87 120t132.5 71.5t167 23.5h278q166 0 270.5 -89 t104.5 -271v-338q0 -61 -24.5 -92t-90.5 -31h-839v-330q0 -139 79.5 -213.5t221.5 -74.5h645v-29q0 -27 -14.5 -43t-73.5 -16h-365v-105q0 -80 27.5 -121t124.5 -41q29 0 67.5 5.5t73.5 15.5v-76q-35 -12 -74 -18.5t-69 -6.5q-137 0 -192.5 52.5t-55.5 160.5v134h-94 q-199 0 -308.5 97t-109.5 279v330q-176 0 -256 61.5t-80 219.5z"/>
<glyph glyph-name="uni04BF" horiz-adv-x="1359" unicode="ҿ" d="M506 545h532q57 0 72.5 16.5t15.5 69.5v112q0 121 -80.5 192t-234.5 71q-141 0 -223 -71t-82 -192v-198zM41 741v62h119v-62q0 -109 60.5 -152.5t162.5 -43.5v155q0 106 35 181t93 122.5t136 69t164 21.5q94 0 175 -23.5t139.5 -68t91 -110t32.5 -149.5v-172 q0 -57 -29.5 -85.5t-95.5 -28.5h-618v-172q0 -63 20.5 -111.5t55 -81.5t81 -49t99.5 -16h440v-29q0 -27 -15.5 -43t-74.5 -16h-272v-107q0 -78 27.5 -119t125.5 -41q29 0 68 5.5t72 15.5v-76q-33 -14 -72 -20.5t-70 -6.5q-139 0 -193.5 53.5t-54.5 161.5v134q-164 6 -262 97 t-98 249v172q-180 2 -261 69.5t-81 214.5z"/>
<glyph glyph-name="uni04C0" horiz-adv-x="462" unicode="Ӏ" d="M176 23v1443h125v-1527h-43q-37 0 -59.5 21.5t-22.5 62.5z"/>
<glyph glyph-name="uni04C1" horiz-adv-x="1820" unicode="Ӂ" d="M631 1843h88q4 -88 59.5 -138t132.5 -50q78 0 130.5 48t54.5 140h90q0 -53 -19.5 -100t-55.5 -83t-88 -57.5t-120 -21.5t-119 21.5t-84.5 57.5t-51 83t-17.5 100zM115 1454v12h69q74 0 128.5 -18t95.5 -54t70.5 -88.5t56.5 -121.5q49 -133 122.5 -231.5t186.5 -186.5v700 h123v-704q106 84 180 185.5t125 236.5q27 70 57.5 122t71.5 88t94 54t127 18h72v-12q0 -35 -13.5 -53.5t-60.5 -18.5q-166 0 -250 -235q-20 -53 -50 -109.5t-66.5 -112t-80 -105.5t-92.5 -87l590 -794h-133l-571 776v-776h-47q-37 0 -56.5 22.5t-19.5 63.5v684l-576 -770 h-133l598 794q-49 37 -94 86t-84 104.5t-68.5 113t-48.5 110.5q-84 235 -251 235h-1q-47 0 -59 18.5t-12 53.5z"/>
<glyph glyph-name="uni04C2" horiz-adv-x="1456" unicode="ӂ" d="M449 1434h88q4 -88 59 -138.5t133 -50.5t130 48t54 141h91q0 -53 -19.5 -100.5t-55.5 -83.5t-88.5 -57.5t-119.5 -21.5q-68 0 -119 21.5t-85 57.5t-51 83t-17 101zM33 1053v12h71q55 0 99.5 -10.5t79 -38t64.5 -73.5t56 -118q20 -53 42 -95t51.5 -77t69.5 -61.5t98 -46.5 v520h122v-520q55 16 95.5 41.5t70 61.5t51 80t41.5 97q27 70 55.5 117t64.5 73.5t80 38t99 11.5h72v-12q0 -35 -13 -55.5t-61 -20.5q-27 0 -52 -7t-51 -28.5t-50.5 -60.5t-48.5 -101q-14 -37 -33 -75.5t-46.5 -76.5t-65.5 -73t-91 -63l457 -553h-127l-447 538v-538h-53 q-70 0 -69 77v463l-451 -540h-125l457 553q-104 57 -154.5 133.5t-81.5 154.5q-25 61 -49 100.5t-50 61t-51.5 28.5t-52.5 7q-47 0 -60 20.5t-13 55.5z"/>
<glyph glyph-name="uni04C3" horiz-adv-x="1333" unicode="Ӄ" d="M156 14v1452h118v-651q70 8 135.5 45t120 90.5t96.5 114.5t64 119q57 139 156.5 210.5t259.5 71.5h82v-12q0 -35 -15.5 -53.5t-68.5 -18.5q-43 0 -87 -12t-86 -39.5t-78 -70.5t-62 -107q-53 -125 -125 -210t-154 -126h164q276 0 415.5 -151.5t139.5 -472.5 q0 -174 -51.5 -297t-148.5 -202t-237.5 -116t-320.5 -37h-108v25q0 29 15 49t64 20q150 0 274 28t211 90.5t135 166t48 254.5q0 299 -113.5 429t-349.5 130h-375v-794h-49q-70 0 -69 75z"/>
<glyph glyph-name="uni04C4" horiz-adv-x="1181" unicode="ӄ" d="M156 16v1049h120v-496h97q119 20 195.5 97t111.5 170q51 133 122.5 181t180.5 48h92v-12q0 -35 -15.5 -55.5t-78.5 -20.5q-29 0 -56.5 -4t-56 -21.5t-55.5 -55.5t-51 -105q-27 -68 -67 -125.5t-101 -98.5q248 -12 368.5 -130t120.5 -369v-70q0 -106 -39.5 -190 t-112.5 -143.5t-172.5 -91.5t-215.5 -32h-113v25q0 31 17.5 51.5t66.5 20.5q88 0 172 24.5t148.5 70.5t103.5 114.5t39 154.5v64q0 217 -113.5 317t-318.5 100h-269v-544h-51q-39 0 -54 18t-15 59z"/>
<glyph glyph-name="uni04C5" horiz-adv-x="1525" unicode="Ӆ" d="M47 -27q0 35 17.5 48.5t62.5 13.5h6q76 0 122 15.5t72.5 48t36 86t9.5 128.5v1153h977v-1439h112l-143 -334h-119l105 246q-41 2 -59.5 17t-18.5 56v1366h-733v-1065q0 -96 -17.5 -166.5t-59.5 -116.5t-111.5 -68.5t-172.5 -22.5h-86v34z"/>
<glyph glyph-name="uni04C6" horiz-adv-x="1335" unicode="ӆ" d="M47 -27q0 35 17.5 48.5t62.5 13.5h6q74 0 115 14t59.5 44t21.5 78t3 116v778h839v-1038h111l-145 -334h-117l102 246q-72 2 -71 73v965h-596v-664q0 -96 -12.5 -166.5t-47.5 -116.5t-98.5 -68.5t-163.5 -22.5h-86v34z"/>
<glyph glyph-name="uni04C7" horiz-adv-x="1335" unicode="Ӈ" d="M154 12v1454h120v-669h781v669h121v-1560q0 -188 -97.5 -276.5t-302.5 -88.5h-213v35q0 35 16.5 47t61.5 12h135q141 0 210 60.5t69 210.5v860q-23 -27 -57.5 -42t-75.5 -15h-648v-770h-51q-37 0 -53 16t-16 57z"/>
<glyph glyph-name="uni04C8" horiz-adv-x="1216" unicode="ӈ" d="M152 12v1053h122v-473h662v473h123v-1147q0 -193 -100.5 -285t-311.5 -92h-221v35q0 37 18.5 51.5t63.5 14.5h139q143 0 216 61t73 215v635q-49 -49 -129 -49h-533v-565h-51q-39 0 -55 16t-16 57z"/>
<glyph glyph-name="uni04C9" horiz-adv-x="1255" unicode="Ӊ" d="M131 12v1454h123v-667h782v667h121v-1439h105q-35 -84 -72 -167t-72 -167h-117l101 246q-35 4 -50.5 20t-15.5 53v756q-23 -27 -58.5 -42t-76.5 -15h-647v-772h-53q-37 0 -53.5 16t-16.5 57z"/>
<glyph glyph-name="uni04CA" horiz-adv-x="1136" unicode="ӊ" d="M131 12v1053h123v-473h661v473h123v-1038h113q-35 -84 -71 -167t-70 -167h-119l102 246q-43 2 -60.5 17t-17.5 56v541q-49 -49 -129 -49h-532v-565h-51q-41 0 -56.5 16t-15.5 57z"/>
<glyph glyph-name="uni04CB" horiz-adv-x="1300" unicode="Ӌ" d="M145 752v714h119v-706q0 -123 63.5 -178.5t172.5 -55.5h510v940h120v-1527h-51q-41 0 -65 36v-385h-39q-35 0 -57.5 20.5t-22.5 63.5v353h115v409h-512q-180 0 -266.5 79t-86.5 237z"/>
<glyph glyph-name="uni04CC" horiz-adv-x="1200" unicode="ӌ" d="M145 659v406h123v-401q0 -129 64.5 -183.5t175.5 -54.5h416v639h120v-1126h-49q-41 0 -65 30v-379h-39q-35 0 -57.5 21.5t-22.5 64.5v351h113v309h-418q-360 0 -361 323z"/>
<glyph glyph-name="uni04CD" horiz-adv-x="1710" unicode="Ӎ" d="M119 18v1448h145l498 -946q33 -61 69 -61q39 0 72 61l500 946h143v-1439h123l-139 -334h-117l96 246h-6q-37 0 -57.5 23.5t-20.5 62.5v1243l-467 -850q-18 -35 -52 -58.5t-75 -23.5q-47 0 -76.5 24.5t-45.5 55.5l-467 852v-1329h-49q-35 0 -54.5 25.5t-19.5 53.5z"/>
<glyph glyph-name="uni04CE" horiz-adv-x="1488" unicode="ӎ" d="M152 18v1047h143l412 -565q43 -61 67 -62q25 0 68 62l389 565h145v-1038h107l-137 -334h-119l98 248q-70 8 -70 84v909l-354 -520q-23 -35 -53.5 -62.5t-75.5 -27.5q-43 0 -72.5 27.5t-56.5 62.5l-373 504v-979h-43q-35 0 -55 25.5t-20 53.5z"/>
<glyph glyph-name="uni04CF" horiz-adv-x="464" unicode="ӏ" d="M176 23v1443h125v-1527h-41q-39 0 -61.5 21.5t-22.5 62.5z"/>
<glyph glyph-name="uni04D0" horiz-adv-x="1296" unicode="Ӑ" d="M373 1843h88q4 -88 59 -138t133 -50t130.5 48t54.5 140h90q0 -53 -19.5 -100t-55.5 -83t-88 -57.5t-120 -21.5t-119 21.5t-84.5 57.5t-51 83t-17.5 100zM346 500h606l-303 901zM37 -61l516 1527h147q18 0 36 -15t24 -34l502 -1478h-123l-183 540q-16 -31 -53 -50t-78 -19 h-506l-159 -471h-123z"/>
<glyph glyph-name="uni04D1" horiz-adv-x="1077" unicode="ӑ" d="M276 1434h89q4 -88 59 -138.5t133 -50.5t130 48t54 141h90q0 -53 -19 -100.5t-55 -83.5t-88.5 -57.5t-119.5 -21.5q-68 0 -119 21.5t-85 57.5t-51.5 83t-17.5 101zM233 229q0 -63 23 -102t57.5 -61.5t75.5 -30.5t80 -8h352v508q-106 12 -192 19t-160 7q-123 0 -179.5 -49 t-56.5 -170v-113zM113 219v131q0 166 91 236.5t240 70.5h21q90 -2 170 -9t186 -21v147q0 94 -55 148.5t-170 54.5h-301q-59 0 -75.5 16.5t-16.5 42.5v29h393q180 0 264 -73.5t84 -217.5v-835h-477q-166 0 -260 69.5t-94 210.5z"/>
<glyph glyph-name="uni04D2" horiz-adv-x="1296" unicode="Ӓ" d="M745 1657v145h132v-145h-132zM410 1657v145h133v-145h-133zM346 500h606l-303 901zM37 -61l516 1527h147q18 0 36 -15t24 -34l502 -1478h-123l-183 540q-16 -31 -53 -50t-78 -19h-506l-159 -471h-123z"/>
<glyph glyph-name="uni04D3" horiz-adv-x="1077" unicode="ӓ" d="M657 1247v146h131v-146h-131zM322 1247v146h133v-146h-133zM233 229q0 -63 23 -102t57.5 -61.5t75.5 -30.5t80 -8h352v508q-106 12 -192 19t-160 7q-123 0 -179.5 -49t-56.5 -170v-113zM113 219v131q0 166 91 236.5t240 70.5h21q90 -2 170 -9t186 -21v147q0 94 -55 148.5 t-170 54.5h-301q-59 0 -75.5 16.5t-16.5 42.5v29h393q180 0 264 -73.5t84 -217.5v-835h-477q-166 0 -260 69.5t-94 210.5z"/>
<glyph glyph-name="uni04D4" horiz-adv-x="2011" unicode="Ӕ" d="M416 500h594v878h-207zM35 -61l678 1527h1206v-16q0 -35 -13.5 -53.5t-58.5 -18.5h-714v-581h716v-23q0 -29 -12 -47t-57 -18h-647v-682h811v-21q0 -29 -13.5 -48t-56.5 -19h-864v497q-51 -26 -101 -26h-4h-532q-53 -117 -105.5 -236t-103.5 -235h-129z"/>
<glyph glyph-name="uni04D5" horiz-adv-x="1761" unicode="ӕ" d="M922 539h520q55 0 74.5 17t19.5 71v98q0 57 -19.5 109.5t-58.5 90.5t-97 60.5t-136 22.5q-70 0 -126.5 -21.5t-95 -58.5t-60 -87t-21.5 -108v-194zM225 229q0 -63 23.5 -102t59.5 -61.5t79 -30.5t82 -8h129q84 0 143.5 56t59.5 140v307q-106 12 -193 19.5t-159 7.5 q-115 0 -169.5 -49t-54.5 -170v-109zM113 219v127q0 166 85.5 236.5t229.5 70.5h16q90 -2 170 -9t187 -21v151q0 94 -56.5 148.5t-169.5 54.5h-280q-59 0 -76.5 16.5t-17.5 42.5v29h374q117 0 181.5 -25.5t117.5 -83.5q68 76 157 108t194 32q193 0 309.5 -97.5t116.5 -273.5 v-158q0 -57 -28 -85.5t-95 -28.5h-606v-183q0 -119 67.5 -181t188.5 -62h432v-29q0 -27 -17.5 -43t-76.5 -16h-338q-127 0 -195 28.5t-115 100.5q-41 -55 -95 -92t-136 -37h-170q-166 0 -260 69.5t-94 210.5z"/>
<glyph glyph-name="uni04D6" horiz-adv-x="1177" unicode="Ӗ" d="M319 1843h89q4 -88 59 -138t133 -50t130 48t54 140h90q0 -53 -19 -100t-55 -83t-88.5 -57.5t-119.5 -21.5q-68 0 -119 21.5t-85 57.5t-51.5 83t-17.5 100zM152 -61v1527h907v-16q0 -35 -13.5 -53.5t-58.5 -18.5h-715v-581h717v-23q0 -29 -12 -47t-57 -18h-648v-682h811 v-21q0 -29 -13 -48t-56 -19h-862z"/>
<glyph glyph-name="uni04D7" horiz-adv-x="1093" unicode="ӗ" d="M268 1434h88q4 -88 59.5 -138.5t133.5 -50.5t130 48t54 141h90q0 -53 -19.5 -100.5t-55 -83.5t-88 -57.5t-119.5 -21.5q-68 0 -119 21.5t-85 57.5t-51.5 83t-17.5 101zM236 543h532q57 0 72.5 17.5t15.5 70.5v112q0 121 -81 192t-234 71q-141 0 -223 -71t-82 -192v-200z M113 285v415q0 106 34.5 181t93 122.5t136.5 69t164 21.5q94 0 175 -23.5t139 -68t91 -110t33 -149.5v-172q0 -57 -28.5 -85.5t-96.5 -28.5h-618v-172q0 -63 20 -111.5t55 -81.5t81 -49t100 -16h442v-29q0 -27 -15.5 -43t-76.5 -16h-350q-86 0 -156 23.5t-119 68.5 t-76.5 109.5t-27.5 144.5z"/>
<glyph glyph-name="uni04D8" horiz-adv-x="1333" unicode="Ә" d="M246 299q0 -55 16.5 -105.5t49 -87t80.5 -58t112 -21.5h270q74 0 130.5 22.5t94 62.5t56 93t18.5 114v355h-739q-43 0 -65.5 -16.5t-22.5 -69.5v-289zM123 299v340q0 61 25.5 92t91.5 31h833v328q0 70 -22.5 123t-62.5 89.5t-95 56t-119 19.5h-514q-49 0 -67.5 16.5 t-18.5 53.5v18h604q88 0 164 -24.5t132 -72.5t88 -118.5t32 -160.5v-768q0 -96 -30.5 -168t-86 -120t-131.5 -71.5t-168 -23.5h-278q-166 0 -271.5 89t-105.5 271z"/>
<glyph glyph-name="afii10846" horiz-adv-x="1071" unicode="ә" d="M223 281q0 -59 20.5 -111.5t59.5 -91.5t97.5 -60.5t136.5 -21.5q70 0 127 21.5t97 60.5t61.5 91t21.5 112v178h-533q-57 0 -72.5 -18.5t-15.5 -71.5v-88zM100 281v151q0 57 28 86t95 29h621v170q0 61 -20.5 110.5t-55.5 82t-81 50t-99 17.5h-379q-51 0 -70.5 17.5 t-19.5 56.5v14h469q86 0 155.5 -24.5t118.5 -69.5t77 -109.5t28 -144.5v-393q0 -106 -35 -184.5t-93.5 -129.5t-136 -75.5t-165.5 -24.5q-94 0 -174 24.5t-138.5 72.5t-91.5 117t-33 157z"/>
<glyph glyph-name="uni04DA" horiz-adv-x="1333" unicode="Ӛ" d="M737 1657v145h131v-145h-131zM401 1657v145h134v-145h-134zM246 299q0 -55 16.5 -105.5t49 -87t80.5 -58t112 -21.5h270q74 0 130.5 22.5t94 62.5t56 93t18.5 114v355h-739q-43 0 -65.5 -16.5t-22.5 -69.5v-289zM123 299v340q0 61 25.5 92t91.5 31h833v328 q0 70 -22.5 123t-62.5 89.5t-95 56t-119 19.5h-514q-49 0 -67.5 16.5t-18.5 53.5v18h604q88 0 164 -24.5t132 -72.5t88 -118.5t32 -160.5v-768q0 -96 -30.5 -168t-86 -120t-131.5 -71.5t-168 -23.5h-278q-166 0 -271.5 89t-105.5 271z"/>
<glyph glyph-name="uni04DB" horiz-adv-x="1071" unicode="ӛ" d="M604 1247v146h131v-146h-131zM268 1247v146h133v-146h-133zM223 281q0 -59 20.5 -111.5t59.5 -91.5t97.5 -60.5t136.5 -21.5q70 0 127 21.5t97 60.5t61.5 91t21.5 112v178h-533q-57 0 -72.5 -18.5t-15.5 -71.5v-88zM100 281v151q0 57 28 86t95 29h621v170 q0 61 -20.5 110.5t-55.5 82t-81 50t-99 17.5h-379q-51 0 -70.5 17.5t-19.5 56.5v14h469q86 0 155.5 -24.5t118.5 -69.5t77 -109.5t28 -144.5v-393q0 -106 -35 -184.5t-93.5 -129.5t-136 -75.5t-165.5 -24.5q-94 0 -174 24.5t-138.5 72.5t-91.5 117t-33 157z"/>
<glyph glyph-name="uni04DC" horiz-adv-x="1820" unicode="Ӝ" d="M1004 1657v145h131v-145h-131zM668 1657v145h133v-145h-133zM115 1454v12h69q74 0 128.5 -18t95.5 -54t70.5 -88.5t56.5 -121.5q49 -133 122.5 -231.5t186.5 -186.5v700h123v-704q106 84 180 185.5t125 236.5q27 70 57.5 122t71.5 88t94 54t127 18h72v-12 q0 -35 -13.5 -53.5t-60.5 -18.5q-166 0 -250 -235q-20 -53 -50 -109.5t-66.5 -112t-80 -105.5t-92.5 -87l590 -794h-133l-571 776v-776h-47q-37 0 -56.5 22.5t-19.5 63.5v684l-576 -770h-133l598 794q-49 37 -94 86t-84 104.5t-68.5 113t-48.5 110.5q-84 235 -251 235h-1 q-47 0 -59 18.5t-12 53.5z"/>
<glyph glyph-name="uni04DD" horiz-adv-x="1456" unicode="ӝ" d="M813 1247v146h131v-146h-131zM477 1247v146h133v-146h-133zM33 1053v12h71q55 0 99.5 -10.5t79 -38t64.5 -73.5t56 -118q20 -53 42 -95t51.5 -77t69.5 -61.5t98 -46.5v520h122v-520q55 16 95.5 41.5t70 61.5t51 80t41.5 97q27 70 55.5 117t64.5 73.5t80 38t99 11.5h72 v-12q0 -35 -13 -55.5t-61 -20.5q-27 0 -52 -7t-51 -28.5t-50.5 -60.5t-48.5 -101q-14 -37 -33 -75.5t-46.5 -76.5t-65.5 -73t-91 -63l457 -553h-127l-447 538v-538h-53q-70 0 -69 77v463l-451 -540h-125l457 553q-104 57 -154.5 133.5t-81.5 154.5q-25 61 -49 100.5t-50 61 t-51.5 28.5t-52.5 7q-47 0 -60 20.5t-13 55.5z"/>
<glyph glyph-name="uni04DE" horiz-adv-x="1009" unicode="Ӟ" d="M575 1657v145h132v-145h-132zM240 1657v145h133v-145h-133zM66 12q0 23 14 36t47 7q63 -10 118.5 -17t129.5 -7q98 0 177 12t135 47t87 98.5t31 167.5q0 94 -23.5 158t-71.5 102.5t-119 54t-163 15.5h-246q-18 0 -18 14v74h264q178 0 257 76t79 260q0 74 -25.5 124 t-74 83t-114 47t-144.5 14q-29 0 -70 -4t-84 -11t-84 -16.5t-68 -19.5v92q76 20 157 33.5t151 13.5q96 0 184 -19.5t153.5 -62.5t103.5 -110t38 -159v-9q-2 -133 -60.5 -233.5t-169.5 -141.5q74 -20 125.5 -57t83 -85t46 -104.5t14.5 -115.5q0 -129 -38 -213t-109.5 -132.5 t-174 -66.5t-231.5 -18q-86 0 -159 10t-148 22v41z"/>
<glyph glyph-name="uni04DF" horiz-adv-x="956" unicode="ӟ" d="M557 1247v146h131v-146h-131zM221 1247v146h133v-146h-133zM72 -23q0 23 16 35.5t45 7.5q59 -8 114.5 -14t135.5 -6q88 0 155.5 11.5t113.5 39t69.5 74.5t23.5 119q0 137 -92 187t-282 50h-199v86h199q88 0 150.5 10.5t102.5 38t59 72.5t19 117q0 104 -73.5 152.5 t-231.5 48.5q-98 0 -165.5 -8.5t-137.5 -24.5v78q74 18 146.5 30.5t158.5 12.5q74 0 151 -11.5t138.5 -43t98 -87.5t36.5 -142v-9q-4 -111 -50 -176.5t-118 -96.5q37 -8 75 -30.5t67.5 -58.5t48 -85t18.5 -108q-2 -104 -32.5 -171t-92 -105t-140 -49.5t-164.5 -11.5 q-26 0 -54 1q-29 0 -65.5 3t-78.5 7l-84 8t-81 11v38z"/>
<glyph glyph-name="uni04E0" horiz-adv-x="1116" unicode="Ӡ" d="M57 -18q0 23 14.5 35t47.5 6q61 -8 133 -13.5t151 -5.5q111 0 203 16.5t158.5 58.5t104.5 111.5t38 176.5q0 98 -19.5 170.5t-66.5 120t-126 71t-195 23.5h-111q-18 0 -18 14v88l469 524h-760v88h905v-88l-481 -536q18 2 18 1t21 -1q150 0 244 -37t147 -100.5 t72.5 -146.5t19.5 -177q0 -125 -44 -215t-126 -148.5t-189 -83.5t-229 -25q-18 0 -37 1q-43 0 -82.5 2t-79.5 5t-84 7t-98 13v45z"/>
<glyph glyph-name="uni04E1" horiz-adv-x="1015" unicode="ӡ" d="M78 -25q0 23 14 36.5t47 6.5q109 -20 226 -20q88 0 166.5 12.5t136 43t91.5 81.5t34 131q0 53 -17.5 97.5t-55.5 76t-101.5 49t-155.5 17.5h-115q-10 0 -19.5 3t-9.5 11v74l408 383h-649v88h788v-88l-415 -389h43q115 0 194.5 -24.5t129.5 -66.5t72.5 -97.5t22.5 -118.5 q0 -100 -38.5 -172t-111.5 -117t-166 -64t-195 -19q-20 0 -40 1q-43 0 -74.5 2t-61 5t-63.5 8t-85 14v36z"/>
<glyph glyph-name="uni04E2" horiz-adv-x="1337" unicode="Ӣ" d="M369 1645v81h620v-81h-620zM154 0v1466h116v-1431l709 1431h201v-1527h-41q-39 0 -57.5 23.5t-18.5 62.5v1345l-649 -1343q-18 -39 -47 -63.5t-74 -24.5h-70q-70 0 -69 61z"/>
<glyph glyph-name="uni04E3" horiz-adv-x="1245" unicode="ӣ" d="M311 1235v82h621v-82h-621zM152 0v1065h122v-1026q154 248 321 513t320 513h181v-1126h-41q-39 0 -59.5 23.5t-20.5 64.5v929l-578 -927q-23 -37 -49 -63.5t-69 -26.5h-54q-74 0 -73 61z"/>
<glyph glyph-name="uni04E4" horiz-adv-x="1337" unicode="Ӥ" d="M799 1657v145h131v-145h-131zM463 1657v145h133v-145h-133zM154 0v1466h116v-1431l709 1431h201v-1527h-41q-39 0 -57.5 23.5t-18.5 62.5v1345l-649 -1343q-18 -39 -47 -63.5t-74 -24.5h-70q-70 0 -69 61z"/>
<glyph glyph-name="uni04E5" horiz-adv-x="1245" unicode="ӥ" d="M739 1247v146h131v-146h-131zM403 1247v146h134v-146h-134zM152 0v1065h122v-1026q154 248 321 513t320 513h181v-1126h-41q-39 0 -59.5 23.5t-20.5 64.5v929l-578 -927q-23 -37 -49 -63.5t-69 -26.5h-54q-74 0 -73 61z"/>
<glyph glyph-name="uni04E6" horiz-adv-x="1400" unicode="Ӧ" d="M760 1657v145h131v-145h-131zM424 1657v145h133v-145h-133zM244 549q0 -268 112.5 -405.5t339.5 -137.5q231 0 344 137.5t113 407.5v303q0 117 -28.5 216t-85 173t-142.5 115t-201 41q-113 0 -197.5 -41t-141 -115t-85 -174t-28.5 -217v-303zM121 551v301q0 313 141 478 t434 165q297 0 438.5 -166t141.5 -477v-303q0 -311 -141.5 -475t-438.5 -164q-293 0 -434 164t-141 477z"/>
<glyph glyph-name="uni04E7" horiz-adv-x="1146" unicode="ӧ" d="M655 1247v146h131v-146h-131zM319 1247v146h134v-146h-134zM246 346q0 -172 84 -261t241 -89q156 0 241 87t85 263v311q0 72 -18.5 135.5t-57.5 110.5t-100.5 75t-149.5 28q-154 0 -239.5 -88.5t-85.5 -260.5v-311zM123 346v311q0 227 117.5 332t330.5 105 q217 0 333 -104.5t116 -332.5v-311q0 -227 -113.5 -331.5t-335.5 -104.5q-215 0 -331.5 103.5t-116.5 332.5z"/>
<glyph glyph-name="uni04E8" horiz-adv-x="1404" unicode="Ө" d="M244 748h909v106q0 117 -28.5 216t-85 173t-142.5 115t-201 41q-113 0 -197.5 -41t-141 -115t-85 -174t-28.5 -217v-104zM244 549q0 -268 112.5 -405.5t339.5 -137.5q231 0 344 137.5t113 407.5v111h-909v-113zM121 551v301q0 313 141 478t434 165q297 0 438.5 -166 t141.5 -477v-303q0 -311 -141.5 -475t-438.5 -164q-293 0 -434 164t-141 477z"/>
<glyph glyph-name="uni04E9" horiz-adv-x="1132" unicode="ө" d="M240 549h651v108q0 72 -18.5 135.5t-57.5 110.5t-100.5 75t-149.5 28q-154 0 -239.5 -88.5t-85.5 -260.5v-108zM240 346q0 -172 83.5 -261t241.5 -89q156 0 241 87t85 263v117h-651v-117zM117 346v311q0 227 117.5 332t330.5 105q217 0 333 -104.5t116 -332.5v-311 q0 -227 -114 -331.5t-335 -104.5q-215 0 -331.5 103.5t-116.5 332.5z"/>
<glyph glyph-name="uni04EA" horiz-adv-x="1404" unicode="Ӫ" d="M788 1657v145h132v-145h-132zM453 1657v145h133v-145h-133zM244 748h909v106q0 117 -28.5 216t-85 173t-142.5 115t-201 41q-113 0 -197.5 -41t-141 -115t-85 -174t-28.5 -217v-104zM244 549q0 -268 112.5 -405.5t339.5 -137.5q231 0 344 137.5t113 407.5v111h-909v-113z M121 551v301q0 313 141 478t434 165q297 0 438.5 -166t141.5 -477v-303q0 -311 -141.5 -475t-438.5 -164q-293 0 -434 164t-141 477z"/>
<glyph glyph-name="uni04EB" horiz-adv-x="1132" unicode="ӫ" d="M662 1247v146h131v-146h-131zM326 1247v146h133v-146h-133zM240 549h651v108q0 72 -18.5 135.5t-57.5 110.5t-100.5 75t-149.5 28q-154 0 -239.5 -88.5t-85.5 -260.5v-108zM240 346q0 -172 83.5 -261t241.5 -89q156 0 241 87t85 263v117h-651v-117zM117 346v311 q0 227 117.5 332t330.5 105q217 0 333 -104.5t116 -332.5v-311q0 -227 -114 -331.5t-335 -104.5q-215 0 -331.5 103.5t-116.5 332.5z"/>
<glyph glyph-name="uni04EC" horiz-adv-x="1142" unicode="Ӭ" d="M618 1657v145h132v-145h-132zM283 1657v145h133v-145h-133zM70 4v23h542q70 0 122 24.5t87 65.5t52.5 96t17.5 115v338h-619q-45 0 -57 18t-12 47v19h688v321q0 307 -326 307h-379q-61 0 -77.5 19.5t-16.5 48.5v20h479q209 0 323 -100t114 -266v-787q0 -84 -29 -152.5 t-80 -117.5t-122.5 -76.5t-155.5 -27.5h-455q-61 0 -78.5 19t-17.5 46z"/>
<glyph glyph-name="uni04ED" horiz-adv-x="978" unicode="ӭ" d="M551 1247v146h131v-146h-131zM215 1247v146h133v-146h-133zM66 4v23h376q139 0 212 76.5t73 201.5v154h-479q-47 0 -59.5 20.5t-12.5 48.5v17h551v151q0 137 -72.5 209t-212.5 72h-278q-59 0 -74.5 21.5t-15.5 50.5v16h368q90 0 165 -26.5t128 -75t83 -116t30 -151.5 v-393q0 -84 -30 -151.5t-83 -114.5t-128 -72.5t-165 -25.5h-280q-63 0 -79.5 19t-16.5 46z"/>
<glyph glyph-name="uni04EE" horiz-adv-x="1239" unicode="Ӯ" d="M305 1645v81h621v-81h-621zM113 766v698h118v-696q0 -254 236 -254q61 0 131 3t137.5 7t129 11.5t104.5 17.5v911h116v-1249q0 -119 -74.5 -197.5t-248.5 -78.5h-592v20q0 37 19.5 52.5t66.5 15.5h506q61 0 101 14t63.5 38.5t33 59.5t9.5 78v252q-51 -8 -119 -15.5 t-138.5 -13.5t-137 -9t-115.5 -3q-170 0 -258 88t-88 250z"/>
<glyph glyph-name="uni04EF" horiz-adv-x="1114" unicode="ӯ" d="M244 1235v82h620v-82h-620zM131 324v741h123v-737q0 -131 44.5 -195.5t157.5 -64.5h17q45 0 95 3t101.5 7t97.5 8t83 8v971h123v-1272q0 -59 -18.5 -110.5t-58.5 -90t-103.5 -60t-151.5 -21.5h-451v28q0 37 19.5 52.5t66.5 15.5h365q61 0 102 13t64.5 39t33 60.5 t9.5 77.5v205q-82 -8 -185.5 -14t-203.5 -11h-14q-161 0 -238.5 91.5t-77.5 255.5z"/>
<glyph glyph-name="uni04F0" horiz-adv-x="1239" unicode="Ӱ" d="M715 1657v145h131v-145h-131zM379 1657v145h133v-145h-133zM113 766v698h118v-696q0 -254 236 -254q61 0 131 3t137.5 7t129 11.5t104.5 17.5v911h116v-1249q0 -119 -74.5 -197.5t-248.5 -78.5h-592v20q0 37 19.5 52.5t66.5 15.5h506q61 0 101 14t63.5 38.5t33 59.5 t9.5 78v252q-51 -8 -119 -15.5t-138.5 -13.5t-137 -9t-115.5 -3q-170 0 -258 88t-88 250z"/>
<glyph glyph-name="uni04F1" horiz-adv-x="1114" unicode="ӱ" d="M672 1247v146h131v-146h-131zM336 1247v146h133v-146h-133zM131 324v741h123v-737q0 -131 44.5 -195.5t157.5 -64.5h17q45 0 95 3t101.5 7t97.5 8t83 8v971h123v-1272q0 -59 -18.5 -110.5t-58.5 -90t-103.5 -60t-151.5 -21.5h-451v28q0 37 19.5 52.5t66.5 15.5h365 q61 0 102 13t64.5 39t33 60.5t9.5 77.5v205q-82 -8 -185.5 -14t-203.5 -11h-14q-161 0 -238.5 91.5t-77.5 255.5z"/>
<glyph glyph-name="uni04F2" horiz-adv-x="1239" unicode="Ӳ" d="M614 1612l164 278h131l-174 -233q-33 -45 -96 -45h-25zM377 1612l164 278h131l-174 -233q-33 -45 -97 -45h-24zM113 766v698h118v-696q0 -254 236 -254q61 0 131 3t137.5 7t129 11.5t104.5 17.5v911h116v-1249q0 -119 -74.5 -197.5t-248.5 -78.5h-592v20q0 37 19.5 52.5 t66.5 15.5h506q61 0 101 14t63.5 38.5t33 59.5t9.5 78v252q-51 -8 -119 -15.5t-138.5 -13.5t-137 -9t-115.5 -3q-170 0 -258 88t-88 250z"/>
<glyph glyph-name="uni04F3" horiz-adv-x="1114" unicode="ӳ" d="M573 1202l164 279h131l-174 -234q-33 -45 -96 -45h-25zM336 1202l164 279h131l-174 -234q-33 -45 -97 -45h-24zM131 324v741h123v-737q0 -131 44.5 -195.5t157.5 -64.5h17q45 0 95 3t101.5 7t97.5 8t83 8v971h123v-1272q0 -59 -18.5 -110.5t-58.5 -90t-103.5 -60 t-151.5 -21.5h-451v28q0 37 19.5 52.5t66.5 15.5h365q61 0 102 13t64.5 39t33 60.5t9.5 77.5v205q-82 -8 -185.5 -14t-203.5 -11h-14q-161 0 -238.5 91.5t-77.5 255.5z"/>
<glyph glyph-name="uni04F4" horiz-adv-x="1296" unicode="Ӵ" d="M754 1657v145h131v-145h-131zM418 1657v145h133v-145h-133zM147 752v714h117v-708q0 -123 63.5 -178.5t172.5 -55.5h516v942h117v-1527h-48q-35 0 -52 17t-17 58v422h-516q-180 0 -266.5 79t-86.5 237z"/>
<glyph glyph-name="uni04F5" horiz-adv-x="1200" unicode="ӵ" d="M688 1247v146h131v-146h-131zM352 1247v146h133v-146h-133zM143 657v408h121v-406q0 -129 64.5 -183t175.5 -54h418v643h120v-1126h-49q-35 0 -53 16t-18 61v318h-418q-360 0 -361 323z"/>
<glyph glyph-name="uni04F6" horiz-adv-x="1150" unicode="Ӷ" d="M160 18v1448h958v-14q0 -31 -16.5 -52.5t-65.5 -21.5h-753v-1351h116v-437h-39q-35 0 -57 21.5t-22 64.5v263h-48q-41 0 -57 17t-16 62z"/>
<glyph glyph-name="uni04F7" horiz-adv-x="956" unicode="ӷ" d="M156 18v1047h733v-16q0 -31 -15.5 -51.5t-66.5 -20.5h-531v-950h119v-437h-41q-35 0 -57.5 21.5t-22.5 64.5v263h-47q-41 0 -56 17t-15 62z"/>
<glyph glyph-name="uni04F8" horiz-adv-x="1695" unicode="Ӹ" d="M1417 14v1452h117v-1527h-47q-35 0 -52.5 17t-17.5 58zM913 1657v145h131v-145h-131zM578 1657v145h133v-145h-133zM268 27h461q80 0 138.5 21.5t97.5 59t58 89t19 108.5v105q0 57 -17 109t-55 91t-97.5 61.5t-141.5 22.5h-463v-667zM152 -61v1527h116v-684h465 q92 0 170 -17t135.5 -58t89 -106.5t31.5 -162.5v-145q0 -96 -36 -163t-95 -110t-136 -62t-161 -19h-579z"/>
<glyph glyph-name="uni04F9" horiz-adv-x="1488" unicode="ӹ" d="M1219 16v1049h120v-1126h-49q-39 0 -55 16t-16 61zM817 1247v146h131v-146h-131zM481 1247v146h133v-146h-133zM268 27h338q166 0 243 73.5t77 190.5q0 57 -17.5 105t-56.5 83t-98.5 54.5t-145.5 19.5h-340v-526zM147 -61v1126h121v-424h344q94 0 174 -15.5t138.5 -52 t91.5 -100t33 -160.5v-32q0 -96 -36 -162t-97.5 -106t-141.5 -57t-166 -17h-461z"/>
<glyph glyph-name="uni04FA" horiz-adv-x="1271" unicode="Ӻ" d="M51 700v86h225v680h959v-14q0 -31 -17.5 -52.5t-66.5 -21.5h-754v-592h508v-18q0 -29 -12 -48.5t-59 -19.5h-437v-673h97v-232q0 -100 -62.5 -159.5t-191.5 -59.5q-35 0 -69 5t-75 18v79q41 -10 75 -12t67 -2q92 0 123.5 41t31.5 117v117h-45q-41 0 -56.5 17t-15.5 62 v682h-225z"/>
<glyph glyph-name="uni04FB" d="M35 449v86h221v530h735v-16q0 -31 -15 -51.5t-67 -20.5h-532v-442h389v-19q0 -29 -13.5 -48t-58.5 -19h-317v-422h94v-232q0 -100 -62.5 -159.5t-191.5 -59.5q-35 0 -69.5 5t-75.5 18v79q41 -10 75.5 -12t67.5 -2q92 0 124 41t32 117v117h-43q-41 0 -56.5 17t-15.5 62 v431h-221z" unicode="ӻ"/>
<glyph glyph-name="uni04FC" horiz-adv-x="1329" unicode="Ӽ" d="M61 -61l527 768l-520 759h131l450 -661l453 661h131l-518 -759l456 -654q113 -160 113 -268q0 -106 -71.5 -176t-245.5 -70q-33 0 -61.5 3t-61.5 16v86q35 -10 61.5 -13.5t59.5 -3.5q39 0 73.5 10.5t62 30t44 46t16.5 59.5q0 59 -21.5 103t-66.5 110l-424 614l-456 -661 h-132z"/>
<glyph glyph-name="uni04FD" horiz-adv-x="1112" unicode="ӽ" d="M63 -61l416 563l-405 563h131l336 -481l336 481h131l-404 -563l309 -420q70 -96 114 -170t44 -131q0 -109 -75.5 -175.5t-235.5 -66.5q-31 0 -56.5 4t-66.5 15v80q59 -14 121 -15q39 0 74.5 9.5t63.5 26.5t44 45t16 65q0 82 -65 172l-348 491l-353 -493h-127z"/>
<glyph glyph-name="uni04FE" horiz-adv-x="1269" unicode="Ӿ" d="M61 -61l502 745h-350v86h324l-465 696h129l438 -665l438 665h129l-461 -696h332v-18q0 -29 -13 -48.5t-58 -19.5h-287l498 -745h-134l-444 665l-442 -665h-136z"/>
<glyph glyph-name="uni2002" horiz-adv-x="945" unicode=" "/>
<glyph glyph-name="uni2003" horiz-adv-x="1890" unicode=" "/>
<glyph glyph-name="uni2009" horiz-adv-x="378" unicode=" "/>
<glyph glyph-name="endash" horiz-adv-x="1292" unicode="–" d="M135 625v94h1024v-94h-1024z"/>
<glyph glyph-name="emdash" horiz-adv-x="2316" unicode="—" d="M135 625v94h2048v-94h-2048z"/>
<glyph glyph-name="quoteleft" horiz-adv-x="661" unicode="‘" d="M211 1106v205q0 102 46 178t132 115l41 -56q-51 -31 -78.5 -75t-27.5 -103v-72h118v-192h-231z"/>
<glyph glyph-name="quotedblleft" horiz-adv-x="1003" unicode="“" d="M590 1106v205q0 102 47 178t131 115l41 -56q-49 -31 -78 -75t-29 -103v-72h121v-192h-233zM199 1106v205q0 102 47 178t131 115l43 -56q-51 -31 -79 -75t-28 -103v-72h119v-192h-233z"/>
<glyph glyph-name="quotedblright" horiz-adv-x="1003" unicode="”" d="M592 1407v195h233v-207q0 -100 -47 -177t-131 -114l-43 53q51 31 79 75t28 103v72h-119zM201 1407v195h233v-207q0 -100 -47 -177t-131 -114l-41 53q49 31 78 75t29 103v72h-121z"/>
<glyph glyph-name="ellipsis" horiz-adv-x="921" unicode="…" d="M678 668v163h145v-163h-145zM387 668v163h145v-163h-145zM98 668v163h146v-163h-146z"/>
<glyph glyph-name="Euro" horiz-adv-x="1884" unicode="€" d="M266 422v86h307v385h-307v86h307v121q0 176 114 271t323 95h479v-22q0 -29 -16.5 -47.5t-75.5 -18.5h-381q-322 0 -322 -307v-92h414v-86h-414v-385h414v-86h-414v-94q0 -59 17.5 -114.5t51.5 -96.5t85 -65.5t121 -24.5h542v-23q0 -27 -17 -46t-79 -19h-454 q-84 0 -156 25.5t-123 73.5t-80 117.5t-29 157.5v109h-307z"/>
<glyph glyph-name="trademark" horiz-adv-x="1884" unicode="™" d="M940 731v735h123l301 -487q8 -12 19.5 -18.5t25.5 16.5l301 489h121v-815h-43q-37 0 -57.5 23.5t-20.5 62.5v529l-227 -348q-18 -29 -44 -45.5t-53 -16.5t-50 16.5t-42 45.5l-233 348v-615h-47q-35 0 -54.5 25.5t-19.5 54.5zM57 1372v94h721v-26q0 -37 -13.5 -52.5 t-62.5 -15.5h-225v-721h-45q-35 0 -56.5 20.5t-21.5 61.5v639h-297z"/>
</font>
</defs>
</svg>
